<svg xmlns="http://www.w3.org/2000/svg" viewBox="0 0 60 75" x="0px" y="0px"><title>002 - Fine Grained</title><polygon points="23 27.817 19 30.35 19 35.131 23 32.465 23 27.817"></polygon><polygon points="28.197 37 24 34.202 19.803 37 24 39.798 28.197 37"></polygon><polygon points="22.32 25.88 18 23 13.681 25.88 18 28.616 22.32 25.88"></polygon><polygon points="11 41.535 7 38.873 7 43.465 11 46.131 11 41.535"></polygon><polygon points="17 30.35 13 27.816 13 32.465 17 35.131 17 30.35"></polygon><polygon points="25 32.465 29 35.131 29 30.349 25 27.817 25 32.465"></polygon><polygon points="42 28.616 46.319 25.88 42 23 37.68 25.88 42 28.616"></polygon><polygon points="43 35.131 47 32.465 47 27.816 43 30.35 43 35.131"></polygon><polygon points="49 46.131 53 43.465 53 38.873 49 41.535 49 46.131"></polygon><polygon points="40.197 37 36 34.202 31.803 37 36 39.798 40.197 37"></polygon><polygon points="34.995 4.849 30.004 1.996 25.006 4.849 30 7.699 34.995 4.849"></polygon><polygon points="37 32.465 41 35.131 41 30.35 37 27.817 37 32.465"></polygon><polygon points="41 52.535 37 49.868 37 54.667 41 57.333 41 52.535"></polygon><polygon points="16.197 37 12 34.202 7.798 37.003 12 39.799 16.197 37"></polygon><polygon points="48 39.799 52.202 37.003 48 34.202 43.803 37 48 39.799"></polygon><polygon points="13 54.665 17 57.333 17 52.535 13 49.868 13 54.665"></polygon><polygon points="25 46.131 29 43.465 29 38.868 25 41.535 25 46.131"></polygon><polygon points="34.197 48 30 45.202 25.803 48 30 50.798 34.197 48"></polygon><polygon points="35 49.868 31 52.535 31 57.357 35 54.669 35 49.868"></polygon><polygon points="29 52.535 25 49.868 25 54.48 29 57.296 29 52.535"></polygon><polygon points="43 57.333 47 54.667 47 49.868 43 52.535 43 57.333"></polygon><polygon points="37.803 48 42 50.798 46.197 48 42 45.202 37.803 48"></polygon><polygon points="47 41.535 43 38.868 43 43.465 47 46.131 47 41.535"></polygon><polygon points="23 49.868 19 52.535 19 57.301 23 54.481 23 49.868"></polygon><polygon points="35 41.535 31 38.868 31 43.465 35 46.131 35 41.535"></polygon><polygon points="23 41.535 19 38.868 19 43.465 23 46.131 23 41.535"></polygon><polygon points="17 38.868 13 41.535 13 46.131 17 43.465 17 38.868"></polygon><polygon points="37 41.535 37 46.131 41 43.465 41 38.868 37 41.535"></polygon><polygon points="35 32.465 35 27.817 31 30.349 31 35.131 35 32.465"></polygon><polygon points="25.68 25.88 30 28.615 34.32 25.88 30 23 25.68 25.88"></polygon><polygon points="22.197 48 18 45.202 13.803 48 18 50.798 22.197 48"></polygon><path d="M24.293,21.707a1,1,0,0,0,1.414,0l2-2a1,1,0,0,0-1.414-1.414L26,18.586V13.717l3,1.717v-6L24,6.576l0,6v6.014l-.293-.293a1,1,0,0,0-1.414,1.414Z"></path><path d="M31,15.431l3-1.713v4.868l-.293-.293a1,1,0,0,0-1.414,1.414l2,2a1,1,0,0,0,1.414,0l2-2a1,1,0,0,0-1.414-1.414L36,18.586v-6.01l0,0,0-6L31,9.431Z"></path><text x="0" y="75" fill="#000000" font-size="5px" font-weight="bold" font-family="'Helvetica Neue', Helvetica, Arial-Unicode, Arial, Sans-serif">Created by Juicy Fish</text><text x="0" y="80" fill="#000000" font-size="5px" font-weight="bold" font-family="'Helvetica Neue', Helvetica, Arial-Unicode, Arial, Sans-serif">from the Noun Project</text></svg>