<svg xmlns="http://www.w3.org/2000/svg" viewBox="0 0 24 24" id="postman"><path d="M12.024 24.501c-.536 0-1.076-.034-1.616-.104-6.834-.878-11.682-7.153-10.805-13.988C.48 3.574 6.755-1.267 13.591-.397c6.836.879 11.684 7.153 10.806 13.988a12.409 12.409 0 0 1-4.755 8.3 12.41 12.41 0 0 1-7.618 2.61zM11.993.5C6.297.5 1.338 4.742.595 10.536c-.807 6.288 3.653 12.062 9.941 12.869a11.43 11.43 0 0 0 8.495-2.306 11.418 11.418 0 0 0 4.374-7.636c.808-6.288-3.652-12.062-9.941-12.869A11.636 11.636 0 0 0 11.993.5z"></path><path d="M8.05 19h-.008l-2.061-.019a.53.53 0 0 1-.173-.032.862.862 0 0 1-.516-.283c-.208-.237-.292-.459-.292-.69 0-.035.004-.077.011-.111l.039-.184a.51.51 0 0 1 .032-.098.95.95 0 0 1 .133-.219.491.491 0 0 1 .074-.099l.952-.973.009-.011 2.574-2.629c-.21-.052-.429-.156-.548-.353-.239-.393-.117-.878.363-1.438.275-.333 3.384-3.354 4.118-3.925.749-.573 1.352-.929 2.049-.936h.02a2.08 2.08 0 0 1 1.605.726c.429.499.643 1.218.545 1.831-.157.986-.763 1.842-1.334 2.549-.679.828-1.54 1.686-2.37 2.489a.735.735 0 0 1-.103.083.61.61 0 0 1-.075.08 19.691 19.691 0 0 1-3.993 2.813l-.017.393a.464.464 0 0 1-.007.064.924.924 0 0 1-.258.582l-.106.11a.935.935 0 0 1-.663.28zm-1.936-1.018L8.051 18l.048-.078-.013-.001.029-.68a.499.499 0 0 1 .269-.422 18.81 18.81 0 0 0 4.042-2.804.44.44 0 0 1 .17-.159c.791-.763 1.627-1.596 2.272-2.383.69-.854 1.027-1.475 1.123-2.074.042-.266-.039-.699-.316-1.021A1.075 1.075 0 0 0 14.827 8h-.012c-.366.003-.758.201-1.447.729-.7.543-3.719 3.49-3.941 3.75-.076.09-.131.16-.17.217.21-.024.811-.128.811-.128a.5.5 0 0 1 .369.904 1.747 1.747 0 0 0-.229.198l-3.226 3.295a.134.134 0 0 1-.02.021l-.875.894a.473.473 0 0 1-.066.09.577.577 0 0 1 .093.012zM18 8c-1.103 0-2-.897-2-2s.897-2 2-2 2 .897 2 2-.897 2-2 2zm0-3a1.001 1.001 0 0 0 0 2 1.001 1.001 0 0 0 0-2z"></path><path d="M18.82 7.755a.505.505 0 0 1-.333-.126l-1.095-.974a.502.502 0 0 1-.025-.723l1.322-1.354a.5.5 0 1 1 .716.699l-.956.979.704.625a.5.5 0 0 1-.333.874zm-8.67 5.807a.5.5 0 0 1-.088-.992l1.059-.189 4.543-4.699a.5.5 0 0 1 .719.695l-4.656 4.815a.508.508 0 0 1-.271.145l-1.218.218a.665.665 0 0 1-.088.007zm-1.536 4.201a.502.502 0 0 1-.354-.146l-1.326-1.325a.5.5 0 0 1 .707-.707l1.326 1.325a.5.5 0 0 1-.353.853z"></path></svg>