<svg xmlns="http://www.w3.org/2000/svg" width="900.000000pt" height="1242.000000pt" viewBox="0 0 900.000000 1242.000000" preserveAspectRatio="xMidYMid meet"><g transform="translate(0.000000,1242.000000) scale(0.100000,-0.100000)" fill="#ffffff" stroke="none"><path d="M4466 11995 c-11 -8 -27 -15 -36 -15 -16 0 -79 -50 -142 -112 -20 -21 -41 -38 -46 -38 -9 0 -82 -80 -82 -91 0 -3 -29 -21 -65 -38 -36 -18 -72 -43 -81 -56 -8 -12 -23 -25 -34 -28 -10 -3 -31 -23 -47 -46 -15 -22 -33 -40 -40 -41 -6 0 -32 -20 -57 -45 -26 -25 -50 -45 -54 -45 -4 0 -19 -17 -32 -38 -25 -40 -64 -71 -120 -98 -19 -9 -47 -23 -62 -30 -14 -8 -33 -14 -40 -14 -8 0 -42 -14 -75 -30 -59 -29 -120 -85 -159 -145 -36 -56 -97 -105 -128 -105 -8 0 -35 -13 -59 -30 -25 -16 -48 -30 -52 -30 -4 0 -18 -9 -32 -20 -14 -11 -34 -20 -44 -20 -10 0 -26 -11 -34 -24 -9 -13 -34 -31 -56 -40 -21 -9 -39 -20 -39 -25 0 -4 -19 -21 -42 -37 -24 -15 -52 -36 -63 -45 -11 -10 -41 -36 -66 -58 -25 -23 -50 -41 -54 -41 -4 0 -28 -20 -54 -45 -90 -89 -100 -96 -167 -115 -37 -11 -74 -26 -83 -33 -9 -8 -49 -27 -89 -42 -40 -16 -75 -32 -78 -37 -3 -4 -13 -8 -22 -8 -9 0 -25 -11 -37 -24 -20 -23 -139 -76 -173 -76 -52 -1 -163 -64 -199 -115 -12 -16 -32 -50 -43 -75 -12 -25 -26 -52 -31 -60 -5 -8 -13 -25 -19 -37 -5 -13 -16 -23 -24 -23 -7 0 -19 -7 -26 -15 -7 -9 -35 -25 -62 -37 -26 -11 -48 -24 -48 -29 0 -4 -8 -10 -18 -13 -21 -7 -99 -105 -130 -164 -22 -43 -58 -93 -130 -183 -17 -23 -32 -45 -32 -49 0 -11 -67 -94 -110 -136 -43 -43 -100 -134 -100 -161 0 -12 -4 -25 -10 -28 -5 -3 -10 -21 -10 -39 0 -19 -7 -39 -15 -46 -8 -7 -17 -28 -21 -49 -4 -20 -13 -45 -20 -56 -8 -11 -14 -29 -14 -40 0 -11 -7 -29 -15 -39 -8 -11 -15 -31 -15 -45 0 -14 -9 -39 -19 -54 -10 -16 -17 -37 -14 -47 3 -10 -4 -24 -16 -32 -11 -8 -28 -30 -36 -49 -9 -19 -23 -47 -32 -63 -10 -19 -17 -65 -19 -135 -3 -58 -6 -131 -9 -161 -9 -116 -12 -424 -3 -464 4 -22 15 -84 23 -136 9 -52 20 -109 26 -127 5 -17 12 -56 16 -85 3 -29 11 -60 18 -68 12 -14 26 -83 26 -123 0 -53 41 -192 71 -237 8 -14 21 -43 28 -65 7 -22 16 -44 21 -49 5 -6 9 -20 9 -32 0 -13 4 -26 10 -29 5 -3 10 -17 10 -30 0 -13 11 -46 25 -73 14 -28 25 -55 25 -61 0 -6 12 -35 26 -64 36 -73 56 -153 48 -194 -4 -19 -24 -56 -45 -81 -21 -26 -50 -62 -65 -80 -15 -18 -33 -51 -40 -72 -8 -22 -18 -48 -23 -58 -19 -37 -30 -68 -36 -102 -26 -151 -27 -167 -22 -530 0 -36 -4 -85 -11 -110 -6 -25 -15 -63 -21 -85 -15 -61 -24 -467 -12 -565 19 -148 23 -168 54 -225 6 -11 20 -38 30 -60 11 -22 30 -52 42 -67 37 -44 41 -83 13 -121 -12 -18 -34 -54 -47 -82 -13 -27 -33 -68 -44 -89 -11 -22 -24 -56 -28 -75 -4 -20 -13 -56 -19 -81 -10 -39 -18 -88 -20 -125 -3 -56 15 -188 31 -224 10 -24 19 -52 19 -62 0 -10 5 -21 10 -24 6 -3 10 -19 10 -34 0 -15 9 -36 20 -46 11 -10 20 -23 20 -29 0 -7 9 -29 20 -51 30 -58 23 -109 -21 -160 -31 -36 -65 -98 -104 -191 -9 -20 -19 -71 -22 -114 -5 -68 -3 -84 16 -120 11 -22 21 -48 21 -56 0 -24 53 -88 161 -196 131 -129 166 -212 121 -279 -9 -15 -74 -82 -144 -150 -124 -122 -213 -236 -224 -288 -3 -14 -14 -44 -24 -66 -32 -66 -55 -235 -32 -235 4 0 8 -28 10 -63 2 -34 10 -75 18 -91 7 -16 14 -40 14 -53 0 -13 5 -33 10 -44 15 -27 -10 -96 -49 -138 -16 -17 -33 -42 -37 -54 -3 -12 -12 -29 -18 -37 -44 -55 -43 -237 1 -323 47 -90 115 -160 196 -200 99 -49 131 -58 242 -72 39 -4 48 -5 100 -4 14 0 31 -1 38 -1 45 -3 173 13 195 24 15 7 44 16 64 20 36 7 86 26 118 45 8 6 46 25 85 43 54 25 92 56 170 133 131 130 171 203 187 351 6 54 12 101 14 102 3 5 68 -15 109 -33 103 -45 369 -115 437 -115 53 0 126 -37 144 -72 8 -15 19 -28 24 -28 6 0 10 -5 10 -11 0 -14 99 -109 113 -109 6 0 19 -8 29 -17 14 -12 40 -18 99 -19 67 -3 86 1 128 21 27 14 54 25 60 25 6 0 19 4 29 9 44 22 94 33 105 22 6 -6 20 -11 31 -11 19 0 68 -14 111 -31 78 -31 336 -49 485 -33 58 6 170 28 192 38 19 9 67 -14 118 -55 19 -16 40 -29 46 -29 6 0 19 -11 28 -25 9 -14 25 -25 35 -25 10 0 24 -7 31 -15 7 -8 21 -15 31 -15 10 0 21 -4 24 -10 3 -5 28 -10 54 -10 49 0 157 48 167 75 3 7 20 19 37 26 18 7 46 24 62 39 56 50 123 57 270 30 33 -6 68 -9 79 -6 10 2 28 1 40 -4 12 -4 56 -4 97 1 79 10 133 16 189 23 81 9 167 29 196 46 38 22 131 23 155 3 23 -19 118 -53 151 -53 15 0 30 -4 33 -10 13 -21 108 -11 165 18 54 26 150 117 150 141 0 7 15 18 34 26 19 8 37 19 40 23 3 5 37 12 76 16 71 6 137 19 200 39 19 6 42 11 50 12 8 1 25 7 37 13 12 7 32 12 45 12 13 0 40 9 61 20 20 11 45 20 54 20 10 0 27 7 37 15 11 8 39 15 62 15 l43 0 -4 -62 c-3 -65 8 -141 30 -193 7 -16 14 -36 16 -42 6 -20 86 -111 140 -160 8 -7 25 -24 39 -38 13 -14 30 -25 36 -25 6 0 19 -9 29 -20 25 -28 112 -76 152 -85 17 -3 37 -13 44 -21 6 -8 21 -14 32 -14 11 0 28 -6 36 -13 21 -18 107 -48 146 -51 17 -1 40 -8 52 -14 18 -10 27 -10 42 0 15 9 26 9 44 1 14 -7 30 -8 38 -2 8 4 30 6 50 3 22 -4 39 -2 43 5 4 6 22 11 39 11 44 0 126 26 159 50 15 11 33 20 40 20 26 0 158 142 158 169 0 7 9 24 20 39 14 20 21 50 26 112 5 73 3 93 -15 138 -25 62 -84 137 -123 158 -32 17 -59 54 -59 81 0 10 7 47 16 83 41 164 47 309 17 383 -7 16 -12 36 -12 46 0 9 -11 32 -25 51 -14 19 -25 38 -25 43 0 22 -178 217 -197 217 -11 0 -93 122 -93 138 0 14 -50 104 -73 129 -20 23 -19 29 13 78 11 17 33 56 50 87 17 32 34 58 39 58 5 0 26 17 47 38 22 21 47 41 56 45 9 3 25 21 34 39 9 18 30 49 45 68 16 19 29 38 29 42 0 4 5 19 12 35 16 39 21 92 16 176 -2 31 -105 245 -134 278 -8 8 -14 24 -14 35 0 23 36 84 50 84 5 0 13 12 16 28 4 15 29 61 56 102 26 41 48 85 48 96 0 12 8 39 17 60 9 22 18 57 21 79 8 69 4 225 -6 238 -5 6 -12 26 -15 42 -16 83 -30 124 -59 175 -4 8 -20 39 -34 68 -15 29 -30 55 -35 58 -5 3 -9 26 -9 51 0 40 7 56 50 115 28 38 50 78 50 91 1 12 7 33 15 47 8 14 14 40 15 58 0 18 6 47 14 65 10 25 12 86 10 262 -3 252 -6 300 -24 360 -22 75 -28 131 -24 200 3 39 5 77 4 85 0 8 0 29 1 45 1 17 1 37 0 45 -1 8 -1 29 0 45 1 17 1 36 0 43 -1 17 -2 39 -1 110 0 35 -4 71 -9 80 -4 9 -11 34 -15 55 -4 20 -20 67 -36 103 -17 36 -30 71 -30 78 0 6 -16 30 -35 51 -139 160 -143 169 -120 241 9 27 23 64 31 82 36 81 44 102 69 172 15 41 30 91 34 110 4 19 18 53 29 75 12 22 22 46 22 53 0 7 12 34 26 60 15 26 28 65 30 87 4 62 27 166 64 290 10 33 18 69 18 80 0 11 6 49 12 85 6 36 11 76 11 90 0 14 7 43 15 65 23 64 10 588 -16 634 -4 8 -4 26 1 39 6 14 5 30 -1 42 -5 10 -10 30 -10 43 0 25 -50 129 -76 158 -8 8 -14 25 -14 36 0 11 -7 34 -15 49 -8 16 -15 38 -15 49 0 11 -6 29 -13 40 -8 11 -24 50 -36 88 -12 37 -29 79 -37 95 -7 15 -14 39 -14 54 0 15 -6 40 -12 55 -16 35 -77 118 -117 158 -16 17 -60 75 -97 130 -37 55 -80 115 -96 133 -15 18 -28 39 -28 47 0 8 -16 30 -35 49 -19 20 -35 42 -35 50 0 24 -119 135 -168 157 -55 25 -122 85 -122 111 0 9 -11 29 -25 44 -14 15 -25 33 -25 40 0 15 -67 94 -110 130 -16 14 -42 27 -57 30 -15 3 -35 11 -43 19 -18 16 -134 75 -147 75 -6 0 -18 9 -28 20 -10 11 -21 20 -25 20 -7 0 -147 67 -210 100 -19 11 -48 19 -65 20 -16 0 -41 7 -55 15 -14 8 -32 17 -40 21 -38 18 -122 86 -193 157 -43 42 -84 77 -91 77 -7 0 -25 14 -42 31 -16 17 -53 45 -82 62 -30 16 -56 36 -59 43 -2 7 -21 20 -41 28 -20 9 -57 30 -82 46 -25 16 -59 37 -76 47 -17 10 -60 54 -95 97 -65 81 -150 153 -210 175 -102 40 -164 78 -236 148 -43 41 -81 78 -85 82 -4 3 -18 17 -32 31 -118 115 -170 158 -237 193 -32 16 -61 38 -65 48 -12 25 -163 159 -180 159 -7 0 -16 9 -19 20 -8 25 -78 62 -125 66 -19 2 -44 6 -55 9 -11 3 -29 -2 -39 -10z m94 -85 c25 -7 50 -27 80 -64 25 -31 54 -58 65 -62 21 -7 125 -108 125 -121 0 -5 11 -21 25 -36 20 -21 35 -27 66 -27 35 0 47 -7 89 -50 28 -27 50 -55 50 -63 0 -17 40 -53 69 -62 35 -11 126 -106 152 -160 23 -45 29 -51 65 -55 53 -8 134 -32 134 -41 0 -4 14 -10 30 -14 17 -4 30 -10 30 -15 0 -4 11 -10 23 -14 13 -3 47 -29 75 -57 48 -48 52 -55 52 -101 0 -38 4 -50 18 -54 9 -3 29 -12 44 -20 14 -8 35 -14 45 -14 31 0 105 -43 238 -138 137 -98 232 -178 318 -268 68 -72 128 -104 193 -104 12 0 25 -4 28 -9 3 -5 18 -12 33 -15 34 -8 273 -126 291 -143 7 -7 18 -13 23 -13 6 0 25 -11 42 -24 43 -31 92 -54 132 -62 54 -10 125 -89 125 -138 0 -32 46 -103 101 -158 51 -51 63 -58 98 -58 50 0 88 -30 121 -96 24 -49 92 -156 117 -184 20 -22 103 -142 141 -202 22 -35 46 -59 70 -70 40 -19 72 -65 72 -104 0 -14 7 -41 15 -61 8 -19 15 -42 15 -50 0 -8 6 -29 14 -46 8 -18 24 -54 36 -82 11 -27 25 -58 30 -67 5 -9 13 -35 16 -58 4 -22 11 -43 15 -46 5 -3 9 -19 9 -36 0 -24 12 -44 51 -85 l51 -53 -3 -88 c-1 -48 3 -118 9 -157 17 -110 20 -508 4 -528 -7 -8 -17 -46 -22 -84 -23 -171 -57 -333 -79 -372 -8 -14 -13 -53 -13 -95 1 -65 -20 -146 -38 -146 -5 0 -35 -56 -59 -110 -6 -14 -15 -43 -20 -65 -16 -62 -36 -127 -50 -160 -8 -16 -19 -43 -26 -60 -7 -16 -28 -61 -46 -99 -57 -122 -48 -201 28 -249 58 -37 163 -184 163 -229 0 -9 4 -19 9 -22 5 -3 12 -35 16 -71 3 -36 11 -67 16 -70 12 -8 12 -358 0 -370 -5 -6 -12 -37 -16 -71 -5 -48 -3 -63 9 -73 9 -8 16 -21 16 -30 0 -9 8 -29 17 -46 15 -27 17 -67 18 -352 0 -245 -3 -325 -12 -334 -7 -7 -13 -21 -13 -32 0 -20 -35 -101 -53 -124 -26 -32 -72 -73 -83 -73 -6 0 -19 -12 -29 -26 -16 -25 -16 -29 -1 -58 10 -17 24 -44 33 -61 9 -16 19 -32 23 -35 14 -9 110 -202 110 -219 0 -10 3 -21 8 -25 10 -11 34 -142 35 -196 1 -48 -19 -162 -33 -195 -5 -11 -19 -42 -30 -69 -12 -27 -26 -54 -31 -60 -43 -51 -138 -186 -143 -204 -11 -35 2 -77 37 -115 45 -48 67 -79 67 -94 0 -7 3 -13 8 -13 12 0 41 -61 48 -103 3 -20 10 -40 15 -43 12 -7 11 -74 -1 -74 -5 0 -10 -13 -10 -28 0 -48 -65 -127 -194 -237 -26 -22 -69 -77 -98 -125 -29 -47 -58 -90 -65 -95 -7 -6 -16 -27 -19 -47 -6 -34 -3 -40 42 -85 63 -62 84 -95 84 -132 0 -40 37 -110 64 -121 12 -4 40 -25 63 -46 22 -22 52 -48 65 -59 69 -61 124 -146 153 -239 19 -59 17 -186 -4 -271 -12 -48 -62 -156 -101 -220 -24 -38 -25 -84 -3 -100 13 -10 25 -8 64 12 47 25 48 25 86 8 42 -19 87 -76 98 -123 3 -18 11 -34 16 -37 12 -8 12 -110 0 -133 -5 -9 -19 -37 -31 -61 -23 -47 -111 -141 -133 -141 -6 0 -24 -6 -38 -13 -14 -8 -45 -17 -69 -21 -24 -4 -50 -12 -58 -18 -17 -14 -267 -15 -285 -1 -6 6 -29 13 -49 17 -21 4 -38 11 -38 16 0 5 -10 12 -22 16 -12 3 -28 13 -36 20 -7 8 -20 14 -28 14 -9 0 -39 8 -67 17 -116 37 -291 193 -348 310 -28 57 -31 72 -26 122 6 51 22 98 47 141 5 8 17 30 26 48 16 32 16 34 -4 55 -18 18 -25 19 -47 9 -14 -7 -36 -12 -48 -12 -13 0 -31 -6 -42 -14 -11 -7 -38 -16 -60 -20 -22 -4 -44 -11 -50 -16 -5 -4 -27 -10 -47 -14 -20 -4 -50 -13 -65 -21 -15 -8 -36 -15 -45 -15 -9 0 -19 -4 -22 -9 -3 -5 -23 -12 -43 -16 -21 -4 -43 -11 -50 -16 -6 -6 -30 -12 -54 -15 -23 -3 -52 -10 -63 -16 -12 -6 -71 -12 -133 -12 -104 -1 -113 -3 -137 -25 -14 -14 -26 -28 -26 -33 0 -11 -119 -169 -134 -180 -19 -13 -130 -9 -158 6 -15 8 -40 17 -57 21 -16 3 -35 13 -42 21 -6 8 -18 14 -25 14 -8 0 -14 4 -14 8 0 5 -17 16 -38 25 -34 15 -42 15 -82 1 -25 -8 -54 -19 -65 -24 -11 -5 -36 -12 -55 -16 -19 -3 -41 -10 -50 -15 -38 -20 -150 -32 -333 -36 -117 -2 -204 0 -210 6 -7 5 -33 12 -60 16 -26 4 -50 11 -53 16 -12 20 -61 8 -90 -22 -16 -17 -58 -50 -94 -74 -36 -24 -77 -55 -91 -69 -15 -14 -44 -34 -64 -45 l-38 -20 -37 22 c-51 30 -187 140 -211 171 -17 22 -29 26 -72 26 -29 0 -64 -7 -80 -15 -15 -8 -55 -17 -90 -21 -34 -4 -67 -11 -74 -16 -15 -12 -272 -11 -287 1 -6 5 -44 12 -84 16 -39 4 -75 11 -78 16 -3 5 -15 9 -27 9 -12 0 -35 7 -51 15 -15 8 -33 15 -40 15 -6 0 -29 9 -50 21 l-38 20 -40 -21 c-22 -11 -47 -27 -55 -35 -8 -8 -23 -15 -34 -15 -10 0 -19 -4 -19 -9 0 -5 -16 -12 -35 -15 -19 -4 -47 -13 -62 -21 -15 -8 -44 -15 -65 -15 -31 0 -43 7 -83 52 -27 29 -60 71 -74 93 -14 22 -29 42 -32 45 -3 3 -9 14 -13 25 -12 40 -60 57 -173 60 -57 2 -109 8 -116 13 -7 5 -33 13 -59 16 -26 4 -50 11 -53 15 -2 5 -22 12 -42 15 -34 6 -66 18 -125 47 -10 5 -23 9 -29 9 -5 0 -35 12 -66 28 -83 40 -93 46 -93 54 0 5 -6 8 -12 8 -7 1 -31 9 -53 20 -46 22 -104 26 -106 8 -3 -26 2 -39 29 -81 16 -23 33 -58 40 -78 24 -71 9 -222 -25 -257 -7 -7 -13 -20 -13 -28 0 -9 -42 -57 -92 -107 -81 -81 -106 -99 -198 -144 -58 -28 -121 -56 -140 -62 -136 -39 -167 -44 -273 -45 -124 -1 -224 19 -315 62 -59 28 -132 93 -132 117 0 8 -4 15 -10 15 -5 0 -12 16 -16 35 -3 19 -10 38 -15 41 -12 7 -12 121 0 128 4 3 11 27 15 54 8 63 55 122 97 122 34 0 72 34 65 58 -2 9 -8 33 -11 52 -4 19 -11 40 -15 45 -4 6 -11 26 -15 45 -4 19 -11 40 -15 45 -4 6 -11 26 -15 45 -4 19 -12 41 -18 48 -17 22 -13 212 6 247 9 17 17 36 17 42 0 17 56 120 88 163 40 53 120 131 185 179 31 24 57 49 57 56 0 6 30 42 66 79 63 64 66 69 59 104 -3 20 -12 42 -19 47 -13 10 -58 83 -75 121 -11 24 -55 70 -163 169 -79 73 -112 123 -123 187 -7 39 12 178 24 178 4 0 15 17 24 39 10 21 26 49 37 62 11 13 23 29 27 34 5 6 25 29 46 53 32 36 37 49 37 90 0 39 -7 58 -35 98 -19 27 -35 55 -35 61 0 7 -3 13 -8 13 -9 0 -38 56 -47 90 -3 14 -10 34 -15 45 -32 70 -42 228 -22 338 11 62 65 202 88 228 8 8 14 19 14 22 0 4 12 26 27 50 76 118 83 133 70 160 -6 14 -29 34 -52 46 -43 23 -101 109 -112 165 -3 17 -10 36 -15 43 -20 25 -28 304 -16 553 6 125 9 139 38 193 29 55 30 59 19 115 -15 71 -23 410 -11 425 5 7 12 40 16 74 4 35 13 75 21 90 8 16 15 36 15 46 0 9 4 17 9 17 5 0 13 12 19 28 12 34 96 129 122 137 21 7 44 64 35 87 -4 9 -2 19 4 23 6 3 11 17 11 31 0 34 -30 124 -41 124 -5 0 -9 5 -9 11 0 11 -15 47 -51 125 -10 23 -19 46 -19 53 0 6 -4 19 -9 29 -12 21 -51 151 -51 168 0 13 -31 75 -41 84 -4 3 -20 31 -37 63 -26 48 -31 69 -30 125 0 37 -6 81 -13 97 -18 42 -39 136 -51 230 -5 44 -14 88 -19 97 -5 10 -9 35 -9 55 0 21 -8 52 -17 68 -15 29 -21 100 -15 190 2 22 3 78 2 125 -1 47 4 117 10 155 6 39 11 120 10 182 l-1 111 51 51 c33 33 50 58 50 75 0 14 4 27 9 30 5 3 12 26 15 51 4 25 14 57 22 73 7 15 14 33 14 40 0 7 4 20 10 30 20 36 50 112 50 126 0 8 4 17 9 20 4 3 11 27 15 52 10 77 33 116 89 154 46 32 72 62 96 115 8 17 67 101 98 140 53 65 77 101 108 159 45 84 93 136 126 136 30 0 109 30 109 41 0 5 15 26 33 46 31 36 49 68 77 138 46 113 66 129 161 126 59 -2 71 1 110 27 24 17 64 40 89 53 25 13 47 25 50 28 8 9 133 69 158 76 12 4 22 11 22 16 0 5 10 9 23 9 12 0 35 7 51 15 15 8 38 15 50 15 29 0 58 22 148 110 42 41 102 95 133 120 32 25 63 50 69 56 6 6 36 28 66 49 30 21 60 43 66 49 6 6 27 20 47 31 20 11 37 23 37 27 0 5 6 8 14 8 8 0 21 6 28 13 20 20 76 46 114 53 19 3 37 10 40 15 3 5 20 9 39 9 43 0 65 22 65 66 0 35 32 96 66 125 42 35 134 77 200 89 123 23 134 29 164 95 22 47 86 110 148 145 29 17 54 43 78 81 42 69 70 89 128 89 42 0 46 3 70 41 25 44 113 139 127 139 4 0 36 29 71 64 75 75 95 84 158 66z"></path><path d="M4439 11801 c-31 -31 -80 -78 -111 -106 -30 -27 -69 -76 -87 -108 -33 -57 -34 -59 -68 -52 -65 12 -90 -1 -118 -61 -17 -37 -36 -59 -58 -70 -113 -59 -172 -129 -202 -240 -2 -6 -30 -14 -62 -17 -112 -12 -224 -48 -273 -89 -52 -43 -67 -120 -30 -153 39 -36 22 -48 -70 -50 -109 -3 -175 -28 -303 -113 -102 -67 -241 -174 -290 -224 -16 -15 -32 -28 -37 -28 -12 0 -82 -71 -109 -111 -20 -30 -35 -38 -105 -58 -95 -27 -307 -127 -421 -200 -121 -77 -145 -88 -154 -72 -5 7 -23 13 -42 14 -29 2 -36 -3 -50 -33 -70 -150 -96 -193 -157 -254 -35 -36 -69 -66 -74 -66 -5 0 -18 5 -29 11 -30 16 -59 -8 -97 -82 -18 -35 -60 -100 -93 -144 -96 -128 -167 -238 -176 -275 -8 -29 -14 -35 -39 -38 -40 -4 -74 -22 -74 -41 0 -35 -35 -153 -75 -251 -58 -142 -73 -195 -81 -279 -7 -71 -7 -72 -33 -66 -53 11 -63 -10 -66 -131 -1 -60 -7 -162 -13 -226 -10 -108 -4 -220 13 -247 3 -6 -4 -24 -16 -40 l-21 -29 22 -69 c12 -37 26 -93 30 -123 5 -30 13 -89 19 -130 6 -41 15 -91 20 -110 21 -78 44 -147 58 -178 13 -26 13 -38 4 -58 -13 -29 -15 -71 -3 -76 26 -11 112 -197 112 -243 0 -8 4 -23 9 -33 5 -9 19 -44 31 -77 12 -33 26 -69 30 -80 26 -59 74 -165 91 -198 23 -45 24 -61 4 -77 -27 -22 -17 -60 29 -114 89 -104 156 -219 264 -454 15 -33 19 -57 15 -95 -4 -43 0 -60 22 -101 35 -65 82 -223 93 -307 5 -43 -14 -61 -27 -27 -5 13 -35 55 -66 93 -56 69 -57 71 -52 122 3 28 3 61 0 71 -7 27 -42 41 -72 30 -40 -14 -51 -3 -51 49 -1 56 -23 126 -75 238 -34 73 -38 89 -42 185 -7 185 -44 214 -146 114 -69 -67 -107 -140 -131 -249 -15 -68 -17 -112 -12 -290 3 -115 8 -234 12 -263 5 -49 4 -56 -20 -81 -30 -31 -38 -87 -51 -341 -7 -148 11 -332 43 -424 21 -61 98 -146 133 -146 79 -1 71 -52 -35 -229 -73 -122 -106 -195 -128 -280 -45 -183 0 -384 123 -548 36 -48 39 -57 39 -115 0 -62 -1 -65 -45 -108 -91 -89 -165 -227 -165 -306 0 -75 76 -173 212 -274 28 -21 49 -46 53 -62 4 -15 13 -32 21 -39 8 -6 14 -16 14 -20 0 -5 23 -43 51 -84 47 -69 51 -78 46 -117 -4 -33 -13 -49 -39 -68 -48 -36 -88 -82 -94 -107 -3 -12 -39 -47 -79 -77 -136 -102 -224 -214 -261 -331 -32 -102 -22 -248 26 -360 23 -53 70 -245 70 -283 0 -42 -8 -44 -57 -17 -74 42 -97 31 -127 -62 -53 -167 19 -304 184 -352 189 -54 492 -23 585 59 11 10 37 23 57 28 80 22 203 141 257 249 46 92 21 227 -59 328 -38 48 -38 76 -1 98 65 38 179 14 306 -64 22 -14 63 -33 90 -43 28 -10 64 -24 80 -31 143 -57 365 -101 462 -92 48 5 62 -7 103 -86 14 -27 42 -67 62 -89 21 -23 40 -49 43 -59 4 -11 17 -22 30 -25 39 -10 164 34 236 82 36 24 71 44 77 44 6 0 32 -11 59 -24 220 -110 598 -127 833 -37 30 12 59 21 65 21 5 0 25 -20 43 -45 18 -24 54 -59 79 -77 26 -18 64 -50 86 -70 52 -50 86 -51 122 -4 14 19 40 40 58 47 45 18 119 77 153 122 25 33 32 37 58 31 17 -4 37 -10 46 -15 94 -49 426 -63 580 -24 165 42 257 71 275 87 18 16 53 7 91 -23 46 -37 130 -79 156 -79 11 0 32 -7 49 -16 38 -19 60 -12 84 28 10 18 32 48 49 66 17 17 45 58 62 90 l32 57 143 6 c94 4 161 12 192 22 26 10 54 17 62 17 9 0 23 5 33 10 15 9 141 51 342 115 75 24 186 35 221 23 46 -16 41 -50 -32 -203 -19 -39 -24 -67 -24 -125 0 -46 5 -81 12 -90 7 -8 30 -38 52 -66 39 -51 131 -129 211 -179 37 -24 48 -26 72 -17 24 9 32 6 70 -27 99 -85 256 -102 473 -50 125 30 207 125 207 238 0 99 -58 193 -108 174 -10 -3 -33 -17 -50 -30 -38 -29 -45 -29 -76 0 -57 51 -60 123 -10 205 71 115 107 248 99 362 -10 149 -81 249 -280 395 -66 48 -67 50 -67 95 0 61 -35 126 -87 165 -73 53 -82 107 -30 176 42 55 107 163 107 177 0 6 24 29 53 53 91 74 168 153 189 193 42 81 9 199 -89 320 -27 32 -56 68 -65 80 -15 18 -16 30 -9 81 8 52 15 67 56 110 119 126 185 279 185 428 0 131 -38 240 -141 412 -105 174 -112 211 -42 233 53 17 112 81 135 148 44 125 59 357 38 564 -17 160 -21 178 -47 204 -22 22 -24 31 -19 73 4 26 9 145 12 263 6 237 -5 324 -53 427 -29 60 -142 173 -174 173 -44 0 -54 -26 -59 -154 -5 -104 -9 -129 -32 -176 -60 -124 -87 -206 -88 -266 0 -28 -3 -53 -6 -56 -3 -4 -20 0 -38 7 -26 11 -37 11 -57 1 -22 -11 -24 -17 -21 -82 l3 -70 -53 -66 c-29 -36 -66 -91 -81 -122 -28 -56 -43 -68 -53 -43 -6 17 9 110 26 157 43 119 53 144 89 223 18 38 21 57 16 100 -6 44 -3 60 18 102 14 28 39 79 56 115 17 36 44 88 61 115 16 28 33 57 37 65 9 21 59 85 110 144 45 51 53 80 28 112 -21 27 -20 32 29 135 74 160 103 234 150 389 14 47 41 111 61 143 35 59 45 113 24 134 -8 8 -7 17 4 34 35 55 74 204 98 379 9 63 26 134 56 233 3 9 0 24 -8 33 -9 11 -13 70 -15 212 -7 431 -10 450 -86 444 -18 -2 -22 12 -32 118 -3 30 -15 80 -27 110 -11 30 -25 69 -31 85 -6 17 -14 35 -18 40 -11 15 -70 196 -70 215 0 27 -40 71 -59 66 -25 -8 -38 5 -75 79 -20 39 -71 117 -113 175 -43 58 -94 130 -112 160 -83 135 -80 132 -124 125 -36 -7 -42 -4 -84 36 -62 60 -114 133 -142 199 -44 105 -44 105 -84 108 -26 2 -67 23 -130 63 -76 50 -285 159 -362 189 -42 17 -123 39 -164 46 -34 5 -49 15 -79 52 -20 24 -48 55 -62 67 -14 13 -56 52 -95 87 -133 123 -329 257 -422 290 -31 11 -87 22 -125 25 -37 3 -68 8 -68 11 0 3 11 20 25 38 24 32 32 78 17 99 -15 22 -90 73 -152 104 -48 25 -84 35 -140 39 l-75 7 -14 54 c-18 65 -86 140 -173 189 -41 24 -59 41 -67 64 -21 59 -48 78 -110 78 l-56 0 -33 60 c-19 35 -54 77 -84 102 -28 24 -79 69 -113 101 -43 39 -69 57 -86 56 -15 -1 -46 -24 -80 -58z m112 -13 c13 -25 88 -98 101 -98 5 0 27 -18 48 -40 44 -45 85 -125 95 -182 7 -44 22 -48 54 -14 13 14 36 29 52 35 25 8 30 7 40 -11 6 -11 8 -33 5 -49 -5 -26 -1 -30 69 -65 41 -20 94 -55 119 -78 42 -39 72 -98 60 -117 -9 -16 -50 -10 -68 10 -26 29 -64 34 -156 21 -100 -14 -121 -4 -140 63 -15 55 -45 85 -128 128 -47 24 -76 49 -108 90 -64 84 -92 88 -120 19 -9 -21 -31 -49 -50 -62 -18 -13 -34 -26 -34 -30 0 -5 -6 -8 -13 -8 -22 0 -91 -39 -123 -70 -35 -34 -60 -119 -44 -150 21 -39 -42 -36 -69 3 -13 18 -22 19 -105 13 -118 -8 -129 -10 -144 -20 -16 -10 -19 -8 -27 25 -5 21 1 34 39 73 25 25 56 51 68 56 13 6 30 14 38 19 8 5 34 17 58 27 43 17 43 18 40 63 l-3 46 37 -1 c28 -1 44 -9 66 -34 33 -36 35 -35 61 47 36 110 73 161 150 204 21 12 51 41 66 65 31 49 49 55 66 22z m19 -428 c33 -33 67 -60 75 -60 54 0 115 -64 115 -121 0 -36 -13 -36 -61 -3 -43 29 -63 31 -281 24 -151 -5 -169 0 -147 41 16 31 32 43 97 74 28 14 69 43 90 65 20 21 40 39 44 39 4 1 35 -26 68 -59z m894 -300 c104 -51 130 -74 116 -100 -13 -25 -25 -25 -57 0 -13 10 -50 29 -81 40 -57 21 -63 22 -938 21 -936 -1 -940 -1 -1011 -48 -33 -22 -51 -4 -29 28 24 38 111 76 201 89 28 4 425 8 883 9 l834 1 82 -40z m-7 -131 c24 -6 48 -17 54 -25 14 -17 3 -51 -21 -64 -13 -7 -339 -10 -951 -10 l-932 0 -43 25 c-24 14 -45 29 -48 33 -9 15 6 51 22 54 8 2 434 2 946 1 658 -2 943 -6 973 -14z m-2037 -134 c19 -4 63 -20 98 -36 l62 -29 239 0 c132 0 242 -4 245 -8 8 -13 -46 -64 -90 -87 -22 -10 -46 -24 -54 -30 -22 -17 -119 -57 -160 -66 -107 -24 -169 -41 -203 -56 -20 -9 -40 -14 -42 -11 -10 10 19 62 52 98 41 43 41 55 2 76 -39 20 -76 11 -91 -22 -12 -26 -44 -43 -118 -63 -106 -29 -259 -51 -351 -51 -31 0 -74 -6 -95 -13 -70 -25 -94 -28 -94 -15 1 23 77 94 142 133 9 6 61 39 115 75 54 36 109 72 123 80 27 15 146 39 170 35 8 -2 31 -7 50 -10z m2288 1 c35 -8 69 -19 75 -25 6 -6 16 -11 23 -11 7 0 46 -24 88 -52 42 -29 85 -57 94 -63 55 -31 181 -133 186 -150 8 -29 -13 -36 -53 -18 -82 36 -110 42 -191 43 -132 1 -289 41 -375 96 -71 46 -99 51 -119 23 -26 -38 -24 -48 34 -116 16 -19 12 -63 -5 -63 -8 0 -34 14 -57 30 -22 17 -60 35 -82 40 -82 21 -172 53 -206 75 -36 22 -78 42 -138 65 -33 13 -57 42 -45 54 3 3 116 6 251 6 253 0 261 1 321 45 14 10 93 32 121 33 8 1 44 -5 78 -12z m-858 -100 c0 -40 -35 -106 -56 -106 -8 0 -14 5 -14 10 0 21 -53 60 -80 60 -36 0 -54 -23 -46 -56 6 -21 -1 -33 -37 -70 -49 -49 -75 -54 -129 -28 -42 20 -70 58 -77 103 -4 25 -15 40 -33 51 -27 14 -29 14 -71 -28 -46 -45 -57 -50 -57 -27 0 8 -14 22 -30 30 -34 18 -56 55 -47 79 6 14 47 16 342 16 l335 0 0 -34z m-720 -53 c0 -41 24 -85 59 -109 16 -12 34 -14 70 -9 46 6 48 5 72 -29 13 -20 27 -36 32 -36 4 0 7 -7 7 -16 0 -19 -19 -17 -145 11 -111 25 -163 29 -203 16 -20 -7 -53 -13 -72 -14 -30 -2 -34 1 -32 18 6 29 38 66 83 93 21 13 39 26 39 30 0 15 62 82 76 82 10 0 14 -12 14 -37z m878 -83 c81 -78 100 -114 67 -126 -8 -3 -35 6 -59 20 -50 29 -90 32 -162 12 -49 -14 -224 -30 -224 -20 0 3 14 23 32 45 l32 40 59 -7 c56 -7 59 -6 93 27 19 18 34 43 34 54 0 58 33 46 128 -45z m-1558 -91 c0 -20 8 -39 22 -50 25 -23 18 -22 115 -4 43 8 90 15 104 15 15 0 46 9 70 20 64 28 86 26 94 -9 12 -57 30 -61 291 -61 l236 0 30 25 c27 23 31 24 51 10 16 -11 35 -13 69 -9 39 5 49 3 54 -10 5 -14 34 -16 251 -16 274 0 295 4 307 61 6 30 7 31 43 24 21 -4 43 -11 50 -17 6 -5 38 -13 70 -18 32 -5 88 -14 125 -20 88 -15 108 -5 108 51 0 40 1 41 28 35 15 -4 41 -13 57 -21 118 -54 443 -83 565 -50 l55 15 33 -38 c38 -41 66 -98 57 -112 -10 -15 -35 -12 -70 10 -29 18 -51 20 -316 21 -156 0 -311 -2 -344 -5 -33 -4 -125 -3 -205 2 -107 6 -177 5 -265 -6 -90 -10 -179 -12 -355 -6 -129 3 -275 5 -325 3 -193 -8 -571 -3 -606 7 -23 8 -83 9 -170 5 -74 -3 -330 -4 -569 -1 -426 5 -435 5 -437 25 -2 11 13 38 31 59 l34 40 42 -13 c23 -7 73 -15 112 -18 83 -7 314 13 380 33 26 8 54 14 62 14 9 0 30 9 48 20 49 30 68 26 68 -11z m-824 -214 l46 -35 396 0 c217 1 399 -3 403 -7 5 -5 5 -13 1 -19 -15 -22 -107 -82 -192 -125 -33 -16 -139 -34 -200 -33 -68 1 -110 16 -186 67 -54 36 -117 36 -122 -1 -2 -12 -25 -44 -52 -70 -59 -58 -65 -62 -115 -85 -22 -10 -52 -25 -68 -32 -22 -11 -50 -12 -140 -5 -108 10 -172 25 -229 56 -14 8 -54 17 -87 20 -34 4 -61 10 -61 13 1 17 34 43 110 85 19 11 53 30 75 42 40 23 107 56 135 68 8 3 22 10 30 14 25 15 84 40 105 45 11 3 38 13 60 21 22 8 41 15 42 16 2 0 24 -16 49 -35z m3884 10 c87 -32 130 -50 195 -82 39 -19 77 -38 85 -43 23 -15 173 -101 189 -109 8 -4 19 -15 25 -24 15 -24 -7 -37 -65 -37 -29 0 -51 -6 -59 -15 -7 -8 -20 -15 -29 -15 -9 0 -25 -6 -36 -13 -12 -8 -49 -14 -90 -15 -167 -3 -281 41 -387 150 -53 54 -73 68 -96 68 -39 0 -62 -9 -62 -24 0 -15 -54 -56 -74 -56 -8 0 -18 -4 -21 -10 -8 -13 -121 -13 -182 0 -27 6 -97 35 -157 65 -60 30 -117 55 -126 55 -20 0 -63 43 -53 53 3 4 181 7 394 7 l388 0 26 34 c23 31 30 34 63 30 20 -3 53 -11 72 -19z m-2330 -107 c22 -34 39 -66 37 -72 -3 -6 -26 -17 -53 -24 -26 -7 -55 -18 -62 -25 -19 -15 -81 -37 -107 -37 -33 0 -210 47 -244 65 -18 9 -52 31 -76 50 -25 18 -58 36 -75 40 -28 6 -50 30 -50 54 0 8 93 11 294 11 l294 0 42 -62z m600 45 c0 -10 -25 -40 -55 -69 -46 -43 -66 -54 -116 -64 -95 -20 -150 -9 -277 56 -81 41 -112 62 -112 76 0 17 15 18 280 18 258 0 280 -1 280 -17z m710 3 c0 -18 -23 -44 -94 -105 -53 -45 -64 -51 -105 -51 -26 0 -79 -9 -119 -20 -110 -31 -119 -29 -261 49 -41 23 -83 41 -93 41 -15 0 -18 4 -13 18 4 9 10 26 13 37 12 45 8 45 348 45 270 0 324 -2 324 -14z m-1926 -110 c63 -82 62 -88 -15 -60 -31 11 -60 13 -96 9 -29 -4 -53 -3 -53 0 0 11 103 116 111 113 4 -2 28 -30 53 -62z m2034 3 c34 -34 62 -66 62 -70 0 -13 -28 -10 -90 10 -41 14 -62 16 -83 8 -39 -13 -42 -5 -13 38 14 20 28 45 31 56 10 30 26 23 93 -42z m-1306 -62 c45 -43 139 -79 208 -80 68 0 154 29 188 64 21 21 36 29 49 25 20 -7 71 -89 98 -159 17 -45 17 -47 -4 -80 -14 -22 -34 -38 -61 -47 -22 -7 -40 -17 -40 -22 0 -5 -10 -13 -22 -18 -34 -15 -62 -33 -71 -47 -4 -7 -14 -13 -21 -13 -8 0 -16 -7 -20 -15 -3 -8 -12 -15 -19 -15 -8 0 -20 -7 -27 -15 -7 -8 -20 -15 -29 -15 -23 0 -219 150 -298 227 -73 73 -77 90 -32 154 49 69 73 83 101 56z m2001 -63 c52 -48 90 -74 142 -98 22 -10 49 -24 60 -30 11 -6 80 -12 154 -13 74 -2 136 -5 139 -8 6 -6 -35 -92 -48 -100 -7 -4 -21 2 -33 13 -12 11 -40 23 -62 27 -51 9 -157 44 -169 56 -6 5 -20 9 -32 9 -13 0 -25 4 -28 9 -3 5 -17 12 -30 15 -13 3 -57 25 -97 47 -58 33 -85 42 -126 44 -29 1 -56 4 -59 8 -10 9 6 27 24 27 9 0 33 13 52 29 39 33 39 33 113 -35z m-3415 24 c51 -29 53 -32 37 -45 -11 -7 -41 -13 -68 -13 -32 0 -66 -8 -96 -23 -105 -53 -121 -59 -136 -53 -21 8 -10 26 16 26 11 0 22 7 25 15 4 8 12 15 19 15 7 0 39 25 71 55 33 30 63 55 68 55 5 0 33 -14 64 -32z m-942 -9 c16 -17 38 -35 49 -40 34 -15 123 -77 150 -104 46 -46 57 -111 27 -156 -9 -15 -71 -77 -137 -140 -132 -124 -156 -148 -232 -234 -29 -33 -55 -56 -59 -53 -3 4 0 56 6 116 16 139 1 203 -58 252 l-37 30 34 28 c54 41 83 72 131 137 62 82 70 101 70 151 0 53 14 57 56 13z m2984 -20 c22 -12 42 -25 45 -30 7 -10 -27 -29 -51 -29 -24 0 -64 39 -64 62 0 24 20 23 70 -3z m2196 -36 c28 -92 110 -208 183 -259 40 -28 54 -65 31 -79 -6 -4 -19 -24 -30 -45 -16 -32 -21 -68 -27 -190 l-6 -151 -22 23 c-12 13 -30 44 -39 70 -13 36 -42 71 -119 146 -56 55 -120 115 -141 133 -22 19 -61 60 -87 91 -43 52 -47 61 -38 85 17 49 82 107 163 148 21 11 50 35 65 52 14 18 31 33 38 33 6 0 19 -26 29 -57z m-1431 37 c228 -31 409 -67 457 -91 10 -5 34 -13 55 -18 36 -9 63 -17 146 -47 121 -44 194 -75 330 -140 62 -29 96 -55 175 -133 53 -53 138 -134 187 -180 93 -88 212 -221 257 -288 14 -21 50 -76 80 -123 31 -47 75 -105 99 -129 l44 -44 1 -116 c1 -64 7 -129 14 -146 6 -16 15 -52 20 -80 11 -72 30 -146 46 -178 8 -16 14 -34 14 -41 0 -6 14 -26 30 -44 34 -37 37 -54 15 -72 -12 -10 -15 -48 -15 -224 l0 -211 -28 -30 c-26 -28 -43 -74 -61 -170 -4 -22 -12 -56 -18 -75 -19 -61 -35 -133 -48 -215 -10 -66 -9 -90 2 -133 14 -53 14 -53 -15 -86 -28 -33 -53 -79 -87 -166 -9 -25 -23 -59 -30 -75 -7 -17 -16 -45 -19 -62 -4 -18 -12 -35 -17 -38 -5 -4 -9 -15 -9 -27 0 -11 -6 -34 -14 -51 -12 -30 -23 -68 -46 -157 -40 -159 -48 -178 -85 -215 -17 -16 -40 -46 -52 -65 -31 -50 -103 -193 -103 -203 0 -5 -6 -23 -13 -40 -30 -69 -73 -252 -80 -338 -3 -32 -15 -61 -41 -100 -82 -117 -106 -205 -106 -379 l0 -140 -27 -11 c-16 -5 -54 -36 -87 -67 -43 -42 -57 -51 -53 -35 2 12 -1 68 -8 125 -7 56 -10 108 -8 115 3 6 8 62 13 125 8 112 17 162 47 268 26 88 73 232 89 267 8 17 14 37 14 45 0 8 4 18 8 23 5 6 17 33 27 60 9 28 23 64 31 80 7 17 22 53 34 80 12 28 25 59 30 70 5 11 18 43 30 70 12 28 25 59 30 70 5 11 18 43 30 70 12 28 25 59 30 70 5 11 18 43 30 70 12 28 27 64 35 80 13 31 19 44 55 130 11 28 25 58 30 67 6 10 10 23 10 30 1 7 9 31 20 53 11 22 19 45 20 51 0 7 7 25 15 40 8 16 15 37 15 46 0 9 4 19 9 22 5 4 12 24 16 46 4 22 10 42 15 45 4 3 11 20 14 39 4 20 13 48 21 63 8 15 15 34 15 42 0 13 7 40 46 175 8 26 14 64 14 83 0 19 5 44 11 55 6 12 15 73 20 136 6 63 14 123 19 133 13 24 13 244 -1 388 -9 107 -61 376 -79 411 -4 8 -22 58 -40 110 -64 187 -199 426 -329 580 -207 246 -493 439 -801 544 -252 85 -526 110 -716 66 -108 -26 -234 -68 -255 -86 -8 -8 -21 -14 -27 -14 -25 0 -117 -57 -181 -112 -50 -43 -66 -47 -81 -18 -12 22 -64 28 -76 9 -4 -6 -6 -213 -5 -460 2 -409 1 -450 -14 -455 -11 -5 -27 4 -47 24 l-31 30 2 304 c1 166 4 328 7 358 7 72 -10 99 -53 85 l-28 -10 -3 -388 c-1 -234 -6 -387 -12 -387 -5 0 -26 11 -46 25 -21 14 -48 28 -61 31 -23 6 -23 9 -16 68 9 74 7 585 -2 642 -7 41 -7 41 48 77 31 20 58 37 62 37 4 0 24 14 45 30 21 17 40 30 43 30 3 0 32 18 65 40 66 43 102 83 102 111 0 43 3 45 133 102 24 11 66 17 120 18 68 0 92 5 142 29 56 27 68 28 190 29 72 0 162 -4 200 -9z m-2027 -11 c53 -6 109 -18 124 -25 15 -8 46 -14 70 -14 39 -1 96 -17 173 -49 62 -27 80 -41 98 -75 29 -55 254 -241 320 -262 9 -4 17 -9 17 -13 5 -97 0 -795 -6 -801 -5 -5 -33 5 -62 22 l-54 31 7 43 c3 24 8 158 10 299 2 140 7 274 10 298 6 37 3 48 -17 70 -12 14 -34 29 -48 32 -35 8 -52 -36 -40 -108 4 -29 8 -200 9 -381 l1 -328 -32 6 c-18 4 -56 8 -84 10 -28 2 -57 6 -63 10 -9 6 -10 93 -5 339 4 183 8 359 11 392 9 141 9 157 -9 168 -13 9 -26 7 -53 -6 l-35 -17 -68 46 c-182 126 -435 204 -654 204 -149 0 -402 -50 -533 -106 -16 -6 -50 -20 -75 -30 -116 -45 -257 -121 -289 -156 -8 -10 -19 -18 -24 -18 -33 0 -282 -224 -389 -350 -134 -158 -272 -408 -338 -613 -44 -137 -69 -234 -81 -317 -5 -36 -13 -83 -19 -105 -15 -64 -13 -521 4 -612 57 -311 55 -301 88 -398 5 -16 14 -46 18 -65 10 -45 28 -97 46 -133 8 -16 14 -35 14 -44 0 -8 6 -27 14 -41 8 -15 21 -47 31 -72 20 -54 36 -91 59 -145 10 -22 24 -53 30 -70 7 -16 27 -61 45 -100 18 -38 39 -83 46 -100 7 -16 41 -88 75 -160 72 -153 117 -248 135 -290 7 -16 26 -60 44 -97 17 -37 31 -74 31 -81 0 -7 7 -22 15 -33 8 -10 15 -28 15 -39 0 -11 6 -29 13 -40 7 -11 21 -47 31 -80 10 -33 24 -75 32 -93 8 -18 14 -44 14 -58 0 -13 7 -41 16 -62 14 -30 17 -74 18 -232 1 -172 -1 -199 -17 -223 -20 -30 -47 -36 -47 -10 0 23 -39 63 -62 63 -22 0 -24 30 -4 68 55 106 12 324 -90 457 -39 51 -58 122 -55 201 5 136 -110 405 -235 552 -45 53 -60 89 -69 157 -7 67 -63 239 -136 423 -74 186 -95 222 -131 222 -22 0 -22 3 -2 42 9 17 16 49 16 72 1 37 -33 209 -68 347 -8 30 -14 69 -14 86 0 41 -24 95 -60 136 -27 31 -28 37 -19 68 5 19 12 96 14 173 5 127 4 141 -15 171 -12 19 -26 35 -33 38 -7 2 2 24 25 58 20 31 40 69 44 85 4 16 11 34 16 41 5 7 14 36 18 65 16 95 31 162 51 223 24 76 24 107 -1 130 -11 10 -20 24 -20 30 0 7 25 39 56 71 50 53 144 183 144 199 0 4 8 23 17 43 25 56 100 141 198 228 109 97 239 219 274 258 14 15 35 32 46 37 11 5 27 13 35 18 8 5 47 24 85 41 102 46 124 55 185 79 30 12 64 26 75 30 43 17 92 33 128 42 21 5 45 13 55 18 28 14 204 58 287 72 33 5 69 12 80 16 33 10 243 30 338 32 49 0 132 -4 185 -10z m447 -9 c9 -15 -4 -50 -19 -50 -7 0 -21 9 -30 19 -17 18 -17 20 1 30 23 13 40 14 48 1z m-1713 -120 c83 0 109 -3 106 -12 -3 -7 -15 -15 -29 -16 -13 -2 -29 -8 -35 -13 -18 -14 -106 -39 -140 -39 -24 0 -38 8 -58 35 -32 41 -26 59 16 51 17 -3 80 -6 140 -6z m1062 -105 c27 -8 61 -15 76 -15 15 0 41 -7 56 -15 16 -8 37 -15 46 -15 9 0 29 -6 45 -14 15 -8 46 -23 68 -33 83 -38 245 -146 267 -178 9 -12 10 -320 2 -352 -9 -34 -22 -28 -29 15 -17 102 -47 227 -60 253 -36 69 -137 157 -228 198 -102 46 -161 56 -357 56 -158 0 -200 -3 -290 -23 -58 -13 -109 -27 -115 -32 -5 -4 -24 -10 -42 -13 -28 -5 -137 -52 -183 -78 -8 -4 -35 -18 -60 -30 -25 -12 -52 -28 -60 -36 -8 -8 -55 -43 -105 -79 -82 -60 -205 -176 -295 -279 -42 -47 -130 -172 -130 -184 0 -5 -6 -13 -13 -19 -7 -6 -30 -44 -50 -84 -21 -40 -42 -80 -46 -88 -20 -35 -71 -151 -71 -161 0 -6 -6 -23 -14 -37 -17 -35 -37 -90 -42 -122 -3 -14 -11 -47 -19 -75 -8 -27 -20 -79 -27 -115 -17 -88 -22 -518 -7 -585 6 -27 14 -77 19 -110 9 -73 43 -218 72 -300 5 -16 14 -48 19 -70 6 -22 14 -44 20 -49 5 -6 9 -18 9 -28 0 -9 6 -32 14 -50 8 -18 22 -53 31 -78 9 -25 24 -61 32 -80 8 -19 22 -51 30 -70 8 -19 21 -48 28 -65 28 -66 81 -177 145 -305 317 -633 323 -646 349 -745 5 -16 13 -41 18 -55 6 -14 18 -52 27 -85 10 -33 22 -73 28 -90 5 -16 14 -48 18 -70 11 -59 29 -134 46 -186 8 -26 14 -56 14 -68 0 -12 6 -47 14 -79 31 -122 64 -320 76 -452 5 -52 13 -115 19 -140 22 -99 23 -430 0 -430 -4 0 -10 26 -14 58 -16 159 -76 374 -112 404 -9 7 -34 22 -57 33 -35 17 -42 26 -48 60 -14 88 -97 234 -146 258 -22 10 -27 19 -25 43 2 17 9 44 18 60 8 16 15 39 15 52 0 12 7 39 15 59 22 52 14 306 -13 394 -81 267 -144 436 -240 642 -34 71 -69 147 -122 262 -18 39 -45 97 -60 130 -15 33 -38 83 -50 110 -12 28 -34 77 -50 110 -27 58 -76 177 -107 260 -8 22 -20 51 -25 65 -16 40 -78 230 -87 269 -58 233 -80 352 -86 456 -14 275 -15 345 -4 395 6 30 14 91 19 135 4 44 15 107 23 140 34 132 39 151 47 170 4 11 16 43 25 70 10 28 33 84 52 125 31 68 44 95 77 154 20 36 132 201 156 231 59 70 221 226 297 283 45 34 84 62 87 62 3 0 22 12 43 26 21 14 47 30 58 35 11 5 27 13 35 18 8 5 22 12 30 15 8 3 22 10 30 15 14 8 54 26 123 54 84 35 185 66 258 77 30 5 66 14 80 19 40 16 356 13 413 -4z m2432 5 c15 -6 52 -15 83 -20 133 -21 301 -85 466 -176 22 -13 57 -32 78 -43 21 -12 44 -26 50 -31 7 -6 44 -34 82 -62 67 -50 223 -199 275 -263 57 -69 90 -113 90 -120 0 -4 12 -24 28 -44 36 -48 42 -59 100 -176 53 -107 68 -145 122 -295 7 -19 15 -53 19 -75 4 -22 12 -56 18 -75 39 -123 48 -223 47 -510 0 -234 -4 -296 -17 -346 -9 -34 -17 -75 -17 -90 0 -16 -6 -49 -14 -74 -8 -25 -19 -65 -25 -90 -6 -25 -18 -67 -27 -95 -8 -27 -19 -63 -24 -80 -15 -52 -32 -99 -46 -128 -8 -16 -14 -35 -14 -42 0 -8 -7 -31 -16 -52 -33 -78 -42 -99 -59 -143 -26 -69 -69 -169 -91 -213 -8 -16 -14 -33 -14 -38 0 -5 -14 -39 -31 -76 -37 -84 -57 -129 -74 -168 -7 -16 -24 -55 -38 -85 -13 -30 -35 -80 -47 -110 -12 -30 -28 -71 -37 -90 -28 -65 -40 -95 -58 -140 -9 -25 -23 -60 -31 -78 -8 -18 -14 -40 -14 -48 0 -9 -6 -28 -14 -42 -7 -15 -21 -54 -31 -87 -66 -225 -66 -226 -95 -443 -11 -83 -8 -117 20 -281 5 -30 14 -59 20 -65 16 -16 12 -35 -14 -69 -28 -37 -54 -103 -65 -165 -10 -55 -25 -71 -51 -54 -29 18 -39 15 -51 -15 -6 -16 -25 -53 -42 -83 -34 -59 -48 -91 -76 -185 -43 -140 -49 -252 -22 -377 14 -64 73 -185 110 -228 47 -53 143 -219 137 -236 -8 -21 -25 -17 -95 24 -54 31 -66 43 -76 77 -7 22 -31 78 -53 125 -23 47 -51 126 -63 175 -20 83 -21 108 -16 305 4 118 13 265 21 325 9 61 16 138 16 172 0 34 5 74 11 90 6 15 15 62 19 103 10 93 29 205 41 245 5 17 13 57 18 90 15 92 32 166 47 208 8 20 14 51 14 67 0 16 4 31 9 34 5 3 12 23 15 43 4 21 13 56 21 78 7 22 21 67 30 100 9 33 20 69 25 80 5 11 12 31 15 45 4 14 12 38 18 54 19 46 345 700 357 713 5 7 10 17 10 22 0 6 13 37 29 68 17 32 39 81 51 108 12 28 25 59 30 70 38 84 50 115 50 125 0 5 4 18 10 28 38 70 140 383 140 432 0 14 4 30 10 36 5 5 14 39 19 74 5 36 14 78 20 93 6 16 11 52 11 82 0 29 7 90 16 136 16 82 16 139 -1 344 -24 302 -164 645 -384 940 -73 98 -248 265 -350 333 -170 114 -360 194 -561 238 -103 22 -354 30 -474 15 -95 -12 -186 -42 -186 -61 0 -6 -5 -10 -11 -10 -13 0 -114 -101 -156 -155 -70 -93 -102 -160 -135 -290 -42 -165 0 -308 130 -444 46 -49 51 -61 25 -61 -18 0 -42 14 -154 87 l-65 43 -12 127 c-9 94 -10 160 -2 248 13 154 13 292 0 300 -33 20 7 76 95 133 141 91 260 141 440 185 72 17 400 22 441 7z m-4276 -112 c0 -4 5 -19 12 -35 27 -64 39 -124 44 -218 8 -121 -10 -192 -83 -330 -26 -49 -103 -145 -117 -145 -6 0 -17 15 -24 33 -18 49 -88 152 -133 194 -36 34 -40 41 -34 73 8 45 46 105 155 250 60 79 93 134 104 169 22 75 26 78 53 45 12 -16 23 -32 23 -36z m5834 -15 c35 -68 79 -136 152 -233 127 -170 159 -254 113 -296 -32 -28 -93 -113 -119 -164 -30 -59 -60 -80 -60 -42 0 10 -23 53 -51 96 -69 105 -111 188 -134 264 -16 54 -17 70 -7 108 7 24 12 71 12 104 0 32 4 61 9 64 5 3 12 23 16 43 9 51 33 106 42 100 5 -3 17 -23 27 -44z m-3889 -90 c89 -19 160 -58 224 -127 45 -47 111 -142 111 -160 0 -7 4 -16 9 -21 25 -26 51 -138 51 -220 0 -74 -4 -93 -31 -151 -35 -73 -114 -160 -171 -187 -45 -21 -153 -22 -231 -2 -100 26 -220 112 -264 189 -17 30 -16 117 3 155 17 34 65 74 102 86 25 7 120 -19 164 -45 83 -49 95 -137 34 -230 -57 -87 -46 -99 45 -54 61 31 135 96 145 127 3 12 12 29 19 37 18 22 38 144 30 187 -21 113 -133 248 -251 305 l-69 33 -160 0 c-139 0 -169 -4 -230 -23 -87 -28 -242 -103 -297 -142 -23 -17 -45 -30 -49 -30 -22 0 -235 -172 -315 -255 -107 -109 -230 -285 -287 -410 -10 -22 -25 -53 -33 -68 -8 -16 -14 -35 -14 -42 0 -8 -6 -29 -14 -47 -17 -39 -39 -123 -60 -231 -22 -108 -22 -487 0 -612 29 -171 58 -297 86 -380 5 -16 14 -46 18 -65 4 -19 14 -51 20 -70 34 -94 43 -117 56 -143 8 -16 14 -35 14 -44 0 -8 6 -27 13 -41 13 -25 30 -62 63 -139 8 -18 20 -48 28 -65 8 -18 17 -40 20 -48 3 -8 10 -22 15 -30 5 -8 12 -22 15 -30 3 -8 10 -22 15 -30 5 -8 12 -22 15 -30 4 -8 22 -42 40 -75 35 -63 187 -367 211 -423 8 -18 21 -48 29 -67 38 -88 49 -112 62 -138 8 -16 14 -36 14 -46 0 -9 7 -26 15 -37 8 -10 15 -25 15 -32 0 -8 6 -28 14 -45 8 -18 21 -54 30 -82 8 -27 20 -66 27 -85 6 -19 15 -51 19 -70 4 -19 13 -48 18 -65 44 -127 105 -399 142 -635 33 -207 51 -667 33 -835 -6 -60 -12 -134 -12 -163 -1 -30 -7 -81 -15 -115 -8 -34 -23 -98 -32 -142 -10 -44 -21 -84 -25 -89 -5 -5 -19 -2 -33 8 -28 18 -151 23 -161 6 -10 -17 -25 -11 -25 9 0 19 22 81 40 113 11 20 27 79 41 153 6 28 15 70 20 95 6 25 12 113 15 195 2 83 6 236 9 342 4 137 1 223 -9 300 -8 59 -17 126 -20 148 -17 145 -27 215 -35 250 -6 22 -17 76 -26 120 -21 104 -84 373 -95 405 -5 14 -18 59 -30 100 -46 159 -95 282 -184 460 -51 102 -136 271 -188 375 -161 320 -254 539 -332 780 -52 162 -84 292 -91 365 -4 36 -13 92 -21 125 -19 82 -23 388 -6 480 23 121 46 220 53 230 4 6 10 26 14 45 4 19 11 41 16 50 4 8 15 33 24 55 17 41 112 234 130 263 81 133 169 244 267 337 115 109 136 127 188 161 69 44 73 46 157 88 43 21 90 45 105 52 14 8 31 14 38 14 7 0 26 6 43 14 43 18 104 33 212 52 50 9 92 18 94 20 13 12 294 2 366 -13z m2265 7 c19 -5 62 -14 95 -19 117 -19 207 -47 345 -110 198 -90 427 -287 560 -479 14 -21 28 -38 33 -40 4 -2 7 -8 7 -12 0 -5 13 -28 29 -52 39 -57 123 -226 171 -343 5 -11 16 -45 25 -75 9 -30 21 -68 27 -85 6 -16 14 -52 18 -80 5 -27 13 -72 20 -100 7 -30 11 -138 11 -273 0 -217 -7 -292 -43 -442 -6 -25 -14 -63 -19 -85 -4 -22 -17 -71 -29 -110 -11 -38 -25 -83 -30 -100 -14 -51 -32 -99 -46 -128 -8 -16 -14 -33 -14 -39 0 -9 -6 -26 -47 -118 -21 -48 -43 -99 -58 -135 -13 -33 -131 -281 -145 -305 -19 -35 -260 -520 -289 -583 -17 -37 -31 -71 -31 -77 0 -5 -6 -24 -14 -42 -21 -51 -37 -99 -46 -138 -4 -19 -13 -48 -18 -65 -6 -16 -17 -55 -25 -85 -9 -30 -21 -75 -28 -100 -7 -25 -16 -63 -20 -85 -13 -67 -30 -138 -45 -191 -8 -28 -14 -67 -14 -87 0 -20 -5 -48 -11 -64 -6 -15 -15 -57 -19 -93 -4 -36 -12 -96 -18 -135 -30 -182 -37 -296 -37 -560 0 -281 10 -407 41 -504 8 -25 14 -54 14 -65 0 -12 7 -34 15 -50 8 -15 15 -33 15 -40 1 -6 9 -29 20 -51 16 -33 17 -42 5 -54 -11 -11 -20 -9 -56 12 -33 18 -54 23 -84 20 -68 -8 -80 16 -116 222 -53 305 -46 928 13 1189 6 26 14 74 19 105 13 88 36 193 48 224 6 16 11 39 11 52 0 12 7 36 15 51 8 16 15 37 15 47 0 10 7 42 16 70 8 29 20 70 26 92 22 82 40 141 54 168 8 16 14 34 14 40 1 7 9 30 20 52 11 22 19 45 20 51 0 7 18 47 39 90 22 44 49 102 61 129 11 28 25 58 30 67 6 10 10 23 10 30 0 6 13 39 29 72 16 34 31 68 35 76 3 8 10 22 15 30 5 8 12 22 15 30 3 8 10 22 15 30 5 8 12 22 15 30 3 8 22 42 41 75 31 54 134 260 155 310 5 11 18 43 30 70 11 28 25 58 30 67 6 10 10 23 10 30 1 7 9 31 20 53 19 41 101 288 127 385 8 30 19 69 24 85 5 17 13 57 18 90 6 33 14 83 20 110 20 108 34 345 27 479 -18 363 -138 650 -383 914 -193 208 -433 363 -680 439 -79 24 -104 27 -248 27 -173 1 -172 1 -268 -63 -45 -31 -121 -108 -150 -152 -36 -54 -67 -152 -67 -210 0 -69 35 -155 83 -203 39 -39 128 -86 163 -86 20 0 24 5 24 33 0 33 -15 62 -56 107 -12 14 -26 42 -29 63 -7 35 -4 41 34 77 28 27 62 46 109 61 l68 22 46 -21 c72 -31 98 -80 98 -181 l0 -80 -47 -48 c-57 -57 -132 -98 -211 -114 -48 -10 -69 -9 -132 5 -125 28 -207 95 -266 217 -14 30 -32 65 -40 79 -17 30 -18 110 -3 159 32 100 45 131 77 185 41 69 134 165 183 191 68 35 177 53 329 54 80 1 161 -4 180 -9z m-2382 -185 c75 -26 117 -52 167 -102 95 -96 134 -248 84 -329 -26 -43 -39 -35 -39 21 0 96 -95 175 -231 191 -143 17 -239 -78 -239 -236 0 -85 24 -142 82 -196 80 -74 222 -144 294 -144 29 0 34 -4 34 -23 0 -16 -12 -28 -47 -47 -60 -31 -206 -132 -298 -205 -226 -180 -424 -429 -548 -690 -21 -44 -43 -88 -48 -97 -5 -10 -9 -23 -9 -30 0 -7 -6 -24 -13 -38 -14 -26 -64 -203 -91 -320 -24 -103 -49 -450 -37 -518 9 -53 15 -140 12 -169 -2 -21 -21 -15 -30 10 -5 12 -47 101 -94 197 -122 252 -166 362 -235 595 -81 271 -107 468 -99 745 6 206 13 256 64 415 68 216 164 380 315 540 165 175 434 349 628 408 30 9 69 21 85 26 50 16 244 13 293 -4z m2405 1 c339 -88 698 -356 884 -661 31 -50 113 -222 113 -235 0 -9 4 -20 9 -25 9 -9 14 -24 40 -130 33 -138 36 -168 36 -405 0 -159 -5 -271 -13 -320 -20 -110 -52 -258 -69 -315 -27 -88 -101 -309 -118 -350 -27 -67 -31 -75 -108 -235 -41 -85 -87 -181 -102 -213 -41 -89 -52 -63 -32 75 14 94 15 136 7 248 -25 346 -84 576 -211 830 -50 100 -165 289 -189 310 -3 3 -29 34 -57 70 -129 163 -406 395 -583 488 -76 41 -87 72 -25 72 71 0 216 71 293 144 59 56 84 115 84 196 0 112 -60 208 -147 231 -54 15 -138 4 -200 -26 -87 -42 -125 -89 -125 -157 0 -61 -9 -65 -38 -17 -32 54 -28 139 12 221 46 96 113 155 226 199 58 22 236 25 313 5z m-4581 -307 c82 -99 123 -171 149 -268 15 -57 16 -69 3 -118 -8 -30 -14 -66 -14 -80 0 -14 -6 -49 -14 -77 -8 -28 -20 -73 -26 -101 -20 -93 -28 -116 -45 -135 -20 -22 -35 -18 -35 11 0 43 -40 90 -213 247 l-47 43 0 67 c0 64 37 195 76 270 8 15 14 31 14 36 0 5 7 18 16 27 11 12 18 44 22 91 7 109 11 109 114 -13z m6582 49 c3 -13 6 -40 6 -60 0 -21 6 -52 14 -70 8 -18 22 -53 31 -78 17 -43 32 -80 61 -145 17 -39 28 -179 17 -228 -6 -27 -17 -43 -38 -55 -35 -20 -134 -117 -188 -184 -44 -55 -57 -60 -57 -20 0 15 -5 33 -10 38 -6 6 -15 33 -19 60 -28 153 -42 225 -56 274 -34 121 -11 213 84 333 25 32 59 75 74 95 28 37 55 62 68 62 4 0 9 -10 13 -22z m-3824 -311 c0 -96 -8 -117 -42 -117 -10 0 -41 -11 -68 -25 -56 -29 -80 -32 -80 -10 0 8 5 15 11 15 6 0 31 20 55 45 43 44 75 101 88 158 3 15 13 27 21 27 12 0 15 -18 15 -93z m645 -117 c33 -6 94 -15 135 -20 185 -23 436 -107 600 -200 189 -107 344 -222 470 -349 92 -93 165 -177 184 -210 5 -9 12 -18 16 -21 8 -6 64 -90 73 -110 4 -8 16 -28 27 -45 25 -39 102 -195 130 -265 12 -30 27 -66 32 -80 6 -14 14 -41 19 -60 4 -19 13 -55 20 -80 6 -25 17 -67 25 -95 50 -195 49 -627 -2 -797 -8 -26 -14 -57 -14 -70 -1 -13 -7 -34 -15 -48 -8 -14 -14 -35 -15 -47 0 -12 -9 -39 -19 -60 -17 -34 -34 -71 -87 -193 -9 -19 -22 -48 -30 -63 -8 -16 -14 -33 -14 -37 0 -5 -12 -28 -27 -52 -16 -24 -32 -51 -38 -60 -61 -101 -125 -178 -265 -318 -56 -56 -154 -145 -185 -168 -114 -83 -287 -180 -426 -237 -439 -180 -944 -193 -1388 -36 -456 162 -843 490 -1054 896 -184 352 -249 629 -241 1015 4 179 27 307 90 505 27 83 34 102 91 224 150 318 434 629 739 806 44 25 86 49 94 55 48 30 227 110 247 110 8 0 27 6 41 14 45 23 210 63 317 77 44 5 98 14 120 18 58 12 280 13 350 1z m-905 -89 c0 -13 -37 -24 -50 -16 -6 4 -8 11 -5 16 8 12 55 12 55 0z m1515 -1 c3 -5 -3 -10 -15 -10 -12 0 -18 5 -15 10 3 6 10 10 15 10 5 0 12 -4 15 -10z m-4283 -118 c98 -79 238 -226 267 -282 18 -34 26 -71 32 -150 11 -137 11 -250 1 -250 -13 0 -37 23 -56 53 -19 31 -115 80 -219 113 -32 10 -69 30 -84 46 -25 26 -27 37 -31 121 -3 70 1 113 17 180 l21 88 -25 61 c-14 34 -25 65 -25 70 0 20 34 3 102 -50z m7098 -135 c9 -320 7 -373 -15 -397 -15 -17 -26 -20 -52 -15 -22 4 -41 1 -55 -10 -13 -8 -30 -15 -39 -15 -9 0 -22 -7 -29 -15 -7 -8 -19 -15 -27 -15 -8 0 -34 -16 -57 -35 -24 -19 -47 -35 -51 -35 -5 0 -17 -7 -27 -17 -10 -9 -21 -14 -23 -11 -7 7 -8 57 -5 217 2 112 5 129 29 175 34 67 324 356 340 340 3 -3 8 -78 11 -167z m-7169 -448 c19 -6 48 -17 66 -25 17 -8 34 -14 38 -14 21 0 200 -98 248 -136 58 -47 97 -111 97 -161 0 -24 5 -43 44 -169 9 -29 16 -63 16 -77 0 -13 7 -44 15 -67 17 -49 20 -126 5 -135 -10 -6 -70 49 -70 64 0 19 -160 81 -271 105 -74 16 -144 224 -153 457 -1 34 -28 89 -44 89 -9 0 -42 54 -42 69 0 14 8 14 51 0z m7199 -33 c0 -14 -4 -27 -9 -30 -14 -9 -51 -131 -51 -168 0 -81 -45 -274 -83 -358 -31 -66 -50 -84 -76 -71 -16 9 -35 7 -86 -10 -36 -11 -67 -25 -71 -30 -3 -5 -12 -9 -21 -9 -9 0 -25 -7 -35 -17 -17 -16 -39 -29 -85 -54 -17 -9 -25 -8 -42 8 -19 18 -20 22 -6 93 16 87 43 196 76 306 5 17 9 41 9 55 0 66 123 164 295 235 60 24 130 55 145 64 26 16 40 11 40 -14z m-7003 -681 c15 -8 36 -15 45 -15 9 0 29 -6 45 -14 15 -8 46 -22 68 -32 22 -9 47 -21 55 -25 8 -5 25 -13 38 -19 29 -12 110 -93 122 -122 6 -13 14 -30 19 -38 5 -8 17 -33 26 -55 10 -22 24 -53 31 -68 8 -16 14 -35 14 -44 0 -8 6 -27 14 -41 15 -30 33 -81 46 -127 11 -39 29 -91 46 -133 15 -35 18 -84 7 -96 -4 -3 -32 21 -62 54 -51 55 -62 62 -128 80 -40 11 -88 20 -107 20 -46 0 -60 20 -136 192 -72 164 -110 268 -110 301 0 50 -22 86 -78 128 -31 23 -59 44 -61 45 -2 2 -1 11 3 20 7 19 55 14 103 -11z m6858 -22 c0 -7 -14 -27 -31 -45 -48 -51 -61 -84 -95 -230 -6 -26 -15 -50 -20 -54 -5 -3 -9 -12 -9 -21 0 -9 -12 -41 -26 -72 -14 -31 -35 -76 -46 -101 -42 -97 -51 -116 -59 -130 -5 -8 -13 -25 -19 -37 -11 -27 -18 -28 -45 -7 -42 32 -152 -11 -279 -109 -27 -21 -53 -34 -58 -29 -4 4 10 60 33 123 22 62 45 130 51 149 5 19 16 49 24 67 8 17 14 38 14 46 0 9 4 18 9 22 5 3 12 19 16 36 4 16 27 70 52 120 32 64 57 99 87 122 47 37 75 55 96 63 8 3 24 10 34 16 11 6 31 14 45 18 14 5 51 18 81 30 108 43 145 48 145 23z m-6525 -760 c25 -8 59 -21 75 -28 17 -8 37 -16 45 -20 62 -25 172 -115 228 -186 45 -59 96 -138 107 -169 3 -8 13 -28 21 -43 7 -16 14 -36 14 -45 0 -9 7 -26 15 -36 8 -11 15 -30 15 -43 0 -13 7 -37 15 -52 8 -16 17 -58 21 -95 6 -57 5 -66 -9 -66 -9 0 -26 17 -37 38 -42 78 -71 100 -250 181 -44 20 -59 40 -88 115 -26 69 -119 256 -157 315 -17 29 -48 54 -105 87 -80 45 -91 57 -67 68 19 8 107 -4 157 -21z m6249 -20 c0 -10 -24 -36 -52 -58 -29 -23 -69 -65 -89 -95 -39 -56 -158 -287 -158 -305 0 -5 -6 -22 -14 -37 -8 -15 -17 -40 -21 -57 -6 -28 -10 -31 -45 -31 -21 0 -42 -4 -45 -10 -3 -5 -14 -10 -23 -10 -10 0 -25 -9 -35 -20 -9 -11 -23 -20 -31 -20 -8 0 -16 -3 -18 -7 -1 -5 -21 -20 -43 -35 -22 -15 -60 -46 -84 -68 -23 -22 -47 -40 -53 -40 -13 0 -3 79 17 135 8 22 14 50 15 62 0 12 4 24 9 28 5 3 13 20 16 38 12 56 104 237 135 267 3 3 20 24 39 48 31 39 126 120 161 135 8 4 22 11 30 15 43 25 67 35 123 52 82 24 96 27 135 29 24 1 32 -3 31 -16z m-6479 -239 c0 -106 2 -119 31 -181 48 -105 56 -124 73 -178 20 -63 21 -164 1 -191 -8 -10 -15 -31 -15 -46 0 -24 4 -28 30 -28 17 0 30 3 30 8 1 16 67 82 83 82 14 0 16 -8 10 -59 -5 -57 -4 -61 25 -88 97 -90 212 -315 212 -417 0 -25 -11 -51 -36 -87 -44 -60 -36 -78 21 -49 21 11 43 24 49 30 5 5 17 10 25 10 9 0 29 7 45 15 61 32 75 15 41 -49 -31 -59 -32 -102 -1 -146 47 -71 82 -185 93 -312 6 -68 -20 -195 -50 -248 -28 -48 -102 -118 -129 -122 -36 -5 -36 -54 1 -104 l29 -41 -30 -31 -31 -30 18 -74 c9 -40 24 -91 31 -113 16 -46 19 -162 5 -184 -11 -18 4 -51 23 -51 16 0 49 37 64 73 15 34 15 138 1 192 -6 22 -13 53 -16 68 -3 17 -15 33 -29 39 -28 13 -30 25 -8 56 9 14 26 22 43 22 16 0 42 7 57 15 16 8 34 15 40 15 15 0 28 -278 19 -396 -11 -138 -54 -209 -95 -159 -9 11 -23 13 -51 9 -31 -5 -51 0 -103 25 -36 17 -70 31 -76 31 -21 0 -116 69 -167 121 -28 28 -61 72 -74 98 -59 117 -25 287 101 496 67 112 93 191 115 340 33 229 -61 411 -371 720 -145 145 -164 171 -164 226 0 16 -6 62 -14 102 -31 153 -23 460 13 542 46 105 102 182 123 169 4 -3 8 -57 8 -120z m6605 108 c56 -48 104 -132 129 -228 22 -82 22 -431 1 -519 -8 -33 -14 -75 -15 -93 0 -18 -5 -42 -11 -53 -5 -11 -72 -81 -148 -157 -154 -152 -251 -275 -300 -378 -45 -95 -47 -98 -67 -192 -15 -73 -16 -92 -5 -160 8 -42 17 -97 20 -122 7 -43 51 -142 91 -205 10 -16 28 -50 40 -75 68 -144 82 -197 84 -308 1 -87 -2 -101 -24 -137 -36 -58 -49 -72 -110 -119 -116 -91 -266 -134 -366 -107 -55 15 -75 40 -86 108 -5 31 -14 63 -19 70 -6 7 -12 57 -12 112 -2 87 0 102 17 114 17 13 17 14 -3 52 -12 22 -21 52 -21 68 0 25 3 27 23 22 12 -4 35 -13 51 -21 16 -8 44 -14 61 -14 47 0 73 -41 55 -84 -6 -17 -16 -52 -20 -78 -5 -26 -13 -56 -19 -67 -6 -11 -11 -55 -11 -98 1 -61 5 -83 19 -100 23 -28 34 -29 61 -6 24 21 26 55 4 88 -23 35 -9 121 38 238 27 68 21 108 -18 126 -30 13 -31 14 -17 42 8 16 19 29 24 29 5 0 17 16 26 36 l18 36 -37 31 c-20 18 -50 42 -65 53 -16 12 -41 45 -57 74 -25 45 -37 81 -63 189 -6 26 16 220 27 236 4 6 10 24 14 40 4 17 27 55 52 87 24 31 44 62 44 68 0 7 -15 27 -34 44 -35 34 -53 71 -38 80 15 9 175 -54 187 -75 8 -12 42 -12 50 1 11 18 -14 83 -46 116 -34 35 -34 38 -10 132 10 39 19 61 43 102 4 8 12 25 18 37 19 46 94 145 127 170 33 25 35 30 29 68 -3 22 -9 50 -12 63 -11 39 30 27 74 -23 43 -48 75 -58 98 -27 21 27 16 66 -11 92 -18 17 -25 34 -25 63 0 49 38 169 75 237 80 149 81 151 56 223 -21 64 -27 117 -13 117 4 -1 16 -8 27 -18z m-6132 -508 c176 -86 290 -178 385 -309 7 -10 19 -37 54 -115 20 -44 38 -151 38 -223 0 -88 -32 -137 -55 -85 -19 42 -58 61 -128 61 -36 0 -88 -6 -116 -13 -44 -10 -55 -10 -75 3 -25 17 -27 27 -46 292 -15 198 -27 264 -55 301 -14 19 -29 34 -34 34 -13 0 -52 60 -46 70 9 15 21 12 78 -16z m5682 -14 c3 -5 -9 -36 -27 -67 -18 -32 -42 -85 -52 -118 -10 -33 -24 -78 -31 -100 -20 -60 -27 -173 -14 -235 13 -66 14 -101 4 -157 -8 -48 -28 -56 -46 -20 -18 34 -27 37 -120 37 -72 0 -94 -4 -135 -25 -56 -29 -73 -30 -99 -11 -16 12 -19 25 -16 97 3 127 34 213 114 322 43 60 166 167 217 190 8 4 29 16 46 26 58 35 129 71 141 71 6 0 15 -4 18 -10z m-4475 -175 c0 -8 4 -15 8 -15 5 0 23 -19 40 -42 86 -118 300 -302 491 -425 89 -56 326 -173 352 -173 4 0 20 -5 36 -12 101 -42 314 -89 488 -109 108 -12 395 -5 456 11 19 5 62 14 95 19 104 18 297 71 359 100 11 6 43 19 70 31 79 33 112 51 220 114 196 117 365 258 527 444 61 70 64 57 17 -78 -6 -19 -18 -50 -25 -68 -8 -18 -14 -43 -14 -56 0 -13 -4 -36 -9 -52 -5 -16 -17 -63 -26 -104 -9 -41 -22 -102 -30 -135 -57 -259 -105 -669 -105 -904 0 -51 -4 -82 -12 -87 -6 -4 -13 -3 -15 3 -2 6 -35 52 -72 102 -84 111 -100 159 -82 240 33 148 26 178 -42 167 -80 -13 -218 -128 -276 -230 -72 -126 -100 -294 -66 -397 28 -83 47 -118 89 -160 35 -35 43 -39 91 -39 46 0 55 4 89 37 48 48 59 35 52 -63 -9 -116 -40 -162 -194 -291 l-39 -33 -126 0 -126 0 -67 64 c-36 36 -64 71 -62 78 3 7 23 16 46 20 104 18 170 93 197 224 4 19 -2 62 -13 108 -17 66 -31 91 -102 186 -75 100 -85 110 -114 110 -18 0 -37 -5 -43 -11 -8 -8 -22 3 -52 41 -37 46 -41 58 -41 106 0 50 -2 55 -26 65 -30 11 -60 4 -86 -18 -15 -13 -19 -11 -44 29 -15 23 -50 66 -77 95 -27 28 -71 82 -96 120 -59 87 -76 90 -127 26 -21 -26 -60 -73 -85 -103 -60 -71 -98 -133 -106 -170 -3 -17 -9 -32 -12 -34 -4 -3 -26 9 -51 25 -38 26 -46 28 -64 16 -11 -8 -29 -41 -40 -73 -12 -33 -33 -81 -48 -106 -16 -26 -28 -56 -28 -67 0 -23 -19 -28 -37 -10 -25 25 -66 5 -115 -56 -26 -33 -51 -67 -55 -75 -3 -8 -11 -22 -18 -30 -7 -8 -19 -42 -28 -75 -46 -168 51 -313 213 -320 86 -3 93 -45 22 -125 l-39 -44 -117 0 c-83 -1 -119 3 -124 11 -5 7 -37 32 -72 56 -36 24 -83 66 -106 94 -39 48 -86 153 -97 219 l-6 31 72 -1 c55 0 79 4 102 19 59 39 93 98 114 200 11 51 10 69 -3 121 -21 82 -38 121 -77 174 -41 57 -43 59 -122 118 -81 62 -146 89 -176 73 -20 -11 -21 -17 -15 -109 l6 -97 -45 -85 c-25 -47 -58 -109 -72 -137 -44 -87 -55 -73 -55 70 0 192 -34 542 -70 732 -36 190 -91 437 -116 525 -15 49 -28 88 -55 158 -12 30 -11 52 1 52 6 0 10 -7 10 -15z m-1854 -252 c9 -15 67 -78 128 -139 162 -163 256 -269 256 -287 0 -3 14 -26 30 -50 17 -25 30 -50 30 -57 0 -7 6 -24 14 -38 42 -81 53 -190 31 -306 -17 -92 -40 -150 -95 -241 -16 -27 -33 -57 -36 -65 -4 -8 -18 -39 -31 -69 -71 -154 -89 -348 -43 -441 25 -49 93 -124 146 -160 25 -16 48 -30 52 -30 13 -1 52 -38 52 -50 0 -21 -69 -6 -159 34 -76 34 -89 36 -168 34 l-85 -3 -29 35 c-40 48 -96 159 -126 253 -20 62 -24 90 -20 140 11 127 29 174 131 347 27 47 52 87 55 90 22 19 52 100 49 130 -2 28 1 35 17 38 26 5 105 70 105 86 0 7 9 21 20 31 28 25 25 65 -10 141 -47 100 -126 137 -141 66 -5 -27 -1 -40 26 -76 40 -51 52 -104 35 -147 -13 -31 -13 -31 -74 -24 -34 4 -72 14 -86 24 -36 26 -75 87 -89 140 -23 91 -32 251 -20 362 8 76 8 116 0 145 -26 93 -5 147 35 87z m6959 17 c3 -5 11 -100 17 -211 8 -155 8 -221 -2 -288 -7 -47 -14 -102 -17 -121 -6 -41 -35 -105 -64 -139 -19 -23 -22 -24 -79 -13 -69 12 -130 53 -130 86 0 24 23 59 63 98 15 15 27 36 27 47 0 38 -74 55 -90 21 -4 -8 -20 -42 -36 -75 -21 -43 -29 -74 -29 -115 0 -67 21 -101 83 -131 37 -18 42 -25 42 -55 0 -38 17 -74 110 -229 66 -110 83 -146 114 -242 20 -60 18 -206 -3 -263 -34 -88 -77 -164 -128 -219 -52 -58 -84 -74 -99 -50 -11 18 -129 4 -222 -26 -131 -42 -138 -31 -33 48 93 69 181 171 181 212 1 11 7 31 15 45 17 30 19 91 5 180 -14 86 -32 132 -103 270 -102 197 -109 213 -118 278 -5 35 -13 72 -19 81 -5 11 -6 50 0 102 18 175 85 283 328 529 78 80 145 155 148 168 6 22 28 30 39 12z m-5980 -400 c66 -133 86 -204 92 -337 3 -57 1 -103 -3 -103 -4 0 -16 7 -26 16 -16 16 -18 16 -24 0 -3 -9 1 -28 11 -42 23 -36 17 -180 -12 -249 -66 -159 -85 -183 -159 -195 -78 -13 -84 -13 -90 5 -4 9 16 36 53 72 94 93 138 194 135 313 -1 41 3 94 9 116 9 33 7 59 -5 120 -19 91 -73 207 -92 200 -25 -10 -25 14 1 85 14 40 28 76 31 81 12 18 47 -19 79 -82z m5073 15 c39 -79 40 -102 4 -157 -70 -107 -101 -334 -67 -481 21 -92 60 -160 122 -217 56 -51 65 -73 35 -89 -13 -7 -29 -3 -63 19 -74 46 -108 96 -176 260 -17 43 -19 73 -11 210 3 39 0 46 -20 55 -22 9 -23 14 -19 75 3 36 10 88 16 115 10 48 85 237 104 263 21 28 44 12 75 -53z m-169 16 c12 -8 10 -15 -7 -43 -61 -96 -82 -181 -89 -353 l-5 -131 -38 -22 c-41 -23 -153 -162 -181 -222 -25 -56 -41 -103 -46 -138 -3 -18 -9 -35 -14 -38 -9 -5 -13 2 -23 49 -5 20 -12 27 -31 27 -16 0 -25 -6 -25 -16 0 -8 -14 -48 -30 -88 -34 -81 -51 -205 -39 -289 20 -151 -67 -7 -96 157 -3 21 -13 49 -22 62 -17 26 -14 125 6 219 10 48 16 63 47 130 8 17 21 54 29 83 23 76 48 67 95 -32 21 -45 24 -47 37 -31 13 19 14 29 18 140 1 57 15 126 34 170 59 141 100 197 194 269 62 47 151 103 167 105 3 0 11 -3 19 -8z m-4750 -32 c147 -83 261 -225 308 -382 8 -28 18 -100 22 -160 3 -59 10 -108 15 -108 6 -1 24 25 41 57 43 83 55 81 97 -18 20 -46 41 -99 46 -118 6 -19 18 -57 27 -84 20 -67 20 -207 -2 -271 -29 -87 -66 -158 -102 -195 l-24 -25 7 40 c4 22 11 67 17 100 14 77 5 155 -24 228 -31 74 -51 95 -94 99 -34 3 -37 6 -58 66 -12 34 -34 80 -48 101 -37 56 -130 153 -178 187 l-42 28 9 76 c5 41 7 113 6 159 -3 92 -7 101 -86 184 -68 70 -33 90 63 36z m2329 -393 c14 -26 56 -80 93 -119 l69 -71 0 -84 0 -83 31 3 c26 2 34 10 47 43 9 22 21 46 28 52 7 7 14 18 16 25 2 6 12 9 21 5 13 -5 15 -15 10 -57 -5 -47 -3 -54 24 -83 75 -80 78 -105 24 -161 -21 -23 -52 -56 -69 -73 -17 -18 -34 -33 -39 -33 -5 0 -21 33 -36 74 -18 48 -43 92 -71 123 -23 26 -57 76 -75 110 -26 49 -39 63 -63 68 -37 9 -68 -17 -68 -56 0 -28 -31 -65 -103 -124 -41 -33 -84 -93 -98 -134 -15 -49 -35 -101 -41 -106 -3 -3 -15 13 -27 37 -11 24 -36 54 -56 67 -68 46 -85 67 -85 109 0 27 9 50 30 78 24 32 29 49 30 92 0 73 22 70 88 -15 59 -75 102 -51 102 56 0 83 16 117 87 190 29 30 53 61 53 69 0 19 30 54 43 49 6 -2 21 -24 35 -51z m1142 -47 c0 -6 -11 -43 -25 -81 -14 -38 -25 -77 -25 -87 0 -62 67 -197 125 -251 14 -13 25 -28 25 -33 0 -6 6 -18 14 -26 24 -28 66 -111 87 -172 16 -46 20 -76 16 -141 -5 -112 -37 -182 -124 -279 -34 -38 -38 -39 -82 -33 -28 3 -69 0 -106 -10 -32 -9 -63 -12 -67 -8 -5 5 24 42 64 83 75 76 103 122 133 221 16 51 17 66 6 128 -19 104 -67 163 -106 130 -8 -7 -15 -23 -15 -37 0 -30 -37 -97 -63 -113 -16 -10 -24 -8 -46 8 -34 25 -56 63 -87 153 -46 132 -44 189 13 317 29 66 168 208 226 232 30 12 37 12 37 -1z m-2219 -107 c162 -123 228 -248 200 -380 -21 -94 -65 -172 -99 -172 -18 0 -76 42 -118 87 -34 36 -80 45 -91 17 -3 -9 2 -53 11 -99 9 -46 16 -95 16 -109 0 -25 14 -64 54 -144 37 -77 44 -86 93 -129 26 -23 64 -56 83 -73 l35 -32 -45 6 c-25 3 -66 14 -90 25 -31 14 -66 21 -113 21 -51 0 -72 4 -86 18 -22 21 -91 139 -91 155 0 7 -8 23 -17 37 -22 32 -30 176 -13 233 12 40 40 103 60 137 18 30 106 186 123 217 9 17 17 38 17 47 0 9 7 19 15 22 22 9 18 35 -11 88 -24 43 -27 76 -6 76 5 0 38 -22 73 -48z m-1247 -18 c14 -5 49 -45 130 -145 7 -9 28 -47 46 -85 30 -62 33 -78 34 -161 1 -84 3 -94 23 -108 22 -15 24 -14 43 17 11 18 20 41 20 50 0 23 16 31 38 19 13 -7 22 -35 35 -103 9 -51 17 -103 17 -115 0 -34 -38 -185 -50 -197 -5 -5 -10 -16 -10 -22 0 -18 -67 -128 -91 -150 -18 -17 -20 -16 -42 4 -20 19 -35 22 -105 22 -44 0 -84 -4 -87 -10 -19 -30 -33 3 -16 38 56 115 77 210 69 314 -8 98 -102 288 -143 288 -28 0 -33 22 -13 61 11 22 24 41 28 44 5 3 11 18 15 34 3 16 13 35 21 42 13 10 14 26 9 80 -6 59 -3 89 10 89 2 0 11 -3 19 -6z m4679 -52 c9 -82 30 -158 62 -219 l27 -52 -29 -25 c-25 -21 -86 -130 -113 -201 -45 -119 -37 -278 19 -392 12 -23 21 -47 21 -53 0 -17 -43 -11 -75 10 -24 17 -40 19 -81 14 -29 -3 -61 -3 -72 0 -50 16 -176 292 -165 361 3 20 10 38 15 41 4 3 5 34 2 70 -5 45 -3 68 6 79 21 25 36 17 62 -32 26 -52 43 -61 73 -39 15 11 19 24 17 58 -9 132 -7 147 45 243 23 41 132 183 146 189 28 11 34 3 40 -52z m-2343 -185 c0 -8 9 -25 21 -38 56 -64 127 -186 133 -231 7 -43 5 -50 -26 -85 -62 -70 -70 -89 -69 -168 0 -53 6 -83 19 -107 40 -72 57 -98 65 -98 4 0 7 -9 7 -20 0 -28 -32 -26 -85 6 -43 25 -45 25 -153 15 -59 -5 -121 -15 -136 -21 -15 -5 -29 -10 -31 -10 -11 0 79 193 107 229 33 44 14 114 -48 176 -72 72 -52 142 78 277 78 81 118 106 118 75z m525 -64 c11 -21 32 -54 47 -74 15 -20 28 -40 28 -45 0 -4 6 -15 13 -23 21 -26 50 -156 43 -195 -15 -79 -43 -106 -122 -120 -26 -4 -41 2 -84 34 -54 40 -66 41 -92 5 -9 -13 2 -67 18 -86 8 -8 14 -23 14 -32 0 -18 64 -104 97 -130 13 -10 23 -25 23 -34 0 -19 -47 -10 -114 24 -38 19 -57 23 -88 18 -37 -7 -42 -4 -82 38 -24 24 -46 57 -50 73 -4 16 -13 36 -21 44 -7 8 -18 32 -25 53 -11 35 -10 41 15 79 15 23 90 104 166 181 77 77 139 145 139 152 0 21 31 75 43 75 7 0 21 -17 32 -37z m-2565 -34 c0 -12 -5 -19 -11 -17 -6 2 -10 7 -10 11 1 4 1 14 1 23 0 8 5 12 10 9 6 -3 10 -15 10 -26z m1448 -13 c16 -35 82 -106 98 -106 8 0 14 -5 14 -10 0 -6 8 -13 18 -17 45 -17 180 -136 213 -190 30 -48 26 -82 -20 -176 -49 -102 -86 -137 -142 -137 -22 0 -49 -5 -61 -11 -33 -18 -33 -3 1 60 37 70 41 143 12 206 -43 94 -97 99 -92 8 3 -62 -18 -77 -58 -40 -14 13 -45 36 -69 52 -48 32 -62 52 -62 89 0 44 32 150 54 181 12 16 31 49 41 73 20 48 37 53 53 18z m3049 -83 c-26 -184 -30 -265 -19 -340 16 -112 29 -169 44 -192 17 -27 -1 -46 -36 -37 -54 13 -114 218 -102 351 9 98 37 184 80 248 24 36 40 22 33 -30z m-4944 41 c18 -6 77 -125 101 -201 23 -73 22 -242 -2 -308 -27 -78 -42 -94 -85 -92 -20 1 -39 5 -42 9 -3 3 3 32 13 64 11 33 27 91 36 129 19 78 14 137 -24 299 -26 113 -26 112 3 100z m774 -147 c-5 -70 -21 -150 -42 -217 -78 -244 -72 -235 -137 -235 -29 0 -61 -4 -70 -9 -29 -13 -23 35 10 80 16 21 31 46 35 54 14 28 32 56 68 105 20 28 46 73 58 100 12 28 28 62 36 77 8 14 15 37 15 51 0 13 3 39 6 57 11 54 26 8 21 -63z m308 -287 c4 -17 22 -61 41 -97 52 -102 48 -109 -42 -67 l-54 26 6 66 c10 98 35 135 49 72z m2802 -58 c8 -24 13 -60 11 -80 -2 -31 -6 -36 -23 -33 -11 2 -39 4 -62 4 -48 -1 -51 4 -25 38 10 13 28 46 41 72 12 27 27 47 33 45 5 -2 17 -23 25 -46z m-4526 -142 c83 0 129 -4 129 -10 0 -13 -24 -38 -71 -73 -38 -27 -67 -79 -88 -154 -12 -45 -34 -50 -47 -10 -4 12 -27 45 -53 73 -25 28 -58 72 -73 96 -45 73 -37 93 31 84 24 -3 102 -6 172 -6z m6398 -4 c13 -15 -1 -66 -19 -66 -5 0 -10 -12 -10 -27 0 -20 -17 -44 -69 -95 -39 -37 -75 -68 -81 -68 -12 0 -12 0 -35 84 -18 65 -50 101 -98 111 -31 7 -77 40 -77 57 0 4 75 9 168 11 92 1 177 4 188 5 12 1 27 -4 33 -12z m-5906 -21 c391 -11 467 -16 477 -36 11 -20 5 -28 -48 -59 -29 -18 -59 -65 -76 -122 -8 -28 -24 -21 -42 18 -10 20 -31 50 -49 67 -34 35 -130 97 -149 97 -6 0 -33 -28 -61 -61 -27 -34 -61 -73 -75 -86 l-25 -25 -6 30 c-11 53 -49 101 -100 128 -35 17 -49 30 -49 45 0 18 4 20 26 15 14 -4 94 -9 177 -11z m3712 -15 c7 -11 -48 -56 -97 -81 -22 -11 -53 -34 -69 -50 -15 -16 -33 -29 -39 -29 -5 0 -10 -4 -10 -8 0 -9 -58 -35 -105 -48 -16 -4 -82 -8 -145 -9 -63 -1 -125 -5 -137 -9 -26 -8 -30 -38 -8 -56 24 -20 19 -85 -10 -134 -26 -45 -114 -133 -175 -176 -19 -13 -37 -27 -40 -30 -11 -12 -88 -70 -94 -70 -4 0 -45 -29 -93 -65 -47 -36 -90 -65 -95 -65 -12 0 -85 47 -93 59 -3 6 -83 75 -178 154 -199 167 -199 167 -226 230 -11 26 -25 47 -31 47 -11 0 -8 29 6 80 7 27 -54 48 -151 53 -102 5 -153 25 -221 87 -22 20 -62 45 -90 54 -66 23 -114 49 -114 61 0 6 98 11 270 13 309 3 283 12 295 -100 7 -75 37 -127 97 -169 32 -23 120 -59 144 -59 44 0 244 -164 244 -199 0 -17 39 -91 48 -91 4 0 23 28 42 62 45 80 142 178 203 206 62 29 127 61 152 75 40 24 112 91 144 136 20 29 22 40 16 87 l-6 54 263 2 c266 3 294 2 303 -12z m463 14 c12 -4 22 -10 22 -15 0 -5 -32 -30 -70 -55 -39 -25 -96 -71 -128 -103 -61 -62 -214 -181 -231 -181 -6 0 -11 -4 -11 -8 0 -4 -30 -23 -67 -42 -67 -35 -69 -35 -183 -33 -63 1 -144 4 -180 5 -64 3 -65 3 -62 -21 1 -14 10 -33 19 -43 10 -11 16 -35 15 -62 -1 -66 -55 -142 -156 -218 -44 -34 -86 -67 -92 -74 -6 -8 -15 -14 -19 -14 -4 0 -31 -19 -59 -43 -28 -24 -80 -65 -116 -92 -36 -27 -69 -54 -75 -60 -5 -6 -32 -29 -60 -50 -27 -22 -52 -42 -55 -45 -3 -3 -15 -13 -27 -23 -24 -20 -17 -24 -178 91 -22 16 -78 55 -125 87 -258 180 -351 265 -399 364 -33 67 -34 72 -21 110 10 32 10 46 0 70 -14 36 -24 37 -129 19 -56 -10 -81 -9 -123 1 -166 40 -327 134 -483 281 -37 35 -79 64 -110 75 -56 21 -85 42 -85 62 0 10 38 13 190 13 116 0 196 -4 203 -10 7 -6 55 -42 107 -81 52 -38 113 -87 136 -109 84 -80 149 -107 289 -119 69 -6 70 -7 73 -36 5 -42 27 -107 51 -146 18 -30 99 -102 246 -221 27 -22 74 -62 105 -88 169 -147 167 -146 213 -110 14 11 28 20 32 20 4 0 24 13 44 28 20 16 43 32 51 35 18 9 132 91 237 173 140 109 210 200 215 279 l3 47 85 4 c80 3 112 12 200 53 91 42 260 182 301 247 l20 34 167 3 c92 1 174 3 182 5 8 1 25 -1 38 -4z m486 0 c30 -12 16 -35 -86 -140 -96 -98 -239 -216 -323 -265 -19 -12 -35 -25 -35 -30 0 -5 -5 -9 -11 -9 -6 0 -31 -13 -56 -30 -24 -16 -46 -30 -49 -30 -3 0 -20 -11 -37 -24 -18 -13 -57 -34 -87 -47 -30 -13 -56 -27 -58 -31 -2 -4 -12 -8 -22 -8 -9 0 -23 -6 -29 -14 -12 -14 -82 -28 -142 -28 -19 0 -58 12 -87 26 -61 31 -101 33 -133 7 -17 -14 -21 -22 -13 -32 33 -43 39 -119 18 -203 -13 -55 -92 -151 -160 -197 -12 -8 -57 -41 -100 -75 -44 -33 -95 -69 -114 -80 -19 -10 -51 -31 -71 -46 -20 -16 -42 -28 -48 -28 -6 0 -30 -14 -53 -30 -22 -17 -47 -30 -55 -30 -7 0 -13 -5 -13 -10 0 -6 -10 -15 -22 -21 -62 -28 -90 -49 -174 -136 -86 -87 -114 -107 -114 -83 0 20 -77 95 -170 165 -52 39 -214 151 -360 248 -146 96 -277 188 -291 204 -14 15 -42 53 -62 83 -31 47 -37 65 -40 125 -5 85 -12 103 -42 111 -23 6 -75 -20 -75 -37 0 -18 -106 -8 -172 15 -73 26 -121 57 -202 133 -117 109 -174 160 -220 198 -92 75 -201 170 -226 197 -21 23 -114 72 -173 92 -10 3 -17 15 -17 31 l0 25 173 -1 173 -1 120 -117 c65 -64 148 -139 184 -166 36 -27 67 -52 70 -55 29 -34 280 -170 314 -170 7 0 31 -7 51 -16 27 -11 62 -15 119 -13 l81 4 6 -55 c8 -76 52 -163 113 -225 48 -49 252 -204 400 -305 37 -25 72 -49 79 -55 33 -27 77 -55 86 -55 5 0 11 -3 13 -7 4 -10 65 -53 74 -53 7 0 111 78 140 105 6 5 45 36 85 67 41 31 94 73 119 92 25 20 81 64 125 98 44 34 82 65 85 69 3 3 28 24 55 44 61 47 85 72 116 121 13 22 29 45 37 53 8 8 12 31 10 60 l-3 46 85 -3 c62 -2 103 2 150 16 57 17 165 66 180 82 3 3 23 18 46 33 22 15 49 35 60 45 10 10 51 43 89 73 39 31 124 108 190 172 l120 116 165 3 c91 2 173 5 182 6 9 1 23 -1 32 -4z m701 -5 c4 -6 -12 -30 -37 -55 -24 -23 -54 -63 -67 -88 -12 -25 -26 -48 -31 -51 -5 -3 -16 10 -25 29 -20 41 -80 106 -99 106 -8 0 -19 7 -26 15 -22 27 -41 16 -123 -70 -44 -47 -86 -85 -92 -85 -6 0 -21 20 -33 45 -13 26 -36 53 -54 65 -58 34 -62 40 -41 61 15 15 46 19 213 26 342 14 408 15 415 2z m-5622 -16 c34 -39 147 -218 147 -234 0 -9 -14 -22 -30 -29 -38 -16 -69 -52 -112 -130 -18 -33 -36 -60 -40 -60 -3 0 -12 17 -19 38 -7 23 -37 61 -79 102 -37 36 -69 72 -72 80 -9 29 22 86 92 167 40 45 78 83 85 83 6 0 19 -8 28 -17z m3345 -41 c3 -51 2 -54 -44 -97 -25 -25 -55 -45 -65 -45 -10 0 -21 -4 -24 -10 -3 -5 -16 -10 -28 -10 -12 0 -31 -7 -41 -15 -11 -8 -26 -15 -34 -15 -28 0 -163 -121 -209 -187 -17 -26 -43 -31 -43 -9 0 23 -90 115 -153 156 -33 22 -97 51 -143 66 -90 28 -132 60 -141 105 -3 15 -16 38 -29 50 -13 12 -24 33 -24 46 l0 23 488 -2 487 -3 3 -53z m2441 -17 c82 -86 116 -149 106 -194 -4 -18 -36 -61 -85 -111 -43 -44 -80 -80 -83 -80 -3 0 -9 15 -12 32 -14 61 -102 168 -139 168 -8 0 -19 7 -26 15 -10 12 -10 18 1 31 7 9 18 24 24 34 40 70 120 180 130 180 7 0 44 -34 84 -75z m-4963 -71 c30 -27 113 -94 162 -130 13 -9 -15 -47 -42 -58 -20 -8 -45 -33 -65 -65 -18 -28 -37 -51 -41 -51 -5 0 -12 -9 -15 -20 -10 -30 -21 -16 -28 35 -8 59 -37 114 -82 156 -21 20 -35 43 -35 57 0 28 68 112 91 112 9 0 34 -16 55 -36z m-427 14 c6 -7 23 -28 37 -46 25 -31 136 -122 149 -122 16 0 76 -55 96 -88 42 -69 89 -172 89 -197 0 -34 -43 -63 -67 -44 -12 11 -83 15 -315 19 l-299 5 -29 35 c-37 44 -37 76 -4 126 34 51 135 149 172 168 37 19 110 102 118 133 7 25 36 31 53 11z m4572 -19 c26 -28 49 -83 49 -120 0 -8 -13 -25 -29 -36 -15 -12 -43 -53 -62 -92 -19 -39 -39 -71 -44 -71 -6 0 -18 22 -28 49 -15 42 -24 53 -62 71 -25 12 -45 25 -45 29 0 5 27 32 61 62 33 29 72 73 86 96 14 24 29 43 35 43 5 0 23 -14 39 -31z m367 7 c17 -37 70 -93 136 -144 67 -51 140 -126 168 -173 24 -39 23 -94 -3 -135 -20 -34 -51 -44 -65 -23 -4 8 -92 10 -293 8 -157 -1 -298 1 -314 5 -38 11 -49 35 -34 77 7 19 16 41 22 49 5 8 20 35 33 60 28 54 63 92 100 111 64 32 145 101 178 152 28 42 56 48 72 13z m-5805 -26 c15 -22 56 -61 90 -87 34 -26 64 -50 67 -53 3 -3 23 -17 45 -32 63 -43 163 -144 185 -187 35 -65 0 -113 -59 -81 -21 11 -174 -3 -229 -21 -47 -16 -98 14 -204 119 -105 103 -109 119 -56 212 4 8 12 24 17 35 5 12 15 26 24 33 8 7 27 32 43 57 15 25 33 45 38 45 6 0 24 -18 39 -40z m6682 13 c11 -15 32 -41 46 -58 14 -16 29 -37 32 -45 4 -8 18 -33 32 -55 18 -30 24 -55 25 -97 l0 -56 -86 -79 c-47 -43 -92 -82 -101 -86 -9 -5 -47 -2 -94 7 -44 9 -111 16 -149 16 -86 0 -158 18 -165 41 -14 43 64 126 252 267 83 62 129 104 144 132 27 47 37 49 64 13z m-5105 -226 c30 -30 93 -86 140 -126 47 -40 100 -85 118 -101 34 -30 42 -67 17 -77 -9 -3 -41 6 -73 20 -56 24 -58 24 -210 14 l-154 -9 -41 29 c-54 37 -61 81 -22 139 32 47 146 164 160 164 6 0 35 -24 65 -53z m3626 -32 c41 -39 92 -115 99 -145 13 -60 -52 -142 -89 -111 -25 21 -117 24 -286 11 -89 -7 -164 -9 -167 -6 -15 15 20 55 69 81 29 15 79 45 111 66 32 22 61 39 64 39 7 0 85 60 98 75 6 6 19 16 30 22 21 12 29 8 71 -32z m-4653 -289 c40 -13 97 -16 340 -16 258 0 295 2 317 17 14 9 29 23 33 30 13 21 47 15 56 -9 5 -13 20 -34 35 -47 l25 -24 262 2 c145 1 266 4 271 7 4 3 8 14 8 24 0 32 19 32 66 1 25 -17 49 -31 55 -31 5 0 20 -6 32 -14 36 -22 160 -41 185 -27 11 6 34 11 50 11 29 0 30 -1 34 -57 2 -32 1 -62 -4 -67 -4 -6 -21 -3 -40 7 -62 30 -273 39 -823 33 -286 -3 -684 -6 -884 -7 l-365 -1 -37 40 c-20 22 -50 47 -67 56 -34 17 -47 42 -29 53 7 4 73 10 147 13 74 3 147 11 162 18 15 6 35 26 44 44 l17 32 31 -36 c19 -22 49 -42 79 -52z m5649 49 c33 -43 80 -55 222 -59 72 -2 132 -5 134 -5 14 -6 -38 -88 -114 -179 -1 -2 -13 3 -26 12 -20 13 -142 15 -1023 17 -550 1 -1020 -1 -1043 -4 -43 -4 -44 -4 -37 22 9 33 9 69 0 104 -6 23 -4 27 12 27 11 0 34 -7 52 -16 22 -11 50 -14 94 -11 70 5 113 20 174 61 50 34 67 30 69 -13 1 -18 6 -37 10 -41 5 -5 130 -10 277 -11 265 -2 268 -1 292 21 13 12 25 32 27 44 4 31 33 31 74 -1 l37 -28 311 0 c339 0 356 2 395 56 26 36 37 36 63 4z m-3773 -378 c60 -62 61 -64 42 -81 -19 -17 -22 -17 -75 8 l-56 26 -1002 0 c-1070 -1 -1043 -2 -1115 46 -23 15 -32 59 -13 66 5 2 493 2 1084 0 l1074 -2 61 -63z m3991 58 c17 -11 11 -64 -10 -85 -19 -19 -41 -19 -1037 -20 -560 0 -1045 -5 -1078 -9 -33 -5 -79 -13 -102 -16 -55 -10 -57 8 -7 56 20 18 42 45 49 59 l13 25 1081 -2 c595 -1 1086 -5 1091 -8z m-6230 -143 c0 -9 72 -46 121 -61 25 -8 341 -11 1081 -11 1107 0 1090 -1 1128 44 18 22 26 20 73 -16 52 -41 77 -57 100 -64 9 -4 17 -10 17 -14 0 -5 9 -12 20 -15 11 -3 20 -13 20 -20 0 -25 -45 -27 -106 -5 -43 15 -77 20 -124 18 -36 -2 -585 -3 -1220 -3 -1234 0 -1240 0 -1240 47 0 28 78 108 106 108 13 0 24 -3 24 -8z m6341 -43 c56 -57 64 -93 25 -110 -17 -8 -30 -7 -52 3 -23 12 -49 13 -124 7 -52 -5 -606 -8 -1230 -8 -792 1 -1144 -3 -1163 -10 -33 -13 -84 -14 -91 -3 -5 8 86 82 102 82 4 0 22 14 40 30 34 30 66 39 77 20 4 -6 22 -17 42 -25 31 -13 178 -15 1074 -15 1126 0 1114 -1 1183 54 17 14 39 25 49 26 10 0 41 -23 68 -51z m-6500 -158 c25 -24 45 -31 93 -36 34 -3 635 -5 1336 -3 1191 3 1277 4 1309 21 47 24 53 23 120 -26 33 -23 78 -55 101 -71 54 -37 63 -63 55 -161 -7 -89 -33 -176 -69 -233 -28 -44 -132 -142 -151 -142 -7 0 -18 -7 -25 -15 -7 -9 -20 -13 -30 -10 -9 3 -31 -2 -49 -11 -44 -22 -258 -31 -342 -15 -90 18 -184 67 -230 120 -45 51 -109 178 -109 216 0 37 -17 65 -40 65 -10 0 -36 -20 -56 -44 -43 -51 -138 -102 -209 -112 -16 -3 -52 -9 -78 -14 -72 -15 -135 -12 -238 10 -167 35 -171 36 -389 143 -177 86 -229 106 -301 114 -98 10 -177 -17 -283 -97 -57 -43 -166 -164 -166 -184 0 -5 -8 -18 -17 -29 -15 -15 -18 -37 -18 -111 1 -90 2 -94 46 -176 71 -132 109 -225 109 -264 0 -42 -33 -131 -63 -169 -36 -45 -371 -73 -500 -41 -135 33 -190 89 -201 207 -7 71 3 107 29 107 8 0 15 -4 15 -9 0 -19 68 -51 107 -51 36 0 40 3 57 41 27 60 18 112 -58 345 -54 166 -66 213 -66 268 0 36 4 74 9 84 4 9 16 35 27 57 10 22 31 58 48 80 36 50 167 174 183 175 6 0 26 -13 44 -29z m3826 -18 c26 -17 107 -18 1343 -18 723 0 1331 2 1350 4 29 3 47 -5 105 -44 92 -63 205 -178 236 -241 20 -42 24 -63 23 -149 0 -116 1 -111 -122 -347 -31 -61 -31 -101 1 -168 49 -101 127 -128 188 -65 19 19 37 35 41 35 4 0 14 -13 23 -30 21 -41 20 -147 -3 -182 -45 -68 -95 -84 -298 -95 -155 -8 -206 8 -282 86 -67 68 -122 166 -122 216 0 30 44 127 108 240 20 36 61 129 67 156 9 37 -27 132 -75 195 -86 114 -248 210 -372 222 -69 6 -156 -11 -218 -44 -25 -13 -57 -28 -72 -35 -16 -6 -28 -15 -28 -20 0 -5 -8 -9 -18 -9 -10 0 -26 -6 -37 -14 -11 -7 -32 -16 -47 -20 -16 -3 -28 -11 -28 -16 0 -6 -5 -10 -11 -10 -6 0 -25 -6 -42 -13 -89 -38 -170 -60 -302 -82 -198 -34 -380 9 -516 121 -42 34 -61 44 -84 42 -30 -3 -30 -3 -35 -78 -8 -110 -57 -192 -157 -261 -23 -16 -50 -29 -61 -29 -11 0 -37 -7 -57 -16 -53 -22 -273 -31 -357 -15 -87 18 -193 69 -253 123 -61 56 -130 169 -140 229 -4 24 -14 55 -23 69 -8 13 -15 44 -15 68 0 45 16 67 68 93 11 5 34 18 50 29 17 11 39 24 50 29 12 5 32 21 45 35 30 30 42 32 77 9z m-654 -254 l77 -71 0 -58 c0 -96 0 -96 141 108 65 93 84 95 85 10 1 -87 13 -143 40 -192 13 -22 28 -52 34 -65 14 -31 150 -167 181 -181 13 -5 31 -14 39 -19 81 -46 160 -63 310 -68 107 -4 147 -1 195 12 173 50 229 89 348 246 9 13 17 35 17 50 0 69 23 75 94 24 27 -19 57 -35 66 -35 9 0 20 -4 26 -9 5 -5 40 -18 78 -30 126 -39 372 -26 494 25 18 8 41 14 50 14 10 0 27 7 38 15 10 8 26 15 34 15 8 0 42 13 75 29 33 16 80 39 105 50 25 12 52 26 60 30 66 37 176 71 230 71 48 0 117 -20 189 -54 58 -28 188 -158 196 -196 4 -17 11 -32 16 -35 22 -14 5 -76 -57 -204 -37 -75 -70 -138 -74 -141 -10 -7 -30 -93 -30 -128 0 -42 55 -172 72 -172 5 0 8 -7 8 -15 0 -46 -75 15 -133 106 -23 37 -66 97 -95 135 -60 77 -61 91 -13 173 36 62 80 162 87 199 12 61 -46 112 -130 112 -72 0 -123 -14 -526 -147 -155 -51 -171 -55 -270 -55 -144 -2 -171 7 -423 134 -52 26 -67 19 -60 -30 4 -33 0 -47 -32 -92 -67 -95 -108 -124 -240 -171 -196 -69 -526 -99 -680 -61 -109 27 -188 64 -267 128 -75 61 -109 101 -153 183 -26 49 -34 56 -60 56 -27 0 -31 -5 -41 -40 -16 -60 -24 -75 -71 -137 -76 -99 -137 -144 -244 -178 -165 -53 -283 -64 -461 -44 -241 26 -383 94 -482 230 -31 42 -56 81 -56 86 0 19 -41 68 -57 68 -8 0 -32 -17 -53 -39 -21 -21 -50 -41 -66 -44 -31 -5 -83 -23 -123 -41 -14 -6 -79 -11 -155 -10 -146 1 -241 21 -416 89 -51 19 -97 35 -104 35 -6 0 -41 20 -77 44 -76 49 -140 74 -214 82 -167 17 -265 -112 -173 -228 18 -24 36 -45 41 -46 24 -11 47 -85 47 -151 0 -62 -3 -75 -35 -123 -35 -53 -152 -178 -167 -178 -13 0 -9 21 18 100 36 106 31 130 -65 321 -44 89 -81 171 -81 182 0 55 120 210 183 237 12 6 29 14 37 19 31 18 117 41 154 41 48 0 136 -25 196 -56 198 -101 299 -147 370 -168 30 -9 77 -23 103 -31 33 -10 91 -15 185 -15 137 0 193 10 264 46 14 8 32 14 39 14 6 0 31 16 55 35 23 19 49 35 57 35 15 0 37 -40 37 -69 0 -10 7 -24 15 -31 8 -7 15 -18 15 -25 0 -7 29 -44 65 -82 67 -73 137 -116 244 -147 70 -21 279 -21 336 -1 22 8 48 15 58 15 17 0 49 14 97 41 8 5 24 13 36 18 33 15 134 112 162 155 43 69 92 168 92 187 0 10 7 22 15 27 14 7 13 13 -4 53 -24 51 -27 99 -8 99 7 0 48 -32 90 -71z m1670 -446 c70 -45 106 -63 127 -63 25 0 27 -33 3 -65 -10 -12 -25 -33 -33 -45 -8 -13 -27 -34 -42 -47 -14 -14 -29 -36 -33 -50 l-6 -24 -34 30 c-21 18 -66 40 -112 55 -43 13 -78 28 -78 34 0 5 24 28 53 51 58 46 92 93 92 129 0 29 11 28 63 -5z m-2947 -10 c12 -41 42 -90 82 -137 40 -47 42 -52 25 -64 -10 -7 -29 -15 -43 -18 -14 -3 -40 -13 -59 -21 -19 -8 -51 -18 -71 -20 -36 -5 -39 -3 -78 50 -23 30 -57 65 -76 77 -20 12 -36 27 -36 34 0 16 63 46 95 46 21 0 92 34 105 51 5 6 29 17 43 18 4 1 10 -7 13 -16z m1468 -61 c55 -66 144 -142 166 -142 5 0 10 -9 10 -21 0 -28 -51 -74 -109 -99 -25 -11 -66 -42 -91 -68 -40 -42 -45 -45 -48 -25 -5 33 -135 153 -165 153 -20 0 -39 24 -32 41 3 8 27 29 54 48 63 42 98 82 123 137 10 24 23 44 27 44 5 0 34 -31 65 -68z"></path><path d="M6475 10151 c21 -19 105 -38 105 -22 0 10 -78 41 -105 41 -19 0 -19 0 0 -19z"></path><path d="M6615 10091 c21 -21 95 -39 95 -24 0 11 -70 43 -96 43 -18 0 -18 -1 1 -19z"></path><path d="M2012 9793 c15 -15 31 -23 35 -19 9 8 -32 46 -50 46 -7 0 1 -12 15 -27z"></path><path d="M7086 9743 c10 -18 22 -33 26 -33 15 0 8 17 -19 41 l-26 24 19 -32z"></path><path d="M7510 9303 c0 -14 19 -38 25 -32 8 8 -5 39 -16 39 -5 0 -9 -3 -9 -7z"></path><path d="M5599 8950 c24 -21 41 -26 41 -12 0 15 -24 32 -44 32 -20 -1 -20 -1 3 -20z"></path><path d="M3170 9283 c-14 -3 -29 -9 -34 -14 -6 -5 -24 -9 -42 -9 -17 0 -37 -7 -44 -15 -7 -8 -19 -15 -27 -15 -8 0 -27 -6 -41 -14 -15 -8 -49 -25 -77 -38 -27 -13 -51 -26 -53 -30 -2 -5 -9 -8 -16 -8 -11 0 -164 -95 -176 -110 -3 -3 -34 -29 -70 -57 -117 -92 -235 -233 -301 -360 -13 -24 -26 -43 -31 -43 -4 0 -8 -5 -8 -11 0 -5 -9 -29 -19 -52 -10 -23 -27 -67 -36 -97 -10 -30 -24 -67 -31 -82 -8 -14 -14 -41 -14 -60 0 -19 -4 -38 -9 -43 -23 -23 -51 -431 -32 -470 5 -11 12 -69 15 -129 3 -60 10 -114 15 -120 4 -6 11 -40 15 -75 3 -35 10 -69 15 -75 5 -6 12 -35 16 -63 4 -29 11 -55 15 -58 5 -3 11 -23 15 -45 4 -22 11 -42 16 -46 5 -3 9 -15 9 -27 0 -12 7 -35 15 -51 8 -15 15 -36 15 -45 0 -10 7 -26 15 -37 8 -10 15 -28 15 -40 0 -11 7 -29 15 -40 8 -10 15 -25 15 -32 0 -15 21 -67 46 -115 8 -16 14 -37 14 -47 0 -22 41 -55 50 -40 4 6 7 83 8 171 1 89 5 166 11 172 5 7 12 43 16 81 4 38 14 81 21 95 8 14 14 36 14 49 0 26 24 110 46 159 8 17 14 36 14 42 0 6 4 19 9 29 5 9 38 75 72 146 53 108 155 277 198 328 6 7 25 29 41 48 16 19 30 38 30 42 0 10 193 201 246 244 27 21 58 47 68 56 31 28 164 116 185 123 31 9 35 37 9 57 -13 10 -27 18 -31 18 -17 0 -99 42 -124 63 -83 69 -133 131 -140 173 -3 19 -10 37 -14 40 -12 7 -11 131 1 139 6 3 10 18 10 32 0 50 57 123 130 168 40 25 53 28 128 27 56 -1 90 -6 105 -17 12 -8 28 -15 35 -15 8 0 25 -9 39 -20 56 -44 73 -7 23 47 -85 90 -168 124 -304 122 -50 -1 -102 -4 -116 -6z m-92 -171 c2 -12 -1 -22 -7 -22 -6 0 -11 -11 -11 -25 0 -14 -6 -36 -14 -48 -20 -31 -28 -132 -16 -197 6 -30 12 -64 13 -76 2 -11 18 -42 35 -67 18 -25 32 -50 32 -54 0 -5 18 -22 40 -39 22 -16 40 -32 40 -37 0 -4 11 -17 25 -29 14 -12 25 -26 25 -32 -1 -17 -40 -59 -95 -102 -87 -68 -131 -110 -292 -283 -24 -25 -43 -51 -43 -58 0 -7 -9 -17 -20 -23 -11 -6 -31 -33 -45 -60 -14 -28 -29 -50 -34 -50 -6 0 -13 -10 -17 -22 -4 -13 -19 -39 -34 -58 -14 -19 -43 -69 -64 -110 -20 -41 -41 -82 -46 -90 -18 -34 -66 -147 -75 -180 -4 -14 -18 -53 -31 -87 -13 -34 -24 -70 -24 -81 0 -10 -7 -34 -16 -52 -9 -18 -19 -52 -22 -76 -5 -50 -17 -57 -27 -17 -3 15 -10 30 -13 33 -14 11 -52 102 -52 125 0 14 -4 33 -9 43 -20 41 -41 121 -35 137 4 9 2 26 -4 38 -12 24 -33 209 -40 352 -4 92 8 209 35 325 8 36 19 85 24 110 5 25 13 54 18 65 6 11 19 43 31 70 29 71 70 145 97 178 12 16 23 33 23 38 0 6 16 26 35 46 19 20 35 41 35 46 0 6 20 30 45 54 25 23 45 47 45 52 0 5 8 12 18 15 9 3 35 23 57 43 22 21 56 46 75 57 19 10 53 33 75 50 22 17 60 41 85 53 170 81 173 82 178 45z"></path><path d="M5534 9267 c-83 -36 -128 -67 -151 -104 -13 -19 -23 -38 -23 -43 0 -20 24 -21 51 -1 15 11 34 21 41 21 8 0 24 7 36 16 17 12 47 16 106 16 77 1 86 -1 133 -32 56 -37 108 -108 118 -163 4 -21 11 -40 16 -43 5 -3 9 -24 9 -46 0 -77 -41 -173 -98 -233 -65 -68 -101 -92 -189 -125 -48 -18 -60 -36 -38 -60 10 -11 22 -20 27 -20 9 0 146 -87 158 -100 3 -3 28 -23 55 -45 67 -52 302 -291 330 -336 13 -20 29 -42 37 -50 8 -8 25 -32 38 -54 13 -22 27 -42 30 -45 10 -8 58 -91 71 -122 6 -16 15 -28 19 -28 5 0 11 -13 15 -30 4 -16 11 -30 16 -30 5 0 9 -7 9 -16 0 -8 9 -32 19 -52 30 -57 51 -108 51 -125 0 -9 4 -18 9 -21 5 -3 12 -22 16 -42 3 -20 10 -44 15 -53 36 -73 95 -479 83 -572 -4 -26 -1 -38 10 -42 19 -7 27 4 51 63 11 25 25 59 32 77 8 17 14 38 14 46 0 9 4 18 9 22 5 3 12 19 16 36 4 17 13 42 21 57 8 15 14 36 14 47 0 11 7 29 15 39 8 11 15 30 15 42 0 12 7 35 15 50 8 16 15 41 15 56 0 15 4 29 9 32 5 4 12 29 16 58 4 28 14 66 21 84 8 18 14 51 14 72 0 21 4 42 10 48 5 5 12 65 15 134 4 69 11 134 17 146 5 12 7 54 4 95 -13 192 -26 312 -34 323 -5 6 -12 33 -16 60 -3 27 -10 54 -15 60 -5 6 -12 27 -16 46 -4 19 -11 41 -16 50 -17 30 -49 109 -49 119 0 6 -4 11 -10 11 -5 0 -10 5 -10 11 0 17 -100 179 -110 179 -5 0 -11 8 -15 18 -10 33 -167 188 -255 251 -47 34 -89 65 -95 69 -23 18 -114 69 -160 90 -27 13 -62 30 -77 38 -14 8 -33 14 -41 14 -8 0 -20 7 -27 15 -7 8 -27 15 -44 15 -18 0 -37 5 -44 12 -7 7 -59 12 -134 14 -109 3 -129 1 -174 -19z m466 -162 c90 -42 200 -106 200 -117 0 -3 20 -16 44 -28 24 -11 51 -32 60 -45 9 -13 36 -36 60 -50 25 -15 48 -35 51 -45 3 -11 24 -33 46 -50 21 -18 39 -36 39 -42 0 -6 16 -28 35 -49 19 -22 35 -45 35 -53 0 -7 7 -19 15 -26 8 -7 15 -20 15 -30 0 -9 14 -34 30 -55 17 -21 30 -48 30 -60 0 -12 7 -28 15 -35 8 -7 15 -24 15 -39 0 -14 7 -35 15 -45 8 -11 15 -33 15 -48 0 -16 7 -40 16 -53 9 -14 14 -35 11 -47 -3 -12 -2 -29 3 -38 8 -15 14 -84 25 -295 1 -27 -2 -81 -7 -120 -11 -81 -20 -171 -20 -200 0 -11 -6 -36 -13 -55 -7 -19 -19 -69 -25 -110 -7 -41 -21 -95 -31 -119 -10 -24 -19 -52 -19 -63 0 -24 -18 -58 -30 -58 -6 0 -10 6 -10 13 0 7 -11 37 -25 65 -14 29 -25 61 -25 71 0 11 -4 23 -10 26 -5 3 -10 21 -10 38 0 18 -16 64 -35 102 -19 39 -35 79 -35 90 0 11 -14 40 -30 65 -16 25 -30 52 -30 61 0 9 -7 22 -15 29 -8 7 -15 21 -15 31 0 10 -5 21 -11 24 -5 4 -15 17 -20 28 -5 12 -18 36 -29 52 -11 17 -23 37 -27 45 -3 8 -35 51 -70 95 -35 44 -80 102 -100 129 -21 27 -57 68 -80 90 -24 23 -43 47 -43 52 0 6 -25 28 -55 48 -30 20 -55 42 -55 50 0 7 -14 19 -30 26 -17 7 -41 26 -55 41 -13 16 -28 29 -33 29 -5 0 -17 9 -26 19 -23 25 -15 39 69 126 36 37 65 76 65 85 0 10 7 23 15 30 8 7 15 20 15 29 0 9 10 34 21 56 19 35 21 50 15 120 -3 44 -12 94 -20 110 -13 29 -32 80 -43 119 -5 17 -2 18 23 13 16 -3 54 -17 84 -32z"></path><path d="M4615 8550 c-23 -6 -14 -8 39 -9 38 0 67 1 65 3 -10 9 -77 13 -104 6z"></path><path d="M4940 8490 c0 -5 19 -10 42 -10 49 0 47 5 -4 14 -24 4 -38 3 -38 -4z"></path><path d="M5120 8431 c0 -10 89 -41 117 -41 10 0 -4 12 -30 25 -49 25 -87 32 -87 16z"></path><path d="M4260 8359 c-133 -19 -208 -38 -315 -80 -11 -4 -31 -11 -45 -15 -14 -3 -32 -12 -40 -19 -8 -7 -27 -15 -42 -19 -16 -3 -28 -11 -28 -16 0 -6 -9 -10 -19 -10 -11 0 -26 -6 -33 -12 -8 -7 -34 -24 -58 -37 -25 -13 -61 -37 -81 -52 -20 -16 -41 -29 -46 -29 -5 0 -22 -12 -39 -27 -17 -16 -52 -46 -80 -67 -72 -58 -199 -190 -263 -276 -151 -198 -263 -446 -310 -680 -41 -204 -30 -576 21 -725 5 -16 14 -46 18 -65 17 -76 91 -248 143 -335 119 -200 246 -350 392 -463 33 -25 64 -52 68 -59 4 -7 13 -13 19 -13 5 0 27 -12 47 -27 50 -39 63 -46 176 -101 117 -58 141 -67 215 -92 113 -36 163 -50 186 -50 13 0 49 -7 81 -15 80 -21 435 -21 513 0 30 8 68 15 84 15 15 0 49 7 75 15 25 8 73 24 106 34 79 25 101 35 220 93 106 52 112 55 227 132 70 47 358 324 358 345 0 5 6 16 13 23 42 45 197 314 197 343 0 4 7 21 14 38 23 49 56 149 56 168 0 9 7 30 15 45 8 16 15 48 15 70 0 23 7 57 15 77 10 24 16 94 21 233 6 189 4 206 -21 329 -32 159 -69 267 -141 409 -90 180 -165 285 -308 431 -261 267 -609 441 -981 489 -150 20 -285 19 -445 -5z m504 -105 c27 -8 63 -14 80 -14 17 -1 42 -7 56 -15 14 -8 35 -14 47 -15 12 0 37 -6 55 -14 18 -8 69 -29 113 -47 44 -18 87 -38 96 -46 8 -7 21 -13 27 -13 9 0 80 -43 169 -104 82 -56 231 -195 317 -295 25 -29 113 -159 153 -226 51 -85 127 -271 144 -353 5 -23 13 -51 19 -61 5 -11 10 -35 10 -53 0 -18 7 -68 15 -111 38 -199 -6 -548 -96 -757 -6 -14 -18 -41 -26 -60 -18 -43 -24 -53 -58 -116 -102 -188 -225 -332 -405 -475 -41 -33 -80 -64 -87 -69 -7 -6 -16 -10 -21 -10 -5 0 -15 -7 -22 -15 -7 -8 -21 -15 -31 -15 -11 0 -19 -3 -19 -7 0 -5 -33 -23 -73 -41 -39 -18 -85 -40 -100 -48 -16 -8 -36 -14 -46 -14 -9 0 -25 -6 -36 -14 -11 -7 -33 -16 -50 -19 -41 -8 -122 -26 -165 -38 -115 -31 -398 -38 -570 -14 -101 14 -243 51 -345 89 -36 13 -203 96 -243 121 -217 133 -423 346 -544 563 -83 146 -142 305 -173 462 -7 36 -17 83 -23 105 -6 22 -14 117 -17 210 -6 140 -4 181 9 231 9 34 16 78 16 97 0 20 4 38 9 41 4 3 11 24 15 46 3 23 10 49 15 58 5 9 20 46 32 82 22 63 104 230 118 240 4 3 10 12 14 20 36 80 232 302 347 392 68 53 170 121 220 146 25 13 52 27 60 32 42 25 189 85 235 96 11 3 43 11 70 19 101 28 162 39 255 46 134 9 376 0 434 -17z"></path><path d="M4290 8166 c-224 -53 -346 -94 -428 -145 -98 -60 -168 -108 -196 -133 -17 -16 -34 -28 -37 -28 -25 0 -189 -168 -268 -275 -105 -141 -153 -227 -210 -370 -21 -53 -41 -125 -41 -148 0 -13 -7 -44 -16 -68 -23 -63 -23 -428 0 -512 9 -32 16 -67 16 -79 0 -21 23 -99 47 -155 27 -66 45 -108 54 -123 5 -8 13 -25 19 -38 9 -21 34 -60 120 -187 44 -65 211 -231 275 -275 28 -18 52 -36 55 -40 5 -6 49 -35 85 -57 51 -30 226 -113 239 -113 8 0 30 -6 48 -14 35 -15 141 -39 248 -55 125 -20 224 -23 305 -11 44 6 112 15 150 19 39 5 80 13 92 19 12 7 35 12 52 12 16 0 32 4 36 9 3 5 20 13 38 17 31 6 146 55 177 75 8 5 24 14 35 19 88 45 227 150 321 244 233 234 376 501 401 750 3 33 13 74 21 91 10 19 16 72 20 160 8 220 -48 454 -155 653 -142 262 -340 459 -605 602 -128 69 -210 98 -393 141 -113 27 -417 36 -505 15z m431 -107 c28 -14 15 -56 -32 -103 l-38 -40 -116 -4 c-126 -5 -179 7 -234 54 -16 13 -40 28 -55 33 -18 8 -26 18 -26 35 0 23 3 24 88 31 48 3 92 8 97 11 19 8 298 -7 316 -17z m-560 -65 c8 -44 42 -88 95 -126 l45 -32 -23 -17 c-13 -10 -32 -24 -43 -32 -32 -24 -27 -92 11 -147 35 -52 47 -89 38 -125 -4 -18 -18 -28 -57 -41 -29 -9 -76 -29 -104 -45 -29 -16 -57 -29 -63 -29 -14 0 -31 45 -40 107 -5 28 -16 63 -27 76 -22 31 -84 51 -125 42 -29 -7 -30 -6 -23 16 16 49 17 126 2 156 -9 16 -18 45 -22 66 -7 33 -5 38 19 47 15 5 50 21 79 34 97 45 202 86 217 83 8 -1 17 -16 21 -33z m744 15 c33 -11 64 -25 70 -30 5 -5 15 -9 23 -9 27 0 222 -101 222 -115 0 -8 -9 -38 -21 -67 -17 -44 -19 -59 -10 -89 6 -20 11 -46 11 -58 0 -18 -3 -20 -19 -11 -11 5 -33 10 -50 10 -42 0 -101 -59 -101 -101 0 -62 -50 -138 -92 -139 -10 0 -46 15 -80 33 -59 32 -88 42 -178 64 -51 13 -50 39 4 119 25 36 46 77 46 91 0 27 -26 71 -52 91 -28 20 -22 35 27 70 44 31 85 94 85 130 0 39 28 42 115 11z m-1148 -171 c6 -7 18 -35 28 -61 18 -47 18 -51 0 -102 -33 -100 -148 -205 -222 -205 -86 0 -175 13 -180 27 -9 23 130 177 232 258 27 22 61 52 75 67 27 29 52 35 67 16z m1582 -45 c64 -52 260 -254 267 -275 3 -10 9 -18 14 -18 14 0 20 -31 10 -50 -11 -21 -18 -20 -119 20 -42 16 -84 43 -122 78 -49 45 -62 66 -94 144 -30 75 -35 96 -26 115 6 13 14 23 17 23 4 0 28 -17 53 -37z m-787 4 c46 -12 108 -57 108 -79 0 -6 -11 -25 -24 -42 -35 -47 -56 -92 -56 -123 0 -49 -14 -58 -44 -28 -24 24 -31 26 -79 20 -64 -7 -76 1 -83 51 -9 62 -25 94 -55 110 -102 52 91 128 233 91z m663 -246 c69 -40 130 -101 154 -156 37 -83 23 -109 -50 -99 -41 6 -47 3 -91 -35 -25 -23 -50 -41 -55 -41 -4 0 -30 25 -56 55 -32 36 -56 55 -71 55 -47 0 -46 20 5 73 50 52 66 84 55 113 -8 20 22 64 43 64 9 0 39 -13 66 -29z m-1295 4 c24 -13 30 -22 30 -50 0 -38 24 -99 53 -131 18 -21 18 -22 -15 -44 -18 -13 -52 -44 -75 -69 l-42 -46 -23 27 c-26 30 -93 68 -121 68 -31 0 -77 29 -77 49 0 10 7 24 15 31 8 7 15 18 15 24 0 15 68 87 105 111 28 18 79 41 98 44 4 0 21 -6 37 -14z m708 -111 c37 -9 85 -23 107 -31 45 -17 167 -74 175 -83 3 -3 25 -18 48 -35 120 -80 225 -258 266 -445 27 -124 21 -176 -36 -342 -49 -139 -177 -302 -277 -352 -25 -13 -89 -38 -141 -57 -84 -29 -109 -33 -224 -37 -141 -4 -209 5 -307 43 -174 69 -300 184 -383 352 -70 141 -76 166 -76 308 0 142 3 156 71 309 11 27 26 55 33 63 6 7 27 32 46 55 56 70 133 131 216 172 109 54 110 54 194 75 95 24 203 26 288 5z m-1135 -71 c29 2 62 8 74 12 20 7 21 4 20 -58 -2 -58 1 -67 23 -85 14 -12 43 -24 64 -28 52 -9 98 -28 118 -51 15 -16 15 -22 3 -43 -34 -63 -54 -107 -61 -133 -4 -19 -17 -32 -41 -42 -51 -21 -59 -20 -127 27 -82 56 -121 57 -175 4 -31 -30 -41 -35 -49 -24 -55 67 -76 87 -116 106 -25 13 -46 26 -46 30 0 12 35 101 43 108 4 4 7 13 7 20 0 14 65 157 87 190 l14 22 55 -30 c46 -25 63 -29 107 -25z m2207 -20 c34 -74 52 -115 66 -148 53 -129 50 -116 27 -134 -12 -9 -39 -27 -61 -40 -22 -13 -50 -40 -63 -61 l-24 -38 -47 44 c-26 24 -57 44 -69 44 -12 0 -47 -15 -78 -34 -67 -41 -100 -50 -147 -42 -29 6 -38 14 -50 44 -8 20 -24 55 -34 78 -25 53 -25 56 6 93 20 25 34 31 64 31 93 0 168 65 157 137 -7 42 7 50 63 35 43 -11 96 -1 135 25 29 19 31 17 55 -34z m-2455 -382 c42 -43 75 -129 75 -195 0 -52 -29 -154 -53 -187 -27 -38 -57 -52 -87 -41 l-24 9 -1 226 -2 227 27 0 c19 0 40 -13 65 -39z m2605 -87 c19 -185 3 -394 -29 -382 -27 9 -111 132 -126 185 -17 58 -14 157 6 210 14 39 90 113 114 113 21 0 23 -6 35 -126z m-2334 38 c81 -57 110 -68 149 -53 41 15 58 7 49 -22 -4 -11 -6 -65 -5 -119 1 -106 -4 -115 -46 -76 -35 33 -75 28 -122 -15 -23 -20 -45 -37 -50 -37 -29 0 -60 23 -75 54 -21 45 -34 200 -17 210 6 4 11 14 11 23 0 20 38 63 55 63 7 0 30 -12 51 -28z m2036 16 c33 -27 50 -86 51 -176 0 -72 -4 -94 -22 -129 -13 -24 -28 -43 -34 -43 -6 0 -38 18 -71 39 -34 22 -83 45 -109 52 -55 13 -65 29 -49 72 10 26 8 35 -13 72 -14 23 -25 44 -25 47 0 3 33 7 74 10 61 4 80 10 117 36 50 35 59 37 81 20z m-2101 -438 c27 0 51 9 80 29 48 35 86 45 139 36 36 -6 40 -10 55 -58 9 -29 28 -74 41 -100 13 -27 24 -54 24 -61 0 -25 -39 -47 -112 -65 -95 -22 -120 -46 -126 -116 l-4 -51 -82 0 c-62 1 -87 -3 -106 -16 -13 -10 -30 -18 -37 -18 -24 0 -160 318 -149 346 3 7 23 22 44 33 43 22 88 70 104 110 l9 25 40 -47 c36 -41 45 -47 80 -47z m1959 45 c83 -58 121 -60 174 -9 20 19 41 34 46 32 5 -2 19 -19 32 -38 27 -40 93 -88 128 -92 21 -3 25 -7 22 -33 -2 -16 -10 -43 -18 -59 -8 -16 -14 -33 -14 -39 0 -26 -108 -244 -124 -250 -7 -3 -24 2 -37 11 -18 13 -44 17 -106 16 l-83 -2 6 38 c10 64 -20 103 -98 126 -75 22 -115 43 -133 70 -14 22 -14 27 7 66 26 51 57 136 58 160 0 24 28 48 54 48 12 0 51 -20 86 -45z m-1468 -357 c32 -32 58 -61 58 -65 -1 -4 -15 -17 -32 -28 -37 -23 -41 -31 -64 -108 -9 -32 -20 -60 -25 -63 -21 -12 -199 126 -199 155 0 5 -13 25 -30 46 -16 21 -30 44 -30 51 0 17 52 39 111 49 32 5 53 16 78 43 l33 36 21 -30 c11 -16 47 -55 79 -86z m1243 57 c25 -23 62 -42 109 -57 l71 -23 -1 -38 c-2 -73 -104 -187 -180 -203 -43 -8 -89 32 -97 84 -6 49 -34 92 -58 92 -36 0 -32 28 7 62 54 47 84 81 84 95 0 6 6 14 13 16 6 3 13 6 14 6 1 1 18 -15 38 -34z m-1083 -193 c47 -30 97 -51 142 -59 20 -4 32 -15 43 -41 17 -41 7 -74 -41 -137 -25 -31 -31 -48 -30 -84 1 -39 6 -49 40 -79 l39 -34 -25 -16 c-43 -28 -108 -100 -112 -124 -4 -31 -36 -34 -92 -9 -25 12 -48 21 -52 21 -4 0 -31 11 -61 25 -29 14 -77 36 -107 50 -77 36 -84 48 -60 92 14 27 19 56 19 112 l0 75 48 -3 c66 -4 89 19 113 110 17 65 58 129 83 129 5 0 29 -13 53 -28z m884 -33 c7 -15 14 -45 14 -66 0 -25 9 -52 25 -76 27 -39 41 -43 119 -38 36 3 38 1 32 -21 -29 -92 -29 -101 -2 -158 14 -29 26 -57 26 -62 0 -7 -109 -62 -178 -89 -91 -37 -216 -78 -223 -74 -4 3 -21 30 -38 60 -17 30 -35 55 -39 55 -4 0 -23 14 -42 30 l-35 29 43 36 c32 28 42 44 42 66 0 30 -22 83 -44 105 -7 6 -18 30 -26 53 -12 37 -11 46 3 76 14 29 22 35 62 41 41 6 163 61 189 85 12 11 54 -19 72 -52z m-1427 13 c47 -30 111 -95 146 -148 32 -47 35 -59 35 -122 0 -52 -4 -73 -16 -83 -14 -11 -19 -10 -35 11 -29 37 -112 120 -121 120 -3 0 -35 35 -69 78 -73 89 -75 91 -111 99 -32 6 -36 23 -10 46 34 30 133 30 181 -1z m2055 -28 c9 -8 16 -18 16 -20 0 -3 -69 -74 -154 -159 -175 -177 -196 -186 -229 -105 -28 68 3 145 90 219 78 67 109 80 190 80 52 1 76 -3 87 -15z m-1015 -50 c2 -1 -2 -17 -8 -34 -12 -35 4 -87 46 -149 27 -40 29 -67 6 -79 -10 -5 -64 -10 -121 -11 -93 -1 -110 1 -163 25 -73 33 -76 51 -18 123 42 52 42 53 26 86 -9 19 -12 36 -7 41 8 8 230 7 239 -2z m26 -411 c73 -43 127 -133 80 -133 -7 0 -32 8 -56 18 -38 16 -71 19 -231 18 -179 -1 -188 0 -188 18 0 28 85 104 123 109 18 3 75 4 127 2 85 -2 100 -5 145 -32z"></path><path d="M4360 7230 c-74 -27 -149 -80 -218 -155 -53 -59 -74 -92 -115 -188 -23 -53 -24 -241 -1 -294 40 -94 57 -121 96 -163 163 -174 377 -218 588 -121 201 92 337 355 289 560 -38 164 -185 315 -358 365 -77 23 -212 20 -281 -4z m205 -89 c162 -37 273 -132 328 -281 32 -86 21 -223 -24 -300 -5 -8 -13 -24 -18 -35 -20 -45 -103 -110 -181 -143 -38 -16 -167 -21 -240 -10 -82 13 -185 64 -232 116 -68 75 -118 211 -118 322 0 108 88 227 220 299 19 10 145 45 180 50 3 0 41 -8 85 -18z"></path><path d="M4424 7009 c-69 -26 -124 -80 -166 -161 -60 -115 -12 -266 104 -329 59 -31 186 -33 238 -4 82 48 128 106 155 199 19 65 14 102 -23 165 -33 59 -66 89 -127 117 -74 33 -121 37 -181 13z m127 -114 c44 -19 69 -42 97 -86 44 -71 21 -156 -57 -216 -38 -29 -50 -33 -105 -33 -54 0 -69 4 -104 30 -51 37 -69 64 -77 115 -13 80 29 159 103 191 38 17 103 17 143 -1z"></path><path d="M5285 8355 c17 -14 37 -25 45 -25 8 0 37 -16 64 -35 27 -19 53 -35 58 -35 11 0 103 -61 143 -94 44 -37 104 -76 117 -76 11 0 -67 73 -108 100 -12 8 -55 38 -96 66 -41 29 -86 55 -99 59 -13 4 -31 13 -39 20 -24 21 -78 45 -97 45 -14 -1 -12 -6 12 -25z"></path><path d="M5780 8017 c0 -18 36 -50 50 -45 7 2 3 14 -10 31 -23 29 -40 35 -40 14z"></path><path d="M5850 7938 c0 -6 17 -28 38 -49 51 -52 70 -75 94 -115 21 -35 42 -47 31 -16 -8 19 -58 87 -92 123 -11 12 -21 26 -21 30 0 11 -30 39 -41 39 -5 0 -9 -5 -9 -12z"></path><path d="M1070 8222 c0 -5 9 -17 20 -27 22 -20 26 -9 6 18 -14 18 -26 22 -26 9z"></path><path d="M1130 8151 c0 -12 5 -21 10 -21 6 0 10 6 10 14 0 8 -4 18 -10 21 -5 3 -10 -3 -10 -14z"></path><path d="M1134 7642 c4 -6 27 -25 52 -42 35 -23 45 -26 42 -14 -2 9 -14 25 -28 35 -31 22 -75 36 -66 21z"></path><path d="M1330 6927 c0 -12 39 -42 46 -35 6 6 -26 48 -37 48 -5 0 -9 -6 -9 -13z"></path><path d="M1420 5332 c0 -10 20 -34 43 -52 18 -13 18 -12 1 23 -16 33 -44 51 -44 29z"></path><path d="M1910 5429 c0 -9 9 -24 19 -33 11 -10 25 -31 31 -47 14 -32 30 -39 30 -11 -1 22 -79 113 -80 91z"></path><path d="M3020 5233 c1 -21 7 -49 15 -63 8 -14 14 -37 15 -52 0 -15 5 -39 12 -55 13 -32 34 -126 49 -228 6 -38 14 -74 19 -80 4 -5 8 -30 9 -55 2 -71 9 -131 20 -180 6 -25 12 -115 13 -200 l3 -155 25 0 c33 0 42 43 34 157 -6 77 -4 90 14 115 11 16 36 38 56 48 l35 19 78 -39 c60 -30 99 -61 168 -130 50 -49 98 -108 108 -130 10 -22 25 -53 33 -68 8 -16 14 -53 14 -82 0 -30 4 -57 10 -60 11 -7 50 12 50 25 0 5 10 19 23 32 21 22 39 33 97 56 14 5 34 27 44 48 11 22 23 47 27 56 5 10 9 24 9 32 0 23 49 90 73 99 11 4 39 5 62 1 l41 -6 41 64 c23 34 60 81 82 103 23 21 41 45 41 51 0 7 20 29 44 49 82 67 138 51 211 -60 19 -27 60 -78 92 -112 58 -62 60 -63 111 -63 32 0 63 -6 78 -17 24 -15 67 -90 63 -109 -9 -51 17 -84 67 -82 56 2 115 -57 170 -169 16 -34 31 -7 48 85 17 96 66 219 93 235 7 4 13 12 13 18 0 21 162 169 186 169 7 0 14 3 16 8 5 12 94 52 115 52 20 0 67 -31 90 -60 17 -21 16 -96 -2 -145 -22 -60 -19 -141 6 -181 20 -34 42 -43 54 -24 3 5 9 90 11 187 3 98 10 185 15 195 5 9 11 60 14 113 3 53 9 104 14 113 5 9 12 44 16 77 3 33 10 69 15 80 5 11 14 47 19 80 13 80 30 144 47 178 17 35 19 97 2 97 -7 0 -24 -13 -38 -28 -14 -16 -54 -53 -90 -83 -35 -30 -70 -59 -78 -66 -7 -7 -45 -34 -85 -60 -39 -26 -74 -51 -77 -54 -12 -16 -196 -111 -290 -151 -14 -5 -38 -16 -55 -24 -16 -7 -43 -16 -60 -20 -16 -4 -34 -10 -40 -14 -5 -4 -26 -11 -45 -14 -19 -4 -44 -11 -55 -16 -20 -9 -59 -18 -215 -48 -117 -22 -528 -21 -650 1 -137 25 -291 62 -322 78 -10 5 -23 9 -29 9 -13 0 -69 24 -121 51 -20 10 -46 19 -57 19 -12 0 -21 4 -21 9 0 5 -13 12 -30 16 -16 4 -30 11 -30 16 0 5 -5 9 -11 9 -15 0 -168 92 -244 147 -90 65 -123 92 -193 161 -36 34 -71 62 -78 62 -10 0 -14 -12 -14 -37z m208 -262 c79 -39 191 -106 202 -122 3 -4 30 -17 60 -29 30 -12 62 -27 70 -33 27 -22 78 -47 94 -47 9 0 24 -4 34 -9 9 -5 36 -18 59 -30 24 -12 47 -20 52 -17 4 3 27 -3 49 -14 23 -11 55 -20 72 -20 16 0 30 -4 30 -9 0 -10 53 -21 112 -24 20 -1 40 -5 44 -9 4 -5 21 -8 37 -8 17 0 38 -7 48 -16 16 -15 16 -17 -3 -50 -25 -42 -95 -104 -119 -104 -35 0 -116 -77 -142 -134 -15 -32 -32 -56 -41 -56 -8 0 -20 -9 -26 -20 -6 -11 -16 -20 -23 -20 -15 0 -75 62 -99 100 -25 41 -140 160 -154 160 -7 0 -17 6 -21 14 -4 8 -38 32 -74 55 -65 41 -79 44 -210 50 -22 1 -33 45 -64 246 -15 95 -18 155 -10 155 3 0 13 -4 23 -9z m2546 -18 c8 -36 -21 -223 -42 -275 -12 -30 -22 -34 -107 -43 -73 -9 -126 -29 -189 -75 -90 -65 -246 -235 -246 -269 0 -28 -43 -59 -77 -57 -29 3 -83 46 -83 67 0 15 -140 149 -156 149 -8 0 -25 7 -39 16 -13 8 -32 14 -42 12 -12 -2 -17 2 -15 14 1 9 -7 22 -18 28 -11 6 -20 16 -20 22 0 23 34 48 65 48 17 0 60 9 94 20 34 12 66 18 70 15 5 -2 30 4 56 16 25 11 53 18 60 15 8 -3 27 1 42 9 15 8 37 15 48 15 11 0 55 17 97 39 43 21 91 41 107 44 16 4 54 22 85 42 30 19 60 35 66 35 6 0 48 25 94 55 45 30 90 55 99 55 10 0 20 7 23 15 9 23 22 18 28 -12z"></path><path d="M3603 3695 c-11 -8 -42 -22 -69 -31 -68 -22 -71 -27 -46 -76 60 -120 220 -237 325 -238 51 0 107 24 107 47 0 18 -41 43 -73 43 -31 0 -124 63 -150 103 -9 14 -21 53 -26 86 -14 87 -24 97 -68 66z"></path><path d="M5277 3673 c-4 -3 -7 -27 -7 -52 -1 -55 -34 -104 -101 -153 -24 -17 -48 -34 -52 -38 -15 -13 3 -50 23 -50 10 0 22 -4 25 -10 9 -14 123 -12 166 3 74 26 215 165 207 205 -3 13 -15 17 -58 18 -68 1 -104 15 -137 54 -23 28 -52 38 -66 23z"></path><path d="M1190 4952 c0 -10 33 -42 44 -42 3 0 -1 11 -10 25 -16 25 -34 33 -34 17z"></path><path d="M2052 2929 c2 -7 10 -15 17 -17 8 -3 12 1 9 9 -2 7 -10 15 -17 17 -8 3 -12 -1 -9 -9z"></path><path d="M2102 2889 c4 -14 99 -81 105 -75 2 2 1 10 -2 18 -13 32 -113 87 -103 57z"></path><path d="M6940 2954 c0 -14 89 -90 130 -112 l45 -24 -30 33 c-16 19 -33 35 -37 37 -4 2 -26 19 -50 38 -41 32 -58 41 -58 28z"></path><path d="M1210 2882 c0 -11 88 -72 103 -72 16 1 -74 79 -90 80 -7 0 -13 -4 -13 -8z"></path><path d="M3940 1820 c19 -13 30 -13 30 0 0 6 -10 10 -22 10 -19 0 -20 -2 -8 -10z"></path><path d="M4020 1765 c0 -15 48 -40 58 -30 8 7 -29 45 -45 45 -7 0 -13 -7 -13 -15z"></path><path d="M7740 1773 c1 -13 27 -43 37 -43 14 0 115 -98 136 -133 10 -15 22 -25 27 -22 16 10 12 21 -28 69 -69 84 -173 161 -172 129z"></path></g></svg>