<svg xmlns="http://www.w3.org/2000/svg" width="840.000000pt" height="840.000000pt" viewBox="0 0 840.000000 840.000000" preserveAspectRatio="xMidYMid meet"><g transform="translate(0.000000,840.000000) scale(0.100000,-0.100000)" fill="#ffffff" stroke="none"><path d="M3895 7790 c-60 -5 -126 -13 -145 -19 -19 -6 -48 -11 -64 -11 -16 0 -52 -6 -80 -14 -53 -15 -116 -31 -176 -46 -19 -4 -51 -14 -70 -20 -94 -34 -117 -43 -143 -56 -16 -8 -35 -14 -42 -14 -12 0 -51 -17 -95 -42 -8 -4 -22 -11 -30 -14 -28 -11 -155 -76 -185 -95 -16 -10 -41 -24 -55 -30 -14 -5 -39 -21 -57 -35 -17 -13 -35 -24 -38 -24 -4 0 -61 -42 -128 -92 -116 -88 -386 -345 -438 -417 -13 -18 -31 -41 -39 -50 -33 -36 -80 -99 -80 -108 0 -4 -10 -20 -22 -33 -27 -30 -61 -79 -71 -100 -4 -8 -16 -28 -27 -45 -10 -16 -31 -52 -45 -80 -27 -52 -38 -74 -55 -102 -6 -10 -13 -25 -16 -33 -3 -8 -12 -27 -20 -42 -8 -14 -14 -33 -14 -41 0 -8 -7 -20 -15 -27 -8 -7 -15 -22 -15 -34 0 -11 -7 -30 -15 -40 -8 -11 -15 -29 -15 -40 0 -12 -7 -30 -15 -40 -8 -11 -15 -31 -15 -45 0 -14 -7 -35 -15 -45 -8 -11 -15 -34 -15 -50 -1 -17 -7 -42 -15 -56 -8 -14 -14 -39 -15 -56 0 -17 -7 -48 -15 -67 -8 -20 -15 -51 -15 -69 0 -18 -6 -62 -14 -98 -34 -151 -34 -641 0 -787 8 -34 14 -78 14 -98 0 -20 7 -52 15 -72 8 -19 15 -50 15 -67 1 -17 7 -42 15 -56 8 -14 14 -39 15 -56 0 -16 7 -39 15 -50 8 -10 15 -31 15 -45 0 -14 7 -34 15 -45 8 -10 15 -28 15 -40 0 -11 7 -29 15 -40 8 -10 15 -29 15 -40 0 -12 7 -27 15 -34 8 -7 15 -19 15 -27 0 -13 15 -48 41 -93 5 -8 12 -22 15 -30 3 -8 9 -22 14 -30 5 -8 21 -37 35 -65 14 -27 33 -62 43 -77 9 -14 30 -48 46 -75 16 -26 40 -59 53 -73 13 -14 23 -29 23 -33 0 -8 45 -69 80 -109 8 -9 31 -37 50 -62 62 -82 302 -309 425 -402 66 -50 127 -94 135 -97 8 -4 29 -16 45 -27 17 -11 39 -24 50 -30 11 -6 34 -19 50 -29 17 -11 64 -36 105 -56 41 -21 82 -41 90 -46 8 -5 22 -12 30 -15 8 -3 27 -12 42 -20 14 -8 33 -14 41 -14 9 0 28 -6 44 -14 51 -26 103 -46 117 -46 8 0 27 -7 42 -15 16 -8 43 -15 59 -15 17 0 39 -7 49 -15 11 -8 34 -15 52 -15 17 0 48 -7 67 -15 20 -8 54 -15 76 -15 22 0 68 -8 103 -17 93 -25 672 -25 766 0 35 9 79 17 98 17 19 0 51 7 71 15 19 8 52 15 72 15 20 0 45 7 55 15 11 8 34 15 50 15 17 0 44 7 60 15 15 8 34 15 42 15 14 0 66 20 117 46 16 8 34 14 40 14 11 0 75 29 182 82 22 10 67 35 100 53 33 19 67 37 75 42 63 31 287 192 359 258 62 56 238 231 287 285 47 53 164 206 164 215 0 4 14 24 30 45 17 21 30 40 30 43 0 4 12 23 26 44 14 21 30 47 35 58 5 11 18 34 29 50 11 17 22 37 26 45 3 8 10 22 15 30 5 8 12 22 15 30 3 8 12 27 20 42 8 14 14 33 14 41 0 8 7 20 15 27 8 7 15 21 15 30 0 10 6 31 14 47 26 52 46 104 46 118 0 8 6 29 14 47 26 62 46 133 46 163 1 17 7 41 15 55 8 14 14 41 15 60 0 19 7 57 15 84 8 27 15 72 15 100 0 28 7 96 15 151 16 109 14 335 -4 440 -6 33 -11 83 -11 111 0 28 -7 73 -15 100 -8 27 -15 65 -15 84 -1 19 -7 46 -15 60 -8 14 -14 39 -15 55 0 30 -20 101 -46 163 -8 18 -14 39 -14 47 0 14 -20 66 -46 118 -8 16 -14 37 -14 47 0 9 -7 23 -15 30 -8 7 -15 19 -15 27 0 13 -15 48 -41 93 -5 8 -11 21 -14 28 -13 32 -16 39 -35 67 -11 17 -24 39 -29 50 -5 11 -21 37 -35 58 -14 21 -26 40 -26 42 0 6 -89 135 -139 200 -103 137 -342 375 -476 476 -61 46 -229 159 -255 172 -8 5 -42 23 -75 42 -33 18 -80 44 -105 56 -25 12 -52 25 -60 30 -8 5 -22 12 -30 15 -8 3 -28 12 -43 20 -16 7 -36 14 -45 14 -9 0 -26 7 -36 15 -11 8 -29 15 -40 15 -12 0 -30 7 -40 15 -11 8 -31 15 -45 15 -14 0 -35 7 -45 15 -11 8 -32 15 -47 15 -15 0 -40 7 -55 15 -16 8 -43 15 -60 15 -17 0 -48 7 -67 15 -20 8 -52 15 -71 15 -19 0 -61 7 -93 15 -70 18 -490 28 -658 15z m685 -109 c125 -19 178 -33 380 -96 153 -47 404 -161 500 -225 30 -21 69 -45 85 -54 17 -9 48 -30 70 -47 22 -16 52 -38 66 -47 15 -9 78 -61 141 -114 117 -100 234 -222 319 -331 26 -34 59 -75 72 -92 13 -16 39 -55 58 -85 18 -30 47 -75 65 -100 33 -49 172 -328 199 -401 32 -86 75 -235 90 -307 8 -41 17 -78 20 -82 9 -15 34 -174 46 -295 7 -75 10 -199 6 -330 -5 -177 -11 -235 -36 -370 -52 -267 -133 -509 -237 -710 -60 -115 -89 -163 -110 -186 -13 -14 -24 -30 -24 -35 0 -6 -9 -19 -20 -29 -11 -10 -20 -24 -20 -30 0 -14 -33 -59 -112 -154 -129 -154 -183 -210 -352 -358 -75 -65 -237 -183 -251 -183 -4 0 -28 -15 -54 -33 -125 -90 -479 -243 -640 -278 -25 -5 -59 -13 -75 -18 -107 -33 -125 -36 -436 -66 -166 -17 -320 -13 -469 11 -47 7 -88 11 -91 9 -4 -2 -20 0 -36 5 -16 5 -83 21 -149 36 -281 62 -569 184 -798 335 -32 22 -61 39 -65 39 -7 0 -38 26 -225 183 -85 71 -221 212 -323 335 -49 58 -197 280 -231 347 -17 33 -38 74 -47 90 -28 54 -76 165 -76 175 0 6 -7 21 -15 33 -17 27 -87 245 -110 342 -55 239 -65 333 -65 600 0 213 9 330 36 465 16 79 18 87 59 240 55 204 169 468 259 600 17 25 39 61 49 80 87 172 431 540 637 680 80 54 118 79 195 127 228 142 588 274 870 318 199 31 234 34 470 30 176 -3 276 -9 375 -24z"></path><path d="M3897 7470 c-15 -5 -58 -11 -95 -15 -37 -4 -96 -15 -132 -25 -36 -9 -92 -23 -125 -30 -33 -8 -76 -21 -96 -31 -19 -10 -63 -23 -97 -30 -60 -13 -64 -12 -117 14 -49 24 -85 34 -85 23 0 -1 20 -34 45 -72 25 -37 45 -71 45 -75 0 -18 44 -19 83 -1 100 45 119 52 135 52 10 0 27 7 38 15 10 8 31 15 45 15 15 0 43 7 62 15 20 8 50 15 67 15 17 0 41 5 53 12 12 6 58 15 102 19 44 5 109 13 145 18 95 15 312 13 415 -4 50 -8 109 -15 131 -15 23 0 58 -7 77 -15 20 -8 50 -15 67 -15 17 0 40 -5 51 -10 10 -6 38 -14 61 -19 50 -11 102 -28 141 -47 16 -8 34 -14 41 -14 6 0 29 -9 51 -20 22 -11 45 -20 51 -20 14 0 78 86 88 118 4 12 12 22 17 22 5 0 9 7 9 15 0 7 8 19 18 24 9 6 14 11 10 11 -15 0 -94 -34 -126 -56 l-34 -22 -64 18 c-35 10 -68 21 -73 24 -26 16 -247 69 -406 97 -82 14 -557 22 -598 9z"></path><path d="M5222 7325 c-7 -14 -16 -25 -22 -25 -5 0 -10 -8 -10 -17 0 -10 -9 -31 -20 -48 -34 -51 -27 -67 47 -105 85 -45 266 -165 346 -231 139 -115 320 -306 392 -415 43 -64 55 -65 133 -11 26 18 56 36 66 40 18 7 18 8 -4 29 -20 18 -27 20 -66 11 -52 -12 -45 -17 -179 133 -93 103 -126 136 -254 251 -84 75 -130 109 -226 168 -16 10 -34 24 -38 32 -4 7 -15 13 -24 13 -18 0 -100 59 -107 77 -3 6 0 25 6 41 10 25 8 33 -9 55 l-20 26 -11 -24z"></path><path d="M3082 7318 c-20 -10 -22 -16 -16 -53 7 -50 14 -42 -131 -137 -187 -121 -349 -261 -491 -422 -145 -164 -134 -156 -215 -156 -55 0 -69 -3 -69 -15 0 -9 8 -19 18 -23 9 -4 43 -24 74 -45 69 -47 86 -44 127 22 16 27 38 57 48 67 10 11 36 40 56 66 53 66 150 164 227 229 35 30 73 62 84 71 11 10 38 30 60 45 23 16 43 31 44 36 2 4 7 7 12 7 5 0 37 19 72 42 75 51 98 65 118 74 72 30 81 38 74 69 -3 16 -13 41 -22 55 -10 14 -19 36 -22 49 -6 29 -17 33 -48 19z"></path><path d="M4120 7195 c-8 -8 -42 -40 -76 -72 -56 -54 -61 -62 -67 -113 -8 -68 7 -83 41 -40 30 39 56 52 85 45 23 -6 23 -7 22 -165 0 -87 3 -161 7 -165 21 -22 28 16 28 157 0 153 -12 228 -37 228 -18 0 -17 19 2 26 14 6 35 62 35 97 0 21 -20 22 -40 2z"></path><path d="M3234 7147 c-4 -10 -1 -30 6 -45 25 -55 39 -89 60 -142 26 -65 47 -115 66 -153 8 -16 14 -35 14 -44 0 -8 6 -27 14 -41 22 -44 38 -95 43 -135 3 -20 9 -40 14 -43 13 -8 49 15 49 32 0 24 29 74 43 74 6 0 35 -32 62 -72 76 -108 119 -152 133 -136 8 10 7 22 -5 48 -41 89 -55 125 -93 230 -7 19 -16 53 -20 75 -24 118 -48 136 -74 53 -9 -29 -19 -59 -22 -67 -6 -19 -43 15 -69 66 -10 21 -32 54 -47 74 -15 20 -28 40 -28 43 0 4 -5 12 -10 19 -6 7 -28 39 -50 72 -21 33 -48 71 -59 85 -18 23 -20 23 -27 7z"></path><path d="M4972 7001 c-55 -81 -105 -163 -113 -180 -11 -25 -19 -31 -39 -29 -18 2 -26 11 -30 33 -16 78 -55 100 -65 38 -4 -21 -10 -48 -16 -61 -5 -13 -9 -33 -9 -45 0 -12 -7 -31 -15 -41 -8 -11 -15 -30 -15 -42 0 -12 -7 -35 -15 -51 -27 -51 -55 -122 -55 -137 0 -9 -4 -16 -10 -16 -5 0 -10 -7 -10 -15 0 -18 19 -19 41 -2 23 17 118 137 135 170 18 33 57 34 62 2 6 -37 35 -95 48 -95 7 0 15 15 19 33 16 76 69 225 127 357 79 177 89 212 69 225 -6 3 -54 -62 -109 -144z"></path><path d="M4102 6631 c-21 -23 -42 -41 -47 -41 -6 0 -18 -14 -27 -31 -31 -53 -19 -99 14 -57 12 15 20 19 25 12 5 -6 47 -14 96 -17 l87 -6 0 33 c0 28 -8 40 -45 70 -25 21 -45 44 -45 51 0 30 -23 25 -58 -14z"></path><path d="M6136 6419 l-85 -81 24 -36 c13 -20 36 -59 50 -87 14 -27 29 -57 34 -65 10 -19 28 -60 85 -193 9 -21 16 -42 16 -48 0 -6 6 -25 14 -42 8 -18 16 -43 19 -57 3 -14 10 -38 15 -55 18 -53 32 -118 42 -190 5 -38 14 -86 20 -105 13 -46 13 -544 0 -590 -6 -19 -15 -66 -20 -105 -10 -72 -24 -137 -42 -190 -5 -16 -12 -41 -15 -55 -2 -14 -10 -38 -18 -55 -20 -47 -37 -98 -42 -127 -3 -15 -11 -33 -19 -39 -8 -6 -14 -17 -14 -24 0 -12 -13 -40 -41 -95 -5 -8 -20 -37 -34 -65 -14 -27 -35 -63 -45 -80 -11 -16 -23 -37 -27 -45 -9 -19 -88 -135 -126 -185 -88 -114 -257 -288 -357 -367 -30 -23 -61 -48 -68 -55 -20 -20 -212 -145 -267 -174 -56 -30 -124 -63 -173 -84 -18 -8 -47 -21 -65 -28 -32 -15 -82 -34 -147 -57 -19 -6 -51 -15 -70 -19 -19 -4 -51 -13 -70 -19 -64 -20 -134 -34 -215 -42 -44 -4 -100 -13 -125 -19 -58 -14 -327 -14 -405 0 -33 5 -94 14 -135 19 -87 10 -172 27 -215 42 -16 6 -46 13 -65 16 -19 2 -44 11 -55 18 -11 8 -27 14 -37 14 -9 0 -34 7 -55 16 -41 18 -87 38 -143 61 -19 9 -42 19 -50 24 -8 5 -22 12 -30 15 -8 3 -22 10 -30 15 -8 5 -21 11 -27 14 -33 13 -40 17 -68 35 -16 11 -37 23 -45 27 -8 3 -17 9 -20 12 -11 13 -70 51 -79 51 -5 0 -11 3 -13 8 -1 4 -22 20 -45 36 -24 16 -53 38 -65 50 -13 12 -45 39 -73 61 -64 51 -179 166 -230 230 -22 28 -49 60 -61 73 -12 12 -34 41 -50 65 -16 23 -32 44 -36 45 -5 2 -8 8 -8 13 0 9 -36 65 -50 79 -9 9 -30 44 -39 67 -6 11 -15 24 -20 28 -6 3 -11 14 -11 24 0 10 -7 24 -15 31 -8 7 -15 20 -15 30 0 10 -7 23 -15 30 -8 7 -15 20 -15 30 0 10 -7 23 -15 30 -8 7 -15 21 -15 30 0 10 -6 31 -14 47 -13 26 -22 49 -56 143 -6 19 -15 51 -19 70 -4 19 -13 45 -19 57 -7 12 -12 35 -12 51 0 16 -7 49 -15 72 -8 23 -15 59 -15 79 0 20 -7 72 -15 116 -20 109 -20 389 0 492 8 43 15 97 15 119 0 23 7 61 15 84 8 23 15 57 15 74 1 17 7 42 15 56 8 14 15 39 15 55 0 17 7 39 15 49 8 11 15 28 15 38 0 9 7 34 16 55 38 89 47 109 60 135 8 14 14 33 14 41 0 8 7 20 15 27 8 7 15 20 15 30 0 10 7 23 15 30 8 7 15 19 15 27 0 8 14 32 30 53 17 21 30 44 30 51 0 15 -106 129 -120 129 -4 0 -10 7 -14 15 -3 8 -10 15 -16 15 -17 0 -11 -58 10 -100 11 -22 20 -49 20 -61 0 -19 -38 -105 -117 -264 -19 -39 -103 -294 -103 -314 0 -8 -6 -33 -14 -56 -8 -22 -24 -101 -35 -175 -27 -174 -30 -534 -5 -669 49 -270 51 -276 105 -443 45 -138 151 -359 226 -473 22 -33 57 -86 78 -118 21 -32 50 -70 64 -85 15 -15 47 -54 73 -87 79 -103 344 -341 429 -385 13 -7 33 -21 44 -31 47 -42 407 -229 470 -245 17 -4 77 -22 134 -41 58 -18 123 -36 145 -39 23 -3 55 -10 71 -15 74 -21 292 -41 457 -41 259 -1 455 30 713 112 198 63 560 252 629 329 11 11 24 21 30 21 13 0 182 143 252 214 90 90 221 250 290 355 29 44 47 73 120 203 54 95 141 304 164 393 10 38 23 84 28 100 22 71 43 177 63 325 13 95 6 535 -10 615 -7 33 -28 123 -47 200 -19 77 -39 160 -45 185 -6 25 -16 51 -22 58 -6 7 -19 39 -29 70 -10 31 -39 100 -65 152 -25 52 -50 103 -55 112 -12 27 -10 48 13 108 24 63 34 100 26 100 -3 0 -44 -36 -91 -81z"></path><path d="M4043 6433 c-18 -4 -21 -9 -17 -32 8 -40 -10 -68 -48 -76 -50 -11 -135 -72 -179 -128 -47 -59 -80 -128 -105 -217 -10 -36 -25 -70 -33 -76 -11 -9 -14 -52 -12 -250 1 -145 6 -243 13 -251 5 -7 40 -13 81 -15 l72 -3 3 -82 c3 -76 1 -83 -20 -95 -35 -19 -133 -29 -363 -37 -127 -4 -226 -12 -250 -20 -42 -14 -148 -9 -169 8 -6 5 -209 11 -454 13 l-442 3 0 -57 0 -58 449 0 c289 0 452 -4 456 -10 7 -12 172 -14 179 -2 8 14 563 24 587 12 37 -20 8 -30 -90 -30 -86 0 -100 -2 -117 -21 -19 -21 -20 -21 -739 -17 l-720 3 0 -24 c0 -19 7 -27 32 -33 26 -7 32 -13 30 -31 -2 -19 3 -22 38 -23 22 -1 47 -3 55 -5 11 -3 15 4 15 26 0 20 6 31 18 33 14 3 17 -4 17 -33 0 -25 4 -35 13 -32 7 2 11 17 9 36 -1 17 2 31 8 31 5 0 13 0 18 0 4 1 9 -15 12 -35 7 -48 24 -49 28 -2 3 30 7 37 20 35 11 -2 17 -13 17 -33 0 -20 5 -30 15 -30 10 0 15 10 15 30 l0 30 85 0 c85 0 85 0 86 -26 2 -58 34 -62 34 -3 0 49 28 46 32 -3 4 -49 22 -49 26 0 3 29 7 37 20 35 10 -2 16 -14 16 -33 1 -44 20 -46 24 -3 l3 37 67 -1 c37 -1 73 1 80 5 21 14 29 0 36 -61 12 -102 52 -94 -423 -91 -411 2 -416 2 -419 -18 -2 -11 7 -31 20 -45 23 -23 25 -24 168 -18 80 3 151 3 158 1 8 -2 12 -16 10 -35 l-3 -31 -95 -7 c-53 -4 -116 -3 -142 2 -51 10 -81 5 -75 -14 3 -8 47 -10 146 -8 100 3 146 0 157 -8 11 -10 14 -57 14 -266 0 -228 5 -286 24 -255 3 5 6 146 6 314 1 208 4 307 11 309 6 2 26 2 45 0 31 -4 34 -7 34 -36 0 -18 5 -37 12 -44 15 -15 102 -16 93 -2 -3 6 -19 10 -35 10 -28 0 -40 15 -40 50 0 16 14 18 158 22 129 4 160 2 174 -10 17 -14 17 -16 0 -44 -13 -23 -14 -32 -4 -48 18 -29 16 -250 -2 -276 -12 -15 -17 -17 -27 -6 -7 6 -23 12 -36 12 -21 0 -23 -5 -23 -50 0 -45 3 -51 30 -65 34 -18 32 -35 -5 -35 -24 0 -35 -17 -35 -55 0 -29 20 -46 48 -38 18 4 22 13 22 44 0 28 4 39 15 39 9 0 15 -9 15 -25 0 -24 2 -25 75 -25 60 0 75 -3 75 -15 0 -15 -44 -21 -117 -16 -38 2 -48 -26 -10 -31 21 -3 22 -7 27 -155 3 -83 8 -155 12 -158 4 -4 14 -5 23 -2 12 5 15 27 16 114 1 152 9 198 34 198 18 0 20 -6 19 -60 -1 -33 -2 -113 -3 -179 l-1 -118 -82 2 c-177 6 -308 1 -308 -13 0 -14 54 -50 63 -41 3 3 131 9 284 12 l278 7 5 105 5 104 30 9 c18 5 41 4 58 -2 27 -10 27 -11 27 -110 0 -55 4 -103 10 -106 5 -3 440 -7 967 -10 527 -2 969 -6 983 -10 28 -6 95 29 85 45 -4 6 -285 10 -785 10 l-779 0 0 163 c-1 89 -3 189 -5 222 -6 73 2 127 18 122 6 -2 13 -29 16 -60 3 -32 10 -58 15 -60 6 -1 11 100 13 286 l2 287 135 0 c74 0 135 -3 135 -7 0 -5 2 -129 5 -277 3 -148 7 -271 10 -274 4 -4 9 231 10 493 l0 60 78 3 77 3 0 -286 c0 -225 3 -286 13 -283 9 4 13 70 15 279 1 151 4 279 6 285 6 15 162 18 172 2 4 -6 9 -133 11 -282 2 -149 6 -271 10 -271 4 0 8 88 9 195 4 372 6 409 21 415 8 3 18 3 22 1 9 -6 330 -5 444 1 73 4 87 2 87 -11 0 -8 -5 -18 -11 -22 -8 -4 -7 -9 2 -15 11 -7 13 -63 11 -291 -2 -174 1 -289 7 -298 9 -13 11 -13 15 0 3 8 7 148 8 310 l3 295 310 0 310 0 -3 -183 c-3 -192 0 -222 23 -222 23 0 28 43 23 179 -2 69 -3 133 -1 143 3 12 15 16 51 15 41 -2 47 1 47 18 0 18 -6 20 -48 18 -43 -3 -48 0 -57 23 -15 37 -4 46 54 44 78 -3 86 -1 86 15 0 17 -11 18 -88 15 -53 -2 -54 -2 -50 27 3 28 4 28 70 28 38 1 73 6 80 13 16 16 -1 21 -82 24 -62 3 -65 4 -65 28 0 24 2 25 77 28 83 3 104 18 68 49 -26 23 -25 30 5 37 26 7 33 30 14 42 -8 5 -6 10 5 16 21 12 21 37 0 45 -19 7 -81 -58 -90 -94 -4 -13 -14 -23 -24 -23 -10 0 -24 -9 -31 -21 -14 -20 -23 -20 -310 -21 -163 0 -301 -3 -305 -7 -5 -3 -14 -15 -20 -26 -6 -11 -22 -20 -35 -20 -21 0 -24 5 -27 45 -2 25 -7 48 -11 53 -4 4 -133 10 -286 12 -226 5 -282 9 -295 20 -12 11 -40 15 -97 15 -85 0 -117 6 -107 21 8 13 591 12 596 -1 3 -10 161 -21 186 -12 18 6 15 52 -4 59 -15 6 -15 8 2 20 15 11 16 17 7 31 -6 9 -19 16 -29 14 -11 -2 -35 -3 -54 -3 -19 1 -138 3 -264 6 -216 4 -229 5 -243 24 -13 19 -25 21 -123 21 l-109 0 -3 38 c-2 20 -1 60 0 89 l4 52 56 3 57 3 5 220 c4 176 2 222 -8 228 -11 7 -10 12 5 22 17 13 17 14 -4 37 -13 14 -23 32 -23 41 0 21 -34 123 -52 157 -63 117 -164 204 -260 225 -26 5 -28 8 -28 60 l0 55 -87 -1 c-49 -1 -98 -4 -110 -6z m174 -79 c13 -17 11 -20 -14 -31 -15 -7 -42 -12 -59 -13 -42 0 -96 20 -91 34 13 39 137 46 164 10z m-177 -74 c0 -6 -6 -18 -12 -26 -27 -32 -34 -41 -55 -81 -15 -27 -23 -59 -23 -90 0 -27 -5 -54 -12 -61 -6 -6 -9 -14 -5 -18 3 -3 131 -7 284 -8 271 -1 278 -2 278 -21 0 -17 -8 -21 -60 -25 l-60 -5 -3 -38 -3 -37 -272 2 -272 3 -3 33 c-3 28 -10 36 -38 48 -39 16 -38 28 3 39 33 8 43 21 43 56 0 75 128 239 185 239 14 0 25 -5 25 -10z m156 -14 c3 -8 13 -14 22 -14 25 2 127 -67 156 -105 40 -52 35 -74 -16 -80 -70 -8 -185 -9 -244 -1 -75 9 -84 31 -48 112 14 31 30 67 35 80 7 18 16 22 49 22 26 0 43 -5 46 -14z m357 -360 c24 -18 21 -36 -5 -33 -33 3 -36 -31 -3 -39 20 -5 23 -9 14 -20 -8 -10 -7 -17 5 -29 13 -14 16 -44 16 -185 0 -151 -2 -169 -17 -175 -31 -12 -845 -6 -860 6 -10 9 -13 52 -13 175 0 157 1 163 22 178 21 15 21 16 4 29 -18 13 -17 14 13 20 52 11 35 47 -22 47 l-21 0 20 14 c21 15 64 11 64 -5 0 -4 11 -20 24 -34 l24 -25 316 2 316 3 16 23 c18 26 55 62 63 62 3 0 14 -7 24 -14z m-185 -585 c4 -77 -4 -84 -67 -65 -25 8 -67 14 -93 14 -34 0 -50 5 -57 17 -9 17 -10 17 -28 0 -14 -12 -37 -17 -75 -17 -31 0 -75 -7 -98 -15 -67 -24 -80 -15 -80 54 0 31 5 62 12 69 9 9 73 12 248 10 l235 -3 3 -64z m-273 -116 c0 -17 -8 -21 -50 -25 -27 -3 -61 -12 -75 -19 -14 -8 -32 -18 -40 -22 -65 -36 -83 -39 -249 -37 -91 1 -134 4 -95 5 56 3 76 8 89 23 13 15 31 20 66 20 26 0 50 4 53 9 13 20 213 70 271 67 23 -1 30 -6 30 -21z m230 9 c33 -3 76 -11 95 -19 83 -31 119 -37 175 -30 54 6 59 5 87 -22 l29 -28 279 0 c153 0 282 -3 286 -7 10 -11 10 -11 -431 -9 l-390 1 -55 26 c-30 15 -67 33 -82 40 -14 8 -48 14 -75 14 -50 0 -73 12 -73 38 0 12 10 13 48 8 26 -4 74 -9 107 -12z m-7 -80 c7 -8 18 -14 24 -14 13 0 109 -64 144 -97 27 -25 36 -27 111 -28 54 0 86 -5 95 -13 7 -7 13 -35 13 -62 0 -50 19 -68 21 -20 1 60 39 66 39 7 0 -20 5 -37 10 -37 6 0 10 17 10 38 0 30 4 37 20 37 16 0 20 -7 20 -34 0 -20 6 -36 14 -39 11 -4 13 3 8 31 l-6 36 90 3 c49 2 94 2 99 0 4 -2 6 -18 3 -36 -3 -19 -1 -36 6 -40 11 -7 22 27 18 59 -3 26 44 33 63 10 10 -13 9 -26 -8 -78 l-20 -62 -157 -3 c-116 -2 -161 1 -173 10 -10 9 -64 15 -164 18 -88 3 -148 9 -148 15 -1 6 8 11 20 13 33 5 23 26 -23 43 -27 11 -59 15 -89 12 -64 -7 -51 -23 18 -23 42 0 54 -3 54 -16 0 -13 -11 -15 -82 -9 -105 8 -268 8 -381 0 -74 -6 -88 -4 -93 9 -7 18 -59 22 -69 6 -4 -6 7 -15 24 -21 57 -20 21 -29 -114 -29 -106 0 -137 -3 -149 -15 -12 -13 -42 -15 -173 -13 l-158 3 -3 35 c-2 19 -8 39 -13 44 -14 16 -10 63 6 70 26 10 43 -4 41 -34 0 -16 4 -29 9 -29 6 0 9 13 8 30 -1 25 2 30 20 27 16 -2 21 -10 22 -32 0 -16 6 -31 13 -33 8 -3 12 7 12 31 0 29 4 36 20 36 16 0 20 -6 18 -27 -2 -16 2 -28 7 -28 6 0 10 11 10 25 1 24 4 25 63 28 l62 3 0 -36 c0 -25 4 -35 13 -32 6 2 12 17 12 33 1 19 6 30 18 32 13 3 17 -4 17 -32 0 -25 4 -36 15 -36 11 0 15 12 15 48 0 26 5 53 12 60 7 7 43 12 90 12 75 0 80 1 111 33 45 46 108 93 135 101 12 4 22 12 22 17 0 13 72 7 77 -7 3 -10 -62 -44 -85 -44 -18 0 -149 -128 -155 -151 -7 -26 22 -39 35 -16 5 10 18 17 29 17 12 0 27 12 37 31 28 51 62 89 81 89 27 0 30 -9 15 -38 -8 -15 -14 -31 -14 -37 0 -6 59 -10 158 -10 104 0 164 -4 173 -11 8 -7 30 -15 49 -19 19 -4 45 -13 57 -21 14 -9 24 -10 28 -4 9 15 -29 64 -83 107 -26 21 -49 41 -52 45 -3 3 -18 10 -33 13 -15 4 -30 11 -33 16 -3 5 -16 9 -29 9 -27 0 -39 14 -31 36 5 12 15 14 48 9 23 -4 48 -14 56 -21z m-1088 -23 c43 -7 42 -7 -35 -13 -44 -4 -116 -4 -160 0 -75 6 -77 7 -35 13 64 9 177 9 230 0z m925 -2 c4 -5 18 -14 32 -20 18 -6 24 -15 21 -31 -3 -26 -25 -33 -74 -23 -39 7 -46 35 -17 67 18 21 29 23 38 7z m-1004 -169 c13 -7 19 -21 19 -44 0 -19 7 -39 15 -46 9 -7 15 -23 13 -34 -3 -19 -10 -21 -78 -21 l-75 0 -3 63 c-2 38 2 69 9 78 13 16 72 19 100 4z m2122 -49 c6 -35 5 -62 -2 -77 -9 -21 -17 -24 -66 -24 -54 0 -55 1 -55 28 0 16 7 37 15 48 8 10 15 31 15 45 0 35 8 40 50 37 34 -3 35 -4 43 -57z m-3007 21 c-13 -13 -17 -13 -31 -2 -16 13 -16 15 2 21 10 3 24 4 31 1 11 -4 11 -8 -2 -20z m3692 -88 l3 -51 -58 -7 c-32 -3 -174 -6 -316 -5 -242 1 -258 2 -267 20 -18 33 4 59 50 59 29 0 42 5 50 20 11 20 19 20 273 18 l262 -3 3 -51z m-1683 -24 c50 -5 106 -17 125 -27 26 -13 68 -18 162 -21 136 -5 165 -15 137 -48 -11 -13 -31 -15 -124 -12 -60 2 -135 11 -165 21 -30 9 -86 21 -125 28 -108 17 -350 -1 -406 -32 -16 -9 -63 -13 -139 -14 l-115 0 0 25 c0 25 0 25 120 31 82 4 133 12 160 24 66 29 230 40 370 25z m-1116 -76 c31 -7 43 -24 16 -24 -8 0 -15 -4 -15 -10 0 -5 9 -10 19 -10 17 0 19 -12 26 -156 4 -86 4 -179 0 -208 -15 -102 -2 -247 19 -225 8 8 8 563 1 582 -15 38 6 43 187 40 l173 -2 3 -303 c1 -167 5 -310 8 -318 15 -42 21 35 22 291 1 154 5 285 8 291 5 7 35 8 88 4 45 -4 129 -7 189 -6 l107 2 -2 -188 c-2 -139 -6 -188 -15 -192 -8 -2 -13 5 -13 17 0 12 -7 24 -15 27 -26 10 -37 41 -23 64 11 17 10 22 -2 30 -26 17 -45 7 -45 -23 1 -30 -27 -44 -66 -34 -16 4 -21 -1 -26 -25 -3 -16 -12 -32 -19 -35 -20 -7 -19 -109 0 -120 8 -4 16 -21 18 -37 l3 -29 73 2 c61 2 72 0 72 -14 0 -14 -11 -16 -72 -14 -66 2 -73 1 -73 -17 0 -14 7 -19 25 -19 l25 0 3 -157 3 -158 24 0 24 0 3 158 c3 149 4 157 23 157 19 0 20 -8 23 -105 2 -58 1 -138 -3 -177 l-7 -73 -62 0 c-35 0 -67 5 -74 12 -8 8 -12 48 -12 115 0 85 -3 105 -16 110 -31 12 -39 -15 -36 -115 2 -101 -5 -129 -32 -119 -13 5 -16 24 -16 112 0 86 -3 107 -15 112 -9 3 -19 2 -23 -2 -4 -3 -8 -54 -9 -112 -1 -58 -4 -107 -7 -110 -3 -3 -12 -3 -21 0 -12 5 -15 26 -15 110 0 67 -4 107 -12 115 -8 8 -50 12 -124 12 -93 0 -113 -3 -118 -16 -3 -9 -6 -60 -6 -115 0 -81 -3 -101 -16 -106 -29 -11 -38 14 -36 110 2 68 -2 98 -12 112 -21 28 -25 10 -28 -115 -3 -105 -3 -105 -28 -105 -25 0 -25 0 -30 113 -3 73 -9 115 -17 120 -16 10 -35 209 -22 233 12 23 12 49 -1 49 -6 0 -14 -8 -17 -17 -18 -47 -87 -68 -127 -38 -10 8 -25 26 -33 41 -26 51 22 123 82 123 32 1 68 -23 78 -51 4 -10 12 -18 18 -18 8 0 9 14 4 48 -4 26 -7 105 -7 177 1 89 -3 132 -11 137 -19 12 -65 9 -74 -4 -4 -7 -6 -63 -5 -124 3 -91 1 -112 -12 -123 -9 -7 -23 -11 -31 -7 -13 5 -16 23 -14 103 1 54 4 121 6 150 5 47 8 52 32 56 25 4 26 4 4 12 -64 21 24 45 106 29z m790 -423 c17 -21 31 -45 31 -53 0 -8 -15 -31 -34 -51 -27 -30 -41 -37 -70 -37 -23 0 -39 5 -42 15 -4 8 -12 15 -20 15 -14 0 -19 27 -16 78 2 38 42 72 84 72 30 0 41 -6 67 -39z m-373 -423 c4 -6 7 -41 7 -78 0 -75 -6 -90 -34 -90 -17 0 -19 8 -19 90 0 82 2 90 19 90 11 0 23 -5 27 -12z"></path><path d="M3850 5950 c-12 -7 -12 -13 -4 -27 15 -25 40 -28 46 -6 10 38 -10 54 -42 33z"></path><path d="M3918 5948 c-7 -21 3 -48 19 -48 10 0 13 9 11 27 -3 28 -23 42 -30 21z"></path><path d="M3982 5928 c2 -13 8 -23 13 -23 6 0 11 10 13 23 2 15 -2 22 -13 22 -11 0 -15 -7 -13 -22z"></path><path d="M4042 5928 c2 -13 10 -23 18 -23 8 0 16 10 18 23 3 17 -2 22 -18 22 -16 0 -21 -5 -18 -22z"></path><path d="M4097 5943 c-10 -16 10 -35 34 -31 33 4 31 32 -3 36 -14 2 -28 -1 -31 -5z"></path><path d="M4182 5928 c2 -13 10 -23 18 -23 8 0 16 10 18 23 3 17 -2 22 -18 22 -16 0 -21 -5 -18 -22z"></path><path d="M4252 5928 c2 -13 8 -23 13 -23 6 0 11 10 13 23 2 15 -2 22 -13 22 -11 0 -15 -7 -13 -22z"></path><path d="M4312 5928 c2 -13 8 -23 13 -23 6 0 11 10 13 23 2 15 -2 22 -13 22 -11 0 -15 -7 -13 -22z"></path><path d="M3840 5801 c0 -6 5 -13 10 -16 6 -4 10 -70 10 -166 0 -135 2 -159 15 -159 13 0 15 24 15 159 0 88 3 166 6 175 5 13 -1 16 -25 16 -17 0 -31 -4 -31 -9z"></path><path d="M4400 5786 c0 -15 -8 -30 -20 -36 -19 -10 -20 -21 -20 -150 0 -131 1 -139 20 -145 42 -13 47 6 49 170 0 85 2 160 3 166 2 7 -5 15 -14 17 -14 2 -18 -3 -18 -22z"></path><path d="M3747 5744 c-12 -12 -8 -282 4 -289 5 -4 21 -4 33 -1 23 6 24 7 22 148 l-1 143 -25 3 c-14 2 -29 0 -33 -4z"></path><path d="M3925 5738 c-3 -8 -4 -75 -3 -149 3 -126 4 -134 23 -134 19 0 20 7 20 145 0 130 -2 145 -18 148 -9 2 -19 -3 -22 -10z"></path><path d="M4015 5738 c-3 -8 -4 -75 -3 -149 3 -111 6 -134 18 -134 13 0 15 23 15 144 0 107 -3 145 -12 148 -7 3 -15 -2 -18 -9z"></path><path d="M4100 5600 c0 -127 2 -150 15 -150 13 0 15 23 15 150 0 127 -2 150 -15 150 -13 0 -15 -23 -15 -150z"></path><path d="M4185 5738 c-3 -8 -4 -75 -3 -149 3 -111 6 -134 18 -134 13 0 15 23 15 144 0 107 -3 145 -12 148 -7 3 -15 -2 -18 -9z"></path><path d="M4265 5738 c-3 -8 -4 -75 -3 -149 3 -126 4 -134 23 -134 19 0 20 7 20 145 0 130 -2 145 -18 148 -9 2 -19 -3 -22 -10z"></path><path d="M4490 5748 c-1 -2 -2 -67 -3 -146 -2 -142 -2 -143 21 -149 13 -3 28 -1 33 4 5 5 8 70 7 149 l-3 139 -27 3 c-16 2 -28 2 -28 0z"></path><path d="M4118 4923 c23 -2 59 -2 80 0 20 2 1 4 -43 4 -44 0 -61 -2 -37 -4z"></path><path d="M4967 4906 c-7 -19 18 -42 28 -26 8 13 -1 40 -14 40 -5 0 -11 -6 -14 -14z"></path><path d="M3453 4898 c2 -7 10 -13 17 -13 7 0 15 6 18 13 2 7 -5 12 -18 12 -13 0 -20 -5 -17 -12z"></path><path d="M3887 4904 c-18 -19 -2 -25 58 -22 36 2 66 8 68 13 2 11 -115 20 -126 9z"></path><path d="M4885 4901 c-7 -12 12 -24 25 -16 11 7 4 25 -10 25 -5 0 -11 -4 -15 -9z"></path><path d="M5484 4835 c-8 -19 2 -45 16 -45 5 0 10 14 10 30 0 31 -16 41 -26 15z"></path><path d="M5632 4826 c2 -15 8 -26 13 -26 15 0 12 43 -3 48 -10 3 -13 -4 -10 -22z"></path><path d="M5695 4840 c-9 -14 4 -52 16 -45 12 8 12 42 0 50 -5 3 -12 1 -16 -5z"></path><path d="M5842 4826 c2 -15 8 -26 13 -26 15 0 12 43 -3 48 -10 3 -13 -4 -10 -22z"></path><path d="M3667 4634 c-4 -4 -7 -126 -7 -271 l0 -263 25 -10 c54 -21 55 -19 57 251 1 137 2 259 2 272 1 18 -5 23 -34 25 -20 2 -39 0 -43 -4z"></path><path d="M3807 4633 c-2 -5 -1 -53 3 -108 l7 -100 1 108 c2 99 0 120 -11 100z"></path><path d="M3371 4581 c-15 -15 -18 -29 -14 -63 7 -64 10 -68 42 -68 34 0 41 13 41 80 0 39 -4 52 -19 60 -26 13 -28 13 -50 -9z"></path><path d="M3908 4549 c-33 -57 -17 -110 27 -93 11 5 15 22 15 65 0 67 -15 77 -42 28z"></path><path d="M3276 4526 c-29 -46 -13 -108 19 -75 17 18 24 91 9 96 -6 2 -19 -8 -28 -21z"></path><path d="M3488 4544 c-10 -10 3 -78 18 -94 12 -12 16 -12 30 2 15 15 15 20 2 55 -15 36 -36 52 -50 37z"></path><path d="M3265 4399 c-15 -24 16 -30 146 -27 111 3 134 6 134 18 0 12 -23 15 -137 18 -92 2 -139 -1 -143 -9z"></path><path d="M3267 4334 c-10 -11 -9 -102 2 -108 5 -4 17 -3 26 0 22 9 18 107 -5 112 -9 1 -19 0 -23 -4z"></path><path d="M3367 4334 c-4 -4 -7 -29 -7 -55 0 -43 2 -47 28 -52 40 -8 53 9 50 62 -3 43 -5 46 -33 49 -17 2 -34 0 -38 -4z"></path><path d="M3497 4334 c-13 -14 -7 -91 8 -104 26 -22 46 6 43 59 -2 37 -7 47 -23 49 -12 2 -24 0 -28 -4z"></path><path d="M3257 4158 c-5 -34 7 -78 20 -78 27 1 36 21 34 78 -1 27 -5 32 -25 32 -19 0 -25 -6 -29 -32z"></path><path d="M3362 4138 l3 -53 35 0 35 0 0 50 0 50 -38 3 -38 3 3 -53z"></path><path d="M3494 4176 c-3 -8 -4 -31 -2 -52 2 -31 7 -40 25 -42 29 -4 44 25 36 72 -5 30 -10 36 -30 36 -13 0 -26 -6 -29 -14z"></path><path d="M3252 4028 c-28 -28 0 -63 43 -52 21 5 26 11 23 33 -2 19 -9 27 -28 29 -14 2 -31 -3 -38 -10z"></path><path d="M3644 4014 c-4 -17 -2 -29 7 -35 38 -24 79 4 59 40 -16 31 -58 28 -66 -5z"></path><path d="M2322 6348 c7 -11 55 -62 107 -112 150 -145 347 -344 430 -433 102 -111 117 -109 86 7 -14 52 -20 120 -11 120 2 0 48 -26 103 -58 54 -32 105 -61 113 -65 8 -4 27 -15 42 -25 73 -47 168 -102 176 -102 6 0 12 6 15 14 3 8 -21 37 -61 74 -69 62 -319 312 -392 392 -23 25 -53 62 -67 83 -46 67 -67 45 -53 -55 12 -78 12 -80 0 -98 -7 -12 -15 -9 -47 16 -21 17 -45 33 -53 37 -8 4 -28 16 -45 27 -16 11 -39 24 -50 30 -11 6 -32 18 -47 28 -15 9 -60 37 -100 61 -40 24 -75 47 -78 51 -4 6 -66 30 -77 30 -2 0 2 -10 9 -22z m592 -304 c30 -31 31 -35 11 -74 -19 -37 -44 -38 -84 -4 -37 31 -38 43 -6 78 30 33 45 33 79 0z"></path><path d="M5964 6352 c-27 -15 -107 -64 -202 -124 -54 -34 -78 -47 -104 -59 -16 -6 -28 -15 -28 -20 0 -5 -5 -9 -10 -9 -12 0 -73 -41 -78 -52 -6 -14 -30 -9 -36 7 -3 8 -1 38 4 66 6 29 10 65 10 80 0 42 -29 37 -60 -8 -14 -21 -136 -150 -272 -287 -136 -137 -245 -253 -242 -258 7 -11 41 -10 49 1 3 6 31 25 61 43 31 18 68 41 83 50 14 10 36 22 48 27 11 5 24 15 28 20 3 6 13 11 21 11 8 0 43 20 79 45 60 42 65 44 74 26 10 -17 5 -70 -14 -158 -9 -37 29 -28 61 15 15 20 148 156 294 302 146 146 272 273 279 283 18 23 -2 23 -45 -1z m-462 -311 c31 -27 31 -30 16 -52 -8 -13 -28 -31 -42 -39 -24 -12 -31 -12 -54 1 -36 20 -38 48 -6 87 33 39 45 40 86 3z"></path><path d="M3657 5353 c-3 -4 -5 -32 -5 -60 l0 -53 54 0 c53 0 75 13 56 32 -7 7 -8 17 -2 29 16 29 1 49 -35 49 -18 0 -40 3 -48 6 -8 3 -17 2 -20 -3z"></path><path d="M4607 5353 c-13 -3 -17 -11 -13 -24 3 -10 9 -28 12 -39 4 -12 2 -20 -5 -20 -6 0 -11 -7 -11 -15 0 -12 14 -15 63 -15 72 0 84 6 61 31 -14 16 -14 20 1 43 9 14 14 30 10 36 -6 10 -83 12 -118 3z"></path><path d="M5172 5294 c-11 -8 -12 -13 -4 -18 7 -4 12 -20 12 -37 0 -16 3 -29 8 -30 4 0 32 -1 62 -2 53 -2 55 -1 55 25 1 14 7 33 14 42 11 13 11 17 0 20 -31 11 -133 10 -147 0z"></path><path d="M3053 5238 l3 -53 59 -3 c62 -3 86 8 67 30 -7 9 -7 19 -2 28 6 8 10 23 10 33 0 15 -10 17 -70 17 l-70 0 3 -52z"></path><path d="M2932 4899 c1 -13 8 -23 13 -21 15 3 12 35 -3 40 -9 3 -13 -3 -10 -19z"></path><path d="M2853 4898 c2 -7 10 -13 17 -13 7 0 15 6 18 13 2 7 -5 12 -18 12 -13 0 -20 -5 -17 -12z"></path><path d="M5120 4695 c0 -8 -10 -21 -22 -29 -19 -14 -20 -18 -9 -43 10 -21 14 -24 22 -12 5 7 9 24 9 36 0 16 9 23 37 30 l37 8 -37 12 c-30 9 -37 9 -37 -2z"></path><path d="M4788 4643 c12 -2 32 -2 45 0 12 2 2 4 -23 4 -25 0 -35 -2 -22 -4z"></path><path d="M4569 4636 c0 -3 0 -124 -1 -268 l0 -262 26 -7 c14 -4 35 -5 46 -2 20 5 20 11 18 272 l-3 266 -42 3 c-24 2 -43 1 -44 -2z"></path><path d="M5185 4627 c-3 -7 -4 -129 -3 -272 l3 -260 36 -3 c24 -2 38 2 40 10 2 7 3 131 1 276 l-3 262 -35 0 c-19 0 -37 -6 -39 -13z"></path><path d="M4145 4603 c-14 -13 -16 -27 -10 -72 7 -54 19 -74 40 -68 15 5 26 116 14 138 -12 23 -23 24 -44 2z"></path><path d="M2771 4587 c-7 -14 -10 -42 -7 -68 2 -24 5 -48 5 -52 1 -5 16 -7 34 -5 31 3 32 5 35 52 5 71 -4 96 -32 96 -13 0 -28 -9 -35 -23z"></path><path d="M2296 4587 c-21 -16 -30 -99 -14 -131 7 -12 6 -22 -1 -29 -6 -6 -11 -21 -11 -34 0 -22 3 -23 94 -23 94 0 121 9 97 33 -7 7 -35 12 -64 13 -83 1 -83 1 -59 27 30 32 32 131 3 147 -25 13 -24 13 -45 -3z"></path><path d="M4890 4590 c-11 -7 -14 -24 -13 -65 3 -65 7 -75 32 -75 25 0 37 18 44 66 10 61 -23 100 -63 74z"></path><path d="M5607 4583 c-9 -8 -9 -96 -1 -117 6 -17 41 -21 60 -8 15 9 24 95 12 116 -9 16 -58 22 -71 9z"></path><path d="M4225 4568 c-9 -23 -2 -101 10 -105 6 -1 16 1 23 6 11 7 11 16 1 52 -15 53 -26 68 -34 47z"></path><path d="M2210 4535 c0 -17 5 -25 13 -22 6 2 12 12 12 22 0 10 -6 20 -12 23 -8 2 -13 -6 -13 -23z"></path><path d="M2680 4535 c-13 -13 -22 -35 -21 -52 0 -15 1 -47 0 -70 l0 -42 141 3 c77 1 143 5 146 9 4 3 4 13 1 21 -4 11 -32 15 -126 18 -65 1 -123 6 -126 10 -4 4 0 14 9 23 17 17 22 90 7 99 -4 3 -18 -5 -31 -19z"></path><path d="M4377 4553 c-12 -11 -8 -78 5 -91 14 -14 54 -16 62 -3 8 13 -14 74 -32 89 -18 14 -26 15 -35 5z"></path><path d="M2406 4542 c-9 -15 6 -81 21 -93 11 -10 18 -9 30 4 14 14 15 20 2 54 -14 36 -41 54 -53 35z"></path><path d="M2890 4519 c0 -55 29 -86 57 -58 16 16 -15 89 -39 89 -13 0 -18 -8 -18 -31z"></path><path d="M4077 4543 c-4 -3 -7 -24 -7 -45 0 -27 4 -38 15 -38 11 0 15 12 15 45 0 42 -7 54 -23 38z"></path><path d="M4783 4513 c-16 -39 -9 -68 18 -68 14 0 33 80 23 96 -11 18 -26 8 -41 -28z"></path><path d="M5000 4506 c0 -46 19 -72 45 -62 20 7 19 50 -1 81 -26 40 -44 32 -44 -19z"></path><path d="M5516 4535 c-21 -22 -29 -70 -15 -93 10 -17 10 -23 -1 -37 -25 -30 2 -36 146 -33 l139 3 0 72 c0 60 -4 75 -20 87 -11 9 -26 16 -32 16 -18 0 -16 -49 2 -84 25 -48 15 -56 -74 -56 -97 0 -136 12 -123 37 5 10 12 34 16 54 7 41 -13 59 -38 34z"></path><path d="M4072 4413 c3 -16 16 -18 95 -18 50 0 94 3 98 7 19 19 -13 28 -101 28 -86 0 -95 -2 -92 -17z"></path><path d="M4390 4415 c-18 -21 -5 -45 24 -45 32 0 40 14 24 40 -15 24 -31 26 -48 5z"></path><path d="M4782 4404 c-35 -25 -1 -34 133 -34 131 0 150 4 140 32 -7 17 -250 19 -273 2z"></path><path d="M4077 4354 c-11 -12 -8 -102 4 -110 15 -9 29 15 29 52 0 32 -21 70 -33 58z"></path><path d="M2660 4335 c-17 -20 -4 -104 17 -112 40 -15 62 96 24 117 -25 13 -26 13 -41 -5z"></path><path d="M4152 4338 c-17 -17 -15 -73 3 -88 24 -20 37 1 33 50 -3 46 -16 58 -36 38z"></path><path d="M4227 4343 c-11 -10 -8 -91 3 -98 19 -12 40 17 40 55 0 25 -5 40 -16 44 -19 7 -19 7 -27 -1z"></path><path d="M2300 4330 c0 -6 4 -18 10 -28 5 -9 14 -30 20 -45 14 -41 30 -24 30 34 0 48 -1 49 -30 49 -16 0 -30 -5 -30 -10z"></path><path d="M2409 4313 c-15 -39 0 -87 29 -91 25 -4 42 28 42 78 0 46 -54 56 -71 13z"></path><path d="M2773 4328 c-26 -35 -2 -98 38 -98 21 0 32 32 27 76 -2 23 -9 30 -29 32 -14 2 -30 -3 -36 -10z"></path><path d="M4377 4328 c-8 -22 3 -92 16 -100 32 -20 59 12 55 66 -3 38 -5 41 -34 44 -19 2 -33 -2 -37 -10z"></path><path d="M4774 4326 c-3 -7 -4 -33 -2 -57 2 -36 7 -44 23 -44 17 0 20 8 23 58 3 52 1 57 -18 57 -11 0 -23 -6 -26 -14z"></path><path d="M4887 4333 c-7 -7 -10 -103 -3 -103 2 0 11 -3 19 -6 23 -9 47 24 47 66 0 25 -5 40 -16 44 -20 8 -39 8 -47 -1z"></path><path d="M5007 4333 c-10 -9 -8 -86 2 -101 5 -8 17 -12 27 -10 16 3 20 14 22 61 3 54 2 57 -21 57 -13 0 -27 -3 -30 -7z"></path><path d="M5487 4334 c-10 -11 -9 -58 3 -89 7 -20 16 -26 33 -23 20 3 22 9 22 58 0 51 -2 55 -25 58 -14 2 -29 0 -33 -4z"></path><path d="M5607 4333 c-4 -3 -7 -25 -7 -48 0 -52 17 -69 54 -55 23 8 26 15 26 54 0 31 -5 46 -16 50 -21 8 -49 8 -57 -1z"></path><path d="M5734 4326 c-3 -7 -4 -33 -2 -57 3 -39 6 -44 28 -44 19 0 26 7 33 32 14 48 2 83 -29 83 -13 0 -27 -6 -30 -14z"></path><path d="M2662 4188 c-29 -29 -3 -103 34 -97 14 3 20 14 22 42 5 55 -26 85 -56 55z"></path><path d="M4077 4193 c-11 -11 -8 -91 4 -99 15 -9 29 15 29 52 0 31 -21 60 -33 47z"></path><path d="M4153 4188 c-32 -41 -21 -98 19 -98 17 0 19 6 16 52 -3 52 -16 69 -35 46z"></path><path d="M5748 4192 c-10 -2 -19 -7 -19 -10 -9 -57 -7 -72 12 -86 17 -12 18 -16 6 -23 -8 -4 -19 -18 -26 -30 -11 -21 -18 -23 -106 -23 -90 0 -95 1 -111 25 -20 31 -58 33 -78 3 -13 -18 -24 -21 -66 -19 -62 3 -99 -7 -79 -20 8 -5 33 -9 57 -9 38 0 42 -2 42 -25 0 -25 -1 -26 -62 -23 -63 3 -63 3 -66 36 -2 20 -9 32 -18 32 -8 0 -19 11 -24 25 -6 15 -17 25 -30 25 -12 0 -25 -10 -32 -25 -11 -24 -14 -25 -114 -25 -99 0 -104 1 -120 25 -9 14 -22 25 -30 25 -7 0 -21 -11 -30 -25 -9 -14 -23 -25 -30 -25 -9 0 -14 -11 -14 -30 0 -37 -19 -47 -78 -40 -42 4 -47 8 -47 30 0 18 6 25 20 26 11 0 36 2 55 3 l35 3 -40 8 c-21 4 -55 5 -75 3 -31 -4 -39 -1 -53 21 -22 33 -54 34 -69 1 -11 -24 -14 -25 -110 -25 -96 0 -99 1 -108 25 -7 18 -17 25 -35 25 -17 0 -29 -8 -37 -25 -11 -24 -14 -25 -122 -25 l-111 0 5 -112 c4 -79 9 -113 18 -116 10 -3 12 9 7 55 -6 48 -4 61 10 73 26 21 37 -5 29 -72 -5 -50 -4 -58 11 -58 15 0 16 8 11 58 -7 63 3 89 29 78 14 -5 16 -17 14 -64 -3 -34 0 -57 6 -57 6 0 10 27 10 60 l0 60 34 -3 c30 -3 33 -2 28 18 -10 39 12 70 50 70 43 0 51 -20 49 -128 -2 -58 1 -86 11 -93 7 -7 13 -18 13 -25 0 -11 19 -14 84 -14 50 0 88 4 91 11 4 6 4 36 0 67 l-8 57 -9 -38 c-16 -72 -23 -78 -85 -73 -31 3 -60 11 -64 18 -14 22 -22 101 -12 117 23 37 33 23 33 -48 0 -56 3 -71 15 -71 12 0 15 15 15 71 0 62 2 70 18 67 14 -3 17 -14 17 -63 0 -33 5 -61 10 -62 6 -1 9 19 7 50 -3 68 9 88 37 63 20 -18 20 -18 26 7 4 14 5 29 2 34 -3 4 -1 18 4 31 7 20 15 23 46 20 37 -3 38 -4 43 -48 5 -45 9 -48 43 -35 19 8 23 -12 18 -94 -2 -33 0 -42 11 -39 8 3 13 21 14 44 1 79 4 94 19 94 11 0 15 -16 17 -67 2 -38 8 -68 13 -68 6 0 11 30 13 68 3 68 8 77 30 55 26 -26 6 -133 -26 -141 -10 -2 -33 -3 -52 -1 -19 1 -43 3 -52 3 -12 1 -18 9 -18 25 0 30 -18 44 -26 21 -4 -9 0 -23 8 -33 8 -9 18 -25 22 -36 4 -11 12 -16 22 -12 9 3 47 6 86 6 l70 0 -3 78 c-1 42 -2 101 -1 130 l2 52 35 0 c25 0 35 -4 35 -15 0 -9 7 -18 15 -21 11 -5 12 -11 4 -25 -13 -25 7 -33 67 -26 52 5 54 4 57 -74 1 -32 6 -52 12 -49 6 3 9 28 7 55 -3 61 9 85 32 66 19 -16 21 -64 5 -110 l-11 -31 -79 0 c-73 0 -96 -9 -68 -26 19 -12 173 -4 181 9 4 7 8 65 8 130 l0 117 31 0 32 0 -7 -96 c-5 -67 -3 -100 5 -110 23 -28 30 -14 24 41 -5 38 -4 60 5 70 23 28 30 15 30 -55 0 -56 3 -70 15 -70 12 0 15 14 15 70 0 70 10 86 37 59 7 -7 13 -8 17 0 4 6 20 8 36 4 29 -5 30 -4 30 29 0 19 5 39 12 46 31 31 89 -6 81 -52 -5 -25 -3 -26 28 -24 19 2 34 -3 37 -10 3 -10 7 -8 16 4 19 26 36 8 36 -39 0 -74 -21 -83 -40 -19 -7 22 -8 23 -9 7 -1 -27 -20 -45 -47 -45 -18 0 -20 -4 -16 -27 2 -16 9 -34 15 -40 13 -17 67 -17 67 0 0 7 14 23 30 37 26 22 30 31 30 77 0 56 12 67 31 32 16 -31 27 -12 31 51 l3 55 40 0 c33 0 41 4 43 22 2 12 -6 30 -18 41 -14 13 -18 22 -11 27 15 9 14 92 -1 97 -7 2 -21 3 -30 0z m-638 -212 l0 -30 -62 0 c-74 0 -89 8 -81 38 5 20 12 22 74 22 l69 0 0 -30z m560 4 c0 -24 -23 -34 -82 -34 -41 0 -49 7 -42 36 4 17 14 20 65 19 53 0 59 -2 59 -21z m-1161 -14 c14 -1 13 -3 -3 -15 -27 -21 -126 -17 -126 5 0 11 47 19 84 14 16 -2 36 -4 45 -4z m-289 -9 c0 -4 -28 -11 -62 -14 -48 -4 -67 -2 -78 9 -12 12 -4 14 63 14 42 0 77 -4 77 -9z"></path><path d="M2397 4168 c-9 -33 23 -83 54 -83 22 0 24 4 24 50 l0 50 -36 3 c-31 3 -37 -1 -42 -20z"></path><path d="M2767 4183 c-4 -3 -7 -21 -7 -40 0 -26 6 -36 24 -45 40 -18 56 -5 56 47 0 44 0 45 -33 45 -19 0 -37 -3 -40 -7z"></path><path d="M4220 4146 c0 -49 12 -65 36 -45 10 8 14 25 12 48 -2 29 -8 37 -25 39 -21 3 -23 -1 -23 -42z"></path><path d="M4376 4175 c-18 -49 4 -89 46 -83 20 3 23 9 23 48 0 43 -1 45 -31 48 -22 2 -33 -2 -38 -13z"></path><path d="M4769 4183 c-8 -55 -7 -74 6 -87 27 -27 45 -9 45 45 0 46 -2 49 -25 49 -14 0 -26 -3 -26 -7z"></path><path d="M4882 4143 c3 -46 4 -48 33 -48 29 0 30 2 30 45 0 44 -1 45 -33 48 l-33 3 3 -48z"></path><path d="M5007 4183 c-13 -12 -7 -81 8 -93 28 -23 45 -4 45 50 0 46 -2 50 -23 50 -13 0 -27 -3 -30 -7z"></path><path d="M5487 4177 c-8 -21 4 -71 21 -84 24 -20 42 3 42 53 0 42 -1 44 -29 44 -16 0 -31 -6 -34 -13z"></path><path d="M5607 4184 c-12 -12 -8 -81 6 -91 6 -5 23 -7 37 -3 22 5 25 11 25 50 0 43 -2 45 -30 48 -17 2 -34 0 -38 -4z"></path><path d="M2620 4055 c-9 -10 -32 -15 -77 -15 -56 0 -64 -2 -61 -17 2 -14 15 -19 56 -21 46 -3 53 -6 58 -28 4 -14 4 -43 0 -65 -5 -30 -3 -41 8 -45 8 -3 18 -19 21 -35 4 -16 13 -29 21 -29 11 0 14 18 14 85 0 75 -2 85 -21 96 -26 14 -11 32 22 27 23 -3 24 -6 27 -103 1 -71 7 -109 19 -132 19 -36 26 -37 133 -25 l55 7 1 119 c0 104 3 120 19 133 11 7 26 11 35 7 27 -10 34 -9 37 6 3 13 -16 15 -141 12 -138 -4 -145 -3 -155 17 -14 25 -53 28 -71 6z m240 -74 c0 -28 -2 -29 -49 -33 -71 -5 -81 -1 -81 33 l0 29 65 0 65 0 0 -29z m-110 -108 c0 -74 -13 -97 -29 -52 -14 42 -14 82 1 97 22 22 28 12 28 -45z m62 35 c1 -13 2 -41 2 -63 1 -63 21 -47 21 17 0 64 7 77 31 57 13 -11 15 -25 11 -68 -8 -72 -20 -83 -77 -72 -25 5 -39 9 -32 10 8 1 12 22 12 71 0 56 3 70 15 70 8 0 16 -10 17 -22z"></path><path d="M4286 3968 c-2 -7 -7 -44 -10 -83 -6 -71 3 -103 23 -91 14 9 15 172 1 181 -6 3 -12 0 -14 -7z"></path><path d="M5750 3965 c0 -8 7 -15 15 -15 8 0 15 7 15 15 0 8 -7 15 -15 15 -8 0 -15 -7 -15 -15z"></path><path d="M2930 3878 c0 -83 10 -131 24 -118 5 6 8 65 7 148 -1 48 -4 62 -16 62 -12 0 -15 -17 -15 -92z"></path><path d="M4580 3885 c0 -69 3 -85 15 -85 12 0 15 16 15 85 0 69 -3 85 -15 85 -12 0 -15 -16 -15 -85z"></path><path d="M4885 3896 c-7 -77 -3 -96 20 -96 23 0 27 19 20 96 -5 51 -11 74 -20 74 -9 0 -15 -23 -20 -74z"></path><path d="M5448 3900 c-8 -106 6 -149 32 -100 15 27 2 170 -15 170 -8 0 -14 -24 -17 -70z"></path><path d="M3430 3848 c-1 -2 -3 -40 -6 -86 -5 -83 -5 -84 18 -80 16 2 23 9 22 26 0 12 -1 49 -2 82 -2 46 -6 60 -17 60 -8 0 -15 -1 -15 -2z"></path><path d="M5337 3826 c-6 -15 1 -26 15 -26 11 0 10 27 -1 34 -5 3 -11 0 -14 -8z"></path><path d="M4218 3806 c-13 -29 -12 -29 -85 -30 -87 -2 -61 -21 32 -24 l85 -3 0 35 c0 44 -16 55 -32 22z"></path><path d="M4980 3810 c0 -5 9 -10 20 -10 11 0 20 5 20 10 0 6 -9 10 -20 10 -11 0 -20 -4 -20 -10z"></path><path d="M5387 3800 c-4 -16 -14 -20 -54 -21 -26 -1 -59 0 -71 1 -18 1 -23 -3 -20 -16 3 -15 14 -17 83 -16 44 1 84 1 88 2 12 0 4 63 -9 67 -6 2 -14 -5 -17 -17z"></path><path d="M2872 3601 c2 -12 15 -16 46 -16 23 1 144 2 268 3 143 1 224 6 222 12 -2 6 -106 11 -271 13 -239 3 -267 2 -265 -12z"></path><path d="M3470 3612 c-6 -2 -8 -8 -4 -13 7 -13 641 -12 649 1 3 6 0 10 -7 10 -153 3 -631 4 -638 2z"></path><path d="M4164 3611 c-16 -17 47 -21 317 -21 205 0 310 3 307 10 -3 10 -614 20 -624 11z"></path><path d="M4854 3608 c-2 -4 -1 -9 3 -11 5 -3 132 -7 283 -8 239 -4 275 -2 275 11 0 13 -38 15 -278 15 -154 0 -281 -3 -283 -7z"></path><path d="M2973 3534 c-7 -3 -13 -12 -13 -20 0 -12 62 -14 405 -14 353 0 405 2 405 15 0 13 -45 15 -349 15 -191 0 -368 2 -392 5 -24 2 -50 2 -56 -1z"></path><path d="M4885 3533 c-203 -2 -376 -5 -384 -8 -9 -4 -11 -9 -5 -15 14 -14 814 -14 828 0 15 15 -10 30 -44 27 -14 -1 -191 -3 -395 -4z"></path><path d="M3815 3520 c-3 -5 4 -12 17 -15 41 -10 623 -1 623 10 0 14 -631 19 -640 5z"></path><path d="M3070 3456 c0 -22 14 -23 183 -18 124 3 157 7 157 18 0 11 -32 14 -170 14 -139 0 -170 -3 -170 -14z"></path><path d="M3462 3463 c-44 -17 34 -23 329 -23 286 0 329 2 329 15 0 13 -42 15 -322 14 -178 0 -329 -3 -336 -6z"></path><path d="M4160 3455 c0 -13 39 -15 323 -13 206 2 322 7 322 13 0 6 -116 11 -322 13 -284 2 -323 0 -323 -13z"></path><path d="M4850 3457 c0 -12 34 -15 173 -19 178 -5 200 -3 194 16 -2 7 -62 12 -185 14 -150 2 -182 0 -182 -11z"></path><path d="M3194 3385 c3 -9 6 -21 6 -27 0 -7 91 -8 278 -4 152 3 281 6 285 6 5 0 7 5 5 11 -2 7 -78 12 -228 15 -124 2 -254 6 -289 10 -57 5 -63 4 -57 -11z"></path><path d="M5039 3395 c-3 -2 -124 -6 -270 -8 -223 -2 -264 -5 -264 -17 0 -13 43 -15 284 -18 290 -2 307 0 294 35 -5 12 -34 18 -44 8z"></path><path d="M3829 3379 c-36 -23 28 -29 318 -29 166 0 304 4 307 8 2 4 2 12 -2 18 -9 13 -604 15 -623 3z"></path><path d="M3365 3309 c-4 -6 -1 -15 6 -20 20 -13 54 -6 54 11 0 18 -50 26 -60 9z"></path><path d="M3470 3300 c0 -20 4 -20 322 -15 177 3 324 8 327 11 19 18 -58 24 -336 24 -307 0 -313 0 -313 -20z"></path><path d="M4165 3310 c-3 -5 -4 -13 -2 -17 3 -5 151 -8 329 -8 280 0 323 2 323 15 0 13 -44 15 -322 18 -209 1 -324 -1 -328 -8z"></path><path d="M4850 3301 c0 -28 11 -31 48 -15 40 17 33 34 -14 34 -27 0 -34 -4 -34 -19z"></path><path d="M3605 3220 c-10 -17 45 -31 109 -28 49 2 61 7 64 21 3 15 -6 17 -82 17 -47 0 -88 -5 -91 -10z"></path><path d="M3822 3213 c3 -17 27 -18 313 -20 171 -2 316 1 324 6 41 26 -8 31 -320 31 -300 0 -320 -1 -317 -17z"></path><path d="M4495 3219 c-12 -19 6 -24 90 -24 46 0 86 3 90 7 19 18 -13 28 -90 28 -49 0 -87 -4 -90 -11z"></path><path d="M1854 2141 c-2 -2 -4 -29 -4 -59 l0 -55 84 7 c92 7 106 0 82 -36 -12 -19 -15 -88 -17 -413 l-2 -390 77 -3 c91 -3 106 5 106 59 0 36 -2 39 -29 39 -16 0 -31 6 -33 13 -2 6 -2 161 0 344 l3 331 35 36 c27 28 34 43 34 75 0 22 -4 43 -10 46 -11 7 -319 12 -326 6z"></path><path d="M2792 2098 c-9 -9 -12 -100 -12 -349 0 -186 -4 -340 -9 -343 -16 -10 -43 33 -56 91 -8 32 -21 85 -30 118 -9 33 -20 82 -25 108 -12 66 -25 79 -74 75 -35 -3 -41 -7 -44 -28 -2 -14 -9 -45 -16 -70 -8 -25 -21 -72 -29 -105 -39 -150 -52 -185 -64 -185 -18 0 -21 25 -27 209 -2 90 -9 168 -14 173 -5 5 -41 10 -78 11 l-69 1 -3 -47 c-3 -42 -1 -48 22 -56 29 -11 32 -34 42 -301 8 -225 2 -210 84 -210 73 0 84 6 93 55 3 17 13 55 22 85 41 133 48 158 58 208 9 45 14 52 31 50 16 -2 23 -13 29 -43 9 -43 31 -125 52 -190 7 -22 21 -68 30 -102 l18 -63 73 0 73 0 4 128 c6 228 27 625 37 696 4 37 6 75 3 82 -7 18 -104 19 -121 2z"></path><path d="M3545 2100 c-4 -6 -9 -163 -12 -350 -5 -268 -9 -340 -19 -340 -18 0 -44 40 -44 66 0 12 -7 46 -16 75 -31 110 -43 155 -49 188 -7 46 -22 61 -59 61 -42 0 -52 -9 -59 -50 -4 -19 -14 -60 -23 -90 -9 -30 -22 -80 -29 -110 -51 -212 -72 -198 -76 50 -1 91 -6 173 -11 183 -7 14 -22 17 -83 17 l-75 0 0 -45 c0 -39 4 -47 24 -55 31 -11 33 -30 41 -285 4 -104 8 -198 11 -207 5 -15 18 -18 80 -18 51 0 76 4 78 13 16 61 29 108 36 137 5 19 16 60 26 90 9 30 21 79 27 108 8 39 15 52 28 52 23 0 39 -29 39 -69 0 -17 6 -48 14 -68 7 -21 21 -64 30 -95 9 -32 24 -83 33 -113 l17 -55 73 0 73 0 0 103 c1 56 5 136 10 177 5 41 12 172 15 290 4 118 11 239 15 268 13 74 8 82 -55 82 -30 0 -57 -5 -60 -10z"></path><path d="M3164 2086 c-9 -24 0 -68 16 -77 8 -4 24 -10 35 -14 19 -6 19 -7 2 -20 -21 -15 -18 -52 4 -46 8 2 64 3 125 3 61 0 115 3 121 6 15 10 33 48 33 71 0 20 -6 21 -90 21 l-90 0 2 33 3 32 -78 3 c-60 2 -79 0 -83 -12z"></path><path d="M6405 1809 c-11 -4 -39 -8 -61 -8 -34 -1 -45 -6 -60 -28 -20 -29 -21 -31 -67 -107 -30 -49 -52 -60 -108 -54 l-34 3 0 94 0 95 -70 -2 c-38 0 -75 -1 -81 -2 -17 0 -24 -26 -17 -60 4 -21 13 -32 30 -36 l25 -7 -3 -251 -3 -251 63 -3 63 -3 -3 163 -4 163 85 3 c141 5 154 -14 149 -201 l-4 -122 65 0 65 0 -3 135 c-4 162 -22 213 -84 243 -21 10 -38 26 -38 34 0 8 32 50 70 93 39 43 70 84 70 93 0 19 -20 26 -45 16z"></path><path d="M574 1796 c-56 -6 -109 -18 -118 -25 -14 -12 -16 -48 -16 -297 l0 -284 64 0 64 0 -1 253 -2 252 70 5 c166 12 164 16 157 -283 l-5 -227 67 0 66 0 0 223 c0 184 -3 230 -17 270 -23 65 -60 96 -130 113 -65 15 -61 15 -199 0z"></path><path d="M5021 1798 c-52 -12 -95 -41 -121 -83 -17 -28 -20 -57 -23 -278 l-4 -247 64 0 64 0 -3 105 c-4 129 1 136 93 138 l64 2 3 49 c2 32 -1 52 -10 57 -18 11 -100 -2 -117 -18 -26 -27 -36 -8 -35 66 1 93 18 113 101 119 76 5 106 -8 128 -54 15 -33 17 -62 14 -248 l-4 -211 63 -3 64 -3 -4 233 c-4 256 -9 279 -67 334 -50 47 -167 65 -270 42z"></path><path d="M7150 1800 l-85 -5 -3 -39 c-2 -21 1 -43 7 -49 6 -6 54 -10 118 -8 l108 2 23 -35 c20 -32 22 -48 22 -162 0 -133 -8 -164 -55 -207 -19 -17 -48 -18 -160 -4 -17 2 -20 -5 -23 -50 l-3 -53 106 0 c94 0 109 3 143 24 92 59 112 111 111 289 0 149 -13 196 -68 252 -23 24 -44 35 -79 39 -26 4 -54 8 -62 10 -8 1 -53 0 -100 -4z"></path><path d="M7753 1792 c-31 -32 -7 -92 37 -92 l30 0 0 -193 c0 -178 -2 -195 -19 -211 -11 -10 -29 -16 -42 -14 -19 2 -25 15 -41 78 -10 41 -25 95 -33 120 -8 25 -15 57 -15 72 0 34 -24 48 -83 48 -29 0 -47 -5 -50 -14 -3 -8 5 -45 17 -83 12 -37 30 -93 38 -123 9 -30 25 -84 35 -120 l19 -65 96 -3 c76 -2 98 0 108 13 7 8 19 15 26 15 8 0 25 18 39 40 25 40 25 40 25 289 l0 250 -87 3 c-62 2 -90 -1 -100 -10z"></path><path d="M998 1790 c-11 -6 -18 -23 -18 -40 0 -58 2 -59 116 -53 100 6 105 5 130 -18 l25 -24 -1 -220 c-1 -121 -1 -226 -1 -232 1 -9 20 -13 61 -13 41 0 60 4 61 13 0 6 0 113 -1 237 -1 254 -8 283 -77 330 -33 23 -48 25 -157 28 -74 1 -128 -2 -138 -8z"></path><path d="M1585 1791 c-79 -19 -125 -79 -125 -162 0 -60 33 -122 73 -139 12 -6 29 -14 37 -19 31 -18 91 -41 109 -41 26 0 64 -45 64 -76 0 -39 -44 -74 -92 -74 -20 0 -61 7 -90 16 -68 20 -81 14 -81 -35 0 -72 -2 -71 136 -71 114 0 128 2 162 24 68 43 76 59 77 146 0 71 -2 81 -25 102 -36 34 -54 44 -135 75 -116 44 -146 80 -108 131 19 26 24 27 99 26 44 0 93 -2 109 -5 30 -4 30 -3 33 47 l3 51 -53 6 c-66 8 -154 7 -193 -2z"></path><path d="M3772 1788 c-16 -16 -15 -83 2 -97 10 -8 21 -8 40 -1 15 5 61 10 101 10 110 0 107 6 104 -277 l-3 -228 67 -3 c49 -2 67 0 68 10 4 105 -4 416 -13 456 -14 67 -69 126 -125 136 -67 11 -228 7 -241 -6z"></path><path d="M4220 1755 c0 -40 3 -47 26 -56 l27 -10 -5 -162 c-6 -221 7 -278 76 -322 43 -28 170 -26 218 3 44 27 65 28 73 1 6 -17 14 -20 52 -17 l45 3 0 300 0 300 -61 3 -61 3 0 -229 c0 -255 4 -240 -73 -275 -52 -23 -102 -22 -128 4 -20 20 -21 29 -18 257 l3 237 -87 3 -87 3 0 -46z"></path><path d="M5586 1793 c-70 -11 -136 -89 -136 -160 0 -90 45 -137 180 -188 77 -29 91 -38 105 -65 10 -19 10 -31 3 -45 -28 -52 -79 -66 -163 -44 -22 6 -53 13 -68 16 l-28 5 3 -58 3 -59 122 -3 c129 -3 158 4 210 53 56 52 50 180 -10 231 -32 27 -111 65 -158 77 -46 12 -79 45 -79 81 0 50 25 66 102 66 36 0 79 -5 97 -11 42 -15 61 1 61 53 0 30 -5 40 -21 46 -23 9 -178 12 -223 5z"></path><path d="M6563 1789 c-7 -7 -13 -30 -13 -50 0 -42 16 -60 45 -48 11 4 65 8 120 8 85 0 104 -3 123 -19 28 -23 42 -93 22 -105 -7 -4 -50 -7 -96 -6 -45 1 -101 -3 -123 -10 -91 -27 -143 -135 -116 -240 16 -59 26 -73 77 -105 31 -20 51 -24 112 -24 80 0 86 4 86 60 0 41 -17 51 -67 37 -39 -10 -45 -9 -67 12 -39 37 -47 72 -27 117 10 22 29 44 42 51 38 18 166 23 180 7 8 -10 10 -57 8 -147 l-4 -132 59 0 60 0 -3 240 c-3 251 -4 259 -50 303 -49 48 -81 56 -221 60 -101 3 -138 1 -147 -9z"></path><path d="M447 943 c-4 -3 -7 -86 -7 -184 0 -170 1 -179 21 -189 15 -9 24 -8 35 1 11 9 13 29 7 95 -8 105 10 114 46 24 31 -79 54 -79 85 -1 34 86 50 80 44 -16 -7 -90 -1 -106 33 -101 l24 3 0 185 0 185 -25 0 c-19 0 -29 -9 -41 -35 -20 -42 -38 -94 -48 -135 -4 -20 -14 -31 -27 -33 -18 -3 -24 7 -43 70 -32 105 -50 138 -76 138 -12 0 -25 -3 -28 -7z"></path><path d="M2313 933 c-5 -10 -7 -93 -5 -186 3 -150 6 -168 22 -177 40 -22 47 5 46 196 l-1 179 -27 3 c-18 2 -29 -3 -35 -15z"></path><path d="M3460 935 c-5 -6 -10 -86 -11 -179 -1 -134 1 -170 12 -177 8 -5 59 -8 114 -7 99 3 100 3 100 28 0 24 -3 25 -75 30 l-75 5 0 50 0 50 59 0 c66 0 92 19 67 49 -11 13 -24 15 -62 10 -62 -8 -83 6 -73 50 9 41 20 47 71 40 57 -8 93 2 93 25 0 10 -6 24 -14 30 -17 14 -193 11 -206 -4z"></path><path d="M3737 943 c-4 -3 -7 -87 -7 -185 0 -156 2 -179 16 -185 41 -15 46 4 49 182 1 102 -1 175 -7 183 -11 13 -40 16 -51 5z"></path><path d="M5931 927 c-5 -12 -23 -63 -40 -112 -50 -147 -62 -179 -73 -192 -15 -18 -5 -57 15 -61 26 -5 67 36 67 68 0 37 18 50 71 50 43 0 47 -2 59 -32 28 -76 29 -78 55 -78 34 0 40 19 20 66 -27 64 -76 207 -82 239 -13 70 -73 103 -92 52z m65 -161 l7 -47 -34 3 c-42 4 -48 29 -19 77 26 41 37 33 46 -33z"></path><path d="M6639 943 c-6 -47 -3 -351 4 -360 5 -7 17 -13 27 -13 31 0 38 22 31 103 -7 85 -6 88 27 106 19 10 26 10 39 -1 13 -10 15 -29 11 -100 -5 -77 -3 -89 14 -104 17 -16 20 -17 35 -1 14 13 16 34 14 113 -4 145 -7 150 -105 144 l-39 -2 7 47 c5 31 3 51 -5 61 -12 14 -58 20 -60 7z"></path><path d="M2456 918 c-36 -20 -7 -76 34 -63 27 9 28 60 1 68 -10 2 -26 0 -35 -5z"></path><path d="M4763 923 c-7 -2 -13 -18 -13 -34 0 -22 6 -30 25 -35 29 -7 55 10 55 35 0 33 -32 49 -67 34z"></path><path d="M5120 915 c-26 -32 13 -81 48 -59 24 16 27 45 6 61 -23 17 -39 16 -54 -2z"></path><path d="M7398 919 c-40 -23 -7 -75 40 -62 16 4 22 13 22 34 0 16 -4 29 -9 29 -5 0 -15 2 -23 5 -7 2 -21 0 -30 -6z"></path><path d="M1095 890 c-3 -6 -3 -19 0 -31 5 -15 2 -22 -14 -26 -27 -7 -27 -38 0 -57 18 -12 21 -23 19 -78 -4 -100 -3 -103 33 -123 38 -20 81 -15 91 11 9 22 -12 45 -38 42 -20 -3 -21 2 -21 72 0 74 0 75 28 78 21 3 27 9 27 27 0 18 -6 24 -27 27 -23 2 -29 8 -31 36 -3 28 -7 32 -32 32 -16 0 -32 -5 -35 -10z"></path><path d="M2597 894 c-4 -4 -7 -20 -7 -36 0 -18 -5 -28 -15 -28 -22 0 -18 -34 6 -56 18 -17 20 -26 15 -76 -9 -74 0 -105 35 -123 38 -20 62 -19 84 5 14 16 15 22 5 35 -6 8 -22 13 -33 12 -21 -2 -22 2 -22 73 0 73 1 75 25 75 20 0 26 6 28 28 3 24 0 27 -27 27 -26 0 -30 4 -33 33 -2 26 -8 33 -28 35 -14 2 -29 0 -33 -4z"></path><path d="M4383 889 c-6 -6 -9 -18 -6 -26 4 -9 -3 -23 -17 -33 -19 -14 -21 -20 -11 -38 7 -12 16 -22 21 -22 6 0 10 -35 10 -80 0 -66 3 -83 20 -100 39 -39 89 -38 114 3 13 20 6 28 -36 36 -33 7 -33 7 -36 72 l-3 66 33 9 c41 12 54 54 16 54 -29 0 -52 15 -44 28 19 31 -34 58 -61 31z"></path><path d="M5267 886 c-4 -9 -4 -22 -1 -30 3 -8 -3 -19 -15 -26 -26 -14 -26 -26 -1 -47 17 -15 20 -30 20 -104 l0 -86 33 -18 c40 -21 83 -14 92 15 9 28 -2 40 -36 40 l-30 0 3 73 c3 70 4 72 31 75 21 3 27 9 27 27 0 18 -6 24 -27 27 -22 2 -29 9 -33 33 -4 23 -11 31 -31 33 -17 2 -29 -3 -32 -12z"></path><path d="M6456 885 c-3 -8 -3 -21 0 -29 3 -9 -3 -17 -15 -21 -27 -8 -27 -41 -1 -57 17 -11 20 -24 20 -95 0 -79 1 -82 29 -102 34 -24 73 -27 91 -6 17 20 8 50 -15 50 -37 0 -45 14 -45 80 0 61 1 63 30 74 40 13 42 48 3 53 -20 2 -28 9 -28 23 -1 11 -4 26 -8 33 -11 17 -54 15 -61 -3z"></path><path d="M7541 886 c-6 -7 -8 -21 -5 -30 5 -12 0 -19 -15 -23 -27 -7 -27 -39 -1 -55 17 -11 20 -24 20 -95 0 -76 2 -83 26 -102 15 -12 39 -21 54 -21 56 0 69 61 15 70 -29 5 -30 6 -33 73 l-3 67 31 6 c23 5 30 12 30 30 0 17 -6 23 -27 26 -20 2 -28 9 -28 23 0 42 -39 61 -64 31z"></path><path d="M870 828 c-51 -27 -75 -122 -49 -196 14 -41 65 -72 117 -72 47 0 89 28 79 54 -5 13 -16 15 -60 10 -42 -5 -57 -3 -70 11 -35 34 -22 45 52 45 39 0 72 4 75 9 10 16 -6 102 -23 122 -20 25 -87 34 -121 17z m74 -54 c21 -20 20 -31 -3 -44 -26 -13 -33 -13 -56 4 -19 14 -19 15 -1 35 23 25 39 26 60 5z"></path><path d="M1329 833 l-46 -4 -7 -52 c-8 -74 -7 -180 3 -195 4 -8 19 -12 32 -10 23 3 24 7 29 98 l5 95 30 3 c36 5 55 19 55 42 0 18 -21 32 -43 28 -7 -1 -33 -3 -58 -5z"></path><path d="M1523 830 c-53 -22 -82 -150 -47 -210 18 -30 71 -60 106 -60 32 0 84 37 98 70 7 18 11 55 8 90 -3 49 -10 66 -30 87 -28 28 -96 40 -135 23z m91 -66 c24 -23 21 -106 -4 -129 -59 -53 -122 67 -69 132 15 18 54 17 73 -3z"></path><path d="M1813 833 c-33 -3 -53 -9 -53 -16 0 -7 -1 -87 -3 -179 -4 -177 -1 -187 44 -173 13 5 19 18 21 53 l3 47 49 6 c72 8 96 40 96 126 0 91 -40 150 -95 141 -5 -1 -34 -3 -62 -5z m85 -65 c7 -7 12 -36 12 -64 0 -61 -17 -84 -61 -84 l-29 0 0 74 c0 63 3 75 18 79 32 8 48 7 60 -5z"></path><path d="M2090 833 c-8 -3 -25 -17 -37 -31 -20 -21 -23 -36 -23 -103 0 -77 0 -78 37 -108 45 -37 87 -40 133 -8 41 27 54 70 47 146 -7 70 -37 102 -98 107 -24 2 -51 1 -59 -3z m91 -76 c15 -26 6 -117 -12 -128 -20 -12 -53 -11 -67 3 -7 7 -12 38 -12 69 0 47 4 61 21 72 25 18 56 11 70 -16z"></path><path d="M2797 834 c-13 -4 -17 -14 -15 -32 3 -28 10 -30 64 -18 23 5 36 3 48 -10 23 -22 5 -42 -38 -41 -97 3 -129 -108 -45 -157 26 -15 35 -16 54 -6 13 7 37 10 54 7 18 -4 33 -1 39 6 5 7 7 58 4 114 -5 122 -14 135 -95 139 -28 2 -60 0 -70 -2z m111 -165 c4 -21 -24 -49 -48 -49 -11 0 -25 10 -31 22 -10 18 -8 24 7 35 24 18 68 13 72 -8z"></path><path d="M3090 831 l-54 -6 -1 -118 c0 -95 3 -121 16 -133 13 -12 18 -12 34 0 15 11 18 28 19 102 1 88 1 89 29 98 41 15 49 -4 41 -100 -5 -68 -3 -83 11 -97 21 -21 28 -21 47 1 13 14 14 36 9 124 -3 59 -11 112 -17 118 -14 14 -67 19 -134 11z"></path><path d="M3920 833 c-8 -3 -25 -15 -37 -26 -20 -18 -23 -30 -23 -101 1 -48 6 -88 13 -97 35 -46 139 -65 170 -31 34 38 18 52 -53 45 -50 -4 -66 3 -72 32 -3 18 4 20 67 25 l70 5 0 53 c-1 39 -6 57 -21 73 -21 21 -86 34 -114 22z m61 -53 c30 -17 24 -47 -12 -54 -17 -3 -35 -3 -40 0 -15 9 -10 42 9 53 21 13 20 13 43 1z"></path><path d="M4181 833 c-40 -16 -56 -48 -59 -119 -3 -42 1 -80 8 -93 38 -72 192 -84 178 -14 -3 14 -13 18 -51 18 -59 0 -77 19 -77 81 0 59 20 77 75 68 39 -5 44 -4 50 17 5 16 2 26 -11 36 -18 13 -86 17 -113 6z"></path><path d="M4620 831 l-55 -6 -3 -120 c-2 -104 0 -121 14 -132 14 -11 21 -10 35 3 16 14 17 27 12 96 -7 88 -2 98 49 98 21 0 29 6 34 26 6 23 -9 47 -26 42 -3 -1 -30 -4 -60 -7z"></path><path d="M4944 830 c-12 -4 -31 -21 -43 -36 -27 -34 -30 -141 -5 -179 45 -69 185 -75 172 -8 -3 14 -13 18 -51 18 -58 0 -77 19 -77 79 0 61 11 71 69 70 42 -2 51 1 56 17 4 11 1 26 -5 34 -14 16 -82 19 -116 5z"></path><path d="M5443 833 c-20 -7 -16 -25 27 -124 46 -106 48 -126 18 -178 -25 -44 -19 -71 15 -71 33 0 40 11 76 117 17 51 34 100 39 110 65 127 67 164 7 149 -23 -6 -29 -19 -61 -134 -2 -7 -8 -10 -14 -7 -13 8 -40 72 -40 94 0 32 -37 56 -67 44z"></path><path d="M6171 831 c-11 -7 -13 -30 -8 -118 6 -103 7 -109 34 -131 20 -16 35 -21 53 -16 14 3 45 7 68 8 44 3 66 20 57 44 -3 8 -5 58 -5 112 0 87 -2 98 -19 103 -39 10 -46 -7 -43 -95 3 -73 1 -85 -16 -102 -11 -10 -29 -16 -39 -14 -16 3 -18 16 -21 106 -1 56 -7 102 -12 102 -4 0 -14 2 -22 5 -7 3 -19 1 -27 -4z"></path><path d="M6971 833 c-52 -22 -82 -107 -62 -178 14 -52 20 -59 58 -79 39 -20 66 -20 102 -2 45 24 61 57 61 130 0 58 -3 70 -28 97 -21 24 -38 32 -72 35 -25 2 -51 1 -59 -3z m80 -63 c15 -9 19 -22 19 -65 0 -60 -16 -85 -55 -85 -31 0 -45 27 -45 87 0 68 29 90 81 63z"></path><path d="M7248 833 l-58 -4 0 -124 c0 -115 1 -125 21 -135 15 -9 24 -8 36 1 12 11 14 28 8 94 -7 90 -2 101 50 107 26 3 30 7 30 33 0 33 -1 33 -87 28z"></path><path d="M7713 833 c-7 -2 -13 -10 -13 -18 0 -12 48 -130 77 -190 15 -29 14 -34 -15 -88 -29 -55 -30 -58 -11 -67 42 -23 63 -4 89 81 13 44 28 83 32 85 4 3 8 12 8 20 0 7 14 43 31 79 34 72 34 98 3 103 -27 4 -52 -21 -59 -56 -12 -57 -21 -77 -37 -80 -11 -2 -19 5 -22 20 -3 13 -7 35 -11 51 -5 27 -38 68 -52 66 -5 0 -14 -3 -20 -6z"></path><path d="M2448 713 c-2 -65 -2 -124 0 -131 3 -8 16 -12 31 -10 l26 3 3 105 c4 130 -1 150 -32 150 -24 0 -24 -1 -28 -117z"></path><path d="M4758 713 c-3 -65 -3 -124 -1 -131 3 -7 17 -12 32 -10 l26 3 0 125 0 125 -26 3 -26 3 -5 -118z"></path><path d="M5125 818 c-3 -8 -4 -66 -3 -129 l3 -114 26 -3 c34 -4 35 5 29 143 -5 105 -6 110 -28 113 -12 2 -24 -3 -27 -10z"></path><path d="M7396 818 c-3 -7 -7 -61 -9 -120 -4 -93 -2 -109 13 -123 21 -19 48 -10 55 19 3 11 2 68 -2 126 -8 99 -9 105 -31 108 -12 2 -24 -3 -26 -10z"></path></g></svg>