<svg xmlns="http://www.w3.org/2000/svg" width="900.000000pt" height="1272.000000pt" viewBox="0 0 900.000000 1272.000000" preserveAspectRatio="xMidYMid meet"><g transform="translate(0.000000,1272.000000) scale(0.100000,-0.100000)" fill="#ffffff" stroke="none"><path d="M4150 12035 c-20 -8 -76 -14 -128 -14 -51 -1 -103 -6 -115 -13 -12 -6 -52 -12 -90 -14 -37 -1 -74 -7 -82 -14 -7 -6 -38 -13 -69 -15 -30 -2 -65 -10 -78 -19 -12 -9 -41 -16 -65 -16 -23 0 -44 -4 -47 -9 -3 -4 -28 -11 -55 -15 -28 -4 -53 -11 -56 -16 -3 -5 -26 -12 -50 -16 -25 -3 -48 -10 -51 -15 -3 -5 -13 -9 -22 -9 -9 0 -30 -7 -46 -15 -15 -8 -39 -15 -51 -15 -13 0 -30 -6 -38 -14 -8 -8 -31 -18 -51 -21 -20 -4 -36 -11 -36 -15 0 -4 -16 -11 -35 -14 -19 -4 -47 -13 -62 -21 -15 -8 -34 -15 -40 -15 -7 0 -13 -4 -13 -10 0 -5 -5 -10 -11 -10 -16 0 -169 -68 -179 -79 -9 -11 -71 -41 -84 -41 -7 0 -23 -9 -36 -20 -13 -11 -29 -20 -36 -20 -7 0 -14 -3 -16 -7 -1 -5 -24 -19 -50 -33 -27 -13 -48 -28 -48 -31 0 -4 -11 -10 -25 -13 -14 -4 -25 -11 -25 -16 0 -6 -6 -10 -14 -10 -8 0 -21 -6 -28 -13 -7 -7 -31 -24 -53 -37 -22 -13 -42 -26 -45 -29 -3 -4 -32 -24 -65 -46 -33 -22 -71 -50 -85 -62 -14 -13 -28 -23 -32 -23 -3 0 -13 -6 -20 -13 -7 -7 -35 -30 -63 -52 -27 -22 -52 -42 -55 -45 -3 -3 -27 -23 -55 -44 -74 -58 -391 -379 -460 -466 -33 -41 -69 -84 -80 -95 -11 -11 -30 -36 -42 -55 -12 -19 -34 -47 -48 -62 -14 -15 -25 -31 -25 -36 0 -5 -13 -25 -30 -43 -16 -19 -32 -42 -36 -51 -3 -10 -10 -18 -15 -18 -5 0 -9 -6 -9 -14 0 -8 -6 -21 -13 -28 -7 -7 -30 -42 -52 -78 -21 -36 -42 -67 -45 -70 -6 -5 -27 -43 -68 -125 -9 -16 -22 -36 -29 -43 -7 -7 -13 -22 -13 -32 0 -10 -3 -20 -7 -22 -10 -4 -53 -91 -53 -107 0 -6 -4 -11 -10 -11 -5 0 -10 -5 -10 -11 0 -9 -11 -35 -55 -134 -7 -16 -18 -41 -23 -55 -6 -14 -17 -41 -26 -60 -8 -19 -17 -50 -21 -67 -4 -18 -11 -33 -16 -33 -5 0 -9 -10 -9 -22 0 -13 -7 -36 -15 -51 -8 -15 -17 -43 -21 -63 -3 -19 -10 -37 -15 -40 -5 -3 -9 -20 -9 -37 0 -18 -9 -45 -20 -62 -11 -16 -20 -47 -20 -67 0 -20 -4 -40 -10 -43 -5 -3 -10 -25 -10 -48 0 -23 -7 -54 -15 -70 -7 -15 -16 -55 -19 -89 -3 -34 -10 -64 -15 -67 -5 -4 -12 -44 -15 -90 -4 -45 -11 -92 -17 -103 -6 -11 -11 -83 -11 -164 -1 -107 -5 -147 -15 -155 -17 -15 -19 -399 -2 -431 6 -11 13 -89 15 -172 3 -99 9 -161 18 -181 8 -16 14 -63 14 -104 1 -47 5 -77 13 -82 7 -4 14 -33 16 -66 2 -32 8 -67 13 -78 5 -11 11 -42 14 -69 3 -27 10 -54 15 -60 5 -6 12 -32 15 -58 4 -27 11 -48 16 -48 5 0 12 -21 16 -47 4 -27 13 -57 20 -68 8 -11 14 -32 14 -48 0 -16 7 -35 15 -43 8 -9 15 -29 15 -45 0 -16 4 -29 9 -29 5 0 12 -18 16 -40 4 -22 11 -42 16 -46 5 -3 9 -13 9 -22 0 -9 6 -29 14 -43 7 -14 16 -37 20 -52 3 -15 10 -27 15 -27 5 0 12 -13 16 -30 4 -16 11 -32 16 -35 5 -4 9 -14 9 -24 0 -10 9 -28 20 -41 11 -13 20 -29 20 -36 0 -15 32 -78 43 -82 4 -2 7 -12 7 -22 0 -10 6 -25 13 -32 6 -7 23 -36 37 -63 14 -28 27 -52 30 -55 3 -3 10 -14 17 -25 75 -124 98 -161 105 -163 4 -2 8 -10 8 -17 0 -8 6 -20 13 -27 7 -7 24 -31 37 -53 13 -22 32 -49 42 -59 10 -11 30 -38 45 -60 27 -39 37 -52 102 -126 17 -19 31 -38 31 -42 0 -24 432 -456 525 -526 29 -22 113 -90 135 -109 14 -13 28 -23 31 -23 3 0 19 -11 35 -25 37 -32 171 -125 181 -125 5 -1 24 -14 43 -30 19 -17 39 -30 46 -30 6 0 21 -9 34 -20 13 -11 29 -20 37 -20 7 0 13 -3 13 -8 0 -4 23 -18 50 -31 28 -13 50 -28 50 -32 0 -5 6 -9 13 -9 12 0 19 -3 117 -57 30 -16 67 -33 83 -37 15 -3 27 -11 27 -16 0 -6 7 -10 16 -10 8 0 32 -9 52 -19 20 -11 55 -27 77 -36 22 -9 47 -20 55 -24 9 -5 30 -12 48 -15 17 -4 34 -12 37 -17 4 -5 14 -9 23 -9 9 0 29 -6 44 -14 15 -8 41 -17 58 -21 17 -4 43 -13 58 -21 15 -8 37 -14 49 -14 12 0 24 -4 27 -9 4 -5 29 -12 56 -16 27 -4 52 -11 55 -15 3 -4 29 -11 58 -15 28 -4 55 -12 59 -18 3 -6 29 -10 57 -9 32 0 56 -4 65 -14 10 -9 36 -14 78 -14 37 0 72 -6 83 -14 11 -7 63 -16 118 -20 55 -4 113 -13 131 -20 43 -18 840 -15 874 3 12 6 66 13 121 15 71 2 106 8 122 20 15 10 44 16 84 16 34 0 66 5 72 11 7 7 34 11 62 11 33 -1 55 4 66 14 8 9 35 18 58 21 23 3 56 11 74 19 17 8 45 14 61 14 17 0 34 5 37 10 3 6 16 10 28 10 12 0 35 7 51 15 15 8 36 15 45 15 9 0 33 9 54 20 20 11 48 20 61 20 14 0 28 4 31 10 3 5 15 10 25 10 10 0 25 6 32 14 8 7 25 16 38 20 14 4 34 11 45 16 92 41 115 50 124 50 6 0 11 4 11 8 0 5 19 16 43 26 54 22 131 59 137 67 3 3 28 16 55 30 28 13 52 27 53 32 2 4 9 7 16 7 7 0 23 9 36 20 13 11 29 20 37 20 7 0 13 5 13 10 0 6 4 10 9 10 11 0 93 51 176 110 35 25 73 52 85 60 12 8 36 27 54 42 17 15 34 28 38 28 4 0 13 6 20 13 7 7 45 37 83 67 93 72 122 99 294 270 138 137 230 236 282 305 13 17 26 32 30 35 6 5 153 201 177 236 56 84 142 219 158 251 10 21 22 40 27 41 4 2 7 9 7 16 0 7 9 23 20 36 11 13 20 29 20 35 0 7 7 18 15 25 8 7 15 21 15 31 0 11 4 19 9 19 5 0 12 12 15 26 4 15 14 33 21 41 8 8 15 22 15 31 0 9 7 26 15 36 8 11 15 28 15 38 0 10 4 18 9 18 5 0 12 14 16 30 4 17 11 30 15 30 5 0 12 16 16 35 3 19 10 35 14 35 5 0 11 18 15 40 4 22 10 40 15 40 4 0 10 17 14 39 3 21 13 44 21 51 8 7 14 22 13 34 0 11 7 35 16 51 9 17 16 42 16 57 0 15 4 29 9 32 5 3 12 26 15 51 4 24 11 47 16 50 5 3 12 26 16 52 4 25 13 58 20 72 8 15 11 39 8 57 -4 20 -1 36 9 45 7 8 17 45 20 83 4 37 12 74 18 82 6 8 14 56 18 107 4 51 11 99 16 107 5 8 10 62 11 120 1 58 5 123 8 145 13 87 18 418 7 459 -6 22 -13 97 -16 164 -2 68 -9 130 -15 137 -6 7 -12 52 -14 99 -2 47 -8 92 -15 100 -6 7 -14 44 -17 82 -2 38 -9 73 -14 78 -6 6 -10 28 -10 50 0 23 -7 54 -15 69 -8 16 -17 50 -21 78 -4 27 -10 49 -15 49 -5 0 -9 12 -9 28 0 15 -7 40 -15 56 -8 15 -15 38 -15 50 0 11 -7 34 -15 49 -8 15 -17 43 -21 62 -3 19 -10 35 -15 35 -5 0 -12 18 -15 40 -4 22 -10 40 -14 40 -5 0 -12 15 -15 33 -4 17 -11 37 -15 42 -4 6 -10 22 -14 38 -3 15 -11 27 -16 27 -6 0 -10 8 -10 19 0 10 -16 49 -35 87 -19 37 -35 74 -35 80 0 7 -3 14 -7 16 -7 3 -66 111 -102 186 -8 17 -19 32 -23 32 -4 0 -8 9 -8 20 0 10 -6 23 -14 27 -7 4 -21 26 -32 48 -20 44 -55 98 -66 103 -5 2 -8 10 -8 18 0 8 -7 17 -15 20 -8 4 -15 12 -15 19 0 6 -8 21 -17 33 -10 11 -25 30 -33 43 -13 20 -69 96 -91 123 -5 6 -29 38 -55 71 -26 33 -52 65 -58 70 -6 6 -29 33 -51 60 -60 76 -328 340 -435 429 -52 44 -102 86 -110 94 -8 7 -46 35 -85 63 -38 27 -78 55 -87 62 -9 6 -26 19 -38 27 -12 8 -48 34 -79 56 -31 23 -67 45 -79 48 -12 4 -22 12 -22 17 0 5 -6 9 -14 9 -7 0 -24 8 -37 19 -27 21 -124 76 -209 118 -30 16 -61 34 -68 40 -7 7 -19 13 -25 13 -7 0 -39 14 -72 30 -33 16 -66 30 -72 30 -7 0 -13 4 -13 9 0 5 -12 12 -27 15 -25 6 -61 21 -115 47 -10 5 -23 9 -30 9 -7 1 -31 9 -53 20 -22 11 -48 19 -57 20 -9 0 -19 4 -23 9 -3 6 -26 13 -50 17 -25 3 -47 10 -50 14 -3 5 -23 11 -45 15 -22 4 -42 11 -45 15 -3 5 -27 12 -53 16 -26 3 -53 11 -60 17 -6 5 -33 9 -59 9 -29 -1 -54 4 -64 14 -9 8 -40 17 -70 20 -30 3 -61 8 -69 12 -30 11 -187 33 -295 40 -60 4 -120 13 -132 20 -33 18 -675 16 -723 -3z m625 -26 c44 -5 131 -13 192 -18 62 -5 118 -13 125 -18 7 -6 48 -13 91 -16 42 -4 86 -11 96 -17 11 -5 44 -10 74 -10 42 0 58 -5 73 -21 15 -16 26 -20 55 -15 23 4 42 1 55 -9 10 -8 33 -15 49 -15 17 0 43 -7 59 -15 15 -8 38 -15 50 -15 11 -1 39 -9 61 -20 22 -11 50 -19 62 -20 12 0 25 -4 28 -10 3 -5 14 -10 23 -10 9 0 29 -6 44 -14 15 -8 40 -17 57 -21 17 -4 33 -11 36 -16 4 -5 13 -9 22 -9 17 0 68 -21 125 -51 20 -10 44 -19 52 -19 9 0 16 -4 16 -10 0 -5 6 -10 12 -10 12 0 158 -69 168 -80 3 -3 40 -23 83 -44 42 -22 77 -43 77 -48 0 -4 5 -8 11 -8 14 0 133 -71 137 -82 2 -4 8 -8 14 -8 5 0 20 -8 33 -17 12 -10 33 -25 45 -33 13 -8 43 -30 67 -47 24 -18 46 -33 49 -33 2 0 12 -6 20 -12 8 -7 20 -18 27 -23 7 -6 32 -26 57 -44 25 -19 50 -40 55 -46 6 -6 17 -16 26 -21 52 -30 362 -329 474 -458 33 -38 65 -74 70 -80 6 -6 35 -42 65 -81 30 -38 60 -76 67 -83 7 -7 13 -19 13 -27 0 -7 3 -15 8 -17 7 -3 58 -68 77 -99 6 -9 28 -43 50 -75 22 -33 49 -76 60 -97 11 -20 23 -37 27 -37 5 0 8 -6 8 -13 0 -8 9 -24 20 -37 11 -13 20 -31 20 -42 0 -10 4 -18 8 -18 9 0 52 -81 52 -99 0 -6 4 -11 9 -11 5 0 12 -13 16 -30 4 -16 10 -30 13 -30 8 0 27 -42 96 -202 9 -20 16 -41 16 -47 0 -6 4 -11 9 -11 5 0 12 -18 16 -40 4 -22 11 -40 16 -40 5 0 9 -8 9 -17 0 -10 6 -30 14 -45 8 -15 17 -41 21 -58 4 -17 13 -43 21 -58 8 -15 14 -37 14 -49 0 -12 4 -24 9 -28 6 -3 13 -26 17 -50 3 -25 10 -48 15 -50 4 -3 11 -27 15 -53 3 -26 11 -52 16 -59 5 -6 11 -33 13 -60 2 -26 10 -61 19 -78 9 -17 16 -54 16 -85 0 -31 5 -61 12 -68 6 -6 13 -49 15 -94 2 -46 10 -99 18 -118 12 -30 30 -352 27 -475 -1 -16 -4 -120 -7 -230 -6 -219 -11 -281 -26 -290 -5 -4 -9 -41 -9 -83 0 -49 -6 -88 -15 -106 -8 -15 -15 -51 -15 -80 0 -28 -7 -64 -15 -80 -8 -15 -15 -45 -15 -65 0 -20 -6 -48 -14 -62 -7 -14 -16 -47 -20 -72 -4 -26 -11 -49 -17 -52 -5 -4 -9 -21 -9 -38 0 -18 -6 -41 -14 -52 -7 -11 -17 -39 -21 -62 -4 -24 -11 -43 -16 -43 -5 0 -9 -13 -9 -29 0 -15 -9 -40 -20 -54 -11 -14 -20 -36 -20 -49 0 -12 -7 -32 -15 -42 -8 -11 -15 -30 -15 -43 0 -13 -4 -23 -9 -23 -5 0 -13 -15 -16 -32 -4 -18 -14 -42 -21 -53 -8 -11 -14 -27 -14 -37 0 -10 -4 -18 -9 -18 -5 0 -12 -13 -16 -29 -3 -16 -13 -35 -21 -42 -8 -6 -14 -16 -14 -22 0 -15 -69 -155 -80 -162 -6 -3 -10 -15 -10 -26 0 -10 -4 -19 -9 -19 -4 0 -19 -22 -32 -50 -13 -27 -27 -50 -31 -50 -5 0 -8 -6 -8 -14 0 -8 -6 -21 -13 -28 -8 -7 -25 -32 -38 -54 -39 -66 -110 -169 -120 -172 -5 -2 -9 -9 -9 -16 0 -7 -11 -25 -24 -42 -13 -16 -71 -87 -127 -159 -102 -127 -396 -432 -493 -510 -27 -22 -65 -55 -85 -72 -20 -18 -39 -33 -42 -33 -6 0 -37 -24 -69 -53 -8 -7 -37 -29 -65 -48 -27 -19 -61 -44 -75 -57 -14 -12 -34 -25 -44 -28 -11 -4 -24 -10 -30 -15 -50 -42 -61 -49 -72 -49 -7 0 -14 -4 -16 -8 -12 -29 -514 -292 -557 -292 -6 0 -11 -4 -11 -9 0 -5 -12 -12 -27 -15 -16 -4 -41 -13 -58 -21 -73 -33 -104 -45 -123 -45 -11 0 -22 -4 -24 -9 -1 -6 -18 -13 -36 -16 -19 -3 -44 -13 -57 -21 -13 -9 -29 -13 -35 -9 -5 3 -24 0 -40 -8 -16 -8 -47 -18 -70 -22 -22 -4 -42 -10 -45 -15 -3 -4 -28 -11 -56 -15 -28 -4 -63 -13 -77 -21 -15 -8 -45 -14 -67 -14 -23 0 -46 -5 -52 -11 -6 -6 -42 -13 -80 -16 -37 -3 -75 -11 -83 -17 -8 -7 -60 -13 -119 -15 -64 -2 -113 -8 -125 -16 -33 -20 -800 -21 -831 -1 -14 10 -58 16 -126 18 -57 3 -113 10 -124 16 -11 6 -50 14 -87 17 -37 4 -70 11 -73 16 -4 5 -24 9 -45 9 -22 0 -63 9 -91 20 -29 12 -58 19 -64 16 -7 -2 -23 1 -37 8 -13 7 -44 16 -68 19 -25 3 -46 11 -48 16 -2 6 -17 11 -33 11 -16 0 -46 9 -66 20 -21 11 -48 20 -60 20 -13 0 -23 5 -23 10 0 6 -10 10 -22 10 -13 0 -36 7 -52 15 -15 8 -33 15 -40 15 -6 1 -29 9 -51 20 -22 11 -46 19 -52 20 -7 0 -13 5 -13 10 0 6 -9 10 -20 10 -11 0 -37 9 -57 20 -21 11 -43 20 -50 20 -7 0 -13 4 -13 9 0 5 -12 12 -27 16 -15 3 -30 10 -33 13 -3 4 -41 25 -85 46 -44 22 -81 43 -83 48 -2 4 -8 8 -14 8 -18 0 -393 233 -418 260 -3 3 -36 30 -75 60 -182 142 -307 253 -446 396 -135 138 -124 126 -174 189 -22 27 -47 56 -55 65 -24 26 -84 101 -94 119 -6 9 -20 27 -33 41 -13 14 -23 28 -23 32 0 3 -6 13 -13 20 -20 21 -117 168 -117 177 0 5 -4 11 -8 13 -12 5 -132 207 -132 222 0 8 -7 19 -15 26 -8 6 -17 21 -21 33 -4 12 -13 27 -20 35 -8 7 -14 22 -14 33 0 10 -4 19 -9 19 -5 0 -13 10 -16 23 -4 12 -20 49 -36 83 -16 33 -29 66 -29 72 0 7 -4 12 -10 12 -5 0 -10 6 -10 13 -1 6 -9 30 -20 52 -11 22 -19 45 -20 51 0 7 -7 25 -15 40 -8 16 -15 36 -15 45 0 9 -7 30 -15 45 -8 16 -15 37 -15 46 0 9 -4 19 -9 22 -5 3 -12 22 -16 43 -4 20 -13 46 -21 57 -8 11 -14 34 -14 51 0 16 -7 39 -15 49 -8 11 -15 36 -15 56 0 20 -4 40 -9 46 -6 5 -15 34 -20 64 -30 159 -40 208 -50 240 -6 19 -11 60 -11 91 0 31 -7 70 -15 85 -11 22 -15 66 -15 180 0 100 -4 154 -12 162 -20 20 -16 365 5 399 4 6 7 75 8 154 1 100 5 149 14 159 7 8 15 52 18 98 3 45 10 88 15 95 6 7 13 42 17 80 4 37 11 70 16 72 4 3 11 33 15 66 4 32 11 62 15 65 5 3 9 22 9 43 0 20 7 46 15 57 8 10 15 30 15 44 0 14 7 38 15 53 8 15 17 43 21 63 3 19 10 37 15 40 5 3 9 15 9 28 0 12 7 31 15 42 8 10 15 28 15 40 0 11 7 29 15 40 8 10 15 31 15 45 0 15 7 32 15 39 8 7 15 17 15 22 0 6 6 24 14 41 8 18 24 55 36 82 11 28 26 59 32 70 34 59 78 151 78 162 0 7 4 13 9 13 4 0 19 23 32 50 13 28 27 50 31 50 5 0 8 5 8 11 0 14 71 133 82 137 4 2 8 9 8 16 0 7 9 24 20 37 28 34 31 38 75 104 50 75 49 73 83 115 16 19 45 58 66 85 21 28 54 68 74 90 20 22 69 76 107 120 82 92 181 192 254 255 29 25 69 60 89 78 20 18 64 54 97 80 33 25 65 51 71 57 6 5 22 17 34 25 12 8 30 22 40 30 10 8 28 22 40 30 12 8 28 21 36 28 7 6 17 12 23 12 5 0 16 6 23 13 7 6 40 30 73 52 33 22 66 46 73 53 7 6 18 12 23 12 5 0 28 12 52 27 55 36 103 62 207 115 47 23 91 48 98 55 7 7 20 13 28 13 8 0 22 4 32 9 97 47 178 81 196 81 9 0 16 5 16 10 0 6 10 10 23 10 12 0 36 9 52 20 17 11 42 20 57 20 15 0 30 5 33 10 3 6 16 10 28 10 13 0 32 7 44 15 12 8 40 17 63 20 23 3 52 12 63 20 12 8 38 15 59 15 20 0 39 4 42 9 3 4 27 11 53 15 27 4 57 13 67 21 12 9 42 15 72 15 28 0 65 7 80 15 17 9 56 15 92 15 35 0 73 5 84 11 12 6 73 16 137 21 64 5 148 13 186 17 101 11 416 11 510 0z"></path><path d="M4470 11864 c-14 -1 -113 -8 -220 -14 -107 -6 -215 -15 -240 -21 -25 -5 -81 -13 -125 -19 -44 -5 -105 -15 -135 -21 -51 -10 -78 -17 -205 -49 -27 -7 -66 -15 -85 -18 -19 -2 -41 -9 -48 -15 -7 -5 -29 -13 -50 -17 -38 -8 -84 -24 -139 -47 -17 -7 -38 -13 -46 -13 -9 0 -28 -6 -44 -14 -15 -8 -48 -22 -73 -31 -70 -27 -261 -113 -330 -149 -32 -17 -134 -73 -185 -103 -22 -12 -49 -27 -60 -33 -26 -13 -139 -88 -254 -168 -197 -137 -508 -421 -696 -635 -135 -154 -338 -440 -421 -592 -11 -22 -30 -56 -42 -75 -32 -54 -152 -298 -152 -309 0 -5 -7 -22 -15 -38 -14 -27 -24 -51 -60 -143 -32 -82 -43 -115 -61 -170 -9 -30 -22 -71 -29 -90 -14 -40 -32 -106 -46 -169 -5 -25 -13 -59 -18 -75 -23 -78 -63 -308 -82 -476 -7 -58 -14 -222 -17 -365 -4 -264 6 -410 44 -655 29 -183 90 -447 120 -518 8 -18 14 -43 14 -55 0 -13 4 -27 8 -32 5 -6 19 -41 31 -80 12 -38 26 -79 31 -90 5 -11 25 -60 45 -110 42 -101 148 -319 200 -410 19 -33 38 -67 42 -76 38 -79 258 -389 380 -537 164 -196 437 -456 628 -596 22 -17 42 -33 45 -36 14 -18 342 -231 390 -253 8 -4 42 -22 75 -40 107 -58 138 -75 237 -121 54 -25 103 -46 109 -46 6 0 23 -6 37 -14 44 -22 102 -46 113 -46 6 0 25 -6 42 -13 51 -22 99 -38 142 -48 22 -6 44 -14 50 -20 5 -5 18 -9 30 -9 11 0 40 -6 65 -14 25 -8 68 -21 96 -30 29 -9 62 -16 75 -16 12 0 48 -6 78 -14 63 -16 200 -39 341 -57 52 -7 239 -14 415 -16 255 -3 340 -1 418 11 54 9 114 16 135 16 20 0 73 7 117 16 155 30 230 46 261 55 16 5 50 13 75 18 59 13 129 32 154 42 11 4 56 19 100 33 44 14 105 35 135 46 30 12 67 25 81 30 14 4 34 12 45 18 10 5 30 14 44 20 42 17 373 182 405 202 17 10 48 28 70 40 22 12 87 54 145 92 301 202 563 432 800 703 137 157 350 447 386 525 4 8 13 22 19 30 37 45 209 390 265 530 12 30 27 69 34 85 19 44 41 111 121 366 8 26 15 55 15 65 0 11 6 39 14 64 32 100 68 316 92 545 18 181 16 572 -5 755 -25 221 -86 544 -117 618 -8 18 -14 44 -14 58 0 14 -5 35 -12 47 -6 12 -15 35 -19 52 -7 31 -25 84 -40 120 -9 21 -35 93 -48 135 -8 23 -19 48 -88 200 -66 147 -139 279 -268 489 -46 75 -211 300 -264 361 -12 14 -45 52 -73 85 -85 99 -336 346 -438 429 -52 43 -105 87 -118 97 -12 11 -53 40 -90 66 -37 25 -83 58 -102 73 -29 22 -123 82 -239 151 -23 14 -158 88 -201 110 -59 31 -256 119 -315 142 -22 8 -59 22 -82 31 -149 56 -254 90 -328 106 -22 4 -53 12 -70 18 -16 6 -64 18 -105 26 -41 9 -97 21 -125 27 -27 6 -79 14 -115 19 -36 4 -92 12 -125 18 -33 6 -139 16 -235 22 -96 6 -197 12 -225 14 -27 1 -61 2 -75 0z m355 -95 c44 -5 124 -13 177 -19 54 -5 106 -14 117 -20 11 -5 37 -10 59 -10 21 0 61 -7 88 -15 27 -8 59 -15 70 -15 12 0 46 -7 75 -16 30 -8 79 -22 109 -30 119 -33 166 -47 188 -55 13 -5 52 -19 85 -30 34 -11 76 -27 92 -34 17 -7 55 -23 85 -35 189 -76 386 -179 589 -305 118 -74 353 -249 461 -344 108 -96 295 -283 379 -381 40 -47 83 -96 95 -110 46 -53 161 -212 201 -278 6 -9 22 -33 36 -52 14 -19 29 -42 32 -50 4 -8 16 -28 27 -45 11 -16 24 -39 30 -50 5 -11 25 -47 44 -80 32 -55 115 -221 153 -305 9 -19 20 -44 26 -54 5 -11 13 -31 17 -45 5 -14 18 -51 30 -81 64 -166 134 -401 165 -555 9 -44 21 -100 26 -125 6 -25 14 -79 20 -120 5 -41 14 -106 20 -145 7 -41 12 -211 12 -415 1 -348 -2 -396 -44 -635 -6 -33 -15 -83 -19 -112 -4 -28 -13 -66 -18 -85 -15 -50 -32 -118 -41 -163 -8 -45 -27 -104 -47 -153 -8 -18 -14 -40 -14 -50 0 -9 -7 -30 -15 -46 -8 -15 -15 -34 -15 -42 0 -14 -20 -66 -46 -117 -8 -16 -14 -33 -14 -38 0 -27 -174 -378 -249 -503 -70 -115 -74 -121 -135 -213 -271 -401 -666 -788 -1076 -1054 -167 -108 -417 -243 -605 -324 -88 -39 -104 -45 -114 -45 -6 0 -25 -6 -43 -14 -18 -8 -49 -21 -70 -30 -20 -9 -44 -16 -55 -16 -10 -1 -29 -7 -43 -15 -14 -8 -35 -14 -46 -15 -12 0 -35 -7 -50 -15 -16 -8 -38 -15 -50 -15 -11 0 -40 -6 -65 -14 -44 -14 -131 -33 -269 -60 -293 -56 -595 -73 -925 -52 -132 9 -256 20 -275 26 -19 5 -53 10 -74 10 -22 0 -65 6 -95 14 -31 8 -83 19 -116 26 -138 25 -152 29 -250 62 -16 5 -49 14 -72 19 -23 4 -50 13 -60 18 -10 5 -47 20 -83 32 -113 38 -144 49 -170 60 -14 6 -38 17 -55 23 -195 81 -462 226 -645 351 -114 78 -184 127 -190 134 -3 4 -36 31 -75 61 -107 83 -251 216 -390 360 -179 186 -362 429 -518 686 -53 89 -196 373 -232 464 -17 45 -28 71 -59 143 -9 21 -16 46 -16 55 0 10 -4 22 -8 28 -5 5 -19 41 -31 79 -33 107 -45 149 -91 330 -7 28 -16 73 -21 100 -10 66 -28 176 -40 248 -29 171 -34 746 -8 920 5 34 12 87 15 117 3 30 11 84 19 120 8 36 19 90 25 120 23 116 30 147 50 215 12 39 25 90 31 114 5 24 13 49 18 55 4 6 11 22 14 36 5 25 30 98 46 135 5 11 16 40 26 65 47 123 140 320 210 445 19 33 39 69 45 80 6 11 18 32 28 47 9 14 30 48 46 75 58 96 213 311 246 343 3 3 23 28 45 55 137 173 503 522 636 607 14 9 33 23 40 30 23 21 205 148 213 148 2 0 30 17 62 39 118 77 363 202 534 271 30 12 69 29 87 36 17 8 36 14 42 14 6 0 19 4 29 10 18 10 84 35 137 50 17 5 55 17 85 26 30 9 80 22 112 29 31 7 61 16 68 20 6 4 35 11 63 15 29 5 72 13 97 18 91 20 227 41 295 47 39 3 95 10 125 14 78 12 550 12 645 0z"></path><path d="M4449 11550 c-41 -5 -62 -14 -83 -34 -21 -22 -33 -26 -53 -21 -53 13 -161 -24 -223 -77 -29 -25 -52 -70 -42 -80 13 -13 102 -1 102 13 0 5 19 22 42 39 36 26 49 30 107 30 54 0 73 -5 102 -24 55 -37 84 -116 63 -170 -11 -28 -24 -18 -48 37 -33 75 -56 92 -125 92 -106 0 -191 -85 -191 -193 0 -57 23 -113 59 -146 32 -29 124 -26 156 4 63 59 25 180 -57 180 -36 0 -51 14 -43 39 8 26 50 44 81 37 50 -13 104 -122 104 -213 0 -28 4 -54 9 -57 4 -3 38 -3 75 1 l66 6 1 91 c0 50 4 116 9 146 11 79 -5 144 -47 180 -18 16 -33 32 -33 36 0 3 14 22 30 41 49 55 46 57 -61 43z m-175 -421 c17 -25 12 -45 -16 -60 -17 -9 -25 -7 -44 13 -22 22 -23 25 -8 46 19 28 48 28 68 1z"></path><path d="M4742 11452 c-53 -44 -90 -129 -71 -164 8 -16 19 -18 62 -16 l52 3 5 44 c9 80 94 108 135 44 16 -24 16 -31 1 -100 -9 -40 -16 -91 -16 -112 0 -21 -5 -64 -12 -96 -10 -53 -10 -59 8 -72 11 -8 36 -13 59 -11 l40 3 7 55 c4 30 11 108 17 172 5 65 12 121 15 126 7 12 -14 70 -34 97 -32 43 -65 55 -152 55 -75 -1 -86 -3 -116 -28z"></path><path d="M3750 11423 c-8 -3 -27 -17 -42 -31 -23 -21 -28 -34 -28 -73 0 -41 5 -52 33 -78 26 -25 40 -31 79 -31 46 0 47 -1 57 -37 5 -21 12 -62 16 -90 6 -49 5 -53 -17 -62 -69 -26 -66 -27 -95 36 -15 32 -50 97 -79 144 -28 47 -54 94 -58 105 -3 10 -14 29 -24 42 -23 29 -44 22 -72 -24 -23 -40 -26 -69 -7 -81 14 -9 77 -88 77 -96 0 -3 13 -25 28 -49 16 -24 44 -76 63 -116 39 -83 27 -79 159 -47 36 8 87 20 114 25 27 6 51 12 53 14 3 2 -2 26 -11 53 -18 57 -38 137 -63 253 -23 110 -49 141 -119 146 -27 2 -56 1 -64 -3z m63 -77 c25 -20 21 -54 -8 -68 -21 -9 -28 -8 -45 7 -26 23 -25 39 3 58 27 19 28 20 50 3z"></path><path d="M5284 11394 c-54 -12 -163 -150 -138 -174 21 -19 96 -34 174 -34 74 -1 88 -4 108 -23 26 -27 27 -39 7 -86 -8 -20 -15 -50 -15 -67 0 -39 -19 -46 -70 -26 -22 9 -51 16 -64 16 -38 0 -50 23 -31 60 9 17 15 43 13 58 -3 23 -9 28 -42 33 -46 7 -76 -15 -76 -56 0 -15 -7 -40 -16 -56 -8 -17 -14 -45 -12 -62 3 -30 6 -32 53 -39 28 -3 73 -13 100 -21 70 -21 166 -48 194 -54 28 -7 41 10 41 54 0 17 5 44 11 60 7 15 16 48 21 73 5 25 11 57 14 71 4 16 0 37 -10 51 -17 25 -91 68 -119 68 -9 0 -19 5 -22 10 -3 6 -29 10 -56 10 -36 0 -51 4 -56 16 -18 47 88 46 180 -1 38 -19 81 -35 96 -35 23 0 28 6 38 41 12 47 23 39 -117 84 -84 27 -165 38 -206 29z"></path><path d="M3176 11249 c-57 -23 -114 -62 -139 -96 -20 -26 -33 -116 -23 -157 7 -29 30 -33 60 -11 11 8 28 15 38 15 24 0 31 20 18 54 -15 40 10 82 65 108 l45 22 27 -20 c33 -24 88 -127 79 -149 -3 -8 -13 -15 -23 -15 -28 -1 -63 -35 -69 -69 -11 -54 3 -98 40 -120 40 -25 108 -28 126 -6 7 8 18 15 24 15 7 0 22 13 34 30 37 50 32 75 -54 278 -8 18 -14 37 -14 43 0 16 -38 61 -68 81 -35 23 -103 22 -166 -3z m215 -309 c36 -20 17 -70 -27 -70 -36 0 -49 25 -30 55 18 28 28 30 57 15z"></path><path d="M5749 11215 c-44 -29 -100 -102 -93 -120 7 -18 80 -49 99 -42 8 4 20 19 26 34 25 65 67 80 119 41 46 -34 46 -34 -76 -283 -24 -50 -44 -95 -44 -101 0 -12 69 -44 96 -44 14 0 24 14 38 53 17 48 48 119 97 223 38 82 34 148 -14 192 -79 72 -182 92 -248 47z"></path><path d="M2788 11061 c-15 -14 -51 -35 -79 -46 -29 -11 -73 -39 -98 -61 l-46 -42 2 -68 c1 -70 33 -164 54 -164 20 0 99 64 99 80 0 16 103 90 126 90 7 0 27 -25 44 -55 17 -30 35 -57 41 -60 5 -4 9 -17 9 -31 0 -28 -31 -46 -39 -23 -7 23 -62 69 -82 69 -39 0 -86 -32 -109 -75 l-24 -43 27 -41 c31 -47 57 -56 128 -47 79 11 167 75 195 141 16 40 11 54 -65 178 -20 34 -40 70 -44 80 -10 28 -36 32 -60 9 -33 -31 -189 -122 -199 -116 -12 8 -10 44 5 58 16 16 60 40 122 67 70 30 86 46 78 78 -13 57 -42 65 -85 22z m58 -395 c9 -24 -15 -56 -41 -56 -18 0 -26 7 -31 24 -3 14 -3 30 1 35 9 16 65 13 71 -3z"></path><path d="M6213 11010 c-41 -20 -133 -114 -133 -136 0 -19 81 -54 120 -53 35 2 139 -55 140 -75 0 -6 -18 -40 -40 -78 -30 -49 -47 -68 -62 -68 -17 0 -19 4 -13 28 4 15 8 46 9 70 0 36 -4 47 -29 67 -41 33 -113 35 -143 3 -65 -70 -39 -139 88 -228 29 -20 47 -25 103 -25 73 0 85 7 119 75 7 14 25 41 40 61 15 20 28 40 28 45 0 4 7 15 16 25 22 25 9 56 -26 64 -17 4 -30 11 -30 16 0 5 -6 9 -14 9 -8 0 -21 6 -28 13 -21 19 -50 36 -80 48 -50 20 -29 65 24 52 21 -6 89 -52 113 -77 6 -6 25 -21 43 -34 l33 -23 29 31 c17 18 30 38 30 44 0 7 -18 20 -40 30 -22 9 -59 33 -82 53 -41 34 -138 83 -162 83 -6 -1 -30 -10 -53 -20z m-37 -306 c8 -31 -6 -47 -37 -42 -19 2 -25 10 -27 36 -3 30 -1 32 27 32 25 0 32 -5 37 -26z"></path><path d="M2325 10761 c-11 -5 -29 -18 -41 -29 -11 -10 -30 -25 -42 -31 -28 -15 -28 -28 2 -88 13 -26 35 -70 48 -98 12 -27 26 -52 29 -55 16 -13 20 -50 5 -56 -18 -7 -39 14 -89 88 -26 36 -52 62 -77 73 -36 16 -39 16 -78 -4 -60 -31 -82 -64 -82 -126 0 -70 30 -100 102 -100 36 0 53 5 62 18 7 9 20 17 29 17 9 0 50 -45 92 -100 42 -55 81 -100 88 -100 20 1 107 90 107 110 0 10 -7 31 -15 47 -19 38 -75 162 -75 168 0 2 -14 33 -31 69 -17 36 -29 72 -25 81 9 24 47 0 80 -51 15 -25 48 -68 73 -97 25 -29 54 -69 66 -89 27 -46 47 -52 86 -24 52 35 50 56 -10 117 -28 30 -77 86 -107 124 -31 39 -70 85 -87 102 -32 35 -77 48 -110 34z m-179 -296 c12 -18 11 -24 -2 -43 -20 -29 -47 -28 -64 3 -12 22 -11 27 5 45 22 25 43 23 61 -5z"></path><path d="M6604 10708 c-34 -38 -37 -48 -19 -69 17 -18 15 -22 -64 -104 -76 -80 -81 -87 -81 -129 0 -37 6 -49 40 -85 35 -35 46 -41 83 -41 36 0 49 6 74 33 42 43 50 79 27 115 -9 15 -24 32 -33 38 -13 10 -13 14 2 38 10 14 21 26 26 26 4 0 21 18 36 40 30 44 51 49 93 23 43 -27 71 -66 72 -98 0 -25 -21 -52 -125 -162 l-125 -132 41 -38 c49 -46 62 -51 116 -52 67 -1 73 -7 66 -56 -10 -73 45 -138 117 -137 50 1 76 15 95 52 22 43 19 83 -10 114 -24 26 -24 28 -8 49 10 12 50 51 89 87 93 84 97 94 48 137 -21 18 -43 33 -49 33 -5 0 -25 -20 -43 -43 -18 -23 -56 -69 -86 -101 l-53 -59 -69 9 c-52 7 -70 13 -72 26 -2 10 29 47 80 96 l83 80 0 70 c0 67 -2 72 -41 119 -50 58 -110 97 -184 119 -97 27 -103 27 -126 2z m-8 -304 c8 -32 -15 -59 -44 -50 -45 15 -38 76 8 76 23 0 31 -5 36 -26z m384 -354 c16 -30 3 -60 -24 -60 -32 0 -50 24 -42 55 8 32 50 35 66 5z"></path><path d="M4265 10619 c-49 -5 -119 -14 -155 -20 -36 -6 -87 -14 -115 -18 -68 -11 -220 -48 -290 -73 -16 -5 -43 -13 -60 -18 -16 -4 -41 -12 -55 -18 -14 -5 -45 -18 -70 -27 -70 -27 -229 -102 -348 -164 -33 -17 -295 -191 -302 -200 -3 -4 -34 -29 -70 -56 -85 -64 -333 -312 -395 -395 -27 -36 -53 -68 -58 -71 -5 -4 -14 -16 -20 -27 -7 -11 -34 -53 -62 -93 -50 -74 -65 -97 -85 -134 -6 -11 -26 -47 -45 -80 -44 -79 -90 -174 -120 -250 -7 -16 -19 -46 -27 -65 -52 -123 -124 -378 -139 -495 -4 -33 -13 -78 -20 -100 -8 -28 -12 -138 -13 -360 -1 -326 2 -359 45 -555 6 -25 14 -67 19 -95 4 -27 12 -61 18 -75 5 -14 17 -52 27 -85 17 -58 27 -87 61 -177 38 -99 141 -315 154 -323 6 -4 10 -13 10 -21 0 -8 8 -27 19 -42 10 -15 49 -74 87 -132 160 -245 383 -481 629 -667 88 -66 174 -123 230 -153 11 -6 34 -19 50 -29 17 -11 77 -43 135 -71 58 -28 114 -56 124 -62 11 -6 31 -14 45 -18 14 -5 51 -18 81 -30 128 -49 317 -104 415 -120 28 -4 79 -13 115 -19 148 -24 301 -33 480 -28 201 6 371 20 390 32 6 4 43 11 83 16 39 5 75 13 81 19 5 5 21 10 35 10 23 0 63 11 156 42 17 5 44 14 60 18 53 15 120 41 129 51 6 5 16 9 23 9 32 0 233 101 376 189 59 36 117 71 128 77 11 6 30 20 42 30 12 11 38 30 57 44 100 69 296 254 428 403 104 118 240 316 314 455 22 43 51 97 64 121 13 24 24 52 24 61 0 9 5 21 12 28 6 6 17 26 24 44 6 18 26 71 44 118 18 47 35 101 40 120 4 19 12 46 17 60 13 32 34 112 43 170 4 25 13 70 19 100 31 161 41 278 41 481 0 150 -5 235 -15 284 -8 38 -15 87 -15 108 0 35 -10 88 -41 212 -6 22 -14 58 -18 80 -4 22 -13 50 -19 62 -7 12 -12 32 -12 45 0 13 -7 33 -15 44 -8 10 -15 27 -15 36 0 10 -7 34 -16 55 -9 21 -23 54 -31 73 -33 78 -43 99 -90 195 -27 55 -61 119 -76 142 -15 24 -27 45 -27 47 0 11 -143 214 -206 293 -127 158 -311 336 -469 454 -79 60 -209 148 -250 169 -11 6 -47 26 -80 45 -153 86 -349 170 -490 210 -33 9 -73 21 -90 27 -16 5 -50 14 -75 18 -25 5 -58 13 -73 19 -16 6 -43 11 -62 11 -19 0 -46 5 -62 11 -65 25 -519 44 -678 28z m503 -114 c52 -2 108 -8 125 -14 18 -5 79 -17 137 -26 58 -9 123 -25 145 -35 22 -10 67 -24 100 -31 33 -6 74 -20 91 -31 17 -10 39 -18 48 -18 9 0 24 -4 34 -9 9 -4 37 -17 62 -28 51 -23 202 -98 259 -128 20 -11 52 -32 71 -47 19 -14 53 -33 74 -42 22 -9 46 -25 53 -36 8 -11 19 -20 24 -20 17 0 160 -114 259 -206 109 -102 193 -191 235 -249 16 -22 41 -53 56 -68 15 -16 30 -44 34 -63 5 -29 1 -41 -24 -72 -85 -106 -218 -184 -356 -208 -139 -25 -237 -33 -330 -28 -49 2 -101 5 -115 6 -14 0 -52 -5 -85 -11 -41 -9 -102 -11 -197 -6 -142 7 -166 3 -256 -36 -23 -11 -49 -19 -57 -19 -8 0 -30 -14 -50 -31 -20 -18 -38 -29 -41 -27 -2 3 3 47 12 99 18 105 12 156 -31 259 -13 30 -26 66 -30 80 -12 39 -52 86 -106 125 -47 33 -49 37 -49 82 -1 65 -25 104 -92 153 -32 23 -58 48 -58 56 0 18 -46 110 -59 118 -5 3 -12 22 -16 42 -4 24 -13 38 -26 41 -14 4 -18 11 -13 25 5 17 4 18 -14 7 -11 -7 -22 -27 -25 -43 -3 -17 -8 -40 -11 -51 -5 -14 3 -31 28 -60 40 -46 45 -62 33 -125 -24 -127 -19 -167 25 -232 26 -38 38 -35 38 10 0 28 8 46 31 71 24 27 29 39 24 63 -4 17 -2 35 6 44 11 13 16 11 41 -16 27 -30 40 -90 18 -90 -14 0 -60 -49 -60 -64 0 -7 13 -31 28 -52 16 -21 31 -46 35 -54 4 -8 11 -22 16 -30 5 -8 12 -23 15 -32 8 -27 19 -22 40 16 10 18 31 43 47 55 l29 22 0 -26 c0 -14 -5 -34 -12 -44 -13 -21 2 -83 29 -126 32 -52 30 -218 -3 -256 -8 -8 -14 -19 -14 -22 0 -4 -9 -16 -21 -28 -13 -13 -18 -27 -14 -37 4 -9 7 -24 6 -32 0 -8 -1 -40 -1 -70 -2 -131 -60 -234 -147 -260 -44 -13 -52 -27 -31 -48 9 -9 7 -18 -9 -40 -20 -27 -20 -29 -2 -40 33 -21 41 -47 20 -73 -18 -24 -19 -24 -226 -23 -189 1 -210 3 -222 20 -19 27 -16 50 11 71 22 18 23 21 9 48 -13 23 -13 32 -3 48 10 17 9 23 -11 38 -13 10 -29 19 -35 19 -21 0 -69 65 -86 116 -10 29 -18 77 -18 108 0 32 -5 66 -10 77 -9 16 -7 21 15 29 14 5 25 11 25 14 0 2 -16 14 -36 26 -58 37 -84 88 -84 167 1 57 6 77 33 125 18 31 42 68 54 81 46 54 55 75 48 115 -5 29 -2 44 12 61 23 28 53 19 53 -16 0 -14 14 -41 30 -60 17 -18 30 -41 30 -49 0 -8 -24 -52 -53 -97 -30 -45 -61 -102 -70 -127 -19 -50 -22 -106 -8 -115 5 -3 12 -18 16 -34 3 -16 15 -37 26 -47 24 -22 24 -44 0 -44 -29 0 -35 -17 -9 -26 62 -19 138 -130 138 -199 0 -33 22 -85 48 -113 6 -7 12 -17 12 -22 0 -13 30 -20 103 -24 76 -5 103 7 127 51 10 18 22 38 27 45 6 7 13 38 16 68 7 66 29 114 74 157 40 39 41 48 8 69 -19 12 -25 25 -25 52 0 32 36 122 49 122 6 0 22 30 62 112 10 21 12 69 3 92 -10 25 -24 8 -24 -29 0 -18 -7 -40 -15 -49 -8 -8 -15 -19 -15 -23 0 -5 -22 -43 -50 -84 -48 -72 -49 -76 -43 -129 3 -30 10 -63 15 -73 6 -12 5 -19 -7 -23 -8 -3 -15 -16 -15 -28 0 -11 -9 -32 -18 -44 l-18 -24 -18 27 c-18 27 -16 55 4 55 20 0 9 27 -20 48 -16 13 -36 38 -44 57 -17 40 -10 58 55 155 45 67 69 119 71 151 4 64 -3 129 -16 141 -8 8 -15 23 -17 33 -5 22 -29 33 -29 12 0 -8 7 -21 16 -28 14 -11 16 -27 11 -89 -3 -42 -13 -89 -21 -105 -9 -17 -16 -35 -16 -42 0 -6 -3 -13 -7 -15 -7 -3 -42 -52 -85 -117 -18 -29 -24 -91 -8 -91 6 0 10 -16 10 -35 0 -19 5 -35 10 -35 6 0 8 -11 4 -25 -4 -18 0 -30 18 -47 42 -41 62 -81 62 -129 1 -40 -5 -53 -44 -102 -25 -31 -53 -59 -63 -62 -23 -8 -67 2 -67 15 0 5 -10 20 -22 34 -61 67 -68 79 -68 124 0 39 25 101 50 122 12 10 40 60 40 70 0 6 -13 23 -30 37 -28 23 -30 29 -30 95 0 80 14 109 87 187 23 25 43 54 43 63 0 9 5 20 10 23 12 8 13 92 1 99 -5 3 -12 18 -16 33 -3 15 -16 36 -28 47 -74 69 -88 157 -37 231 38 55 39 101 4 152 -29 44 -27 63 17 128 40 59 33 74 -16 36 -66 -51 -85 -74 -92 -114 -6 -39 -26 -57 -62 -57 -11 0 -22 -9 -26 -21 -4 -11 -17 -24 -29 -29 -15 -5 -25 -20 -30 -41 -3 -18 -20 -61 -36 -96 -17 -35 -30 -66 -30 -70 0 -3 -6 -14 -14 -22 -19 -22 -72 -121 -81 -151 -4 -14 -32 -69 -62 -123 -50 -90 -55 -105 -60 -177 -5 -61 -2 -87 11 -113 9 -19 16 -41 16 -49 0 -8 7 -23 15 -34 17 -23 19 -44 4 -44 -6 0 -29 16 -50 35 -84 76 -254 138 -354 129 -131 -12 -218 -13 -236 -4 -22 12 -100 15 -204 8 -108 -7 -376 26 -427 53 -10 5 -27 9 -37 9 -11 0 -22 4 -25 9 -4 5 -34 25 -69 45 -40 22 -86 62 -131 111 -66 74 -68 77 -55 103 8 15 20 31 27 35 7 4 18 22 26 40 19 45 352 379 399 401 21 10 41 24 44 32 3 8 18 21 33 29 14 7 46 30 71 51 24 20 67 47 95 59 28 13 54 28 58 34 4 6 27 19 51 30 25 11 60 31 78 45 19 14 40 26 47 26 6 0 42 14 79 31 36 17 75 34 86 38 11 5 41 18 67 30 26 12 80 31 120 43 40 11 96 26 123 34 28 8 91 21 140 29 50 8 119 19 155 26 140 24 310 28 638 14z m-398 -622 c6 -16 15 -35 20 -43 27 -40 30 -62 15 -106 -21 -64 -11 -97 50 -152 53 -49 92 -113 87 -145 -5 -29 -28 -66 -68 -110 -53 -58 -84 -103 -84 -122 0 -9 -4 -24 -9 -34 -9 -17 8 -93 30 -131 37 -63 31 -80 -27 -80 -22 0 -42 10 -68 34 -20 19 -36 39 -36 45 0 6 -4 11 -10 11 -5 0 -10 5 -10 11 0 7 -10 31 -22 55 l-22 44 22 44 c12 24 22 47 22 52 0 5 14 25 30 44 54 64 90 128 90 163 0 13 -22 53 -50 90 -59 78 -62 102 -19 165 37 55 40 86 10 113 -11 11 -21 31 -21 44 0 22 4 25 53 34 4 0 12 -11 17 -26z m-1954 -540 c22 -65 108 -167 150 -177 20 -5 24 -11 19 -29 -7 -22 -7 -22 8 -2 14 18 16 19 34 3 23 -21 94 -48 153 -58 25 -4 65 -12 90 -18 25 -6 106 -16 180 -22 219 -18 205 -19 206 10 2 45 4 50 19 50 8 0 15 -4 15 -9 0 -5 12 -24 27 -41 l27 -32 100 6 c56 3 128 9 160 12 149 15 297 -58 351 -172 45 -94 23 -193 -53 -237 -58 -34 -132 8 -132 77 0 40 26 52 32 14 2 -12 8 -23 13 -25 14 -4 49 62 41 76 -12 19 -80 13 -99 -9 -26 -31 -22 -92 8 -120 14 -13 27 -39 31 -59 14 -91 69 -166 145 -201 34 -15 66 -20 137 -20 93 0 132 10 173 47 15 13 19 12 33 -9 15 -21 15 -23 -12 -45 -15 -12 -35 -22 -44 -23 -9 0 -24 -7 -33 -16 -22 -23 -195 -22 -227 0 -12 9 -35 16 -50 16 -16 0 -28 4 -28 9 0 5 -10 13 -22 17 -23 7 -49 27 -95 74 -23 23 -25 23 -34 7 -13 -22 -69 -23 -114 -1 -28 13 -65 64 -65 89 0 3 -7 13 -15 21 -8 9 -15 24 -15 34 0 21 -55 80 -75 80 -7 0 -15 -7 -19 -15 -4 -12 -33 -15 -167 -15 l-161 0 -54 32 c-89 54 -79 58 136 58 159 0 190 -2 190 -14 0 -8 -5 -18 -10 -21 -18 -11 0 -25 31 -25 22 0 32 6 39 25 14 36 59 34 100 -5 35 -33 60 -39 60 -14 0 39 -63 94 -108 94 -11 0 -31 6 -44 13 -38 19 -128 132 -128 161 0 7 -7 16 -15 20 -8 3 -15 14 -15 25 0 26 -18 37 -27 15 -3 -10 1 -31 11 -47 9 -17 13 -34 9 -38 -9 -8 -300 5 -402 19 -36 4 -66 13 -69 20 -2 7 -9 12 -15 12 -30 0 -121 62 -166 113 -19 21 -31 22 -31 3 0 -14 82 -102 115 -124 11 -6 31 -17 45 -23 14 -6 37 -17 52 -25 14 -8 41 -14 60 -14 19 0 38 -4 44 -9 5 -6 92 -11 194 -13 l186 -3 52 -53 c29 -29 52 -55 52 -58 0 -10 -442 6 -461 16 -10 6 -38 10 -64 10 -114 0 -328 110 -397 203 -77 105 -153 360 -119 401 23 28 37 17 57 -41z m4245 20 c13 -33 -4 -182 -26 -223 -7 -14 -21 -45 -31 -70 -23 -56 -27 -61 -94 -130 -52 -52 -107 -85 -243 -144 -21 -9 -63 -16 -93 -16 -30 0 -65 -5 -77 -11 -24 -13 -457 -24 -457 -11 0 4 23 29 51 56 l50 48 190 3 c105 2 196 8 202 13 7 5 30 12 53 15 43 7 100 32 122 54 7 7 16 13 20 13 13 0 82 69 82 81 0 7 7 21 17 31 9 10 14 20 12 23 -3 2 -31 -20 -63 -50 -32 -30 -64 -55 -72 -55 -8 0 -14 -4 -14 -9 0 -5 -13 -12 -30 -16 -16 -4 -30 -10 -30 -15 0 -21 -262 -53 -395 -48 -91 3 -98 11 -70 76 l17 39 132 13 c223 22 259 26 311 39 98 25 158 45 180 63 13 10 30 15 39 12 9 -3 16 -2 16 4 0 5 18 22 40 37 58 40 110 115 110 157 0 55 33 68 51 21z m-4352 -263 c39 -111 63 -150 133 -218 73 -71 112 -100 189 -141 58 -31 86 -59 129 -131 39 -66 152 -177 188 -184 17 -4 36 -14 43 -22 6 -8 22 -14 35 -14 13 0 24 -4 24 -10 0 -5 15 -10 33 -10 18 0 42 -6 52 -14 18 -13 19 -17 6 -53 -8 -21 -22 -49 -32 -63 -10 -14 -32 -63 -50 -110 -27 -75 -30 -93 -26 -158 6 -75 32 -166 54 -190 7 -7 13 -21 13 -31 0 -46 142 -210 206 -237 17 -7 36 -20 44 -28 7 -9 19 -16 27 -16 7 0 26 -9 41 -20 15 -11 54 -27 87 -36 156 -43 202 -54 227 -54 15 0 39 -10 54 -23 25 -22 26 -27 29 -135 1 -61 7 -117 12 -124 5 -7 20 -37 32 -66 21 -52 82 -146 106 -167 7 -5 19 -25 29 -42 14 -28 15 -42 5 -95 -21 -116 -10 -231 27 -290 13 -21 24 -40 24 -43 0 -3 10 -19 22 -36 25 -33 22 -48 -29 -156 -19 -41 -24 -69 -24 -123 0 -85 11 -107 101 -204 48 -53 70 -84 70 -101 0 -45 70 -161 141 -235 105 -108 143 -115 235 -44 32 25 63 53 68 62 5 10 21 31 36 47 15 17 31 40 35 53 3 12 15 27 26 32 14 8 19 21 19 56 0 44 3 48 95 139 73 73 96 101 96 122 5 151 4 156 -34 241 l-37 84 27 49 c15 26 34 50 41 51 8 2 23 28 34 58 22 60 29 201 14 277 -8 40 -7 44 23 70 17 15 31 33 31 39 0 6 10 19 21 30 33 29 97 133 105 168 3 17 9 36 13 41 4 6 8 57 10 115 1 58 5 108 9 111 7 7 120 26 157 27 185 6 482 195 553 352 18 41 37 94 72 207 8 27 11 63 6 100 -7 63 -58 195 -89 230 -10 11 -21 39 -24 60 -6 48 7 60 80 79 121 31 143 40 191 84 76 68 106 101 126 140 31 59 86 115 140 143 67 35 101 61 164 123 85 85 102 108 116 149 15 48 77 128 92 119 25 -15 133 -264 182 -419 20 -62 59 -216 64 -255 2 -19 8 -40 13 -46 5 -6 8 -24 8 -40 -1 -16 1 -51 5 -79 22 -170 28 -504 11 -630 -2 -22 -7 -60 -9 -85 -7 -74 -17 -131 -37 -205 -11 -38 -27 -104 -35 -145 -17 -78 -74 -238 -118 -329 -14 -30 -26 -63 -26 -72 0 -10 -5 -21 -10 -24 -10 -6 -38 -54 -84 -144 -10 -20 -43 -74 -75 -119 -31 -46 -60 -91 -66 -101 -16 -27 -67 -93 -105 -137 -19 -22 -48 -58 -65 -80 -27 -34 -60 -67 -213 -209 -84 -79 -165 -145 -177 -145 -4 0 -25 -15 -48 -34 -62 -49 -141 -103 -179 -121 -18 -8 -67 -33 -108 -55 -41 -22 -79 -40 -85 -40 -6 0 -18 -9 -28 -20 -10 -12 -22 -18 -28 -14 -6 3 -18 -1 -27 -9 -18 -16 -89 -45 -132 -54 -14 -2 -43 -13 -65 -23 -92 -42 -206 -72 -405 -106 -131 -23 -224 -28 -495 -28 -199 0 -269 4 -345 18 -169 32 -284 59 -313 73 -15 8 -53 19 -85 24 -31 6 -77 21 -102 35 -25 13 -76 35 -115 50 -64 24 -112 46 -190 87 -128 67 -192 104 -207 119 -9 9 -30 24 -47 32 -16 9 -50 34 -76 56 -25 22 -50 40 -56 40 -17 0 -319 278 -319 293 0 8 -27 40 -92 109 -10 10 -18 21 -18 24 0 3 -18 26 -39 52 -108 130 -200 286 -311 527 -38 83 -76 188 -91 249 -5 21 -16 50 -24 65 -7 15 -21 65 -29 112 -9 46 -23 116 -31 154 -8 39 -19 120 -25 180 -11 123 -15 431 -6 485 3 19 8 67 11 107 3 39 9 83 15 98 5 14 10 38 10 53 0 25 38 187 60 257 5 17 21 66 35 110 14 44 29 89 34 100 99 227 147 309 178 303 8 -2 27 -36 42 -78z m3468 -22 c-6 -45 -29 -101 -44 -111 -7 -4 -13 -14 -13 -22 0 -22 -81 -135 -116 -161 -17 -13 -39 -24 -49 -24 -38 0 -102 -42 -119 -78 -23 -48 -7 -59 33 -23 18 16 46 35 63 42 29 12 33 11 54 -14 14 -16 33 -27 48 -27 31 0 41 14 21 30 -8 7 -15 16 -15 21 0 11 370 12 388 1 9 -6 4 -14 -18 -30 -16 -12 -34 -22 -40 -22 -5 0 -10 -4 -10 -9 0 -16 -102 -26 -232 -23 -104 3 -128 6 -128 18 0 20 -19 18 -55 -8 -34 -23 -40 -34 -91 -170 -9 -24 -65 -48 -113 -48 -33 0 -41 3 -41 19 0 10 7 24 15 31 10 8 15 30 15 64 -1 47 -2 49 -15 32 -8 -11 -15 -36 -15 -57 0 -20 -7 -42 -15 -49 -8 -7 -15 -17 -15 -23 0 -11 -13 -22 -87 -72 -28 -19 -59 -35 -68 -35 -8 0 -27 -7 -40 -16 -36 -23 -227 -24 -253 -1 -10 10 -25 17 -34 17 -15 0 -65 47 -57 53 28 24 46 24 76 1 30 -23 41 -25 142 -25 128 0 170 16 225 85 30 38 66 116 66 143 0 7 14 32 30 56 35 53 35 50 13 98 -17 35 -21 38 -58 36 -33 -2 -41 -6 -43 -24 -2 -12 6 -31 19 -44 20 -20 23 -21 34 -6 7 10 17 17 24 17 16 0 14 -35 -4 -50 -8 -7 -15 -18 -15 -25 0 -7 -15 -20 -34 -29 -32 -15 -37 -15 -70 1 -56 26 -76 70 -76 162 l0 78 53 56 c100 108 194 132 424 108 130 -13 156 -7 197 49 36 48 50 51 43 8z m-1380 -154 c3 -8 1 -20 -4 -25 -14 -14 -43 0 -43 22 0 24 38 26 47 3z m-1517 -174 c21 0 43 -15 87 -57 103 -102 90 -98 316 -98 205 0 216 -2 217 -42 0 -7 5 -13 11 -13 6 0 9 -6 7 -12 -3 -7 -29 -16 -59 -20 -30 -3 -76 -12 -104 -18 -77 -18 -285 -14 -332 8 -87 39 -137 89 -198 198 -20 36 -14 70 11 60 9 -3 28 -6 44 -6z m3340 -11 c0 -27 -60 -127 -101 -170 -68 -70 -122 -90 -249 -92 -132 -1 -241 6 -260 18 -8 5 -33 12 -54 15 -50 6 -55 21 -19 54 40 38 62 41 199 27 131 -14 220 -5 244 25 7 7 17 14 22 14 5 0 24 16 41 36 49 55 96 84 139 84 21 0 38 -5 38 -11z m-2081 -102 c38 -45 41 -53 37 -95 -5 -59 -23 -72 -101 -72 -70 0 -105 18 -105 56 0 30 42 99 69 114 11 5 23 19 26 31 9 29 26 21 74 -34z m861 -16 c45 -37 77 -97 64 -118 -11 -18 -78 -43 -117 -43 -32 0 -73 24 -88 51 -13 25 10 68 58 108 21 17 40 31 43 31 3 0 21 -13 40 -29z m-1451 -162 c21 -20 21 -22 6 -45 -14 -22 -14 -25 0 -31 9 -3 48 -3 87 1 75 7 74 7 213 -60 28 -13 62 -24 76 -24 15 0 32 -7 39 -15 7 -8 23 -15 37 -15 40 0 63 -18 63 -50 0 -20 -6 -31 -20 -35 -30 -10 -24 -29 15 -48 19 -9 35 -23 35 -32 0 -22 11 -18 44 15 21 21 39 30 62 30 48 0 50 -15 7 -55 -21 -19 -48 -45 -60 -56 -23 -22 -53 -20 -53 4 0 8 -7 20 -15 27 -8 7 -15 21 -15 31 0 28 -17 23 -32 -8 -12 -26 -19 -28 -76 -31 -64 -3 -83 10 -39 28 12 4 39 24 59 43 l38 33 -29 22 c-25 18 -45 22 -142 24 -83 2 -113 0 -116 -9 -4 -10 21 -13 101 -13 88 0 108 -3 113 -16 11 -30 -23 -46 -129 -61 -141 -19 -220 -10 -259 28 -24 24 -29 36 -29 79 0 38 -4 50 -15 50 -16 0 -19 -13 -15 -77 2 -39 0 -43 -22 -43 -39 0 -69 -42 -71 -99 -1 -27 -5 -53 -9 -57 -5 -4 -3 -13 3 -21 6 -7 9 -22 6 -32 -3 -12 3 -27 14 -37 10 -9 19 -23 19 -31 0 -7 6 -16 14 -19 8 -3 16 -14 19 -25 3 -11 14 -19 26 -19 12 0 21 -4 21 -10 0 -5 11 -10 24 -10 14 0 31 -7 40 -15 8 -8 28 -15 43 -15 16 0 38 -7 49 -15 11 -8 41 -14 72 -15 35 0 54 -5 58 -14 3 -7 17 -13 32 -13 69 2 256 -14 261 -22 3 -5 20 -9 36 -9 114 1 205 -4 209 -11 8 -12 -50 -51 -75 -51 -11 0 -33 -6 -47 -14 -15 -7 -45 -22 -67 -32 -22 -10 -60 -35 -85 -54 -65 -52 -67 -53 -98 -30 -25 19 -33 20 -77 10 -27 -6 -54 -15 -60 -19 -5 -5 -58 -9 -116 -10 -84 0 -110 3 -119 14 -7 9 -21 13 -31 10 -10 -3 -38 3 -63 15 -25 11 -49 20 -54 20 -14 0 -75 32 -90 47 -7 7 -17 13 -22 13 -17 0 -170 161 -176 186 -3 13 -10 24 -15 24 -4 0 -11 17 -14 38 -3 20 -10 44 -14 52 -10 19 -8 180 2 198 5 6 18 12 30 12 29 0 53 15 38 24 -18 12 -13 32 11 43 l23 10 -22 12 c-19 10 -21 15 -12 35 13 28 50 48 69 36 20 -12 33 -1 20 15 -12 15 -6 35 11 35 6 0 24 -14 41 -30 31 -31 62 -32 34 -1 -22 24 -20 40 10 67 19 19 36 24 77 24 48 0 88 13 77 23 -11 10 -84 37 -100 37 -10 0 -20 -9 -23 -20 -6 -24 -65 -51 -93 -44 -10 3 -31 22 -46 43 -23 32 -25 41 -14 50 15 13 101 0 119 -18 19 -19 37 -12 37 13 0 29 10 34 71 35 33 1 51 -5 68 -20z m2065 -9 c24 -29 27 -30 53 -17 39 20 110 30 118 16 7 -10 -35 -78 -62 -100 -10 -9 -19 -9 -36 -1 -12 6 -31 12 -42 14 -14 2 -21 12 -23 31 -2 19 -8 27 -17 23 -44 -16 -101 -27 -121 -22 -58 15 -2 86 66 86 30 0 44 -6 64 -30z m-1139 -67 c50 -3 116 -1 148 5 52 8 59 7 68 -10 6 -10 9 -26 7 -35 -3 -15 -24 -16 -177 -16 -95 1 -178 6 -183 11 -15 15 12 64 31 57 9 -4 57 -9 106 -12z m995 -18 c102 -9 107 -11 115 -47 5 -18 9 -42 9 -52 2 -36 24 -27 46 19 12 25 28 45 36 45 18 0 17 -18 -1 -50 -17 -29 -19 -60 -5 -60 5 0 12 11 16 25 5 21 12 25 42 25 23 0 44 -8 59 -22 31 -29 29 -36 -14 -40 -52 -4 -56 -28 -4 -28 42 0 50 -7 30 -27 -20 -20 1 -35 37 -28 32 5 34 4 34 -20 0 -15 6 -33 14 -40 19 -19 22 -239 4 -233 -7 3 -15 26 -18 52 -5 46 -22 64 -28 29 -2 -10 -10 -23 -18 -29 -15 -12 -41 -130 -31 -140 14 -14 46 9 52 36 4 17 11 30 16 30 15 0 10 -57 -6 -64 -8 -3 -15 -13 -15 -23 -1 -18 -50 -62 -50 -44 0 5 -13 19 -29 31 -42 29 -50 7 -11 -30 l31 -29 -20 -20 c-12 -12 -25 -21 -31 -21 -5 0 -10 -5 -10 -11 0 -11 -39 -48 -52 -49 -4 0 -27 -13 -51 -30 -29 -20 -57 -30 -81 -30 -35 0 -47 12 -26 25 15 10 12 35 -6 42 -22 8 -34 -15 -22 -43 6 -12 8 -30 4 -40 -5 -14 -15 -16 -62 -10 -31 3 -61 3 -68 -2 -34 -26 -226 -46 -226 -24 0 12 88 35 110 29 11 -3 23 -1 26 4 3 5 0 9 -5 9 -19 0 -26 2 -60 16 -45 19 -48 18 -76 -12 -21 -23 -26 -24 -31 -10 -4 9 -17 16 -34 16 -17 0 -30 7 -34 16 -6 15 -8 15 -24 2 -15 -14 -41 -17 -162 -19 -27 -1 -121 11 -129 15 -10 7 -75 -16 -96 -34 -15 -12 -21 -12 -47 3 -16 9 -34 17 -39 17 -16 0 -10 -59 8 -68 14 -8 13 -11 -7 -17 -14 -4 -26 -3 -27 2 -2 6 -10 18 -17 28 -13 18 -14 17 -44 -3 -17 -12 -52 -25 -78 -29 -34 -4 -56 -15 -75 -34 -16 -16 -34 -27 -41 -24 -27 9 -88 -66 -88 -110 0 -35 19 -31 27 5 7 40 26 38 41 -3 17 -46 15 -57 -8 -57 -14 0 -26 -11 -35 -32 -15 -38 -12 -48 16 -48 13 0 19 -7 19 -24 0 -19 7 -26 30 -31 21 -5 30 -12 30 -27 0 -11 11 -31 24 -43 l24 -22 7 76 c3 42 5 120 3 174 -3 95 -2 99 22 117 14 11 34 20 46 20 11 0 29 7 40 15 21 16 124 21 124 5 0 -5 18 -15 41 -21 22 -7 45 -21 50 -31 11 -20 2 -214 -11 -238 -5 -8 -4 -22 1 -32 6 -11 6 -34 0 -60 -5 -24 -10 -83 -10 -133 0 -49 -4 -143 -9 -209 -10 -113 -11 -120 -38 -142 -16 -13 -39 -23 -51 -24 -12 0 -25 -4 -28 -10 -3 -5 -17 -10 -30 -10 -13 0 -27 5 -30 10 -3 6 -14 10 -24 10 -10 0 -28 11 -40 24 -21 22 -22 32 -23 180 0 112 -4 156 -12 153 -6 -2 -12 -21 -14 -42 -3 -30 -13 -48 -48 -81 -50 -49 -52 -54 -24 -54 11 0 20 5 20 11 0 14 25 39 39 39 22 0 10 -31 -15 -40 -21 -8 -25 -15 -20 -34 4 -16 -1 -32 -15 -50 -11 -14 -19 -32 -16 -39 3 -7 9 -1 15 13 l10 25 11 -28 c14 -37 14 -54 -1 -59 -7 -3 6 -8 30 -12 47 -7 60 -25 44 -60 -11 -25 -70 -60 -120 -71 -25 -5 -42 -1 -77 19 -24 14 -47 35 -50 46 -3 11 -10 20 -14 20 -21 0 -40 81 -42 174 -2 83 0 100 14 108 10 5 17 18 17 28 0 11 7 20 15 20 20 0 19 -24 -1 -44 -10 -11 -14 -30 -12 -58 3 -47 20 -58 28 -18 3 14 17 49 33 78 15 30 27 59 27 66 0 17 54 46 87 46 22 0 33 7 41 25 6 14 16 25 22 25 16 0 12 40 -5 46 -15 6 -119 -38 -148 -64 -11 -10 -15 -23 -11 -35 5 -16 3 -18 -18 -12 -54 17 -148 105 -173 163 -8 17 -18 32 -24 32 -5 0 -12 14 -16 30 -4 17 -14 44 -22 61 -12 25 -14 50 -10 115 6 82 19 117 58 156 10 10 24 27 33 40 14 19 19 21 36 10 27 -17 28 -16 36 23 6 31 8 34 35 28 25 -5 29 -2 29 16 0 18 4 21 20 16 13 -4 23 0 32 14 7 12 22 21 34 21 12 0 27 7 34 15 7 8 20 15 30 15 10 0 23 7 31 16 9 11 22 14 41 10 21 -4 31 -1 40 14 9 14 16 16 25 8 9 -7 17 -7 27 1 9 8 28 10 50 5 29 -5 36 -3 36 9 0 23 16 29 40 15 16 -10 22 -10 28 0 5 7 35 13 80 14 46 2 73 7 76 15 3 7 18 12 33 12 15 -1 96 2 178 5 83 3 186 7 230 8 44 2 83 7 87 12 3 5 35 10 69 12 36 1 65 7 67 13 2 6 16 11 32 11 34 0 121 82 139 132 7 18 17 41 22 50 12 24 12 128 -1 128 -5 0 -16 14 -25 30 -9 18 -23 30 -35 30 -11 0 -29 5 -40 12 -16 10 -23 8 -45 -16 l-26 -28 -144 4 c-98 2 -148 7 -157 16 -6 6 -20 12 -30 12 -17 0 -22 10 -19 36 2 17 -41 31 -81 26 -30 -3 -38 0 -48 18 -9 17 -9 29 -1 46 9 20 18 24 53 24 24 0 52 7 62 15 11 8 35 15 53 15 18 0 33 3 33 8 0 8 68 44 115 60 29 10 44 10 185 -3z m-1162 -61 c2 -11 -4 -27 -13 -34 -8 -7 -15 -19 -15 -27 0 -23 -50 -57 -95 -65 -85 -16 -80 -18 -83 40 l-3 52 44 0 c31 0 47 5 51 15 3 8 17 15 31 15 14 0 28 7 32 16 8 22 47 13 51 -12z m458 11 c4 -8 16 -15 29 -15 13 0 25 -7 28 -14 4 -10 24 -16 59 -18 l53 -3 -4 -55 c-1 -30 -4 -56 -6 -58 -2 -2 -20 4 -40 12 -21 9 -51 16 -67 16 -22 0 -33 8 -49 35 -12 19 -25 35 -30 35 -10 0 -12 63 -2 73 11 11 23 8 29 -8z m-144 -38 c57 -2 69 -6 87 -27 19 -23 20 -35 15 -187 -3 -143 -19 -352 -27 -359 -2 -2 -81 -4 -176 -4 -141 -1 -176 1 -188 13 -12 12 -16 63 -22 243 -9 266 -6 304 20 311 11 3 19 8 19 12 0 6 85 5 272 -2z m461 -172 c20 -16 37 -33 37 -37 0 -11 -58 -20 -89 -13 -18 4 -31 14 -35 28 -4 17 -8 19 -18 9 -9 -9 -7 -16 12 -34 29 -27 122 -35 153 -13 24 17 83 20 92 6 3 -5 19 -12 35 -16 49 -11 45 -24 -15 -51 -43 -20 -74 -26 -130 -27 -64 -1 -77 2 -113 26 -22 16 -42 37 -45 48 -5 17 -9 19 -26 10 -25 -14 -71 -14 -71 -1 0 6 -8 14 -17 17 -31 11 -63 47 -63 71 0 19 5 22 35 22 22 0 38 -6 41 -15 3 -8 14 -17 24 -20 10 -3 20 -15 23 -25 5 -21 27 -28 27 -9 0 16 39 63 58 70 18 7 25 3 85 -46z m-803 -42 c0 -41 -4 -50 -40 -83 -30 -28 -55 -40 -97 -49 -75 -15 -83 -14 -83 7 0 33 30 61 85 78 56 18 105 55 105 79 0 8 7 15 15 15 11 0 15 -12 15 -47z m515 5 c6 -12 17 -24 25 -28 8 -4 25 -12 37 -18 13 -7 32 -12 42 -12 27 0 71 -49 71 -79 0 -20 -4 -23 -27 -18 -113 22 -175 61 -187 118 -10 53 19 82 39 37z m-725 -11 c0 -13 -15 -38 -36 -58 -35 -33 -36 -34 -122 -34 -90 0 -182 25 -182 49 0 12 89 56 113 56 6 0 26 -9 42 -20 48 -31 139 -25 148 11 7 27 37 24 37 -4z m-470 -56 c51 -11 73 -25 118 -76 22 -25 46 -45 55 -45 22 0 37 -23 27 -40 -7 -12 -15 -12 -42 -3 -18 7 -51 15 -73 19 -22 4 -61 17 -87 31 -37 18 -48 29 -48 47 0 13 -7 29 -15 36 -8 7 -15 21 -15 32 0 16 4 19 23 13 12 -3 38 -10 57 -14z m1863 -23 c52 -25 25 -86 -57 -126 -34 -18 -65 -24 -122 -25 -97 -2 -106 13 -30 49 30 14 68 37 83 51 27 25 83 63 94 63 3 0 17 -6 32 -12z m-1362 -150 c22 -11 39 -22 39 -24 0 -12 -227 18 -254 34 -20 12 20 18 95 14 56 -3 94 -10 120 -24z m934 2 c0 -23 -49 -20 -53 3 -3 15 2 18 25 15 17 -2 28 -9 28 -18z m143 8 c-5 -15 -98 -24 -98 -10 0 17 14 22 58 22 30 0 42 -4 40 -12z m-1259 -398 c-9 -5 -28 -6 -45 0 -27 8 -26 8 16 9 32 0 40 -2 29 -9z m1028 -32 c7 -6 19 -4 32 3 26 17 47 -1 86 -72 25 -46 28 -61 27 -144 0 -84 -3 -97 -31 -147 -49 -90 -153 -203 -195 -214 -14 -3 -27 -12 -30 -20 -3 -8 -20 -14 -38 -14 -24 -1 -40 -9 -57 -30 -25 -30 -51 -30 -51 -1 0 9 -5 22 -12 29 -7 7 -13 47 -14 98 -2 82 -1 85 22 94 13 5 24 16 24 25 0 8 12 18 28 21 40 11 80 58 75 88 -3 14 -11 31 -19 37 -8 6 -14 28 -14 49 0 32 -4 39 -24 44 -27 7 -42 34 -26 50 17 17 12 25 -32 47 -24 12 -51 31 -60 43 l-18 21 -20 -25 -21 -25 3 25 c3 22 9 26 58 31 74 8 292 -1 307 -13z m-627 -78 c8 -5 12 -11 10 -13 -27 -22 -59 -37 -77 -37 -29 0 -29 7 0 35 24 25 44 30 67 15z m530 -579 c21 -16 22 -21 11 -35 -18 -22 -5 -33 20 -18 16 10 21 10 26 -4 3 -9 1 -24 -5 -33 -29 -40 -44 -91 -47 -156 -3 -69 -3 -70 -31 -70 -21 0 -30 -6 -32 -20 -6 -30 -18 -38 -57 -37 -32 1 -35 -1 -35 -28 0 -23 -5 -30 -19 -30 -20 0 -51 25 -51 41 0 5 -7 9 -16 9 -10 0 -13 -6 -9 -19 3 -12 0 -21 -10 -25 -22 -8 -20 -49 3 -42 9 3 46 7 81 8 l63 3 40 -45 c21 -25 42 -57 45 -73 3 -15 10 -30 14 -33 5 -3 9 -40 9 -83 0 -74 -1 -79 -36 -119 -37 -44 -96 -78 -113 -67 -18 10 -12 35 14 67 31 37 33 88 5 143 -11 22 -20 46 -20 55 0 9 -9 23 -20 33 -11 9 -20 24 -20 32 0 8 -8 15 -18 15 -10 0 -38 22 -63 50 -43 48 -71 61 -85 39 -3 -6 -17 -9 -31 -6 -14 3 -31 -2 -40 -12 -9 -9 -26 -20 -37 -26 -21 -10 -70 -70 -132 -160 -46 -67 -47 -122 -4 -158 42 -36 40 -57 -6 -57 -73 0 -159 106 -136 168 6 15 13 41 17 57 11 49 65 124 119 165 58 43 213 120 242 120 26 0 92 24 106 38 7 7 22 12 35 12 15 0 23 6 23 18 0 10 12 22 28 28 26 10 27 13 26 77 0 38 -6 73 -12 79 -16 16 -15 48 1 48 8 0 22 9 32 20 10 11 27 20 37 20 10 0 21 7 24 15 8 20 34 19 64 -4z m90 -161 c0 -30 -13 -40 -25 -20 -8 13 4 50 16 50 5 0 9 -13 9 -30z m-30 -79 c0 -27 -17 -35 -23 -11 -5 19 0 30 15 30 4 0 8 -9 8 -19z m-341 -302 c29 -15 41 -27 41 -43 0 -34 -30 -268 -35 -277 -3 -4 4 -10 15 -14 11 -3 20 -12 20 -20 0 -20 33 -78 53 -93 9 -7 17 -18 17 -23 0 -14 -85 -99 -99 -99 -6 0 -11 -4 -11 -8 0 -16 -83 -132 -94 -132 -12 0 -106 111 -107 126 0 5 -20 25 -44 44 -54 43 -63 65 -37 93 10 12 22 30 25 40 4 9 11 17 17 17 5 0 10 11 10 24 0 15 7 27 18 30 15 5 17 22 17 163 l0 157 35 24 c42 28 94 25 159 -9z"></path><path d="M4512 9048 c-17 -17 -15 -28 7 -28 19 0 35 23 24 34 -9 9 -18 7 -31 -6z"></path><path d="M4497 8861 c-41 -43 -44 -51 -22 -51 8 0 15 7 15 15 0 8 7 15 15 15 8 0 15 5 15 10 0 6 7 10 15 10 8 0 15 -4 15 -10 0 -5 7 -10 15 -10 8 0 15 -6 15 -14 0 -8 5 -18 10 -21 23 -14 8 24 -23 58 l-33 37 -37 -39z"></path><path d="M4445 8551 c-120 -16 -84 -38 66 -40 92 -1 149 6 149 19 0 18 -140 31 -215 21z"></path><path d="M3470 8919 c0 -19 44 -48 73 -49 16 0 36 7 45 16 13 13 32 15 106 12 95 -5 150 -25 161 -60 3 -9 12 -19 20 -22 10 -3 15 -20 15 -46 0 -22 5 -40 10 -40 6 0 10 18 10 40 0 22 -4 40 -10 40 -5 0 -10 9 -10 21 0 23 -38 69 -56 69 -6 0 -17 7 -24 15 -10 12 -43 15 -176 15 -112 0 -164 -3 -164 -11z"></path><path d="M3580 8866 c0 -3 23 -28 50 -56 l50 -51 0 -114 c0 -89 3 -114 14 -118 8 -3 16 -18 18 -33 2 -15 9 -29 16 -32 17 -5 15 43 -3 58 -12 10 -15 37 -15 124 -1 82 -5 116 -15 130 -8 11 -15 27 -15 36 0 20 -52 60 -80 60 -11 0 -20 -2 -20 -4z"></path><path d="M3860 8704 c0 -9 5 -14 12 -12 18 6 21 28 4 28 -9 0 -16 -7 -16 -16z"></path><path d="M5235 8919 c-4 -5 -18 -14 -31 -19 -13 -5 -37 -28 -54 -51 -25 -35 -29 -49 -26 -86 6 -71 26 -78 26 -9 0 49 4 62 27 87 16 16 35 29 45 29 9 0 18 6 20 13 3 8 33 12 103 12 70 0 99 -4 102 -12 3 -8 -5 -13 -19 -13 -26 -1 -55 -23 -81 -62 -13 -21 -17 -49 -17 -123 0 -52 4 -95 9 -95 15 0 21 29 21 102 0 61 3 74 26 102 32 38 70 61 112 71 30 6 52 29 52 54 0 15 -306 15 -315 0z"></path><path d="M3660 8321 c-21 -40 17 -69 66 -51 31 12 31 33 -1 54 -32 21 -52 20 -65 -3z"></path><path d="M3417 8203 c-12 -11 -8 -23 8 -23 8 0 15 7 15 15 0 16 -12 20 -23 8z"></path><path d="M3350 8135 c0 -8 7 -15 15 -15 8 0 15 7 15 15 0 8 -7 15 -15 15 -8 0 -15 -7 -15 -15z"></path><path d="M3330 8046 c0 -9 7 -12 21 -9 16 4 17 8 7 14 -19 13 -28 11 -28 -5z"></path><path d="M3155 7920 c-3 -5 -1 -18 5 -29 5 -11 10 -33 10 -49 0 -16 7 -35 15 -42 8 -7 15 -19 15 -26 0 -8 4 -14 9 -14 4 0 21 -18 36 -40 15 -22 31 -37 36 -34 14 8 11 46 -5 58 -26 20 -56 88 -46 105 6 13 0 25 -24 49 -36 35 -42 37 -51 22z"></path><path d="M3314 7669 c-6 -11 27 -49 56 -62 8 -4 22 -11 30 -16 88 -50 127 -49 65 1 -22 19 -34 36 -31 45 10 26 -3 32 -34 17 -32 -16 -50 -12 -50 12 0 17 -26 19 -36 3z"></path><path d="M3539 7561 c-28 -23 -16 -45 22 -39 18 2 24 9 24 27 0 32 -16 36 -46 12z"></path><path d="M3610 7505 c-12 -15 -8 -16 41 -13 63 4 72 22 13 26 -28 2 -45 -2 -54 -13z"></path><path d="M5305 8311 c-3 -5 -1 -13 5 -16 8 -5 7 -11 -1 -21 -18 -21 2 -36 42 -32 39 4 51 34 24 62 -18 17 -60 22 -70 7z"></path><path d="M5510 8190 c0 -13 5 -20 13 -17 6 2 12 10 12 17 0 7 -6 15 -12 18 -8 2 -13 -5 -13 -18z"></path><path d="M5130 8170 c0 -5 18 -10 40 -10 22 0 40 5 40 10 0 6 -18 10 -40 10 -22 0 -40 -4 -40 -10z"></path><path d="M5690 7643 c-1 -24 -17 -32 -48 -24 -28 8 -32 7 -32 -8 0 -10 -7 -24 -16 -32 -13 -10 -13 -14 -1 -20 17 -10 86 21 87 39 0 6 9 12 20 12 13 0 20 7 20 20 0 18 -30 30 -30 13z"></path><path d="M5540 7545 c-10 -13 -9 -15 9 -15 12 0 21 6 21 15 0 8 -4 15 -9 15 -5 0 -14 -7 -21 -15z"></path><path d="M4014 7039 c-8 -14 11 -33 25 -25 11 7 4 36 -9 36 -5 0 -12 -5 -16 -11z"></path><path d="M4104 6556 c-8 -21 3 -49 16 -41 5 3 10 15 10 25 0 25 -18 36 -26 16z"></path><path d="M4140 6462 c0 -24 39 -37 47 -16 6 18 5 19 -24 28 -19 6 -23 3 -23 -12z"></path><path d="M4225 6399 c-10 -16 1 -22 26 -14 17 6 19 9 8 16 -19 12 -26 11 -34 -2z"></path><path d="M4760 7312 c0 -22 27 -62 45 -64 11 -2 21 -10 21 -18 1 -8 2 -21 3 -27 2 -20 21 -15 21 5 0 30 -28 78 -55 96 -27 18 -35 20 -35 8z"></path><path d="M4727 6824 c-9 -10 2 -24 19 -24 8 0 14 7 14 15 0 15 -21 21 -33 9z"></path><path d="M4425 5891 c-16 -7 -13 -9 19 -15 46 -9 106 2 85 15 -17 11 -77 11 -104 0z"></path><path d="M4420 5831 l-35 -7 44 -7 c24 -4 65 -4 90 0 44 7 45 7 16 14 -37 8 -70 8 -115 0z"></path><path d="M4415 5771 l-40 -7 53 -7 c30 -4 75 -5 100 -1 45 8 46 8 17 15 -37 8 -77 8 -130 0z"></path><path d="M4438 5703 c17 -2 47 -2 65 0 17 2 3 4 -33 4 -36 0 -50 -2 -32 -4z"></path><path d="M4458 5643 c12 -2 30 -2 40 0 9 3 -1 5 -23 4 -22 0 -30 -2 -17 -4z"></path><path d="M1854 10246 c-6 -35 -7 -36 -45 -30 -32 5 -45 2 -73 -19 -62 -48 -56 -130 12 -170 28 -17 37 -17 62 -7 17 7 42 26 55 42 37 44 78 136 79 177 1 35 0 36 -41 39 -41 3 -42 2 -49 -32z m-36 -120 c5 -25 -12 -39 -37 -31 -26 8 -27 30 -3 44 22 13 36 9 40 -13z"></path><path d="M2091 10068 c-5 -12 -12 -31 -15 -42 -5 -15 -12 -17 -41 -12 -47 9 -87 -13 -109 -62 -16 -36 -16 -42 -3 -69 23 -43 40 -54 87 -55 65 -1 92 31 155 179 20 47 15 73 -14 73 -11 0 -26 3 -35 6 -10 4 -19 -2 -25 -18z m-53 -145 c-4 -34 -33 -43 -43 -14 -8 27 1 41 26 41 16 0 20 -6 17 -27z"></path><path d="M7230 10062 c0 -27 57 -76 89 -78 62 -3 141 -101 141 -174 0 -53 -37 -113 -87 -139 -52 -27 -57 -2 -13 62 17 25 30 57 30 71 0 41 -36 102 -72 124 -100 60 -169 50 -255 -35 -47 -48 -53 -58 -53 -96 0 -33 7 -51 31 -80 27 -33 35 -37 78 -37 82 0 120 61 96 157 -9 39 7 49 48 34 38 -15 46 -67 17 -126 -21 -44 -103 -125 -127 -125 -27 0 -23 -25 12 -76 21 -30 40 -54 44 -54 3 0 38 15 76 34 39 19 90 44 115 56 104 49 150 97 150 158 l0 34 55 -7 c69 -8 71 2 14 74 -32 40 -47 51 -69 51 -22 0 -34 9 -59 48 -59 92 -134 142 -213 142 -40 0 -48 -3 -48 -18z m-69 -253 c16 -31 -4 -71 -33 -67 -25 3 -45 45 -35 72 9 24 54 20 68 -5z"></path><path d="M1557 9983 c-4 -3 -7 -16 -7 -27 0 -12 -16 -39 -36 -61 -77 -86 -101 -143 -89 -215 5 -31 20 -53 62 -95 31 -30 64 -55 73 -55 21 0 50 60 50 104 0 22 13 53 37 90 37 56 60 68 85 43 7 -7 31 -24 53 -37 43 -26 64 -48 65 -67 0 -17 -30 -16 -54 2 -11 8 -37 15 -57 15 -31 0 -42 -6 -68 -39 -41 -51 -41 -89 0 -136 26 -30 38 -35 73 -35 35 0 49 7 89 43 45 40 107 146 107 182 0 29 -29 72 -69 104 -21 17 -42 31 -46 31 -4 0 -24 14 -45 30 -21 17 -42 30 -48 30 -5 0 -15 7 -22 15 -19 23 -26 19 -50 -27 -40 -78 -115 -187 -127 -188 -7 0 -15 11 -19 25 -7 29 22 79 85 149 21 22 41 49 44 58 12 33 -62 86 -86 61z m223 -383 c7 -14 6 -23 -6 -34 -33 -34 -86 -7 -65 32 19 35 53 36 71 2z"></path><path d="M6989 9561 c-16 -13 -24 -33 -28 -67 -5 -40 -10 -49 -30 -54 -35 -8 -49 -34 -29 -57 8 -10 19 -28 22 -40 9 -30 34 -36 65 -16 36 24 63 41 81 49 8 4 25 16 38 27 45 41 20 132 -45 166 -30 16 -47 14 -74 -8z m81 -77 c0 -19 -5 -24 -25 -24 -32 0 -45 28 -21 46 24 17 46 7 46 -22z"></path><path d="M7587 9529 c-31 -25 -37 -37 -37 -69 0 -30 6 -44 29 -62 16 -14 34 -34 40 -46 18 -34 -17 -29 -75 11 -61 42 -88 49 -122 32 -35 -17 -70 -32 -104 -45 -16 -5 -28 -15 -28 -21 0 -6 18 -48 39 -92 61 -126 93 -200 101 -227 6 -20 12 -24 36 -22 16 2 31 7 34 11 3 4 28 17 55 30 28 12 66 29 85 38 19 9 49 21 65 28 17 7 46 20 65 28 19 8 54 23 78 33 44 18 50 31 31 67 -31 59 -35 60 -118 17 -42 -21 -92 -45 -111 -53 -19 -8 -66 -27 -103 -43 -40 -16 -71 -24 -76 -18 -4 5 -19 35 -32 67 -17 44 -21 62 -13 75 18 28 78 27 139 -2 65 -31 75 -32 126 -6 54 28 99 92 99 142 0 70 -78 158 -141 158 -14 0 -41 -14 -62 -31z m94 -59 c27 -15 25 -58 -3 -69 -30 -11 -58 4 -58 32 0 23 17 47 33 47 4 0 17 -5 28 -10z"></path><path d="M1315 9470 c-36 -15 -82 -64 -111 -120 -27 -51 -29 -64 -29 -161 0 -117 6 -133 58 -143 25 -5 35 -2 47 14 15 19 18 18 145 -45 72 -36 133 -65 137 -65 12 0 50 87 46 107 -2 10 -16 20 -33 23 -17 4 -57 19 -90 34 -33 15 -76 34 -95 43 -19 8 -47 22 -62 29 -16 9 -38 12 -53 8 -23 -6 -25 -4 -25 30 0 20 9 54 20 75 19 37 63 81 81 81 5 0 51 -20 102 -45 52 -25 98 -45 104 -45 6 0 16 -7 23 -15 7 -8 20 -15 30 -15 10 0 23 -7 30 -15 23 -27 54 -18 73 24 9 20 17 45 17 55 0 9 -8 19 -17 22 -10 3 -31 12 -46 20 -16 7 -33 14 -38 14 -8 0 -45 16 -185 81 -42 20 -95 24 -129 9z"></path><path d="M1237 8559 c-9 -5 -26 -27 -37 -47 -11 -20 -31 -55 -45 -77 -13 -22 -24 -53 -25 -70 -1 -43 -13 -60 -30 -41 -16 20 -30 11 -30 -18 0 -13 -7 -29 -15 -36 -9 -7 -15 -29 -15 -52 0 -37 2 -39 28 -36 19 2 28 9 30 25 2 12 10 27 18 33 8 7 14 21 14 31 0 10 11 30 24 44 24 26 25 26 36 6 13 -25 45 -28 54 -5 3 9 6 50 6 92 1 42 7 94 14 114 17 48 9 58 -27 37z"></path><path d="M7760 8492 c0 -10 5 -23 12 -30 7 -7 14 -52 16 -103 l5 -91 -31 7 c-37 8 -42 0 -35 -53 5 -38 8 -42 34 -42 19 0 29 -5 29 -15 0 -11 12 -15 45 -16 25 -1 51 -2 58 -3 21 -2 18 38 -7 68 l-24 29 -28 -27 c-16 -14 -32 -26 -35 -26 -3 0 -5 17 -4 38 2 27 7 38 21 40 11 2 25 11 31 20 12 14 15 13 38 -8 14 -13 25 -32 25 -42 0 -11 7 -26 15 -34 8 -9 15 -24 15 -35 0 -28 38 -24 52 6 8 18 8 28 -1 39 -7 8 -16 27 -20 43 -6 21 -14 28 -32 28 -19 0 -25 6 -29 30 -6 37 -61 133 -96 169 -31 30 -54 34 -54 8z"></path><path d="M1268 8305 c-32 -18 -44 -50 -27 -71 26 -31 -3 -26 -32 6 l-31 33 -24 -29 c-26 -33 -32 -84 -10 -84 8 0 18 5 21 10 3 6 24 10 45 10 21 0 42 5 45 10 3 6 15 10 25 10 13 0 22 9 26 28 3 15 8 34 10 43 5 18 -5 49 -15 49 -3 -1 -18 -7 -33 -15z"></path><path d="M1063 8124 c-31 -34 -29 -60 3 -68 56 -14 82 22 54 75 -14 26 -31 24 -57 -7z"></path><path d="M1163 8128 c-15 -34 1 -70 29 -66 25 3 33 26 24 64 -8 31 -39 32 -53 2z"></path><path d="M1252 8108 c3 -39 6 -43 31 -46 31 -4 57 12 57 34 0 23 -38 54 -66 54 -23 0 -25 -3 -22 -42z"></path><path d="M7711 8103 l-22 -27 25 -19 c30 -22 32 -34 9 -59 -13 -15 -14 -23 -5 -44 7 -13 12 -33 12 -44 0 -24 15 -33 40 -25 26 8 26 43 -1 94 l-20 40 21 29 c29 39 24 76 -11 80 -19 2 -33 -5 -48 -25z"></path><path d="M7819 8099 c-9 -19 -9 -25 5 -35 27 -20 58 -6 54 25 -4 35 -42 41 -59 10z"></path><path d="M7912 8078 c3 -38 6 -43 29 -46 15 -2 32 5 44 18 18 20 18 21 -5 45 -13 14 -34 25 -47 25 -22 0 -24 -4 -21 -42z"></path><path d="M1072 8006 c-14 -31 -8 -48 29 -86 17 -17 29 -39 29 -54 0 -15 6 -26 13 -26 7 0 20 -24 29 -53 22 -72 81 -171 117 -196 56 -40 68 -17 25 51 -22 35 -26 49 -22 97 6 61 -5 106 -28 115 -25 10 -15 26 16 26 27 0 30 3 30 31 0 17 5 40 11 51 8 15 8 27 -2 44 -16 31 -39 31 -39 0 0 -13 -7 -29 -15 -36 -8 -7 -15 -27 -15 -44 0 -24 -8 -36 -35 -55 -20 -13 -38 -22 -41 -19 -3 3 -8 23 -11 44 -3 22 -12 43 -20 47 -7 4 -13 12 -13 18 0 5 -5 15 -10 22 -6 7 -16 20 -23 30 -12 18 -14 17 -25 -7z"></path><path d="M1130 8010 c0 -21 52 -80 71 -80 5 0 14 11 19 25 5 14 14 25 20 25 5 0 10 11 10 25 0 24 -3 25 -60 25 -54 0 -60 -2 -60 -20z"></path><path d="M7794 8021 c-11 -11 -2 -42 20 -66 21 -22 28 -25 45 -15 12 6 21 15 21 20 0 6 7 10 15 10 19 0 20 -19 0 -26 -8 -3 -17 -26 -21 -50 l-6 -45 -36 21 -35 21 -23 -28 c-26 -31 -28 -38 -24 -107 2 -46 -23 -116 -42 -116 -5 0 -8 -9 -8 -20 0 -28 31 -26 63 4 33 31 79 107 102 169 10 27 24 51 32 54 7 3 13 16 13 28 0 14 13 34 30 48 19 17 30 35 30 52 0 24 -3 26 -30 20 -25 -6 -30 -4 -30 13 0 17 -7 19 -56 18 -30 0 -57 -2 -60 -5z"></path><path d="M1480 7253 c-8 -2 -24 -9 -35 -14 -11 -5 -45 -16 -75 -24 -30 -9 -77 -22 -105 -31 -27 -8 -69 -19 -93 -24 -71 -16 -85 -27 -78 -63 4 -17 10 -35 15 -40 5 -5 37 3 73 17 36 14 69 26 74 26 5 0 21 6 35 14 44 23 76 27 88 12 10 -12 7 -17 -12 -28 -61 -32 -165 -93 -200 -115 l-38 -24 19 -32 c11 -18 24 -31 29 -30 115 24 277 31 288 13 3 -6 -2 -13 -12 -16 -10 -3 -31 -11 -48 -18 -38 -17 -163 -46 -193 -46 -21 0 -23 -4 -20 -42 3 -38 6 -43 30 -46 15 -2 38 4 50 12 12 9 30 16 40 16 9 0 32 6 50 14 71 29 185 64 243 74 l40 7 -3 50 c-1 27 -8 55 -15 62 -9 9 -46 10 -155 2 -186 -12 -203 -4 -104 53 31 18 75 43 97 56 22 12 55 29 73 37 36 17 37 25 20 90 -10 39 -16 45 -38 44 -14 0 -32 -3 -40 -6z"></path><path d="M7470 7231 c-5 -11 -10 -30 -10 -43 0 -21 8 -26 64 -41 35 -9 74 -17 85 -17 30 0 36 -24 17 -64 -9 -19 -16 -46 -16 -60 0 -23 -4 -26 -33 -26 -18 0 -42 7 -54 15 -11 8 -39 17 -61 21 -38 6 -42 4 -54 -21 -8 -19 -9 -31 -1 -43 10 -16 83 -41 181 -62 23 -5 51 -14 61 -20 11 -5 27 -10 36 -10 9 0 31 -6 48 -13 18 -8 50 -20 71 -27 37 -12 41 -11 58 10 10 12 18 30 18 41 0 24 -38 49 -75 49 -17 0 -53 7 -79 16 -41 14 -47 19 -41 38 4 11 11 40 17 64 5 24 17 46 25 49 9 3 43 -4 77 -16 94 -35 107 -36 123 -16 22 30 17 73 -9 80 -24 6 -46 12 -158 40 -36 9 -78 21 -95 26 -16 6 -48 15 -70 20 -22 6 -44 14 -49 20 -17 16 -65 10 -76 -10z"></path><path d="M7357 6842 c-10 -26 -25 -65 -34 -87 -8 -22 -19 -47 -24 -55 -16 -27 -27 -56 -31 -81 -2 -20 2 -25 34 -33 45 -11 66 2 70 46 4 40 30 58 55 37 10 -9 74 -40 143 -69 69 -29 127 -56 128 -61 2 -5 15 -9 28 -9 17 0 27 8 34 26 22 57 21 58 -110 109 -44 17 -66 26 -143 59 -21 9 -47 16 -57 16 -15 0 -20 7 -20 29 0 16 7 34 15 41 22 18 18 46 -7 64 -40 29 -61 20 -81 -32z"></path><path d="M1595 6767 c-66 -33 -83 -41 -200 -87 -126 -50 -145 -59 -145 -69 0 -14 34 -71 42 -71 4 0 46 18 93 40 47 22 88 40 90 40 3 0 35 14 72 31 116 52 133 59 148 59 22 0 27 18 15 55 -14 44 -33 44 -115 2z"></path><path d="M1710 6636 c-6 -8 -30 -24 -53 -36 -23 -12 -49 -25 -57 -30 -8 -5 -22 -11 -30 -15 -8 -3 -64 -32 -125 -63 -119 -62 -126 -72 -83 -119 l21 -22 31 23 c48 35 202 126 215 126 6 0 11 -7 11 -15 0 -8 -4 -15 -10 -15 -5 0 -10 -4 -10 -10 0 -10 -125 -176 -155 -206 -12 -12 -15 -26 -11 -47 12 -61 40 -71 90 -34 17 13 38 27 46 30 8 4 44 23 80 43 101 56 197 104 208 104 17 0 22 28 11 60 -14 38 -35 38 -91 1 -96 -64 -174 -111 -184 -111 -2 0 -4 10 -4 23 0 12 14 38 31 57 17 19 46 58 65 85 18 28 44 61 59 75 29 28 30 36 9 78 -17 34 -44 41 -64 18z"></path><path d="M7140 6403 c-11 -15 -19 -34 -18 -42 2 -9 48 -39 103 -66 86 -44 145 -75 224 -120 11 -6 25 -16 32 -22 8 -6 24 -14 37 -18 20 -6 25 0 48 47 14 29 34 67 44 83 11 17 28 46 39 67 l21 36 -37 22 c-20 11 -41 19 -48 16 -11 -4 -44 -66 -66 -123 -12 -31 -48 -30 -101 5 -74 47 -82 52 -106 62 -12 5 -47 26 -77 45 -31 19 -59 35 -64 35 -5 0 -19 -12 -31 -27z"></path><path d="M1880 6267 c-43 -32 -253 -170 -294 -193 -35 -19 -41 -39 -20 -67 23 -31 50 -34 78 -8 12 11 86 62 166 115 206 135 188 119 168 153 -23 39 -47 39 -98 0z"></path><path d="M7002 6187 c-12 -13 -22 -33 -22 -45 0 -12 28 -56 63 -99 34 -43 98 -126 142 -186 43 -59 83 -107 87 -107 17 0 48 41 48 63 0 13 -13 36 -30 52 -35 34 -38 55 -9 81 12 10 25 29 30 42 10 26 35 28 75 7 42 -22 57 -19 82 15 l22 30 -20 20 c-11 11 -30 20 -41 20 -21 0 -52 9 -189 56 -41 14 -88 29 -105 34 -16 4 -47 15 -67 24 -46 20 -40 20 -66 -7z m175 -108 c82 -30 88 -38 60 -77 -12 -17 -27 -32 -34 -32 -14 0 -93 98 -93 116 0 18 -1 18 67 -7z"></path><path d="M1967 6121 c-47 -22 -84 -56 -91 -86 -7 -26 5 -88 30 -158 23 -64 9 -97 -39 -97 -45 0 -77 34 -77 82 0 20 7 41 15 48 20 16 19 30 -4 58 -26 30 -34 28 -70 -15 -49 -59 -43 -125 17 -198 30 -36 78 -64 112 -65 38 0 99 34 126 71 28 38 30 76 8 134 -42 111 -38 155 16 155 50 0 68 -41 54 -121 -5 -31 -2 -39 17 -53 22 -15 25 -15 49 11 21 23 25 37 25 89 0 56 -3 66 -30 94 -56 59 -105 75 -158 51z"></path><path d="M6782 5905 c-45 -52 -87 -95 -92 -95 -23 0 -7 -31 33 -61 52 -41 245 -215 272 -246 20 -23 55 -32 55 -14 0 5 38 49 85 97 46 49 84 97 85 106 0 19 -48 60 -66 56 -7 -2 -36 -34 -66 -73 -30 -38 -59 -70 -64 -70 -16 0 -84 57 -84 71 0 7 25 35 55 62 65 60 72 93 26 116 l-28 15 -52 -69 c-28 -39 -58 -70 -65 -70 -8 0 -28 14 -45 32 l-31 32 72 73 71 74 -28 29 c-16 17 -34 30 -40 30 -6 0 -48 -43 -93 -95z"></path><path d="M2191 5884 c-12 -15 -21 -30 -21 -34 0 -4 16 -20 35 -34 31 -24 48 -66 27 -66 -4 0 -48 -39 -97 -86 -50 -47 -105 -97 -122 -111 -37 -28 -41 -48 -17 -81 27 -38 50 -27 147 75 151 158 156 163 166 163 5 0 21 -16 35 -35 15 -19 31 -35 36 -35 5 0 24 13 41 28 l32 29 -105 106 c-58 59 -112 107 -121 107 -9 0 -25 -12 -36 -26z"></path><path d="M6582 5707 c-12 -13 -22 -28 -22 -34 0 -6 27 -35 59 -65 67 -60 67 -64 3 -123 -45 -42 -66 -44 -89 -7 -10 15 -20 29 -23 32 -3 3 -16 20 -29 38 -17 25 -28 31 -43 26 -20 -6 -58 -39 -58 -50 0 -5 80 -96 188 -214 13 -14 44 -51 69 -82 25 -32 51 -58 58 -58 6 0 24 13 40 30 l28 29 -72 74 -71 74 49 46 c27 26 56 47 64 47 8 0 33 -24 55 -52 22 -29 49 -63 61 -76 l22 -22 29 22 c17 12 30 29 30 38 0 9 -26 43 -59 77 -81 85 -196 216 -216 247 -21 32 -45 33 -73 3z"></path><path d="M2393 5548 c-109 -136 -141 -174 -170 -203 -13 -12 -23 -32 -23 -45 0 -22 35 -59 56 -60 6 0 32 31 58 70 26 38 50 71 55 74 4 3 27 -12 51 -33 40 -34 43 -39 36 -73 -4 -20 -10 -38 -14 -40 -15 -6 -62 -70 -62 -83 0 -21 48 -68 62 -62 8 2 20 17 28 33 8 16 26 44 39 63 14 18 27 52 30 74 5 31 11 43 26 45 53 10 126 99 125 154 -1 28 -29 62 -95 114 -27 21 -61 49 -75 62 -14 12 -28 22 -31 22 -3 0 -47 -51 -96 -112z m165 -46 c23 -21 42 -44 42 -53 0 -19 -55 -79 -73 -79 -15 0 -107 58 -107 68 0 17 67 102 80 102 8 0 34 -17 58 -38z"></path><path d="M2757 5442 c-3 -4 -8 -47 -12 -97 -14 -190 -21 -219 -70 -290 -25 -37 -45 -72 -45 -80 0 -17 38 -45 62 -45 11 0 32 26 59 73 41 71 65 98 104 118 21 10 33 18 100 59 22 14 53 32 69 40 39 20 44 39 15 61 -38 29 -65 23 -136 -31 -36 -27 -70 -50 -74 -50 -19 0 -20 25 -4 90 9 37 15 78 13 90 -3 23 -73 76 -81 62z"></path><path d="M5950 5250 l-50 -49 0 -73 c0 -63 5 -82 32 -136 18 -35 48 -79 66 -98 34 -35 111 -74 146 -74 39 1 120 53 138 90 18 35 24 122 12 168 -8 29 -46 29 -74 0 -22 -24 -25 -40 -11 -66 13 -25 -10 -74 -43 -92 -25 -13 -31 -12 -64 5 -21 11 -54 45 -76 76 -33 49 -39 65 -40 114 -1 48 2 59 23 76 30 25 72 24 101 -1 13 -11 31 -20 42 -20 18 0 58 33 58 48 0 5 -10 17 -22 28 -48 42 -77 54 -133 54 -54 0 -58 -2 -105 -50z"></path><path d="M5713 5148 c-16 -8 -23 -20 -23 -40 0 -15 3 -28 8 -28 6 0 21 -29 68 -135 117 -268 109 -253 137 -248 38 7 64 40 50 61 -27 39 -117 236 -160 347 -21 53 -39 63 -80 43z"></path><path d="M3378 5093 c-44 -7 -114 -77 -147 -148 -25 -53 -31 -78 -31 -135 0 -86 19 -127 80 -169 62 -42 116 -42 181 0 79 50 120 134 126 255 4 69 1 86 -17 117 -36 60 -113 93 -192 80z m107 -114 c27 -26 26 -131 -1 -180 -54 -98 -117 -125 -169 -74 -20 21 -25 35 -25 79 0 77 43 166 95 195 26 14 75 4 100 -20z"></path><path d="M5408 5033 c-20 -5 -25 -52 -8 -69 9 -9 63 -149 80 -209 20 -67 53 -161 62 -171 9 -12 44 -8 63 7 16 12 132 49 154 49 30 0 43 31 28 69 -14 39 -42 40 -112 6 -27 -14 -55 -25 -61 -25 -18 0 -36 27 -45 68 -4 20 -27 92 -50 160 -40 115 -44 122 -68 121 -14 -1 -34 -3 -43 -6z"></path><path d="M3708 4988 c-3 -7 -11 -44 -17 -83 -14 -80 -35 -166 -58 -243 -9 -28 -17 -71 -17 -95 l-1 -42 45 0 45 0 6 65 c7 77 15 106 33 113 7 3 39 -4 71 -15 32 -10 63 -17 70 -14 7 2 15 19 19 38 7 38 -11 58 -53 58 -14 0 -43 5 -64 11 -37 10 -38 11 -31 47 10 54 21 63 63 56 20 -4 48 -13 63 -20 15 -8 38 -14 52 -14 21 0 27 7 37 41 15 50 13 52 -84 68 -40 7 -90 19 -112 27 -50 17 -62 18 -67 2z"></path><path d="M5140 4958 c-14 -5 -45 -13 -70 -17 -42 -6 -45 -9 -43 -36 1 -17 8 -55 16 -85 30 -111 40 -156 47 -205 10 -70 31 -145 41 -145 4 0 55 12 111 26 110 28 150 54 164 111 13 52 -27 153 -61 153 -9 0 -12 23 -11 79 1 71 -2 82 -23 105 -21 23 -32 26 -85 25 -34 0 -72 -5 -86 -11z m110 -88 c39 -39 20 -75 -53 -101 -33 -11 -39 -11 -54 3 -10 10 -17 34 -17 60 -1 46 -1 46 92 57 6 0 21 -8 32 -19z m39 -160 c10 -5 24 -24 31 -41 13 -30 12 -33 -18 -60 -25 -23 -42 -29 -76 -29 l-43 0 -12 56 c-7 30 -11 57 -9 58 4 4 80 24 96 25 7 1 21 -3 31 -9z"></path><path d="M4854 4907 c-3 -8 2 -49 10 -90 19 -92 21 -268 4 -285 -7 -7 -33 -12 -58 -12 -43 0 -47 2 -63 35 -10 22 -17 60 -17 98 0 92 -19 230 -34 245 -10 10 -19 10 -42 2 -36 -14 -45 -29 -33 -53 6 -10 13 -69 15 -130 6 -141 26 -216 69 -257 30 -29 38 -31 99 -31 78 0 122 22 151 74 16 30 17 48 11 153 -4 66 -10 151 -14 189 l-7 70 -43 3 c-30 2 -44 -1 -48 -11z"></path><path d="M4279 4901 c-8 -2 -17 -9 -21 -14 -3 -6 -7 -98 -7 -205 -1 -107 -4 -205 -7 -217 -7 -29 17 -47 58 -43 l33 3 5 85 5 85 56 -3 c108 -7 152 37 152 152 0 60 -4 78 -23 104 -15 20 -35 34 -54 37 -61 11 -184 21 -197 16z m175 -102 c31 -25 35 -72 8 -107 -15 -20 -26 -23 -68 -20 l-49 3 -3 59 c-2 32 -1 65 2 72 8 22 79 17 110 -7z"></path><path d="M7203 3479 c-23 -10 -55 -37 -72 -58 -28 -36 -31 -45 -31 -114 0 -74 0 -75 43 -119 58 -61 105 -75 200 -59 39 7 87 19 105 27 18 8 39 14 47 14 12 0 35 10 95 41 8 4 50 25 92 46 42 21 79 44 82 50 7 16 -54 133 -72 140 -7 3 -23 -4 -35 -15 -12 -11 -53 -37 -92 -57 -38 -21 -75 -42 -81 -47 -14 -11 -28 6 -44 55 -14 46 -41 72 -99 98 -53 23 -84 23 -138 -2z m100 -120 c27 -15 37 -28 37 -53 0 -46 -63 -73 -104 -43 -27 20 -18 78 14 94 31 15 27 15 53 2z"></path><path d="M750 2975 c-14 -8 -34 -14 -44 -15 -10 0 -41 -13 -68 -30 -26 -16 -50 -30 -53 -30 -2 0 -24 -13 -48 -30 -25 -16 -51 -30 -59 -30 -35 0 -48 -34 -48 -123 l0 -87 51 0 51 0 -3 -302 -4 -303 104 0 105 0 -3 350 c-1 192 -5 353 -7 357 -3 5 -18 8 -35 8 -40 0 -38 25 4 47 132 70 260 70 349 0 37 -30 40 -62 37 -417 l-4 -345 104 0 104 0 -2 374 c-2 401 -1 393 -56 462 -30 38 -105 85 -170 108 -74 26 -264 30 -305 6z"></path><path d="M1680 2975 c-14 -8 -33 -14 -42 -15 -23 0 -109 -87 -129 -130 -31 -67 -47 -146 -51 -245 l-3 -100 105 3 c101 3 106 4 130 31 14 16 35 33 47 40 24 12 243 16 244 4 0 -5 2 -80 5 -168 4 -175 -3 -211 -43 -221 -36 -9 -44 5 -34 60 15 82 -7 140 -71 186 -34 25 -50 30 -100 30 -129 0 -218 -80 -218 -197 0 -116 83 -199 230 -229 82 -18 127 -18 215 0 100 19 152 51 192 116 21 34 22 48 24 305 l1 270 -230 0 c-172 0 -234 -3 -244 -12 -19 -20 -38 -15 -38 11 0 13 15 40 34 61 l34 37 100 -1 c55 -1 112 -5 127 -11 30 -12 185 -13 201 -2 6 4 14 49 17 100 6 104 4 106 -66 77 -20 -8 -52 -15 -71 -15 -19 0 -61 7 -93 15 -74 19 -239 19 -273 0z m-40 -295 c17 -9 17 -12 3 -40 -21 -43 -47 -36 -51 13 -3 40 10 47 48 27z m136 -376 c13 -14 24 -36 24 -50 0 -30 -44 -74 -73 -74 -59 0 -92 100 -44 133 33 23 67 20 93 -9z"></path><path d="M2495 2965 c-137 -81 -162 -238 -55 -346 49 -49 96 -66 152 -54 21 5 33 3 39 -6 13 -21 11 -97 -3 -106 -7 -4 -40 -6 -73 -4 -54 2 -65 -1 -102 -28 -24 -17 -54 -49 -69 -72 -22 -35 -26 -52 -26 -120 0 -74 2 -82 34 -122 46 -59 62 -70 128 -91 56 -18 60 -18 116 -1 72 23 126 63 160 120 l25 43 111 -75 111 -74 144 -2 144 -2 0 480 0 480 -102 0 -103 0 2 -275 c1 -151 5 -326 8 -387 4 -62 4 -113 0 -113 -13 0 -50 23 -91 55 -22 18 -47 35 -55 39 -8 3 -28 15 -45 26 -16 10 -45 27 -63 36 -18 9 -36 22 -40 28 -4 6 -5 101 -4 211 3 185 2 204 -17 246 -11 25 -33 58 -47 73 -68 67 -200 87 -279 41z m155 -152 c59 -75 -51 -167 -115 -97 -14 15 -25 38 -25 52 0 68 97 99 140 45z m100 -434 c14 -22 35 -53 47 -68 16 -20 19 -31 12 -44 -16 -28 -47 -20 -74 21 -14 20 -32 47 -41 60 -14 18 -15 28 -6 47 16 36 34 31 62 -16z m-113 -91 c35 -33 32 -88 -7 -116 -37 -28 -77 -28 -107 0 -30 28 -32 89 -3 118 28 28 87 27 117 -2z"></path><path d="M3780 2973 c-83 -29 -150 -63 -186 -95 -52 -46 -94 -124 -94 -177 l0 -44 38 6 c20 3 65 9 99 13 59 6 63 9 81 43 29 57 150 121 228 121 65 1 146 -34 195 -83 l48 -47 3 -258 c2 -141 0 -261 -3 -265 -3 -4 -85 -9 -182 -11 -166 -4 -177 -3 -182 15 -14 44 6 64 62 59 37 -2 114 29 145 61 33 33 68 114 68 157 0 38 -42 122 -76 154 -56 51 -186 80 -218 48 -5 -5 -20 -10 -33 -10 -13 0 -42 -19 -72 -49 -45 -46 -50 -56 -60 -118 -13 -78 -20 -463 -8 -464 4 0 177 0 385 -1 l377 0 3 333 c2 282 0 341 -14 388 -32 110 -89 163 -244 222 -54 21 -303 22 -360 2z m148 -453 c32 -26 40 -75 16 -101 -42 -47 -99 -47 -127 1 -24 39 -21 57 12 91 34 33 66 37 99 9z"></path><path d="M4687 2971 c-71 -34 -137 -136 -137 -214 0 -36 40 -115 77 -149 38 -37 79 -50 138 -46 l50 3 0 -270 1 -270 120 2 120 1 106 71 c59 39 110 75 113 81 3 5 17 10 29 10 19 0 25 -7 31 -36 10 -56 79 -117 155 -138 58 -17 64 -17 113 0 70 23 142 98 151 156 9 52 -2 126 -23 158 -21 32 -49 60 -60 60 -5 0 -14 7 -21 15 -8 10 -31 15 -71 15 -32 0 -60 3 -62 8 -3 4 -2 127 2 275 3 147 5 272 3 277 -4 12 -199 14 -205 3 -2 -5 -1 -129 2 -278 6 -262 6 -271 -14 -288 -11 -10 -29 -22 -40 -28 -11 -5 -33 -18 -50 -29 -16 -11 -37 -23 -45 -27 -21 -10 -70 -44 -100 -70 -13 -13 -35 -23 -49 -23 -21 0 -23 3 -16 33 14 64 18 499 5 554 -15 60 -57 111 -117 142 -53 26 -151 27 -206 2z m141 -154 c44 -41 10 -127 -51 -127 -89 1 -109 120 -26 153 21 8 51 -2 77 -26z m637 -431 c18 -13 16 -17 -36 -70 -29 -31 -56 -56 -60 -56 -3 0 -13 6 -23 13 -16 12 -17 17 -6 38 14 27 79 88 96 89 5 0 19 -6 29 -14z m139 -117 c30 -36 31 -40 11 -80 -19 -36 -55 -52 -88 -40 -62 24 -76 84 -31 126 37 35 76 32 108 -6z m-604 -96 c0 -18 -41 -28 -51 -12 -10 16 -12 43 -3 52 9 8 53 -25 54 -40z"></path><path d="M5961 2968 c-101 -46 -160 -137 -196 -300 -25 -110 -26 -109 97 -106 l103 3 -2 45 c-3 57 22 148 49 177 50 54 162 51 203 -5 19 -26 20 -44 21 -392 l2 -365 103 0 102 0 -2 380 c-2 366 -3 382 -24 425 -27 57 -93 121 -143 139 -23 8 -87 15 -154 17 -99 3 -121 0 -159 -18z"></path><path d="M6760 2969 c-141 -74 -169 -257 -54 -358 48 -42 109 -60 154 -46 30 9 40 -8 40 -67 0 -32 -4 -48 -12 -49 -7 0 -40 0 -73 1 -53 1 -66 -3 -103 -29 -23 -17 -53 -49 -67 -71 -21 -34 -25 -51 -25 -121 0 -76 2 -84 32 -123 47 -59 66 -72 129 -91 54 -17 60 -17 115 0 73 23 126 63 160 121 l26 44 38 -30 c21 -16 40 -30 43 -30 3 0 36 -20 72 -45 l67 -46 139 -3 c77 -1 142 1 145 5 2 4 5 221 5 481 l0 473 -97 3 c-54 1 -100 -1 -104 -5 -3 -4 -3 -179 0 -388 4 -209 6 -381 5 -383 -4 -5 -51 23 -90 54 -22 17 -47 34 -55 37 -8 4 -28 16 -45 27 -16 11 -37 23 -45 27 -8 3 -26 15 -39 25 l-24 18 2 196 c2 167 0 203 -16 246 -20 56 -59 98 -118 128 -51 26 -155 26 -205 -1z m145 -150 c28 -27 25 -82 -5 -108 -35 -29 -74 -27 -105 6 -31 34 -32 73 -2 100 40 37 75 38 112 2z m99 -431 c7 -18 25 -46 40 -61 30 -32 34 -65 9 -74 -19 -7 -66 42 -98 101 -16 29 -17 37 -6 50 21 25 39 19 55 -16z m-104 -100 c45 -48 3 -138 -65 -138 -66 0 -102 93 -55 140 28 28 93 27 120 -2z m570 -114 c0 -9 -7 -14 -17 -12 -25 5 -28 28 -4 28 12 0 21 -6 21 -16z"></path><path d="M7930 2968 c-64 -29 -122 -94 -149 -166 -40 -105 -20 -245 45 -313 31 -33 93 -69 119 -69 24 0 18 -22 -16 -59 -42 -46 -79 -107 -79 -129 0 -10 -4 -22 -10 -28 -10 -10 -33 -164 -26 -172 3 -2 179 -4 393 -4 l388 0 3 481 2 482 -106 -3 -106 -3 1 -402 2 -403 -170 0 -171 0 0 37 c0 32 8 44 55 89 40 38 66 54 94 59 l39 6 4 76 c2 41 0 80 -4 86 -4 6 -20 4 -47 -7 -54 -21 -100 -20 -130 3 -36 28 -22 51 31 51 84 1 167 93 168 185 0 85 -51 169 -126 205 -53 26 -143 25 -204 -2z m165 -144 c35 -37 32 -76 -6 -108 -17 -14 -40 -26 -51 -26 -26 0 -78 53 -78 80 0 30 53 80 85 80 15 0 36 -11 50 -26z m-179 -159 c4 -9 14 -14 22 -13 10 2 24 -11 36 -34 17 -30 18 -40 8 -62 -15 -34 -28 -33 -62 4 -27 29 -47 91 -35 110 9 15 25 12 31 -5z m144 -207 c0 -4 -7 -8 -15 -8 -10 0 -15 10 -15 28 1 26 1 26 15 8 8 -11 15 -23 15 -28z"></path><path d="M550 1550 c-12 -8 -9 -434 3 -442 15 -9 194 1 247 14 47 12 72 32 105 83 17 25 20 48 20 130 0 89 -3 104 -24 136 -45 66 -72 76 -215 80 -70 2 -131 2 -136 -1z m216 -90 c51 -20 64 -45 64 -131 0 -77 0 -78 -37 -109 -34 -27 -44 -30 -93 -28 l-55 3 -1 130 c0 72 1 133 3 138 6 11 87 9 119 -3z"></path><path d="M1013 1553 c-5 -2 -8 -102 -7 -224 l0 -221 165 -1 164 -2 3 39 c2 22 -2 42 -8 46 -7 4 -61 5 -120 2 l-107 -5 -6 29 c-3 15 -3 44 0 62 l6 34 98 -7 c92 -6 98 -5 109 14 8 15 8 27 0 42 -11 19 -17 20 -110 14 l-98 -7 -7 31 c-3 17 -3 40 0 52 7 21 11 22 110 17 56 -3 108 -3 114 1 6 4 14 21 17 39 5 24 3 33 -10 38 -16 6 -297 12 -313 7z"></path><path d="M1930 1548 c-11 -4 -20 -16 -20 -27 0 -11 -6 -35 -14 -53 -15 -34 -38 -95 -63 -163 -8 -22 -21 -53 -29 -68 -8 -16 -14 -34 -14 -42 0 -7 -7 -18 -15 -25 -8 -7 -15 -25 -15 -41 0 -28 2 -29 44 -29 49 0 76 24 76 67 0 39 22 50 101 49 l72 -1 16 -45 c23 -65 28 -70 72 -70 36 0 39 2 39 29 0 16 -6 42 -14 58 -26 52 -46 104 -46 118 0 8 -7 31 -16 52 -9 21 -22 52 -29 68 -7 17 -18 49 -26 73 -7 24 -17 46 -22 49 -14 8 -75 9 -97 1z m84 -185 c25 -80 24 -83 -33 -83 -28 0 -52 4 -55 9 -9 13 20 100 40 122 21 24 27 18 48 -48z"></path><path d="M2235 1545 c-8 -7 -9 -44 -3 -140 4 -71 5 -164 2 -206 -7 -86 3 -102 58 -97 l33 3 0 80 c0 44 4 85 8 92 8 13 126 6 142 -8 5 -5 14 -44 20 -87 l11 -77 43 -3 c24 -2 47 0 52 5 4 4 4 38 0 74 -6 59 -14 80 -55 133 -5 7 3 24 23 45 41 44 41 84 1 140 -17 23 -36 44 -43 46 -27 9 -281 9 -292 0z m245 -85 c11 -11 20 -31 20 -45 0 -45 -32 -65 -104 -65 -70 0 -76 5 -76 65 0 60 6 65 76 65 51 0 68 -4 84 -20z"></path><path d="M2640 1552 c-16 -6 -12 -59 6 -76 12 -12 27 -15 68 -10 40 5 54 3 58 -7 2 -8 2 -84 -2 -169 -3 -85 -3 -163 2 -172 6 -13 21 -18 54 -18 l45 0 -1 173 c-1 94 -1 178 -1 186 1 11 13 12 56 7 47 -5 56 -4 65 13 12 23 14 71 3 71 -97 3 -346 4 -353 2z"></path><path d="M3389 1550 c-11 -7 -39 -86 -39 -110 0 -10 -7 -31 -15 -46 -8 -16 -15 -40 -15 -54 0 -30 -27 -73 -43 -67 -6 2 -16 25 -23 53 -7 27 -17 65 -23 84 -6 19 -17 58 -24 85 l-14 50 -72 3 -71 3 -2 -191 c-1 -104 -2 -205 -2 -222 -1 -32 0 -33 48 -36 l48 -3 -3 143 c-4 123 -2 143 12 146 11 2 19 -10 26 -40 6 -24 18 -68 28 -98 9 -30 19 -73 23 -95 6 -31 13 -42 35 -49 51 -18 58 -8 103 149 9 33 23 74 31 92 7 17 13 36 13 42 0 6 7 11 16 11 15 0 16 -16 13 -147 l-4 -148 44 0 45 0 0 222 1 222 -64 3 c-34 2 -67 1 -72 -2z"></path><path d="M3750 1552 l-145 -3 1 -215 c1 -118 4 -217 7 -221 4 -3 77 -6 162 -7 168 -2 175 0 175 53 0 31 -17 35 -135 36 l-110 0 0 55 0 55 105 0 105 0 0 35 0 35 -105 0 -105 0 0 45 0 45 105 1 c58 0 111 4 118 8 14 8 17 76 3 76 -5 0 -15 1 -23 3 -7 1 -78 1 -158 -1z"></path><path d="M4015 1550 c-5 -8 -9 -315 -5 -436 0 -12 10 -14 43 -12 l42 3 -3 138 c-2 125 -1 137 15 137 10 0 23 -10 29 -23 17 -35 64 -119 85 -152 10 -16 24 -42 30 -58 6 -15 19 -32 29 -37 26 -14 87 -12 92 3 2 6 1 109 -2 227 l-5 215 -33 3 c-35 4 -63 -12 -57 -31 2 -7 6 -65 10 -129 5 -110 5 -118 -12 -118 -11 0 -24 12 -30 28 -7 15 -25 50 -42 77 -16 28 -42 73 -56 100 -15 28 -30 53 -34 57 -12 13 -89 19 -96 8z"></path><path d="M4428 1542 c-7 -8 -8 -23 -1 -45 9 -32 9 -32 66 -29 42 3 57 0 58 -10 0 -7 0 -91 -1 -185 l-1 -173 49 0 c31 0 52 5 55 13 2 6 1 84 -2 172 -4 94 -3 165 2 173 7 9 27 10 72 6 l62 -6 6 32 c13 62 8 63 -183 64 -127 1 -174 -2 -182 -12z"></path><path d="M5194 1539 c-25 -13 -53 -40 -72 -69 -30 -45 -32 -55 -32 -135 0 -75 3 -92 26 -130 16 -27 44 -56 75 -75 42 -25 59 -30 115 -30 86 0 146 36 185 112 26 51 27 196 2 241 -22 39 -71 86 -101 98 -44 17 -154 10 -198 -12z m164 -73 c43 -23 62 -65 62 -136 0 -59 -3 -69 -31 -103 -30 -37 -33 -38 -87 -35 -50 3 -58 7 -84 39 -95 117 17 304 140 235z"></path><path d="M5705 1551 c-122 -6 -130 -7 -128 -26 11 -99 13 -245 5 -315 -12 -103 -7 -112 57 -108 l46 3 0 95 c0 109 -11 101 116 86 l67 -7 4 33 c9 56 5 58 -99 58 l-94 0 3 48 3 47 105 0 105 0 0 45 c0 53 15 50 -190 41z"></path><path d="M6225 1550 c-9 -14 -9 -425 -1 -439 4 -6 27 -11 52 -11 l44 0 0 105 0 106 88 -3 87 -3 0 -100 0 -100 47 -3 47 -3 3 218 c2 121 -1 224 -6 231 -6 8 -25 12 -50 10 l-41 -3 4 -81 c1 -45 -1 -84 -5 -87 -5 -3 -45 -7 -89 -8 l-80 -4 -5 90 -5 90 -42 3 c-22 2 -44 -2 -48 -8z"></path><path d="M6682 1545 c-4 -5 -5 -106 -2 -224 l5 -214 160 -1 160 -1 3 43 c2 29 -1 42 -10 42 -7 1 -60 2 -118 3 l-105 2 0 55 0 55 105 0 105 0 0 35 0 35 -108 -3 -108 -4 3 49 3 48 115 0 115 0 0 45 0 44 -158 1 c-95 0 -161 -4 -165 -10z"></path><path d="M7192 1546 c-5 -6 -15 -29 -22 -51 -7 -22 -19 -53 -26 -70 -12 -29 -31 -79 -61 -160 -8 -22 -21 -55 -29 -73 -8 -18 -14 -46 -14 -62 0 -28 2 -30 40 -30 35 0 42 4 51 28 39 97 30 90 110 88 80 -1 84 -4 106 -81 7 -26 14 -30 47 -33 63 -5 69 0 50 50 -8 24 -22 55 -30 70 -8 14 -14 31 -14 38 0 7 -6 26 -14 43 -8 18 -16 41 -19 52 -3 11 -15 45 -27 75 -12 30 -25 68 -27 83 -6 31 -9 33 -70 40 -25 3 -46 0 -51 -7z m92 -204 c8 -28 11 -53 8 -56 -3 -3 -27 -6 -54 -6 -44 0 -48 2 -48 24 0 13 7 37 15 52 8 16 15 36 15 45 0 54 46 13 64 -59z"></path><path d="M7494 1547 c-2 -7 -3 -108 -2 -225 l3 -213 150 -3 c82 -2 155 -1 162 1 17 7 17 82 1 85 -7 1 -58 3 -113 3 l-100 0 0 175 c0 105 -4 178 -10 182 -17 13 -85 9 -91 -5z"></path><path d="M7819 1544 c-4 -5 -6 -27 -2 -48 l6 -38 66 4 66 3 0 -180 0 -180 50 0 50 0 0 180 0 180 59 0 c59 0 60 0 68 34 6 20 6 37 0 43 -14 14 -351 16 -363 2z"></path><path d="M8246 1551 c-3 -5 -7 -107 -8 -227 l-3 -219 48 -3 c33 -2 47 1 48 10 1 7 2 54 3 103 l1 90 85 0 85 0 1 -90 c1 -49 2 -96 3 -103 1 -9 15 -12 48 -10 l47 3 0 225 0 225 -50 0 -49 0 4 -87 3 -88 -92 0 -92 0 3 78 c2 42 0 83 -4 90 -9 14 -73 17 -81 3z"></path><path d="M1402 1328 l3 -223 45 0 45 0 -3 77 c-2 55 0 78 10 84 7 5 50 8 95 9 73 0 84 3 105 25 65 67 65 169 -2 227 -23 21 -35 22 -163 23 l-137 0 2 -222z m239 123 c26 -32 24 -58 -8 -87 -23 -21 -35 -24 -82 -22 l-56 3 -3 54 c-5 81 -2 84 70 79 48 -4 65 -9 79 -27z"></path></g></svg>