<svg xmlns="http://www.w3.org/2000/svg" id="Layer_1" data-name="Layer 1" viewBox="0 0 878 270.71"><defs><style>.cls-1{fill:#fff;}</style></defs><path class="cls-1" d="M483.25,143.5c-1.12,2.91.34,5.38,3.37,5.72l3,.34.22,54.61c.22,66,.45,60-2,63.26-3.92,5.16-9.87,7.06-21.87,6.95-10.09-.11-11.21-.34-14.91-3.25-7.18-5.5-7.41-7-7.41-44.75,0-18.51-.33-35.67-.67-37.91-2.13-12.67-22.88-18.95-32.19-9.76-2.58,2.7-3.14,3.93-2.46,6.4.78,3.47,4.59,6.84,7.62,6.95,1.24,0,3.59-1,5.5-2.35s3.59-2.14,3.92-1.8.45,17.61.45,38.36l-.22,37.79,3.81,4.6c5.61,6.73,15.25,11.22,28.49,13,10.2,1.46,27-.11,31.17-2.92a9,9,0,0,1,3.59-1.45c3,0,10.55-5.84,13.46-10.43l3.14-4.71.56-56.08.56-56.08,3-.33c3.25-.34,5.27-4.15,3.37-6.06C515.1,141.93,483.93,141.82,483.25,143.5Z" transform="translate(-13 -142.29)"></path><path class="cls-1" d="M131.88,151.35c-2.58,3.14-16.26,18.84-18.5,21.2-5.72,6.39-24.12,26.13-26.47,28.37-1.57,1.57-8.08,8.75-14.47,15.81S59.54,231,58,232.55,48.78,242.19,41,250.49s-17.16,18.28-21,22.21S13,280.44,13,281.11s5.16,6.62,11.55,13.12c10.32,10.66,22.54,23.67,45.09,48.11,4.26,4.6,9.08,9.76,10.65,11.33,4.49,4.71,27,28.94,34.21,36.9,3.7,4,8.3,9.08,10.32,11.21s4.82,5.61,6.28,7.52,3,3.7,3.7,3.7,3.7-2.92,6.73-6.39,6.95-8.08,8.86-10c3.25-3.37,5.83-6.17,22.43-24.12,13.9-15,33.53-36,37.57-40.15,2.13-2.35,9-9.64,15.14-16.48s15.81-17.05,21.53-22.88,10.43-11.22,10.43-12.11-3.92-5.39-8.63-10.21-13.8-14.24-20-21c-15.92-17.27-26.47-28.6-29.72-32-7.18-7.51-15-16-25.79-27.92-6.4-7.07-12.9-14.25-14.47-15.82-5-5.15-17.83-19.4-20.3-22.65-1.35-1.68-2.8-3-3.25-3S133.34,149.67,131.88,151.35Zm6,18.62a119.19,119.19,0,0,1,1.9,18.84,87.14,87.14,0,0,0,1.68,15,64.43,64.43,0,0,1,1.69,12.56A101.76,101.76,0,0,0,144.78,231a102.2,102.2,0,0,1,1.68,14.91,76.54,76.54,0,0,0,1.8,13.46c2.24,8.86,2.91,45.76.89,48.34-.67.9-1.57,7.4-2,14.58-.33,7.51-1.34,14.8-2.35,17.05-1.12,2.58-1.68,7.73-1.68,14.24,0,5.61-.56,11.21-1.24,12.45s-1.46,6.95-1.79,12.56c-.67,10.88-3.59,24.45-5.39,24.56-1.34,0-3.36-13.46-5-32.19-.67-7.4-1.68-13.9-2.25-14.46s-1.12-5.84-1.12-11.56c0-6.5-.67-12.33-1.79-15.59-1.68-5-3.25-19.62-4.49-42.84a61.59,61.59,0,0,1,1.12-18.17,74.85,74.85,0,0,0,1.8-14.24,77.14,77.14,0,0,1,1.68-13.23,64.44,64.44,0,0,0,1.68-12.45,70.47,70.47,0,0,1,1.24-11.78c.67-3.36,1.68-11.33,2.24-17.83s1.46-16.37,2-21.87,1.12-11.78,1.12-13.79c.11-2.25.67-3.59,1.57-3.59S136.59,162.9,137.83,170Zm11.55,9.53c-1.35,1.35-2.13,1.46-3,.56-1.8-1.79-.34-3.59,2.47-2.92C151,177.71,151,177.93,149.38,179.5Zm-24.9,3.14c2.24,2.24,1.34,3.81-2.24,3.81-3.37,0-3.37.12.11,5.16,2.13,3,2.8,5.61,2.8,9.87s-.33,5.27-1.12,4a8.41,8.41,0,0,1-1.12-3.59c0-2.24-9.65-12.11-11.89-12.11-2.47,0-1.79-2.25,1-3.25a14.29,14.29,0,0,0,4.6-3.37C119.21,180.4,122.12,180.17,124.48,182.64Zm32.64,3.81c0,.9,1.34,2.36,3.14,3.14,3.25,1.57,4,3.59,1.34,3.59a1.72,1.72,0,0,0-1.68,1.68c0,.9-.45,1.69-1.12,1.69-1.91,0-5.61,3.81-5.61,5.72a5.16,5.16,0,0,1-1.68,3.25c-.9.78-1.68,3.25-1.68,5.61s.78,4.82,1.68,5.6,1.68,3.26,1.68,6.06a20.11,20.11,0,0,0,1.68,7.74,31.42,31.42,0,0,1,2.36,8.86,35.28,35.28,0,0,0,2.24,8.63,16.67,16.67,0,0,1,1.57,7c0,2.13.56,4.48,1.23,5.16s1.46,4,1.8,7.51,1.34,6.84,2.13,7.52c1.57,1.34,2.13,6.72.9,8.07-.45.34-2.13,0-3.93-1-3.36-1.68-3.92-3-4.82-11.66-.79-7.74-3-19.41-4.15-21.87-1-2.25-2.69-11.55-4.26-23.55a51.86,51.86,0,0,0-2.13-9.87,17.37,17.37,0,0,1-1.35-5.72c0-3.82,4-12.34,7.29-15.37,3.37-3.25,3.48-4.37.56-4.37-2.47,0-6.73,3.81-8.63,8-1.24,2.47-1.35,2.36-1.35-2.35-.11-7.74,3.25-11.33,10.54-10.77A2.14,2.14,0,0,1,157.12,186.45Zm-46.66,5.61c2.24,0,9.08,9.2,9.08,12.11a8.9,8.9,0,0,0,1.69,4.26c1.9,2.58,2.24,10.88.33,14.25a37.23,37.23,0,0,0-2.13,9.19c-1.57,11.67-3.47,21.2-4.48,23.22a17.64,17.64,0,0,0-1,6.17,35.75,35.75,0,0,1-1.69,8.75,28,28,0,0,0-1.68,7.62,3.81,3.81,0,0,1-2.8,4.15c-3.7,1.35-3.59,2.13,1.23,6.28,4.49,4,4.15,2.69,8.3,38,1.35,11.11,2.92,24.45,3.7,29.72,1.46,10.43,1.68,18.51.68,19.52-1.57,1.57-8.19-3.59-20.87-16.71C93.19,351,87,344.36,87,344s-3.14-3.82-7-7.74-11.55-12.11-17.16-18.06-11.78-12.56-13.68-14.69-3.71-4.15-3.71-4.6-2-2.91-4.48-5.38-4.38-5.27-4.49-6.28,1.68-2.69,3.7-3.82c3.14-1.68,4.15-1.79,6.4-.56,3,1.57,22.2,2.36,23.1.9a4.12,4.12,0,0,1,2.8-.9c1.57,0,2.13-.78,2.13-2.8,0-1.57.79-3.14,1.69-3.48a3.23,3.23,0,0,0,1.68-2.69,6.81,6.81,0,0,1,1.68-3.81,5.66,5.66,0,0,0,1.68-2.92A12,12,0,0,1,83,262.94c.79-1.68,3-6.28,4.83-10.32s5.15-11.1,7.4-15.81,4.15-9,4.15-9.65a4.63,4.63,0,0,1,1.68-2.58c2-1.68,2.24-7.06.34-6.5a3.86,3.86,0,0,0-1.91,2.69,5.53,5.53,0,0,1-1.12,2.69c-.79.56-7.29,12.79-11.22,21-.89,2-2.13,3.7-2.58,3.7s-.89,1-.89,2.13-.45,2.58-1.13,2.91-2.46,3.7-4.15,7.29-3.47,6.73-3.92,6.73-.9.9-.9,2.13a5.37,5.37,0,0,1-1.68,3.48,5.11,5.11,0,0,0-1.68,3.25c0,2.47-4,6.84-6.28,6.84-1.91,0-3.26-2.8-2.25-4.82.34-.67,1.69-2.91,2.92-4.71A38.55,38.55,0,0,0,68,267.2a12.81,12.81,0,0,1,2-3.36,10.81,10.81,0,0,0,2.13-3.37c.79-1.57,2.92-5.38,4.83-8.41a86.7,86.7,0,0,0,4.59-8.75c.68-1.68,1.69-3,2.14-3s1.34-1.13,1.79-2.58a34.33,34.33,0,0,1,3.93-7.29c1.79-2.69,3.25-5.39,3.25-5.95a5.44,5.44,0,0,1,1.68-2.8c1.91-2,2.24-4.94.56-4.94-.67,0-1.68,1.13-2.24,2.47a46.81,46.81,0,0,1-4.82,8.08c-.45.67-3.93,6.05-7.74,11.88-12.23,19.07-17.61,27.48-18.51,28.72a52,52,0,0,0-4.82,7.73c-2.13,4.6-5.27,7.63-7.18,7-2.24-.9-2.35-6.28-.11-7.07a2.82,2.82,0,0,0,1.68-2.24,3.17,3.17,0,0,1,1.46-2.36,5.5,5.5,0,0,0,2.24-2.58c1.24-2.58,17.27-26.69,18.73-28,1.12-1.13,5.61-7.74,5.61-8.42a4.77,4.77,0,0,1,1.46-2.13c.67-.89,2.13-2.69,3-4s2.58-3.7,3.7-5.05a10.62,10.62,0,0,0,1.9-3.81,1.23,1.23,0,0,1,1.12-1.24c.68,0,1.69-1.23,2.25-2.8s1.57-2.8,2.24-2.8c1.68,0,1.35-3.15-.56-4.15a1.66,1.66,0,0,1-.56-2.58c.9-1.35,1.12-1.35,1.79.33,1,2.69,3.82,2.36,3.82-.33s2-2.92,3.92-.34c.9,1.12,1.57,1.35,2.13.56.34-.67-.11-1.91-1-2.8a6.56,6.56,0,0,1-1.68-2.81,2.24,2.24,0,0,0-1.34-1.68c-.9-.22-1-.9-.45-1.46s1.23-.45,1.46.34a2.73,2.73,0,0,0,2.46,1.46c1,0,2.58,1.12,3.48,2.35a29.5,29.5,0,0,0,2.92,3.7,7.91,7.91,0,0,1,1.68,3.48c.67,3,3.25,3.48,3.25.56,0-1.23-1.91-4.26-4.15-6.62a46.14,46.14,0,0,1-5.72-6.84c-1.35-2.24-1.35-2.47.34-1.79A14.56,14.56,0,0,0,110.46,192.06Zm57.65,1.8c.67.67-1.91,4.14-6.17,8.07-2.47,2.24-2.58,4.71-.34,4.71a1.89,1.89,0,0,0,1.68-2c0-1.12,1.57-2.91,3.37-3.92s3.36-2.47,3.36-3.14a1.11,1.11,0,0,1,1.12-1c.68,0,1.13.78,1.13,1.68s-.45,1.68-1.13,1.68a1.23,1.23,0,0,0-1.12,1.24,4.68,4.68,0,0,1-1.9,2.8c-1.69,1.12-1.8,1.68-.56,2.91s1.57,1,2-1.12c.45-1.34,1.35-2.46,2.13-2.46a2.46,2.46,0,0,0,2-1.46c.45-1.12.79-1.12,2,0s1.12,1.46-.45,1.46c-1.23,0-1.9.89-1.9,2.8s.67,2.8,1.68,2.8,1.68-1,1.68-2.24.56-2.24,1.12-2.24a1,1,0,0,1,1.12,1c0,.56,1.91,3,4.27,5.49,5.16,5.61,10.09,11.22,13.68,16,1.57,2,3.59,4.49,4.49,5.5s3.47,4,5.6,6.72,6.62,8.3,10,12.34c6.85,8.3,8,9.76,14,17.38,2.47,3.15,5.16,6.17,5.95,7,2.13,1.68,1.46,6.5-1,6.5-1,0-5.83-5.27-11.11-12.33-5.15-6.84-10.43-13.57-11.88-15.14a12.84,12.84,0,0,1-2.58-3.48,16.35,16.35,0,0,0-2.81-3.93c-1.57-1.79-4.26-5.27-5.94-7.73s-3.25-4.72-3.59-5c-1.91-1.8-11.21-14.58-11.21-15.48,0-.56-.79-1.34-1.69-1.79a2.72,2.72,0,0,1-1.68-2.36,1.72,1.72,0,0,0-1.68-1.68c-.9,0-1.68-1-1.68-2.24s-.79-2.25-1.69-2.25-1.68,1-1.68,2.25.79,2.24,1.68,2.24,1.69,1,1.69,2.24a3.29,3.29,0,0,0,1.68,2.92,3,3,0,0,1,1.68,2.24,2.68,2.68,0,0,0,1.68,2.24c.9.45,1.69,1.24,1.69,1.8a10.18,10.18,0,0,0,2,3.7c1,1.35,2.7,3.7,3.59,5.05s3.37,4.82,5.39,7.51a41.45,41.45,0,0,1,3.59,5.5,30.89,30.89,0,0,0,3.36,4.93c1.91,2.36,3.36,4.71,3.36,5.38a1.66,1.66,0,0,0,.9,1.57c.45.12,2.81,3.37,5.27,7a95.71,95.71,0,0,0,7.63,10.09c1.68,1.91,3,4.26,3,5.27s1.23,2.13,3.14,2.47c6,1.35,6.5,2.36,3.25,7.74-2.58,4.48-5.72,8.19-24.34,28.15-7.4,8.07-25.23,26.92-35.33,37.46-3,3.25-7.4,7.85-9.53,10.32s-4.48,4.48-5.16,4.59-2.58,1.13-4.26,2.36c-3.7,2.91-4.48,2.24-4.26-3.25,0-2.25.11-5.95.11-8,0-5,4.38-41.6,5.72-48.89.67-3.14,1.57-9.43,2.24-14,1.57-11.33,2-12.34,4.94-12.34a5.45,5.45,0,0,0,3.92-1.57c1.13-1.35,4.15-1.57,14.25-1.23,11.66.33,15.47-.45,11.1-2.13a2.68,2.68,0,0,1-1.68-2.14,4.92,4.92,0,0,0-1.68-3,5.41,5.41,0,0,1-1.69-3.37,14.92,14.92,0,0,0-1.57-5.27c-.89-1.68-2.35-4.93-3.25-7.07s-2.47-5.71-3.36-7.85-2.25-5.15-2.81-6.72-2.24-5.39-3.59-8.42l-3.58-8.41c-.57-1.57-1.8-4.37-2.58-6.17a50.58,50.58,0,0,1-2.25-5.94c-.33-1.35-1.23-2.47-1.79-2.47-1.57,0-1.24,6.06.67,8.53a8.11,8.11,0,0,1,1.68,4.15,17,17,0,0,0,1.69,5.6c1.68,3.93,4.82,12.34,5.83,15.93a48,48,0,0,0,2.13,5.83,16.4,16.4,0,0,1,1.57,5.61,8.14,8.14,0,0,0,1.68,4.15,10.44,10.44,0,0,1,1.68,5.27c0,1.68.79,3.25,1.69,3.7s1.68,2.13,1.68,4.6c0,3.14-.45,3.92-2.13,3.92-2.69,0-6.84-5.6-6.84-9.3a15.39,15.39,0,0,0-1.69-6,16.55,16.55,0,0,1-1.68-6.06,9.25,9.25,0,0,0-1.68-4.93,9.55,9.55,0,0,1-1.68-4.71,15,15,0,0,0-1.69-5.61,17.08,17.08,0,0,1-1.68-6.28c0-1.68-.45-3.25-1-3.59s-1.34-2.69-1.79-5.16-1.24-4.71-1.8-5.16-1-2.57-1-5c0-2.92-.56-4.71-1.68-5.05s-1.68-2.24-1.68-4.93c0-2.36.78-4.83,1.68-5.61a4.89,4.89,0,0,0,1.68-3c0-1.79,7.74-9.31,9.65-9.31A3.24,3.24,0,0,1,168.11,193.86ZM92.63,208.32A1.64,1.64,0,0,1,91.06,210a2.91,2.91,0,0,0-2.25,1.9c-1.45,3.93-4.14,8.19-5.27,8.19-.56,0-1,.78-1,1.68s-.44,1.68-1,1.68-2.91,2.92-5.27,6.4a112.46,112.46,0,0,1-10.54,13.68c-.9,1-3,3.81-4.71,6.28a81.08,81.08,0,0,1-7,9c-2.25,2.47-4,5-4,5.83a3,3,0,0,1-1.46,2.25c-2,1.34-8.63,10-8.63,11.44,0,1.79-5.39,4.93-7.29,4.15-2.81-1-1.91-3.71,3.36-9.31,2.8-2.92,5-5.61,5-6.06a11.09,11.09,0,0,1,2.35-3.36c1.24-1.46,3.37-3.93,4.71-5.5s4.49-5.38,7-8.41,5-6.28,5.83-7.07,3.81-4.59,6.73-8.41,6.17-7.74,7.06-8.75c1.91-2,6.51-7.4,12.23-14.35C91,206.42,92.63,205.52,92.63,208.32Z" transform="translate(-13 -142.29)"></path><path class="cls-1" d="M123.58,281.56c-.78,1.34.45,5.83,1.68,5.83s1.35-5.27,0-6.17A1.24,1.24,0,0,0,123.58,281.56Z" transform="translate(-13 -142.29)"></path><path class="cls-1" d="M129.19,288.17c-2.58,29.28-1.35,43.41,1.46,17.16.78-7.06,1.68-15.58,2-18.84.56-4.82.33-5.83-1.13-5.83S129.64,282.46,129.19,288.17Z" transform="translate(-13 -142.29)"></path><path class="cls-1" d="M136.48,301.41c.45,18.39.67,20.86,2.58,22.65,2,2,2,1.8,1.34-5.16-.33-3.92-.67-14.13-.67-22.65,0-13.57-.22-15.59-1.79-15.59S136.14,282.9,136.48,301.41Z" transform="translate(-13 -142.29)"></path><path class="cls-1" d="M143.21,287.05a74.65,74.65,0,0,0,.9,11l.89,4.49.79-5c1.12-7,.45-16-1.24-16.59C143.43,280.55,143.1,282.23,143.21,287.05Z" transform="translate(-13 -142.29)"></path><path class="cls-1" d="M106.09,206.53c0,2.24,1.9,4.15,3,3.14.79-.9-.78-5.27-2-5.27C106.53,204.4,106.09,205.41,106.09,206.53Z" transform="translate(-13 -142.29)"></path><path class="cls-1" d="M99.36,208.32a1.68,1.68,0,1,0,1.68-1.68A1.73,1.73,0,0,0,99.36,208.32Z" transform="translate(-13 -142.29)"></path><path class="cls-1" d="M116.18,213.82a18.21,18.21,0,0,1-1.68,7,16.46,16.46,0,0,0-1.68,6.06,6.61,6.61,0,0,1-1,3.92c-1.13,1.12-2.58,6.4-4.6,15.7-.45,2.47-1.46,4.6-2.13,4.83s-1.24,2-1.24,4a11.55,11.55,0,0,1-1.68,5.84,9.63,9.63,0,0,0-1.68,5,10.1,10.1,0,0,1-1.68,5.05,11.94,11.94,0,0,0-1.69,6.28c0,3.37-.44,4.26-3,5.16-2.92,1.12-2.81,1.12,1.9,1.23,2.81,0,5.61-.33,6.4-.78s1.68-3.93,2.13-7.52,1.34-7.51,2.13-8.41,1.68-4.37,2-7.74,1.12-6.5,1.68-7.29,1.34-4,1.79-7.4,1.35-6.73,1.91-7.51,1.46-4.15,1.79-7.52,1.35-6.84,2.13-7.51c2.25-1.91,2.14-12.22-.11-12.22C116.74,210,116.18,211.13,116.18,213.82Z" transform="translate(-13 -142.29)"></path><path class="cls-1" d="M96.44,212.7a3.07,3.07,0,0,0,.45,3.14c.9.89,1.46.78,2-.68a3.07,3.07,0,0,0-.45-3.14C97.56,211.13,97,211.24,96.44,212.7Z" transform="translate(-13 -142.29)"></path><path class="cls-1" d="M103.51,211.8c-1.24,1.23-.9,4.93.33,4.93,1.69,0,2.69-3.36,1.46-4.59A1.43,1.43,0,0,0,103.51,211.8Z" transform="translate(-13 -142.29)"></path><path class="cls-1" d="M109.45,213.82a16.09,16.09,0,0,1-1.57,5.94c-1.68,3.37-3.92,8.41-6.84,15.48-2.8,6.73-4,9.64-5.83,14-.9,2.13-2.36,5.61-3.26,7.62C88.81,264.4,86.8,269,85.23,272A16.09,16.09,0,0,0,83.66,278c0,2.13-.9,3.14-3.37,3.92-5.38,1.91-4.15,3.59,2,2.7,6.5-1,6.84-1.24,6.17-3.7a4.06,4.06,0,0,1,1.23-3.48,5.84,5.84,0,0,0,1.8-3.93,9.61,9.61,0,0,1,1.68-4.71,8.47,8.47,0,0,0,1.68-4.48,9.29,9.29,0,0,1,1.68-4.49,9.26,9.26,0,0,0,1.69-4.93,9.89,9.89,0,0,1,1.57-5.05,23.07,23.07,0,0,0,2.35-6.17,35,35,0,0,1,1.68-5.61c2.36-4.6,5.61-14.35,5.61-16.48a3.65,3.65,0,0,1,1.68-3c1-.34,1.69-2,1.69-4,0-2.24-.57-3.36-1.69-3.36S109.45,212.14,109.45,213.82Z" transform="translate(-13 -142.29)"></path><path class="cls-1" d="M157.34,208.55c-1.46,1.46-.79,5.94.9,5.94q1.68,0,1.68-3.36C159.92,207.87,158.91,206.86,157.34,208.55Z" transform="translate(-13 -142.29)"></path><path class="cls-1" d="M163.73,210.57c-.78,1.9.45,4.15,1.91,3.36s1.34-5.05-.11-5.05C164.85,208.88,164.07,209.67,163.73,210.57Z" transform="translate(-13 -142.29)"></path><path class="cls-1" d="M170,211.69a1.69,1.69,0,1,0,1.68-1.68A1.73,1.73,0,0,0,170,211.69Z" transform="translate(-13 -142.29)"></path><path class="cls-1" d="M166.65,217.07a6.32,6.32,0,0,0,1.68,4.15,5,5,0,0,1,1.68,2.92c0,.89,1.46,4.48,3.26,8,6.84,13.68,8,16.15,8,17.72,0,.9.56,1.68,1.12,1.68s1.12.67,1.12,1.46,1,3.25,2.24,5.61,2.25,4.82,2.25,5.72a4.93,4.93,0,0,0,1.68,2.91,5.14,5.14,0,0,1,1.68,3.37,5.14,5.14,0,0,0,1.68,3.36,6.89,6.89,0,0,1,1.69,4.6c0,3.81,3.58,6.62,8.63,6.62,4.15,0,6.06-1.91,2.36-2.47a3.62,3.62,0,0,1-3-2.58,4.77,4.77,0,0,0-1.91-3.14,2.89,2.89,0,0,1-1.57-2.13c0-1.8-4.48-10.88-5.72-11.66a3.56,3.56,0,0,1-1-2.7,3.19,3.19,0,0,0-.89-2.46c-.56-.23-2.47-3.37-4.38-7.07-8.52-17.05-11.89-23-12.78-23.66a3.27,3.27,0,0,1-1-2.58,5.31,5.31,0,0,0-1.57-3.48,6.64,6.64,0,0,1-2-3.59C169.34,214.15,166.65,213.71,166.65,217.07Z" transform="translate(-13 -142.29)"></path><path class="cls-1" d="M173.38,216.62a3.35,3.35,0,0,0,1.68,3,2.83,2.83,0,0,1,1.68,2.24c0,.79,1.46,3.59,3.25,6.28s4.38,7.07,5.84,9.87a45.62,45.62,0,0,0,3.25,5.61,20.37,20.37,0,0,1,2,3.37c.78,1.57,2.91,5.27,4.71,8.41s4,6.84,4.82,8.41a16.57,16.57,0,0,0,2.69,4.26,4.92,4.92,0,0,1,1.46,2.69,5.63,5.63,0,0,0,1.57,3,17,17,0,0,1,2.58,5.72c.9,3.25,1.57,3.92,3.92,3.92,1.69,0,3.37.34,3.82.79,1.23,1.35,3.81,1.12,3.81-.34,0-.67-1-1.45-2.24-1.79a3.09,3.09,0,0,1-2.25-2.69,3.25,3.25,0,0,0-1.23-2.69,13.46,13.46,0,0,1-2.24-3.14,36.6,36.6,0,0,0-4.71-8c-.56-.67-4.15-6.28-8.08-12.45s-7.74-11.77-8.41-12.56a5.49,5.49,0,0,1-1.12-2.35c0-.9-.9-2.13-5.5-7.63a10.73,10.73,0,0,1-1.68-3.59c-.45-1.34-1.34-2.47-1.9-2.47s-1-.78-1-1.68a3.21,3.21,0,0,0-1.57-2.46,4.75,4.75,0,0,1-1.91-3C176,214.38,173.38,213.71,173.38,216.62Z" transform="translate(-13 -142.29)"></path><path class="cls-1" d="M340.71,176.25c-2.58.45-5.39,1.46-6.06,2.13a5.35,5.35,0,0,1-3.47,1.34c-2.7,0-12,6.17-14.7,9.87-2.13,2.81-2.24,4.83-2,41.84.23,34.43.12,39.14-1.45,40.71a6.33,6.33,0,0,1-3.82,1.79,5.22,5.22,0,0,0-3.25,1.35c-1.79,1.79-1.68,5.38.11,5.38,15.37.56,33.76,0,34.66-.9,1.57-1.57-1.91-5.83-4.71-5.83-3.82,0-4.49-2.35-4.49-17.16,0-13.34.23-14.69,2.92-19.62,4-7.29,10.43-13.69,13.68-13.69,1.46,0,4.15,1.24,6.06,2.81,4.15,3.59,6.61,3.59,10.87-.12,4.27-3.47,4.38-6.72.68-10.76-3.48-3.81-9.42-5-15.25-3.14-4,1.34-11.67,8.07-15.93,13.9-2.69,3.71-3.48-.11-3.14-15.47.34-16.94,1.68-20.64,9.2-25.12,4.15-2.47,6.16-2.81,14.35-2.81,10.77,0,17.05,2.25,21.31,7.74,2.36,2.92,2.36,3.81,2.13,42.95l-.34,39.93-3,.34c-3.26.33-5.27,4.15-3.37,6.05.67.68,8.08,1.13,17.16,1.13H405v-3.26c0-2.58-.56-3.25-3.14-3.47-1.68-.23-3.59-1.35-4.15-2.58-.78-1.35-1.12-15.48-1-39.59.11-34.32-.11-37.8-1.9-40.94-3.71-6.28-14-12.11-25.69-14.69C363.92,175.13,347.66,175.13,340.71,176.25Z" transform="translate(-13 -142.29)"></path><path class="cls-1" d="M560.3,176.36c-12.11,2.92-21.2,8.64-26.47,16.49-2.13,3.14-3.81,6.84-3.81,8.07,0,2,.67,2.36,5.5,2.36,3.14,0,5.94.44,6.28,1.12,1.12,1.79-1.57,5.61-3.93,5.61-1.23,0-3.25,1.12-4.6,2.46-2.35,2.58-2.35,3-1.57,25.57.34,12.68.79,24.45.9,26.36.22,2.8-.11,3.25-2,3a9.88,9.88,0,0,1-4-2c-2.69-2.47-6.16-1.91-8.74,1.34-5.84,7.41-.68,15,10,15.14,7.74,0,19.06-5,19.06-8.41a4.66,4.66,0,0,1,1.69-2.91c1.45-1.24,1.68-6.84,1.68-38.36v-37l3.47-4.37c5.28-6.73,8.86-8.08,20.64-8.08,9.08,0,10.54.34,14.47,3,8.63,5.83,8.52,4.93,8.52,48.34V272.7l-3.59,1c-2.91.67-3.81,1.57-4,3.92-.23,1.91.22,3,1.12,3.14,7.17.34,32-.45,32.63-1.12,1.57-1.57-.45-4.37-3.81-5.61-1.79-.56-3.25-1.79-3.36-2.58v-35.1c.11-23.78-.34-35.21-1.35-38.92-1.46-5.38-8-14.35-10.43-14.35a4.86,4.86,0,0,1-2.69-1.68,5.15,5.15,0,0,0-3.25-1.69,14.75,14.75,0,0,1-5.16-1.79C589.46,175.91,566.58,174.79,560.3,176.36Z" transform="translate(-13 -142.29)"></path><path class="cls-1" d="M634.21,268.44c-3.7,4-4,6.16-1.23,9.53,3.47,4.37,6.5,5.27,10.76,3.25,8.64-4.15,5.61-16.26-3.92-16.26C638.47,265,636,266.53,634.21,268.44Z" transform="translate(-13 -142.29)"></path><path class="cls-1" d="M795.82,310.94c0,1.8.56,3.37,1.12,3.37s1.12,1.23,1.12,2.69c0,2.58-.22,2.69-3.25,1.46-2.8-1-3.7-.9-5.49.67A7.57,7.57,0,0,1,786,321c-1.46,0-1.79,2.46-.67,3.7.45.33.78,4.15.9,8.3l.11,7.62,3.7.34c2.91.33,3.59,0,3.59-1.8a7,7,0,0,0-2.25-4.15c-3-2.8-2.46-6.61,1-7.06s4.49,1.34,3.37,6.73-.67,6.5,3,6.5h2.91l-.78-9.42c-.56-6.39-.45-9.64.45-10.09.67-.45,1.23-3.81,1.23-7.52,0-6.61,0-6.61-3.36-6.61C796.16,307.58,795.82,307.91,795.82,310.94Z" transform="translate(-13 -142.29)"></path><path class="cls-1" d="M855,310.16c-3.93,3-2.92,4.93,2.91,5.49l4.26.34-2.91,3.14c-3.7,3.92-3.7,4.6.45,7.51,3.92,2.81,4.26,4.94,1.12,7.52-2.69,2.35-2.81,4-.56,6.28,2.58,2.58,6.05,1.12,6.73-3,.89-4.94-.12-15.7-1.57-16.15-2.13-.67-1.35-2.24,1.23-2.69,3.81-.56,3.59-2.58-.78-7C861.32,306.9,859.19,306.68,855,310.16Z" transform="translate(-13 -142.29)"></path><path class="cls-1" d="M364.6,310.94c-.68,2.13-.9,2.13-3.14.56-3.14-2.13-5.95-2.13-6.85.11-.78,2,1.13,6.06,2.81,6.06.67,0,1,3.14.78,8.08-.33,7.85-.44,8.18-3.14,8.18s-2.8-.33-3.14-6.84c-.22-5.94-.67-7.06-3.14-8.3s-2.91-1.23-5.16,1.12-2.13,2.7-.67,3.82c2.92,2.13,4.26,5.94,4.26,11.77,0,4.94.34,5.72,2.25,5.72a4.5,4.5,0,0,0,3.25-1.9c1-1.91,1.12-1.91,3.14,0,2.24,1.9,6.5,2.58,7.4,1,.22-.45.11-5.61-.34-11.44-.56-7.85-.44-10.88.56-11.44,4.27-2.58,6.29-4.94,5.61-6.84C368.07,308,365.49,308.14,364.6,310.94Z" transform="translate(-13 -142.29)"></path><path class="cls-1" d="M697.91,310.94c-1.68,2.36-1.9,2.36-3.59.67a6.93,6.93,0,0,0-4.15-1.79c-1.9,0-2.24.56-1.79,3.48.45,2.46,0,3.7-1.23,4.15a19.88,19.88,0,0,0-4.83,3.59c-2.8,2.91-2.91,3.36-2.24,11.32.67,7.29,1,8.3,3,8.3s2.24-.67,2-5c-.23-2.81.22-6.17,1-7.63,1-1.91,1-2.8,0-3.81-2-2-1.69-3.14.89-3.14,3.26,0,4.49,3.36,4.49,12.33,0,7.63.11,8,2.58,7.63s2.47-.79,2.13-7.63c-.34-9.64-1-12.33-3-12.33a1.73,1.73,0,0,1-1.68-1.69c0-1,1-1.68,2.58-1.68,1.34,0,4-1.23,5.83-2.69,3.14-2.58,3.25-2.92,1.57-4.6S699.48,308.7,697.91,310.94Z" transform="translate(-13 -142.29)"></path><path class="cls-1" d="M315.81,310.83c-1.35.9-1.35,1.46-.22,2.58,2,2,1.68,4.26-.56,4.26a11.91,11.91,0,0,0-5.16,2.69c-2.81,2.25-2.92,2.69-1.35,4,1.23,1,1.35,1.79.45,2.92-1.68,2-2.24,8-1,11.1.9,2.35,1.57,2.58,9,2.47l7.85-.12-.22-15.25-.34-15.14-3.36-.34A10.88,10.88,0,0,0,315.81,310.83Zm4.6,8.3c-.11,1.34-1.68,1-2.13-.45-.34-.67.11-1.12.89-.9S320.41,318.68,320.41,319.13Zm-4.6,3c0,.56-.78,1.12-1.68,1.12s-1.68-.56-1.68-1.12.78-1.12,1.68-1.12S315.81,321.48,315.81,322.16Zm3.25,7.17a4,4,0,0,1,.68,3.37c-1.91,5.83-1.57,5.72-4.49,2.92-2.69-2.58-3.59-5.61-2-7.07C314.46,327.2,317.72,327.65,319.06,329.33Z" transform="translate(-13 -142.29)"></path><path class="cls-1" d="M651.59,311.5a5.32,5.32,0,0,0,0,3.48,1.61,1.61,0,0,1-1.23,2.35c-1.12.34-3.48,2.25-5.16,4.38-2.47,2.91-2.92,4.15-2,5.83.56,1.12.79,4.15.45,6.73-.45,3-.11,5.27.79,6.39,2.35,2.92,4.59-.11,4.48-6.05a33.45,33.45,0,0,1,.56-7.52c.45-1.34.23-2.8-.45-3.14-2-1.23-1.45-2.91,1-2.91,3.26,0,4.49,3.36,4.49,12.22,0,7.74.11,8,2.69,8,3.81,0,4.26-1.12,3.37-9.75-.68-5.72-1.35-8.08-3.37-9.87l-2.58-2.47,3.25-2.47c1.91-1.34,3.37-3.14,3.37-3.92C661.24,309.71,652.71,308.59,651.59,311.5Z" transform="translate(-13 -142.29)"></path><path class="cls-1" d="M408.78,317.45c-1.9.33-3.58,4-2.35,5.16.34.33,1.23.11,2-.57,2.91-2.46,4,.23,3.7,9-.45,9.42.11,11.44,3.48,10.54,2-.56,2.24-1.57,2.24-8.3Q417.87,315.43,408.78,317.45Z" transform="translate(-13 -142.29)"></path><path class="cls-1" d="M519.93,317.56c-3.59,1.46-6.51,4.15-6.73,6.28-.11,1.23-.23,5.72-.11,9.87.11,7.29.22,7.62,2.69,7.29,2.24-.34,2.46-.9,2.13-6.06-.34-4.15.11-6.05,1.34-7.18,1.69-1.34,1.69-1.57,0-3.47-2.8-3.14-.89-4,2.7-1.35,2.69,2,3,3,3.36,10.32.34,7.07.56,8,2.47,8s2.24-.78,2.24-9c0-7.74-.34-9.2-2.47-11.21C524,317.67,521.83,316.77,519.93,317.56Z" transform="translate(-13 -142.29)"></path><path class="cls-1" d="M612.45,318.12c-2.58,1.91-1.57,5.16,1.46,4.37,2.8-.67,3.81,2.81,2.8,10.55-.67,6.28.79,9.64,3.7,8.52,1.24-.45,1.57-2.92,1.57-10.09,0-8.53-.22-9.65-2.8-12.12C616,316.1,615.37,316,612.45,318.12Z" transform="translate(-13 -142.29)"></path><path class="cls-1" d="M849.65,317.67c-.89.56-3.36.79-5.38.45-2.92-.56-4.26-.22-6.39,1.79-1.57,1.46-2.47,3-2,3.7s.56,4.83.45,9.31l-.23,8.3h3.48c4.49,0,5.5-2.69,2.24-6.17s-2.58-6.61,1.57-7.06l3.14-.45-.45,6.62c-.33,6.39-.33,6.5,2.92,6.84l3.25.45-.56-8.86c-.33-4.94-.11-9.87.56-11.33C853.69,318.23,852.12,316.1,849.65,317.67Z" transform="translate(-13 -142.29)"></path><path class="cls-1" d="M330.05,318.46c-1.57,1.57-.67,3.47,1.35,2.91,2.58-.67,3.59,3.59,2.69,12.11-.45,4.71-.22,6.51,1.12,7.63,3.14,2.58,4.15.22,4.15-9.42,0-8.3-.33-9.76-2.47-11.78C334.43,317.67,331.4,317,330.05,318.46Z" transform="translate(-13 -142.29)"></path><path class="cls-1" d="M371.1,320.25c-2.8,3-2.91,3.48-2.69,13.35.11,6.84.34,7.62,2.35,7.62s2.25-.78,2.25-5.94c0-3.25.67-6.62,1.34-7.29,1.13-1.12,1.13-1.91,0-3.7-2.13-3.37-.67-4,2.92-1.35,2.69,2,3,3,3.36,10.32.34,7.07.56,8,2.47,8s2.24-.78,2.24-9.31c0-9.08-.11-9.42-3.36-11.77C377.83,317,374.24,317,371.1,320.25Z" transform="translate(-13 -142.29)"></path><path class="cls-1" d="M393.2,320.47c-1.35,2.47-1.13,3,2.13,6.06s4.59,6.84,2.35,6.84a18.15,18.15,0,0,1-4.6-1.68c-2.8-1.57-3.36-1.57-3.92-.11-.9,2.35,6.84,9.64,10.2,9.64,2.81,0,2.81-.11,2.81-9.87,0-8.18-.34-10.31-2-11.77C397.23,316.89,395,317.22,393.2,320.47Z" transform="translate(-13 -142.29)"></path><path class="cls-1" d="M421,320.36c-1.91,2.58-1.91,2.81.78,4.49,2.47,1.68,2.81,2.58,2.81,9,0,8.08,1.34,9.53,5.27,5.94,2.35-2.13,2.69-2.13,4.6-.44,2.24,2.13,6.39,2.58,7.51.78.34-.56-.11-2.69-1.12-4.6a18.77,18.77,0,0,1-1.68-8.74c.45-7.74.11-9.09-1.68-9.09-1.24,0-1.69,1.91-1.91,8.08-.34,7.85-.45,8.18-3.14,8.18s-2.81-.33-2.92-6.39C429.53,318.12,425.16,314.64,421,320.36Z" transform="translate(-13 -142.29)"></path><path class="cls-1" d="M446,321.71c-3.25,3.7-3.37,4.15-1.8,6.39.9,1.35,1.69,4.82,1.69,7.85,0,4.6.33,5.38,2,5.05,1.34-.34,1.9-1.46,1.9-4.6,0-2.92.67-4.6,2-5.38,2.92-1.69,4.15-.23,4.15,5.27,0,4.48.22,4.93,2.69,4.93a5.34,5.34,0,0,0,3.37-.89c.33-.45.11-4.83-.34-9.65-.67-7.4-1.23-9.08-3.59-10.88C453.87,316.55,450.06,317.11,446,321.71Zm8.86,1.57c0,1.91-.56,2.13-2.81,1.57-1.68-.45-2.8-.23-2.8.56s-.9,1.23-1.91,1.23c-1.9-.11-1.9-.11,0-1.57a4.68,4.68,0,0,0,1.91-2.8c0-.67,1.23-1.23,2.8-1.23C454.09,321,454.88,321.6,454.88,323.28Z" transform="translate(-13 -142.29)"></path><path class="cls-1" d="M468.67,319.8c-2.13,1.8-2.46,3.14-2.35,9.2.11,11.44.56,12.11,9.31,12,4-.11,7.62-.56,8-1.12s1.57-.23,2.69.45c3.48,2.24,4.15,0,3.59-11.78-.34-8.19-.9-10.88-2-10.88-1.91,0-2.69,3.59-2.35,10.54.11,3.59-.23,5.61-1.13,6s-1.45-.9-1.45-4.26C482.92,320.36,474.84,314.64,468.67,319.8Zm7.52,4.15a22.7,22.7,0,0,1,1.12,7.29c0,3.48-.45,4.38-2,4.38a6.68,6.68,0,0,1-4.15-2.25c-1.91-2.13-1.91-2.35-.22-4.26,2.35-2.58,2.46-4.26.22-5.16-2.69-1-1.91-2.91,1.12-2.91C474.28,321,475.4,321.82,476.19,324Z" transform="translate(-13 -142.29)"></path><path class="cls-1" d="M535.4,319.8c-2.91,2.92-2.46,5.39,1.35,6.73,4.49,1.57,5.49,4.37,2.47,7-2.81,2.25-3.26,7.18-.79,8.19,2.13.79,5.16-.34,7-2.58,1.57-2,1.9-10.43.67-11.77-.56-.45-.9-2.7-.9-4.94,0-3.92-.22-4.15-3.92-4.37C538.66,317.78,536.64,318.46,535.4,319.8Z" transform="translate(-13 -142.29)"></path><path class="cls-1" d="M552.11,319.69c-2.8,3.14-2.35,5.38,1.46,6.95,2.47,1,3.37,2.13,3.37,4.15,0,1.46-.79,2.92-1.69,3.26s-1.68,2.13-1.68,3.92c0,2.92.45,3.25,3.37,3.25,4.26,0,6-3.92,5.16-11-.34-2.69-.12-5.83.44-7C565,318.57,555.93,315.54,552.11,319.69Z" transform="translate(-13 -142.29)"></path><path class="cls-1" d="M567.48,320.36a6.67,6.67,0,0,0,1.12,5.39c2.24,3.25,2.24,6.95.11,8.74a4.5,4.5,0,0,0-1.46,3.82c.45,2.91,5.28,3.92,6.73,1.34,1.35-2.35,4.94-2.35,5.84,0A2.41,2.41,0,0,0,582.4,341c1.68-.34,1.9-1.91,2-10.43.12-11.22-.11-12.9-2.35-12.9-1,0-1.57,2.24-1.8,8.08-.33,7.29-.56,8.18-2.58,8.18s-2.35-.89-2.8-6.73c-.34-3.7-1-7.4-1.46-8.18C571.85,316.66,568.26,317.45,567.48,320.36Z" transform="translate(-13 -142.29)"></path><path class="cls-1" d="M592.15,320.59c-2,2.24-2.35,4-2.24,10.88.22,8.74,1,11.1,3.48,10.09,1.23-.45,1.68-2.36,1.68-6.95,0-3.48.56-7,1.34-7.74,1-1,1-1.68,0-2.69-1.9-1.91-1.68-3.14.68-2.36,3.59,1.23,4.71,4,4.71,11.78,0,7.4.11,7.62,2.8,7.62s2.81-.11,2.81-8.75c0-8.41-.23-9-3.37-11.77C599.89,316.89,595.29,316.89,592.15,320.59Z" transform="translate(-13 -142.29)"></path><path class="cls-1" d="M627,320.7c-1.9,2.91-1.9,3,.56,5.05a8.43,8.43,0,0,0,4,2c2.69,0,1.91,6.06-.9,7.29a4.28,4.28,0,0,0-2.58,3.37c0,1.91.79,2.24,4.49,2.24h4.49l.33-9.87c.34-11.1-.45-13.12-5.38-13.12A5.59,5.59,0,0,0,627,320.7Z" transform="translate(-13 -142.29)"></path><path class="cls-1" d="M665.16,318.79c-1,1.68.45,3.37,2.92,3.37,1.91,0,2.13.89,2.13,9.42,0,7.18.34,9.53,1.68,10a1.92,1.92,0,0,0,2.47-.67c1.46-2.25.22-20.08-1.35-21.76C671.22,317.45,666.17,317.22,665.16,318.79Z" transform="translate(-13 -142.29)"></path><path class="cls-1" d="M701.73,320.14a3.93,3.93,0,0,0,.89,4.6c1.68,2,2.47,10.31,1.24,14.24-.45,1.35.78,1.68,7.29,1.68H719l.56-9.31c.56-10.09-.11-13.68-2.69-13.68-1.35,0-1.8,2-2,9.76-.34,9-.56,9.87-2.58,9.87s-2.36-1-2.92-8.75c-.56-8.64-1.57-10.77-5.27-10.88C703.3,317.67,702.17,318.79,701.73,320.14Z" transform="translate(-13 -142.29)"></path><path class="cls-1" d="M725.16,328.1c0,10.77.9,13.12,4.6,13.12,3.26,0,3.7-2.24,1-5.83-2.13-2.8-2.35-4.26-1.79-8.75.78-5.94,0-9-2.25-9C725.5,317.67,725.16,319.91,725.16,328.1Z" transform="translate(-13 -142.29)"></path><path class="cls-1" d="M735,319.58a79.89,79.89,0,0,0,.12,11.55c.67,9.42.67,9.53,3.81,9.87,2.58.33,3,0,3-2.24a7.07,7.07,0,0,0-1-3.82c-.67-.56-1.24-4.48-1.46-8.86-.22-6.17-.67-7.85-2.13-8.18A2.15,2.15,0,0,0,735,319.58Z" transform="translate(-13 -142.29)"></path><path class="cls-1" d="M747.82,320.47c-2.24,2.25-2.36,2.7-.79,3.93s1.57,1.68,0,3.36c-3.92,4.38-.22,14,5.16,13.24,3.48-.45,4.15-4,1-6.17-3.36-2.36-2.58-6.39,1.35-6.84,2.91-.34,3-.23,3.36,6.17.23,5.16.79,6.61,2.36,6.84s1.9-.67,1.9-8.86c0-8.41-.22-9.42-2.91-11.78A7.75,7.75,0,0,0,747.82,320.47Z" transform="translate(-13 -142.29)"></path><path class="cls-1" d="M811.19,319.69c-2.36,2.58-2.36,3.59-.34,5.16a9.11,9.11,0,0,1,2.47,4.26c.78,3.36-.45,3.93-4.15,2-1.69-.9-2.36-.79-2.81.45-.89,2.35,6.84,9.64,10.21,9.64,2.8,0,2.8-.11,2.8-9.87,0-8.18-.33-10.31-2-11.77C814.66,317.11,813.43,317.22,811.19,319.69Z" transform="translate(-13 -142.29)"></path><path class="cls-1" d="M825.32,318.46c-1.8.67-2,17.38-.34,20.63,1.46,2.58,6.5,2.92,7.51.45a4.4,4.4,0,0,0-1.12-3.7c-1.23-1.23-1.9-4.6-2.13-9.65C828.91,318.68,828.23,317.22,825.32,318.46Z" transform="translate(-13 -142.29)"></path><path class="cls-1" d="M874,318.46c-1.35,1.23-.9,4.48,1.23,8.07,1.8,3.37,1.8,3.59,0,7-3,5.28-2.69,7.74,1.24,7.74,1.79,0,3.47-.67,3.92-1.68.9-2.35,3.14-2.13,5.5.67,3.7,4.15,4.71,2.13,5-10,.22-9.64,0-11.55-1.46-12.11-2.81-1.12-3.37.34-3.37,8.3,0,6.95-.22,7.51-2.46,7.85-2.92.45-4.38-3.48-3.26-8.08C881.73,320.7,877.13,315.2,874,318.46Z" transform="translate(-13 -142.29)"></path><path class="cls-1" d="M494.13,322.38a12.32,12.32,0,0,0,1.12,3.25c1.8,3.14,9.65,2.92,12.45-.44a17.56,17.56,0,0,0,2.13-3c0-.45-3.47-.68-7.85-.79S494.13,321.71,494.13,322.38Z" transform="translate(-13 -142.29)"></path><path class="cls-1" d="M766.66,323.17a5.22,5.22,0,0,0,1.35,3.25c1.79,1.79,9.53,1.68,10.65-.11a5.47,5.47,0,0,1,2.92-2.25c3.92-1.45.78-2.69-7.07-2.8C767.89,321.26,766.66,321.48,766.66,323.17Z" transform="translate(-13 -142.29)"></path><path class="cls-1" d="M495.59,334.27c-2.36,1.91-2.36,1.91-.34,4.37,2.69,3.37,8.53,3.48,11.89.23s2.36-5.5-2.47-4.71c-2,.33-4.48.11-5.27-.56C498.39,332.7,497.38,332.92,495.59,334.27Z" transform="translate(-13 -142.29)"></path><path class="cls-1" d="M767.45,334.27c-1.69,1.79-1.69,2.24-.12,4.49,2.58,3.7,9.65,3.47,12.23-.45,2.24-3.59,1.57-4.38-3.48-3.93-2.13.11-3.81-.22-3.81-.9C772.27,331.58,769.46,332,767.45,334.27Z" transform="translate(-13 -142.29)"></path><path class="cls-1" d="M375.59,348.18c-.45.78-.9,7.73-.9,15.47v14h-2.8c-2.7,0-2.81-.33-3.14-8.07-.23-6.73-.68-8.41-2.47-9.31s-2.92-.79-4.94.56c-2.58,1.68-3,1.68-7.17-.34-4.38-2.13-7.41-1.68-9.42,1.24-1.24,2,.89,5.72,3.7,6.39,3.47.9,4,4.15,1.12,6.84-3.25,3-3,6.39.45,7.29,4.93,1.23,6.39-1.23,5.94-10.09-.34-6.84-.11-8,1.57-8.3,1.12-.23,3.25.89,4.82,2.46a10,10,0,0,1,1.46,11.89c-.78,1.12-1,2.47-.56,2.92,1,1,13.8,1.46,15.25.56.56-.34,1.24-8,1.35-16.82.34-13.91.11-16.15-1.46-17.05C377.16,347.17,376.26,347.28,375.59,348.18Z" transform="translate(-13 -142.29)"></path><path class="cls-1" d="M758.92,347.84c-1.12.78-1.57,4.49-1.68,15.36-.11,13.69-.22,14.47-2.35,14.47s-2.25-.9-2.58-7.62c-.34-6.51-.68-7.74-3-9.31-2-1.35-3.14-1.46-4.94-.45-3.14,1.57-2.91,3.48.45,6.73a7.51,7.51,0,0,1,1.46,10,5.15,5.15,0,0,0-.45,4c.56,1.57,1.57,1.79,4.94,1.23a63.11,63.11,0,0,1,7.62-.67h3.48l.67-16C763.18,349.07,762.51,345.71,758.92,347.84Z" transform="translate(-13 -142.29)"></path><path class="cls-1" d="M574.66,348.62c-.34.34-.34,6.85,0,14.47.45,12.34.33,14-1.35,14.69-3.36,1.35-4.82-1.23-4.26-8.18.34-5.5.11-6.84-1.8-8.53s-2.69-1.79-4.59-.78c-2.81,1.46-3,3.7-.56,5.72,1.45,1.23,1.68,2.91,1.23,8.52-.34,4.6-.11,7.07.78,7.4,2.14.79,14.36-.11,15.37-1.12.67-.67,1.46-22.43,1.12-31.51C580.49,348,575.89,347.39,574.66,348.62Z" transform="translate(-13 -142.29)"></path><path class="cls-1" d="M523.52,350.64c-3,.9-3.59,1.69-3.37,4,.34,2.92.45,3,11,3.48,3.93.22,5.16-.11,5.39-1.57.44-2.13-1.35-4.26-5-6.17C528.79,349,528.67,349,523.52,350.64Z" transform="translate(-13 -142.29)"></path><path class="cls-1" d="M684.45,351.43c-1.45,2-2.13,2.24-3.47,1.12-1.91-1.57-8.08-1.23-7.74.45a22.63,22.63,0,0,0,.78,2.8c.45,1.12-1.12,2.69-4.48,4.83-4.38,2.57-5,3.47-4.38,5.6,1,2.92,1,6.84,0,11.67-.78,3.59-.67,3.7,2.7,3.7h3.47l.23-7.07c.11-3.81.22-8.07.22-9.53,0-3,1.91-3.14,4.6-.23,1.68,1.8,1.79,3.37,1.23,8.75-.56,5.16-.33,7,.9,8,2.92,2.35,4,.22,4-7.18,0-9-1.35-12.9-4.6-12.9-3.81,0-1.8-2.8,2.24-3.14a12.53,12.53,0,0,0,6.62-3.14c2.69-2.47,2.8-2.8,1.12-4.49S686,349.07,684.45,351.43Z" transform="translate(-13 -142.29)"></path><path class="cls-1" d="M627.93,351.54a5.82,5.82,0,0,0-.34,4.26c.56,2.47,1.12,2.69,5,2.47,5.49-.45,9.76-3,9.31-5.61-.56-2.91-3.93-2.91-4.6,0l-.67,2.58-2.36-2.58C631.74,349.86,629.5,349.52,627.93,351.54Z" transform="translate(-13 -142.29)"></path><path class="cls-1" d="M711.93,357c-3.36,4.93-3.81,6.5-3.81,13.79-.11,8.08.78,10.77,5.83,16.6,2.24,2.8,5.61,2.58,5.61-.22,0-1.24-.56-2.25-1.12-2.25-1.91,0-5.61-9.87-5.61-15,0-4.71,2.35-11,5.27-13.9,2.13-2.13,1.79-4.71-.56-4.71C716.42,351.32,714.06,353.67,711.93,357Z" transform="translate(-13 -142.29)"></path><path class="cls-1" d="M798.85,352c-.45.45.9,2.8,2.8,5.27,3.37,4.15,3.59,5.16,3.7,13.12,0,7.63-.33,9-3,12.68-3.71,4.71-3.93,6.39-.9,6.39,4.71,0,11.21-10.77,11.21-18.62,0-2.69-.45-5.16-1.12-5.49s-1.12-1.8-1.12-3.26-1.79-4.26-4.26-6.61C802,351.43,800.31,350.64,798.85,352Z" transform="translate(-13 -142.29)"></path><path class="cls-1" d="M314,359.73a8.66,8.66,0,0,1-4,1.68,2.08,2.08,0,0,0-2.13,1.35c-1.35,17.16-.56,21,3.92,19.29,1.35-.45,1.8-2.13,1.8-6.06a27.78,27.78,0,0,1,1.46-8.75c1.12-2.8,1.79-3.14,3.36-2.35s1.91,2.69,1.91,8.86c0,7.85,1.34,10.54,3.81,7.74,1-1.13,1.23-4.27.9-10.32l-.45-8.75-4.26-2.13C316.6,358.38,315.81,358.38,314,359.73Z" transform="translate(-13 -142.29)"></path><path class="cls-1" d="M330.05,360.06c-2.8,3.14-2.35,4.83,1.24,4.49l3-.34.33,8.42c.23,4.59.79,8.86,1.24,9.3s2.13.45,3.47-.33c2.25-1.24,2.36-1.91,2-9.65-.45-6.73-1-8.86-3.14-11.1C335.1,357.48,332.52,357.26,330.05,360.06Z" transform="translate(-13 -142.29)"></path><path class="cls-1" d="M423.25,360.51,419,362.76V381.6h6.73l.11-7.07c.11-6,1.68-15,2-11.21a1.82,1.82,0,0,0,1.79,1.45c1.35,0,1.69,1.69,1.69,8.3,0,6.17.45,8.42,1.57,8.86,2.8,1.13,3.7-1.79,3.14-10.65-.34-7.29-.79-8.86-2.92-10.21C429,358.38,427.51,358.27,423.25,360.51Z" transform="translate(-13 -142.29)"></path><path class="cls-1" d="M485.27,360.4c-2.69,2.24-2.69,2.36-.9,5.5,2.47,4,2.47,9.87.12,12.56-2,2.13-1.57,2.46,3.47,3.36,1.57.34,2.13,1.24,1.91,3a6,6,0,0,0,1.35,4.15,8.25,8.25,0,0,1,2,2.8c.34.9,1.57,1.12,3.48.56,3.25-.78,4-3.7,1.68-6.16-.89-.79-1.57-4.71-1.57-9.43-.11-4.48-.33-8.86-.45-9.75a9.79,9.79,0,0,1,.45-3.48c.56-1.34,0-2.13-2.35-3-1.68-.56-3.93-1.46-4.82-1.79S486.73,359.17,485.27,360.4Zm7.52,12.79c-.45,6.28-3.14,6.5-3.14.22,0-2.69.33-5.27.78-5.72C491.89,366.23,493.12,369,492.79,373.19Z" transform="translate(-13 -142.29)"></path><path class="cls-1" d="M504.56,360.85c-2.58,2.13-2.91,3-1.9,4.71a7.56,7.56,0,0,0,3.92,2.58c3.7.9,4,4.15.56,7.29-4.26,3.92-1.91,8,3.7,6.5,2.69-.67,3.59-4.48,3.14-13.9-.22-5.61-.56-6.51-3.25-8.08C507.7,358.27,507.48,358.27,504.56,360.85Z" transform="translate(-13 -142.29)"></path><path class="cls-1" d="M543.93,360.29l-3.59,2.24,2.69,5.38a52.29,52.29,0,0,1,3.25,9.43c.68,4.59,3,5.94,7.74,4.71,2.8-.68,2.92-1,2.92-9.31,0-9.31-.23-9.87-4.71-12.79C548.41,357.6,548.19,357.6,543.93,360.29Zm9.42,10a21.74,21.74,0,0,1-.34,6.62c-1.23,3.14-2.8-.79-2.8-6.84C550.21,363.09,552.9,363.32,553.35,370.27Z" transform="translate(-13 -142.29)"></path><path class="cls-1" d="M586.43,360.18c-3.59,2.91-3.25,5.72.79,7.17,2.35.9,3.36,2,3.36,3.93,0,1.35-.67,2.8-1.57,3.14-2.13.78-3.14,5.05-1.57,6.84,1.8,2.24,5,1.8,7-1s2.35-11.55.56-12.67c-.79-.56-.56-1.46.67-2.81,2-2.13,1.79-2.35-3.81-5.27C588.68,357.82,589.46,357.71,586.43,360.18Z" transform="translate(-13 -142.29)"></path><path class="cls-1" d="M726.73,359.73a3.38,3.38,0,0,1-2.8,1.68c-1.79,0-2.13.9-2.13,4.93,0,2.81.56,5.39,1.23,5.84s.9,2.24.56,4.48c-.56,2.92-.33,3.93,1.35,4.83,3,1.57,4.71-.45,3.93-4.83-.34-2.46,0-4,1.23-5a5.94,5.94,0,0,0,1.79-4.15c0-1.46.45-2.7,1-2.7,1.35,0,2.58,9.2,1.8,12.57a3.8,3.8,0,0,0,.89,4c2.92,2.47,4-.78,3.37-10.43l-.67-9-4.15-2C729.09,357.6,727.52,357.6,726.73,359.73Zm4,3.36c0,.9-.45,1.68-1,1.68-1.45,0-2.46-1.79-1.57-2.69C729.43,360.85,730.77,361.41,730.77,363.09Z" transform="translate(-13 -142.29)"></path><path class="cls-1" d="M772.72,359.73a2.83,2.83,0,0,1-2.25,1.68c-2.58,0-4,4-2.46,7.29,1.12,2.36,1,3.48-.56,6.17-2.47,4.15-2.36,6.39.33,7.29,3.48,1.12,4.49-.23,4.49-6.51,0-3.36.78-6.73,1.68-8,1.23-1.57,1.35-2.58.45-3.7-1.91-2.13.67-1.91,2.92.34,1.34,1.34,1.68,3.7,1.57,8.86-.23,8.3.44,10,3.58,8.41,1.69-1,2.14-2.36,2.14-7.18,0-9.76-1-12.79-4.83-14.69C775.52,357.6,773.5,357.6,772.72,359.73Z" transform="translate(-13 -142.29)"></path><path class="cls-1" d="M385.57,360.51a4.52,4.52,0,0,0,3.36,7.63c3,0,2.81,6.28-.22,7.29-2.69.9-3,5.61-.45,6.62a9.24,9.24,0,0,0,4.26,0c2.13-.56,2.69-1.57,3.25-6.28.45-3.14.23-6.51-.33-7.52a3.72,3.72,0,0,1,.11-3.59c1.46-2.35,1.23-2.8-1.79-4.15C390.05,358.83,387.25,358.83,385.57,360.51Z" transform="translate(-13 -142.29)"></path><path class="cls-1" d="M442.21,361.19c-1.24,1.34-1.46,2.46-.79,3.14s.79,3.14.11,6.61c-1.46,8,.79,11.78,7,11.78,6.5,0,7.51-1.46,7.51-11.22,0-8.74-.11-9-3.36-10.65C448.26,358.61,444.45,358.72,442.21,361.19Zm9.86,10.43c0,5.72-.11,6.05-2.8,6.05-3.36,0-4.49-4.15-1.79-6.84a6.09,6.09,0,0,0,1.79-4c0-1.23.56-2,1.46-1.79S452.07,367.69,452.07,371.62Z" transform="translate(-13 -142.29)"></path><path class="cls-1" d="M461.38,360.4c-2.58,1.46-2.58,2.69.34,6.62,2,2.69,2.36,4.15,1.68,8.75-.9,6.61-.33,7,8.86,5.94L479,381l.34-10c.33-10.32-.34-12.57-3.14-10.77-1.24.78-1.57,2.91-1.35,8.86.34,7,.11,7.85-1.9,8.52-3.93,1.24-4.83-.33-4.38-7.85C469,360.51,466.54,357.37,461.38,360.4Z" transform="translate(-13 -142.29)"></path><path class="cls-1" d="M625.91,360.29a3.84,3.84,0,0,1-2.8,1.12c-2.81,0-4.83,3.81-3.82,7.07a27,27,0,0,1,.56,7.4c-.33,5.16,1.46,7.62,4,5.49q1.35-1,.67-6.05c-.44-3.14-.11-5.5.79-6.62a5.23,5.23,0,0,0,.78-4.15,4.59,4.59,0,0,1,.57-3.92c.67-.79.89-1.46.56-1.46A2,2,0,0,0,625.91,360.29Z" transform="translate(-13 -142.29)"></path><path class="cls-1" d="M641.39,361.07c-.45,1,.11,3.26,1.12,5.05a21.52,21.52,0,0,1,1.91,9.42c0,5.72.22,6.06,2.8,6.06a4.65,4.65,0,0,0,3.81-2c1.12-1.8,1.35-1.68,3.14.56,1.46,1.79,2.81,2.35,4.38,1.91,2.35-.56,2.46-1.13,1.9-9.76-.67-11.33-.89-12-3.7-12-2,0-2.24.67-2.24,6.73,0,5.61-.34,6.84-2.36,8-3.36,1.68-4.59-.45-3.92-6.84.22-2.8,0-5.94-.56-6.95C646.32,358.61,642.28,358.61,641.39,361.07Z" transform="translate(-13 -142.29)"></path><path class="cls-1" d="M690.17,360.4c-1.68.9-2,2.69-2,10,0,10.1,1.35,12.34,7.07,12.34,6.28,0,6.95-1.12,6.95-12,0-9.09-.22-9.87-2.24-9.87s-2.24.78-2.24,8.41c0,8.19-.11,8.41-2.81,8.41-3.36,0-4.37-3.25-1.79-6.05a4.93,4.93,0,0,0,1.12-4.27c-.34-1.23-.11-2.69.56-3,.9-.56.9-1.46.11-3C693.54,358.83,692.86,358.72,690.17,360.4Z" transform="translate(-13 -142.29)"></path><path class="cls-1" d="M402.5,361.07c-1.79.68-1.9,5.5-.22,6.51,4.93,3.14,14.58-1.24,12.9-5.83-.79-1.91-.9-1.91-2.25-.12-1.57,2.14-5.16,2.81-5.16,1C407.77,361.41,404.41,360.51,402.5,361.07Z" transform="translate(-13 -142.29)"></path><path class="cls-1" d="M520.15,363.32c-1.23,2.8-.78,17,.67,18.5,2.25,2.24,3.59-.33,3.59-6.84,0-3.48.56-7,1.35-7.74,1-1,.78-1.79-.79-3.59C522.51,360.85,521.38,360.85,520.15,363.32Z" transform="translate(-13 -142.29)"></path><path class="cls-1" d="M529.46,363.88c.45,1.46.67,5.94.56,10.09l-.11,7.63h6.84v-7.29c0-8.19-2.13-12.9-5.83-12.9C529,361.41,528.79,361.86,529.46,363.88Z" transform="translate(-13 -142.29)"></path><path class="cls-1" d="M601.46,362.2a4.37,4.37,0,0,0-.78,2.8c0,4.37,11.21,5.16,13.45.78,1.69-3,1.35-4.37-1.12-4.37-1.23,0-2.24.45-2.24,1.12s-.79,1.12-1.68,1.12-1.68-.56-1.68-1.12C607.41,361.3,602.58,361,601.46,362.2Z" transform="translate(-13 -142.29)"></path><path class="cls-1" d="M628.71,362.42a2.38,2.38,0,0,0,1.13,1.79c.67.34,1.12,4.49,1.12,9.09v8.41l3.14-.34c2.91-.33,3-.45,2.69-7.06-.45-9.09-2-12.9-5.38-12.9C630,361.41,628.71,361.86,628.71,362.42Z" transform="translate(-13 -142.29)"></path><path class="cls-1" d="M401.94,375c-1.12.56-2,1.46-2,2,0,1.91,4.71,5.72,7.18,5.72,3.7,0,9.09-4.82,8.08-7.29-.68-1.8-.9-1.8-2.69-.23s-2.25,1.57-4.72.23C404.41,373.52,404.41,373.52,401.94,375Z" transform="translate(-13 -142.29)"></path><path class="cls-1" d="M602.13,374.53c-.78.23-1.45,1.68-1.45,3.14,0,2.92,2.8,5.05,6.5,5.05,2.47,0,8.08-4.49,8.08-6.39,0-2.47-2.36-2.81-4.6-.79s-2.36,2-3.37.11S604.71,373.41,602.13,374.53Z" transform="translate(-13 -142.29)"></path><path class="cls-1" d="M789.32,377.9c-1.57,3-.34,4.82,3.25,4.82s5.38-2.47,3.25-5.05C793.91,375.43,790.55,375.54,789.32,377.9Z" transform="translate(-13 -142.29)"></path></svg>