<svg xmlns="http://www.w3.org/2000/svg" width="621.000000pt" height="900.000000pt" viewBox="0 0 621.000000 900.000000" preserveAspectRatio="xMidYMid meet"><g transform="translate(0.000000,900.000000) scale(0.100000,-0.100000)" fill="#ffffff" stroke="none"><path d="M2993 8902 c-40 -41 -73 -77 -73 -81 0 -4 16 -22 35 -41 38 -37 43 -56 20 -86 -8 -10 -15 -27 -15 -36 0 -19 -31 -76 -67 -124 -13 -17 -23 -34 -23 -38 0 -20 -105 -138 -271 -308 -216 -219 -370 -383 -416 -444 -19 -24 -38 -44 -43 -44 -4 0 -21 -21 -37 -46 -15 -26 -36 -58 -45 -73 -29 -45 -58 -107 -58 -123 0 -9 -7 -21 -15 -28 -8 -7 -15 -23 -15 -37 0 -13 -6 -34 -12 -46 -7 -12 -15 -53 -18 -91 l-5 -70 -60 3 c-56 2 -62 0 -90 -29 l-30 -31 0 -435 0 -434 -42 -17 c-24 -10 -43 -23 -43 -29 0 -6 -7 -17 -15 -24 -21 -17 -19 -43 5 -58 20 -12 18 -37 -4 -57 -6 -5 -27 -30 -46 -55 -19 -25 -46 -56 -60 -70 -45 -44 -91 -110 -132 -190 -19 -38 -23 -59 -21 -132 l1 -88 -99 0 c-86 0 -102 3 -119 20 -11 11 -20 31 -20 45 0 20 -6 25 -34 30 -47 9 -76 -2 -113 -44 l-33 -36 0 -226 c0 -124 -3 -229 -6 -232 -4 -3 -18 3 -32 13 -13 11 -31 20 -38 20 -16 0 -19 -36 -5 -45 5 -3 13 -20 17 -38 3 -17 14 -46 22 -64 14 -30 14 -34 -1 -51 -9 -10 -17 -26 -17 -36 0 -30 -30 -76 -49 -76 -10 0 -24 7 -31 15 -7 8 -21 15 -32 15 -18 0 -20 -5 -14 -32 3 -17 13 -39 21 -48 27 -30 18 -68 -29 -118 -109 -116 -127 -133 -136 -127 -6 4 -18 23 -28 43 -11 24 -25 38 -40 40 -22 3 -22 1 -20 -64 3 -66 2 -69 -25 -82 -15 -7 -32 -24 -37 -37 -5 -13 -14 -26 -19 -30 -6 -3 -11 -14 -11 -24 0 -10 -7 -24 -15 -31 -8 -7 -15 -23 -15 -36 0 -13 -15 -41 -33 -61 -42 -48 -87 -110 -87 -118 0 -4 -13 -24 -30 -45 -16 -21 -30 -43 -30 -49 0 -6 -14 -40 -30 -74 -17 -35 -30 -71 -30 -79 0 -8 -7 -23 -15 -34 -8 -10 -15 -27 -15 -37 0 -11 -6 -33 -13 -50 -23 -54 -39 -101 -46 -138 -4 -19 -12 -42 -17 -50 -12 -18 -33 -108 -44 -184 -4 -33 -13 -78 -19 -100 -13 -51 -14 -593 0 -655 5 -25 14 -72 19 -105 18 -119 38 -207 49 -218 6 -6 11 -25 11 -42 0 -17 7 -40 15 -51 8 -10 15 -30 15 -44 0 -14 7 -34 15 -44 8 -11 15 -28 15 -39 0 -10 7 -32 15 -48 8 -16 22 -42 30 -58 8 -16 15 -36 15 -44 0 -8 7 -20 15 -27 8 -7 15 -19 15 -27 0 -8 14 -35 30 -60 17 -24 30 -46 30 -49 0 -2 12 -23 27 -47 15 -23 32 -49 38 -58 28 -44 97 -120 160 -177 l71 -63 -2 -80 c-1 -57 -7 -85 -18 -98 -24 -26 -19 -50 12 -61 15 -6 36 -16 47 -22 11 -8 57 -13 106 -14 47 0 91 -4 98 -9 7 -4 20 -22 28 -39 25 -54 36 -70 116 -163 43 -50 102 -110 130 -132 29 -22 77 -61 107 -85 30 -25 59 -45 63 -46 5 0 23 -11 41 -25 39 -30 83 -54 241 -135 66 -34 127 -65 135 -69 65 -33 84 -41 100 -41 9 0 23 -7 30 -15 7 -8 20 -15 29 -15 10 0 26 -7 37 -15 10 -8 28 -15 40 -15 11 0 29 -7 40 -15 10 -8 27 -15 37 -15 11 0 31 -6 45 -14 43 -21 93 -37 152 -48 30 -6 59 -14 65 -19 5 -5 25 -9 45 -9 19 -1 53 -7 75 -15 25 -9 81 -15 150 -15 61 0 146 -7 190 -15 44 -8 101 -15 126 -15 51 0 145 -26 170 -47 19 -16 41 -17 57 -1 21 21 85 38 177 48 50 5 117 14 150 20 33 5 111 10 173 10 62 0 122 5 132 10 10 6 45 14 77 20 104 17 196 42 278 75 17 7 55 21 85 30 30 9 69 23 87 31 17 8 38 14 46 14 8 0 20 7 27 15 7 8 19 15 26 15 8 0 22 4 32 9 9 5 80 40 157 77 77 37 177 91 223 118 45 28 92 56 103 62 11 6 32 23 47 36 15 14 33 27 39 29 17 5 211 182 212 193 1 5 16 25 34 46 50 58 78 98 99 139 l18 37 98 0 c73 -1 107 3 133 16 19 9 42 19 52 22 21 7 23 44 2 52 -11 5 -15 23 -15 78 0 40 -5 77 -10 82 -16 16 -4 34 63 94 59 52 123 124 157 176 52 80 120 198 120 209 0 7 7 18 15 25 8 7 15 20 15 29 0 9 7 25 15 35 8 11 15 27 15 37 0 9 6 22 14 28 8 6 16 24 19 39 6 33 25 88 43 125 8 16 14 37 14 48 0 11 6 32 14 47 7 15 17 53 20 84 4 32 12 60 17 63 5 4 9 30 9 58 0 29 7 74 15 101 12 39 15 113 15 360 0 193 -4 324 -11 346 -6 19 -14 60 -19 90 -11 72 -32 150 -48 177 -6 12 -12 27 -12 33 0 6 -11 28 -25 50 -14 21 -29 58 -34 81 -5 23 -14 46 -20 52 -6 6 -11 21 -11 33 0 12 -7 27 -15 34 -8 7 -15 21 -15 30 0 16 -10 40 -41 100 -4 8 -18 35 -31 60 -26 53 -72 121 -110 164 -15 16 -35 46 -44 66 -8 19 -29 61 -45 93 -16 31 -29 64 -29 72 0 9 -9 15 -23 15 -13 0 -32 9 -42 20 -16 18 -17 26 -7 72 7 28 10 53 7 56 -11 11 -52 -21 -62 -49 -6 -16 -18 -29 -25 -29 -8 0 -51 38 -96 86 -64 66 -82 91 -82 114 0 16 6 33 13 37 8 4 16 17 19 28 3 11 9 28 13 38 6 13 2 17 -18 17 -13 0 -30 -7 -37 -15 -7 -8 -20 -15 -29 -15 -17 0 -51 51 -51 79 0 9 -7 26 -15 38 -16 23 -12 40 31 126 30 62 8 89 -36 42 -12 -13 -27 -22 -31 -19 -5 3 -9 110 -9 238 l0 233 -35 36 c-54 56 -137 65 -143 16 -2 -15 -13 -36 -26 -48 -21 -20 -32 -22 -117 -19 l-94 3 -5 95 c-8 127 -40 191 -170 336 -111 124 -117 134 -85 157 19 15 19 15 0 52 -14 26 -33 44 -62 57 l-43 19 0 443 0 444 -27 18 c-16 11 -53 21 -88 24 l-60 5 -3 45 c-2 25 -9 59 -17 77 -8 17 -15 44 -15 60 0 15 -7 37 -15 47 -8 11 -15 29 -15 40 0 12 -20 51 -43 87 -24 36 -46 72 -49 80 -13 32 -227 268 -429 474 -119 121 -238 245 -263 275 -60 70 -146 197 -146 214 0 7 -7 19 -15 26 -8 7 -15 20 -15 29 0 10 -7 26 -15 37 -25 33 -18 66 22 100 l37 31 -70 70 c-102 102 -96 102 -181 15z m120 -47 c31 -30 32 -34 12 -61 -16 -21 -20 -99 -6 -108 5 -3 12 -21 15 -39 8 -44 104 -205 173 -290 30 -38 151 -166 268 -285 331 -337 446 -472 504 -596 62 -132 76 -187 76 -313 0 -81 3 -113 12 -113 6 0 15 5 18 10 3 6 25 10 48 10 33 0 46 5 63 28 12 15 26 23 31 19 4 -5 10 -210 13 -455 3 -246 9 -453 13 -459 5 -7 21 -13 37 -13 27 0 28 -2 24 -32 -4 -23 2 -47 20 -80 22 -42 125 -177 167 -219 9 -9 34 -48 55 -85 36 -65 39 -74 38 -149 0 -44 -2 -89 -5 -99 -3 -17 5 -21 66 -32 152 -27 244 -13 288 43 22 28 35 29 53 6 10 -13 13 -57 14 -153 0 -74 3 -199 7 -277 6 -141 6 -143 28 -137 21 5 23 1 30 -51 4 -37 19 -77 41 -116 34 -58 38 -93 12 -110 -5 -3 -16 -39 -25 -80 -20 -100 -6 -170 42 -199 35 -21 80 -26 90 -10 19 30 85 -18 85 -62 0 -10 7 -29 15 -41 14 -23 20 -86 15 -185 -2 -45 -6 -56 -31 -74 -22 -16 -29 -30 -29 -55 0 -43 -16 -42 -35 3 -20 49 -20 53 16 66 64 22 63 89 -2 210 -5 10 -9 25 -9 35 0 9 -10 27 -22 40 -25 27 -83 31 -114 8 -10 -8 -24 -15 -29 -15 -25 0 -105 93 -105 123 0 20 -40 68 -51 61 -5 -3 -5 -13 1 -25 8 -14 7 -25 -5 -43 -11 -16 -16 -44 -15 -83 1 -32 -2 -98 -6 -148 -4 -49 -6 -103 -6 -120 1 -16 1 -48 2 -70 1 -22 -2 -59 -5 -81 -4 -26 -3 -44 4 -48 6 -4 11 -18 11 -30 0 -24 76 -136 92 -136 4 0 8 -7 8 -15 0 -8 -4 -15 -9 -15 -14 0 -104 61 -117 80 -7 8 -26 31 -43 50 -18 19 -47 66 -66 104 -34 65 -35 73 -35 177 0 119 7 133 61 122 31 -6 43 9 35 42 -7 29 -45 42 -74 26 -37 -20 -54 -75 -57 -194 -2 -62 -4 -116 -4 -120 -2 -18 -19 4 -24 30 -14 74 -66 233 -97 298 -5 11 -11 29 -12 40 -3 18 3 20 47 20 30 0 69 9 95 22 72 33 180 165 180 219 0 27 -11 30 -40 12 -23 -15 -55 0 -83 37 -16 23 -16 27 -2 54 8 17 15 39 15 49 0 10 9 27 20 37 13 12 18 25 14 37 -3 11 2 30 11 44 14 22 16 54 15 222 -1 108 2 208 6 221 7 22 6 23 -34 16 -24 -4 -56 -2 -75 4 -29 10 -80 17 -268 38 l-46 5 23 56 c26 63 33 180 13 229 -32 80 -57 125 -107 191 -50 66 -54 75 -44 98 18 39 15 44 -31 44 -64 0 -98 -42 -112 -135 -10 -70 -53 -150 -71 -132 -3 3 -1 13 5 24 41 74 46 99 46 226 0 101 -3 130 -15 137 -8 5 -18 6 -23 3 -4 -3 -24 -2 -43 1 -31 6 -34 10 -34 42 0 34 1 35 33 33 47 -4 77 9 78 34 1 12 1 136 0 276 -1 235 -3 258 -22 297 -22 47 -90 114 -114 114 -26 0 -29 -29 -7 -53 12 -13 23 -32 24 -42 4 -34 -14 -98 -37 -135 -28 -44 -53 -99 -57 -125 -3 -15 -10 -19 -31 -17 -24 3 -27 0 -27 -26 0 -31 -43 -95 -116 -172 -49 -52 -74 -118 -74 -196 0 -41 -4 -56 -16 -61 -28 -10 -35 19 -31 118 6 123 29 190 74 214 18 10 47 34 66 54 40 43 97 155 97 189 0 14 14 48 31 76 17 27 34 68 37 91 3 22 10 48 17 57 8 12 9 38 3 85 -4 37 -5 94 -1 125 3 32 1 70 -5 85 -6 16 -13 44 -17 64 -3 21 -17 54 -32 75 -14 22 -40 67 -57 100 -32 62 -105 164 -117 164 -14 0 -81 60 -119 108 -46 59 -132 126 -173 136 -18 4 -31 16 -38 34 -13 34 -56 79 -136 144 -35 27 -63 57 -63 65 0 21 -48 123 -58 123 -4 0 -12 9 -17 19 -6 11 -27 44 -47 74 -23 33 -40 73 -45 103 l-8 49 -46 3 c-55 4 -79 -15 -79 -59 0 -17 -7 -43 -15 -59 -20 -38 -74 -118 -84 -125 -15 -9 -48 -79 -55 -118 -4 -22 -14 -41 -24 -44 -33 -12 -143 -115 -168 -158 -18 -31 -36 -47 -60 -55 -48 -16 -127 -81 -171 -141 -21 -28 -57 -63 -81 -79 -62 -41 -152 -164 -152 -207 0 -6 -9 -18 -21 -29 -54 -48 -85 -175 -84 -344 1 -148 16 -225 56 -290 16 -26 29 -58 29 -72 0 -67 119 -234 181 -253 11 -4 19 -12 19 -18 0 -7 7 -25 16 -42 21 -40 32 -249 14 -260 -21 -13 -40 24 -40 77 0 29 -8 63 -20 85 -11 21 -20 43 -20 49 0 6 -12 21 -26 35 -48 44 -117 141 -123 173 -5 23 -13 32 -32 34 -19 2 -27 12 -37 45 -8 23 -26 63 -42 88 -29 48 -52 131 -43 158 3 9 15 23 26 32 22 18 17 49 -8 49 -24 0 -92 -67 -115 -114 -19 -40 -21 -63 -23 -314 -2 -261 -1 -272 18 -286 14 -10 32 -13 58 -9 37 6 37 5 37 -30 0 -38 -3 -40 -90 -49 -22 -3 -26 -10 -34 -58 -6 -36 -4 -82 3 -135 12 -79 19 -103 47 -159 20 -39 13 -41 -20 -7 -21 22 -30 46 -40 101 -10 58 -18 78 -44 106 -26 28 -40 34 -72 34 -43 0 -45 -4 -30 -44 8 -21 2 -35 -44 -98 -86 -118 -118 -196 -118 -287 0 -61 28 -171 43 -171 5 0 9 -4 9 -9 0 -5 -21 -11 -47 -14 -27 -4 -102 -14 -168 -23 -66 -9 -142 -17 -170 -18 -52 -1 -56 -5 -38 -46 6 -15 7 -52 4 -90 -10 -104 -5 -303 8 -328 7 -13 11 -31 9 -40 -1 -10 6 -27 17 -39 12 -12 26 -43 33 -68 10 -39 10 -49 -4 -70 -23 -35 -64 -59 -77 -46 -19 19 -37 12 -37 -13 0 -13 7 -29 15 -36 8 -7 15 -21 15 -31 0 -20 88 -116 134 -145 22 -14 45 -17 97 -16 76 3 80 -1 53 -53 -24 -46 -74 -175 -74 -190 0 -8 -6 -29 -14 -47 -13 -30 -37 -140 -51 -230 -3 -21 -11 -38 -17 -38 -14 0 -5 137 11 153 7 7 11 52 11 118 0 96 -3 113 -25 156 -29 53 -40 63 -72 63 -31 0 -59 -52 -38 -70 8 -7 26 -9 43 -5 24 5 30 2 40 -20 7 -14 15 -57 18 -96 6 -54 3 -78 -11 -112 -18 -44 -52 -114 -71 -149 -18 -32 -86 -98 -126 -124 -71 -45 -66 -31 27 91 8 10 15 27 15 36 0 10 4 21 10 24 14 8 13 92 -1 101 -7 4 -8 20 -4 43 12 67 -4 390 -21 412 -14 18 -18 216 -4 224 6 3 6 13 1 23 -13 27 -29 103 -37 176 -4 43 -13 74 -26 88 -18 21 -19 36 -13 298 4 167 11 280 17 287 15 19 36 16 50 -8 21 -34 81 -59 143 -59 63 0 196 19 208 30 4 4 4 32 -1 64 -17 108 32 220 154 356 87 97 126 162 126 213 1 44 3 46 32 49 29 3 31 6 38 53 3 28 7 233 7 457 1 241 5 409 10 413 5 3 21 -6 35 -20 16 -16 36 -25 56 -25 17 0 41 -5 52 -11 30 -16 39 0 29 55 -11 62 22 266 51 311 3 6 22 41 42 78 66 126 137 209 535 618 100 103 207 218 239 257 76 95 147 222 168 304 17 64 17 68 -1 107 l-18 41 23 25 c29 31 39 31 73 0z m-12 -435 c5 0 9 -18 9 -39 0 -34 23 -96 41 -111 3 -3 29 -39 58 -80 41 -60 51 -82 51 -116 0 -25 -6 -47 -15 -54 -25 -21 -19 -97 11 -137 14 -18 34 -33 45 -33 21 0 23 8 9 44 -11 29 12 96 32 96 17 0 117 -105 128 -135 5 -14 7 -45 4 -69 -4 -27 -2 -46 5 -50 6 -4 11 -14 11 -22 0 -18 -34 -18 -49 0 -6 7 -30 20 -54 28 -98 34 -146 48 -162 48 -31 0 -103 42 -114 66 -14 31 -26 30 -56 -2 -31 -33 -68 -53 -120 -64 -104 -22 -215 -63 -215 -80 0 -6 -11 -10 -25 -10 -16 0 -25 6 -25 15 0 8 4 15 10 15 5 0 9 28 8 63 -2 58 1 67 30 105 36 45 88 92 103 92 18 0 39 -69 29 -96 -14 -36 -12 -44 8 -44 28 0 70 50 77 93 6 31 3 44 -14 67 -35 47 -28 91 27 172 95 141 100 152 101 194 1 45 8 57 29 49 7 -3 18 -5 23 -5z m26 -632 c42 -25 151 -57 199 -57 17 -1 37 -8 44 -16 7 -8 23 -15 35 -15 12 0 28 -7 35 -15 14 -17 60 -21 60 -5 0 6 11 15 24 20 18 6 23 14 19 28 -6 24 13 62 31 62 18 0 125 -116 137 -149 8 -18 6 -37 -6 -69 -11 -28 -14 -52 -9 -70 4 -15 6 -35 5 -45 -1 -10 7 -21 21 -26 30 -11 138 -116 138 -134 0 -7 5 -18 11 -24 17 -17 48 -113 49 -148 0 -16 5 -37 10 -45 7 -11 10 1 10 42 0 31 -4 60 -10 63 -5 3 -10 21 -10 39 0 19 -7 39 -15 46 -23 19 -18 40 10 40 14 0 28 7 31 15 21 54 66 -59 68 -169 1 -55 -3 -68 -23 -90 -14 -14 -32 -26 -42 -26 -13 0 -20 -10 -24 -37 -3 -21 -8 -47 -10 -58 -19 -92 -31 -132 -42 -143 -7 -7 -13 -23 -13 -35 0 -21 -35 -65 -137 -176 -24 -25 -43 -55 -43 -67 0 -11 -7 -29 -15 -40 -16 -21 -20 -101 -6 -123 6 -8 11 6 15 42 10 80 29 114 151 262 13 16 35 27 63 31 38 6 42 5 42 -15 0 -53 -75 -155 -144 -195 -32 -19 -45 -35 -59 -73 -9 -26 -17 -64 -17 -83 -1 -19 -7 -57 -14 -85 -11 -42 -11 -54 0 -77 23 -44 17 -82 -16 -116 -23 -25 -30 -41 -30 -72 0 -44 -5 -48 -32 -23 -25 23 -35 8 -19 -30 23 -54 26 -97 7 -97 -9 0 -16 6 -16 14 0 7 -7 19 -15 26 -8 7 -17 27 -21 46 -3 19 -10 37 -15 40 -5 3 -9 19 -9 36 0 16 -7 45 -16 63 -13 27 -15 66 -11 231 3 183 11 242 38 309 4 11 11 31 15 45 9 34 29 56 76 80 83 43 125 113 148 247 10 56 11 82 2 112 -7 21 -12 48 -12 60 0 39 -39 108 -77 138 -21 17 -64 35 -96 43 -48 11 -61 18 -68 39 -5 14 -14 34 -19 43 -6 10 -10 24 -10 33 0 25 -36 75 -76 104 -55 40 -165 67 -214 52 -21 -6 -46 -11 -57 -11 -11 0 -26 -7 -33 -15 -16 -19 -64 -20 -79 -1 -21 25 -131 35 -212 19 -94 -19 -189 -124 -189 -208 0 -28 -29 -45 -100 -60 -120 -26 -197 -206 -159 -372 6 -27 17 -61 25 -76 8 -16 14 -33 14 -39 0 -22 63 -88 104 -107 53 -26 68 -43 89 -101 34 -94 42 -164 41 -355 0 -188 -9 -258 -38 -320 -8 -16 -23 -49 -33 -72 -33 -78 -58 -27 -27 55 10 26 23 50 28 54 37 25 37 477 0 550 -8 15 -14 35 -14 45 0 20 -53 83 -69 83 -15 0 -100 87 -112 113 -5 12 -13 29 -18 37 -50 86 -60 294 -19 401 31 83 126 159 197 159 32 0 51 16 51 45 0 11 7 29 15 39 8 11 15 27 15 35 0 23 109 121 134 121 11 1 32 7 46 15 17 10 57 14 127 15 57 0 105 4 108 10 8 13 58 13 70 1 6 -6 57 -12 115 -14 128 -5 185 -24 248 -83 40 -38 61 -74 79 -139 8 -29 32 -45 69 -45 17 0 37 -7 44 -15 7 -8 18 -15 26 -15 28 0 100 -90 118 -147 23 -73 24 -269 1 -313 -8 -16 -15 -36 -15 -44 0 -17 -53 -100 -84 -132 -12 -12 -35 -30 -53 -41 -46 -27 -66 -59 -89 -133 -16 -56 -19 -96 -19 -280 1 -211 6 -270 25 -270 6 0 9 96 10 241 0 195 3 248 15 272 8 16 15 41 15 55 0 17 13 37 42 61 94 82 122 115 155 181 41 84 44 102 44 256 0 163 -3 179 -58 251 -38 50 -125 103 -168 103 -25 0 -37 5 -41 18 -37 112 -85 174 -160 210 -27 13 -57 28 -67 33 -9 5 -59 12 -110 15 -50 3 -109 13 -130 22 -35 14 -43 14 -90 -1 -29 -9 -92 -18 -140 -22 -71 -4 -100 -11 -153 -37 -94 -46 -139 -101 -178 -220 -4 -13 -16 -18 -41 -18 -44 0 -133 -56 -168 -103 -54 -76 -60 -102 -59 -260 1 -117 4 -154 16 -173 9 -13 16 -29 16 -37 0 -16 29 -73 59 -115 12 -17 49 -52 82 -77 37 -30 61 -56 65 -73 3 -15 12 -45 19 -67 18 -54 28 -249 19 -390 -5 -92 -10 -118 -26 -135 -25 -27 -38 -17 -38 28 0 46 -9 61 -35 59 -19 -2 -20 5 -21 153 -1 192 -13 233 -89 283 -54 36 -122 125 -131 175 -6 30 -5 32 22 32 46 0 73 -11 79 -30 3 -10 16 -29 28 -41 42 -44 87 -107 87 -122 0 -8 7 -20 15 -27 8 -7 15 -27 15 -44 0 -41 10 -76 21 -76 15 0 10 95 -6 116 -8 10 -15 31 -15 45 0 17 -15 41 -43 70 -61 63 -137 163 -137 180 0 8 -7 24 -15 36 -8 12 -18 49 -22 82 -3 34 -10 61 -16 61 -14 0 -4 -133 11 -138 7 -2 12 -17 12 -33 0 -68 -87 -13 -109 69 -8 30 -17 86 -23 139 0 4 6 12 15 17 11 7 21 5 35 -7 17 -15 52 -24 52 -12 0 18 -27 53 -53 70 -30 19 -32 24 -35 90 -3 67 22 195 38 195 4 0 13 -7 20 -15 7 -8 21 -15 32 -15 22 0 23 1 -6 -125 -18 -81 -20 -109 -6 -100 6 3 10 19 10 34 0 15 4 31 10 37 5 5 13 32 17 59 3 27 10 54 14 60 43 55 106 121 121 127 10 4 18 11 18 17 0 5 9 11 21 14 13 4 19 12 18 24 -2 10 0 31 4 46 5 17 2 45 -8 72 -10 30 -12 52 -6 68 12 32 119 147 137 147 17 0 34 -31 34 -64 0 -16 7 -27 20 -31 24 -7 27 -25 5 -25 -24 0 -105 -89 -105 -114 0 -12 -13 -36 -30 -54 -16 -18 -30 -35 -30 -38 0 -2 11 -4 25 -4 16 0 28 7 31 18 25 78 116 192 154 192 10 0 23 7 30 15 7 8 23 15 35 15 12 0 28 7 35 15 7 8 24 15 39 15 47 0 165 33 201 56 44 29 51 29 97 2z m-723 -260 c20 -48 21 -55 8 -75 -8 -13 -20 -23 -27 -23 -17 0 -85 -76 -85 -95 0 -28 -26 -15 -43 20 -21 44 -22 69 -2 85 8 7 15 17 15 22 0 6 13 27 28 47 16 20 32 44 35 54 13 36 46 20 71 -35z m1434 15 c46 -60 82 -121 82 -141 0 -27 -29 -82 -43 -82 -7 0 -20 17 -29 38 -10 20 -35 48 -55 62 -47 31 -64 52 -53 65 4 5 14 29 21 53 16 53 37 55 77 5z m-815 -20 c56 -16 61 -16 114 2 70 24 179 24 231 1 46 -21 83 -72 112 -156 13 -36 29 -70 37 -76 7 -6 36 -14 63 -17 28 -3 57 -12 64 -19 7 -7 23 -20 35 -28 11 -8 21 -19 21 -25 0 -5 8 -23 17 -40 24 -44 24 -241 0 -275 -9 -14 -17 -32 -17 -40 0 -22 -53 -74 -93 -93 -54 -26 -98 -89 -111 -162 -4 -22 -13 -46 -19 -54 -17 -20 -17 -479 0 -512 6 -13 19 -51 29 -84 10 -33 27 -72 38 -87 53 -73 -44 -21 -133 71 -123 129 -243 345 -260 471 l-6 45 -65 0 c-65 0 -65 0 -68 -30 -13 -128 -146 -366 -278 -499 -51 -51 -122 -101 -131 -92 -3 3 4 20 15 38 11 18 27 58 37 88 9 30 23 69 31 87 20 44 20 424 0 485 -8 24 -17 58 -21 77 -7 32 -23 65 -56 118 -7 12 -30 28 -51 37 -47 21 -98 71 -98 96 0 10 -8 26 -17 36 -15 14 -17 36 -16 139 1 115 2 124 28 166 37 58 57 71 135 89 63 15 65 16 76 55 6 22 16 53 22 68 7 16 12 32 12 37 0 4 23 29 50 53 37 33 61 47 88 50 54 6 119 -1 185 -20z m-1087 -389 c-5 -13 -10 -14 -18 -6 -6 6 -8 18 -4 28 5 13 10 14 18 6 6 -6 8 -18 4 -28z m2309 16 c3 -5 4 -14 0 -20 -8 -13 -35 -1 -35 16 0 16 26 19 35 4z m-220 -150 c3 -5 1 -38 -6 -72 -21 -116 -58 -178 -106 -178 -19 0 -23 5 -23 29 0 16 6 31 15 35 10 3 15 19 15 43 0 47 20 105 45 133 19 21 50 27 60 10z m-2025 -224 c0 -33 9 -61 35 -105 38 -65 43 -92 20 -111 -20 -17 -19 -53 3 -80 19 -23 42 -21 42 5 0 27 50 29 50 2 0 -7 10 -23 21 -37 60 -74 73 -104 73 -164 -1 -46 -5 -62 -20 -73 -28 -20 -38 -11 -44 38 -9 67 -18 81 -115 168 -53 48 -68 70 -74 109 -5 28 -11 38 -29 40 -24 4 -31 39 -10 60 9 9 8 28 -1 82 -12 65 -11 73 5 91 29 32 44 24 44 -25z m2198 27 c19 -17 20 -26 15 -126 -5 -90 -8 -107 -21 -105 -12 2 -18 -9 -23 -45 -4 -27 -9 -50 -11 -51 -2 -1 -34 -29 -73 -63 -73 -64 -99 -103 -110 -165 -7 -42 -20 -55 -39 -39 -35 29 -30 140 7 182 33 37 67 87 67 98 0 25 25 22 47 -5 l23 -29 20 25 c23 30 26 63 5 80 -8 7 -15 21 -15 31 0 18 43 106 61 124 5 5 9 31 9 57 0 52 7 57 38 31z m-2223 -339 c9 -14 44 -55 78 -91 81 -85 100 -123 101 -199 1 -68 -10 -88 -52 -98 -15 -3 -38 -14 -52 -25 -23 -18 -25 -26 -24 -94 1 -65 5 -80 30 -118 18 -27 48 -54 77 -69 50 -27 59 -45 27 -55 -46 -15 -97 5 -144 55 -25 27 -46 57 -46 68 0 10 -7 27 -15 38 -10 13 -14 47 -15 117 l0 97 39 0 c69 0 117 68 91 131 -15 35 -39 50 -77 47 -16 -1 -34 1 -40 5 -14 9 -18 217 -4 217 5 0 16 -12 26 -26z m2239 -76 c-3 -51 -7 -99 -10 -105 -2 -7 -19 -13 -39 -13 -50 0 -75 -28 -75 -85 0 -57 33 -92 88 -97 l37 -3 3 -75 c3 -95 -20 -174 -71 -235 -41 -48 -96 -72 -141 -61 -39 10 -31 31 21 58 82 42 123 126 109 221 -5 33 -14 47 -41 65 -19 12 -41 22 -49 22 -27 0 -41 32 -40 94 1 79 23 124 96 198 32 32 58 63 58 68 0 9 39 40 52 40 3 0 4 -42 2 -92z m-1103 -33 c8 -71 46 -174 89 -240 11 -16 23 -37 27 -45 10 -22 91 -129 127 -168 48 -53 149 -126 216 -158 110 -53 184 -74 321 -89 282 -31 402 24 430 197 16 100 19 108 34 108 8 0 19 -16 25 -39 5 -21 25 -58 43 -82 19 -24 40 -57 48 -74 9 -16 23 -45 32 -63 12 -23 17 -59 17 -115 0 -71 -3 -87 -25 -119 -22 -32 -94 -78 -122 -78 -7 0 -21 13 -32 29 -23 32 -58 42 -118 34 -32 -4 -56 -18 -97 -55 -31 -27 -56 -58 -56 -68 0 -9 -7 -23 -15 -30 -11 -9 -15 -33 -15 -90 0 -42 -3 -79 -6 -82 -6 -7 -114 101 -115 117 -1 5 -1 45 0 87 1 74 2 77 29 90 21 10 28 21 30 48 2 30 -2 38 -27 53 -28 17 -63 18 -433 16 l-403 -1 -6 41 c-3 22 -9 44 -13 48 -15 15 -41 -15 -46 -53 -5 -36 -7 -39 -35 -37 -16 0 -197 2 -402 3 -341 2 -374 1 -401 -16 -51 -30 -49 -84 4 -104 22 -9 24 -15 24 -74 0 -35 3 -71 6 -80 6 -15 -69 -106 -87 -106 -5 0 -9 22 -9 49 0 28 -4 52 -9 56 -5 3 -12 18 -16 34 -7 31 -79 103 -134 135 -20 11 -55 19 -87 20 -49 1 -57 -2 -85 -31 -16 -18 -34 -33 -39 -33 -24 0 -91 45 -115 76 -24 31 -26 43 -26 119 -1 55 4 94 14 112 8 15 21 41 28 58 8 16 31 52 52 80 21 27 42 67 48 88 16 61 48 44 49 -26 2 -88 44 -171 110 -212 97 -61 372 -51 565 23 128 48 203 98 298 197 56 58 139 172 154 211 4 10 12 24 19 29 16 14 66 153 71 200 6 59 11 67 35 63 19 -3 24 -11 29 -53z m-781 -205 c0 -101 -2 -110 -21 -120 -16 -9 -25 -8 -40 6 -18 16 -20 16 -39 -1 -14 -13 -20 -31 -20 -61 0 -35 5 -47 28 -64 23 -19 35 -21 87 -15 66 7 86 25 95 84 9 59 45 50 61 -15 32 -123 32 -125 13 -166 -22 -49 -48 -63 -160 -83 -123 -23 -119 -23 -119 0 0 25 37 43 112 55 69 12 101 41 79 75 -7 11 -25 21 -40 23 -27 3 -33 -7 -15 -25 20 -20 -1 -33 -52 -33 -130 0 -193 145 -118 272 17 29 44 69 60 89 16 20 29 44 29 52 0 18 39 49 52 41 4 -3 8 -54 8 -114z m1536 98 c11 -13 26 -35 33 -49 7 -14 24 -39 38 -55 14 -16 32 -43 39 -61 8 -17 18 -34 24 -38 5 -3 10 -34 10 -67 0 -103 -58 -168 -149 -168 -53 0 -70 12 -51 35 10 12 9 16 -4 21 -22 8 -43 -1 -55 -25 -17 -31 14 -58 79 -70 73 -13 109 -27 117 -47 11 -29 -12 -31 -117 -10 -129 27 -135 30 -160 71 -16 26 -19 42 -14 81 9 68 32 135 52 150 24 17 32 9 32 -34 1 -56 26 -79 97 -87 57 -7 61 -6 87 21 35 38 36 95 3 117 -19 12 -26 13 -41 1 -13 -9 -24 -10 -37 -3 -17 9 -19 23 -19 124 0 63 4 115 8 115 5 0 17 -10 28 -22z m-1476 -239 c0 -28 -6 -41 -25 -53 -41 -27 -115 -17 -115 15 0 5 19 9 43 11 38 3 44 7 62 44 22 46 35 40 35 -17z m1434 -12 c10 -10 33 -17 53 -17 35 0 36 0 18 -20 -24 -26 -75 -26 -103 0 -22 21 -28 61 -16 95 6 14 9 12 19 -12 7 -16 20 -37 29 -46z m-1716 -11 c-8 -20 -8 -32 0 -51 7 -14 12 -32 12 -40 0 -18 60 -85 77 -85 7 0 13 -7 13 -15 0 -20 -40 -19 -66 3 -11 10 -35 37 -52 61 -26 36 -32 53 -32 96 0 43 4 55 23 68 29 19 42 0 25 -37z m1990 -26 c3 -46 -1 -59 -30 -101 -18 -27 -38 -49 -44 -49 -7 0 -14 -7 -18 -15 -3 -8 -17 -15 -31 -15 -16 0 -25 6 -25 15 0 8 5 15 12 15 20 0 76 72 83 107 3 19 3 48 0 64 -8 38 0 50 28 40 18 -7 23 -17 25 -61z m-1098 -463 c0 -28 -121 -56 -345 -81 -38 -4 -99 -20 -175 -47 -50 -17 -53 -18 -75 -32 -85 -51 -115 -67 -123 -67 -6 0 -7 36 -4 89 4 84 4 89 -17 96 -11 3 -21 10 -21 14 0 27 39 31 326 34 164 1 329 3 367 5 48 1 67 -1 67 -11z m910 -13 c13 -12 11 -16 -9 -31 -23 -15 -23 -20 -17 -100 7 -94 5 -96 -59 -58 -125 74 -259 119 -394 130 -135 12 -281 50 -281 74 0 4 168 6 373 3 300 -3 375 -7 387 -18z m-790 -39 c32 -38 184 -84 280 -85 30 0 73 -5 95 -11 22 -6 56 -14 75 -18 63 -15 200 -79 263 -124 83 -60 188 -167 208 -212 5 -11 13 -27 18 -35 5 -8 12 -22 15 -30 3 -8 10 -22 15 -30 18 -30 41 -128 41 -173 0 -44 2 -48 36 -62 20 -8 46 -15 58 -15 11 0 46 -14 76 -30 30 -16 64 -34 75 -39 32 -15 138 -121 183 -181 47 -64 110 -185 118 -230 4 -17 11 -33 15 -36 5 -3 9 -15 9 -27 0 -12 7 -35 15 -51 8 -15 15 -39 15 -53 0 -13 5 -34 12 -46 6 -12 18 -58 25 -102 8 -44 17 -100 21 -125 5 -25 14 -55 20 -67 7 -12 12 -35 12 -52 0 -16 5 -33 11 -36 5 -4 14 -17 20 -28 5 -12 15 -31 24 -42 13 -18 13 -24 -1 -50 -25 -47 -45 -132 -55 -230 -4 -49 -15 -117 -23 -150 -8 -33 -20 -80 -26 -105 -6 -25 -17 -58 -24 -75 -8 -16 -22 -50 -31 -75 -70 -185 -216 -356 -366 -433 -41 -20 -80 -37 -87 -37 -40 0 -67 -29 -86 -92 -40 -136 -140 -296 -242 -386 -77 -68 -240 -146 -389 -187 -33 -9 -83 -23 -111 -31 -28 -8 -65 -14 -83 -14 -49 0 -160 -29 -218 -57 l-51 -24 -54 24 c-63 29 -131 47 -213 57 -33 4 -80 13 -105 19 -25 7 -72 19 -105 28 -33 8 -73 21 -90 28 -16 7 -55 23 -85 35 -94 38 -161 81 -237 153 -40 38 -73 74 -73 79 0 6 -13 27 -28 47 -38 49 -82 142 -108 225 -20 68 -21 69 -70 87 -120 46 -179 84 -269 174 -49 50 -101 109 -115 133 -14 24 -35 59 -48 78 -12 19 -22 43 -22 52 0 10 -6 26 -13 37 -39 58 -100 300 -112 441 -7 79 -29 172 -44 187 -13 13 -14 64 -2 71 14 9 51 85 51 105 0 10 7 35 15 54 8 20 15 52 15 70 0 19 7 51 15 70 8 20 15 50 15 67 0 35 51 221 79 285 35 81 41 96 41 105 0 6 13 29 30 52 17 22 30 45 30 50 0 13 41 60 122 138 72 71 155 118 258 148 l65 19 6 64 c6 64 23 123 53 189 70 153 242 305 418 371 87 33 198 59 250 59 97 0 257 48 288 86 16 18 64 18 80 -1z m-1190 -72 c6 -6 -20 -22 -48 -29 -29 -8 -36 -1 -27 26 6 18 12 20 38 14 18 -3 34 -8 37 -11z m2365 4 c10 -8 15 -19 11 -25 -11 -18 -41 -14 -60 7 -18 20 -17 21 25 30 3 0 13 -5 24 -12z m-2651 -28 c30 -14 35 -41 27 -144 l-6 -80 -56 -3 c-49 -3 -57 0 -67 20 -15 27 -20 114 -8 125 5 4 11 2 13 -4 5 -15 29 -17 37 -4 9 14 -4 41 -19 41 -19 0 -27 17 -20 40 7 23 58 27 99 9z m2954 5 c30 -9 29 -42 -3 -54 -32 -12 -32 -30 0 -30 46 0 54 -53 18 -123 -13 -26 -18 -28 -66 -25 l-52 3 -8 98 c-8 87 -7 101 9 118 17 19 58 24 102 13z m-2548 -19 c0 -9 6 -18 14 -21 24 -9 48 -101 41 -156 -9 -65 -102 -248 -126 -248 -15 0 -10 79 7 105 30 46 10 141 -47 232 -19 30 -19 33 -3 57 9 14 25 26 35 26 10 0 21 5 24 10 10 16 55 12 55 -5z m2151 -16 c33 -24 37 -50 11 -87 -37 -53 -52 -96 -52 -146 0 -101 24 -130 35 -43 12 99 50 185 99 229 35 31 52 31 48 0 -5 -31 8 -27 41 11 27 31 28 31 42 13 18 -23 20 -105 4 -139 -8 -18 -21 -26 -51 -30 -46 -6 -106 -50 -127 -92 -8 -16 -22 -38 -33 -49 -10 -11 -18 -30 -18 -42 0 -65 -56 -17 -88 76 -51 144 -53 180 -20 246 16 32 26 43 42 41 15 -1 21 3 20 16 -2 23 11 22 47 -4z m-2736 -12 c16 -25 35 -165 25 -192 -5 -15 -22 -18 -105 -20 -90 -2 -101 0 -117 19 -21 25 -23 79 -4 98 8 8 11 26 9 45 -4 27 -1 32 25 41 18 6 33 7 39 1 6 -6 16 -2 28 11 26 28 80 27 100 -3z m3351 8 c10 -8 29 -15 42 -15 15 0 22 -6 22 -20 0 -12 7 -32 16 -45 18 -28 13 -84 -11 -122 -14 -20 -20 -21 -112 -16 -73 5 -101 10 -110 22 -8 12 -8 19 0 30 6 7 12 42 12 76 0 80 19 105 80 105 22 0 50 -7 61 -15z m-3048 -37 c9 -9 15 -9 24 0 21 21 55 13 84 -21 49 -55 100 -201 84 -241 -15 -40 -36 -39 -49 5 -13 44 -78 95 -133 106 -18 3 -38 10 -44 15 -18 13 -25 82 -13 117 12 33 27 39 47 19z m31 -215 c49 -26 69 -45 92 -88 19 -35 19 -38 4 -62 -15 -22 -22 -25 -60 -20 -46 5 -55 -2 -55 -46 0 -33 -26 -101 -42 -111 -52 -32 -181 64 -190 141 -7 60 7 105 44 135 18 15 40 28 48 28 11 0 11 3 2 12 -7 7 -12 15 -12 19 0 25 120 19 169 -8z m2727 14 c4 -4 1 -13 -5 -21 -10 -12 -8 -16 8 -21 12 -3 21 -10 21 -15 0 -5 14 -22 30 -38 25 -26 30 -38 30 -80 0 -51 -5 -60 -71 -129 -40 -42 -105 -54 -143 -27 -20 15 -25 29 -28 69 -3 49 -3 50 -42 56 -44 7 -76 38 -76 74 0 32 88 121 131 134 35 11 134 9 145 -2z m-3055 -36 c20 -16 24 -29 25 -81 0 -66 -10 -80 -58 -80 -13 0 -42 -7 -65 -15 -54 -19 -89 -5 -98 36 -4 16 -11 31 -16 34 -12 8 -11 66 0 84 8 12 17 7 45 -24 20 -21 36 -43 36 -47 0 -4 7 -8 15 -8 19 0 20 29 0 36 -20 8 -28 40 -15 64 15 28 97 28 131 1z m3333 13 c22 -8 20 -41 -4 -72 -14 -17 -17 -29 -11 -35 10 -10 62 37 87 79 6 10 15 14 22 10 17 -10 15 -58 -3 -92 -8 -16 -15 -37 -15 -46 0 -24 -36 -41 -74 -35 -54 9 -127 26 -137 32 -5 4 -9 33 -9 66 0 75 20 99 84 99 24 0 51 -3 60 -6z m-3779 -99 c16 -13 19 -28 20 -98 0 -78 -2 -85 -32 -124 -50 -62 -40 -84 18 -42 40 28 51 17 43 -39 -4 -32 -16 -57 -35 -77 -28 -30 -37 -64 -22 -79 4 -4 15 3 25 16 13 18 20 20 29 11 21 -21 -8 -92 -57 -142 -42 -41 -45 -43 -62 -27 -12 10 -36 16 -64 16 -52 0 -79 -23 -98 -85 -7 -22 -21 -61 -32 -86 -27 -62 -21 -99 19 -124 41 -25 42 -51 3 -100 -17 -21 -33 -49 -36 -62 -5 -17 -13 -23 -34 -23 -33 0 -49 -18 -29 -31 19 -11 60 0 86 24 29 26 63 91 63 120 0 13 5 28 10 33 13 13 -6 63 -24 65 -6 1 -18 2 -26 3 -21 2 -25 50 -6 66 9 7 16 18 16 24 0 16 48 59 59 52 13 -8 22 -60 28 -155 4 -83 -1 -107 -39 -171 -5 -8 -11 -23 -14 -33 -4 -9 -17 -20 -30 -23 -13 -3 -28 -12 -35 -20 -6 -8 -19 -14 -29 -14 -9 0 -31 -15 -48 -34 -17 -19 -40 -37 -51 -41 -26 -8 -27 -38 -3 -62 26 -25 34 -53 21 -69 -14 -16 -3 -34 20 -34 29 0 29 -8 3 -63 -16 -32 -27 -75 -29 -112 -3 -33 -8 -69 -13 -80 -5 -11 -11 -65 -14 -120 -3 -55 -10 -140 -15 -189 -6 -53 -7 -107 -1 -135 5 -25 12 -87 16 -136 4 -50 11 -92 15 -95 5 -3 10 -27 13 -54 2 -27 9 -53 15 -59 6 -6 11 -28 11 -48 0 -20 6 -42 14 -48 7 -6 16 -29 20 -51 3 -22 10 -40 15 -40 5 0 12 -12 15 -26 4 -15 14 -33 21 -41 8 -8 15 -23 15 -34 0 -10 5 -19 10 -19 14 0 12 24 -4 62 -8 18 -21 49 -30 70 -9 20 -16 42 -16 50 0 8 -3 18 -7 22 -7 7 -15 32 -47 161 -7 28 -17 61 -23 75 -14 34 -20 251 -14 498 1 68 8 123 21 164 11 33 20 71 20 84 0 23 15 62 52 138 16 34 17 41 4 55 -12 13 -12 19 -2 34 16 21 39 22 56 2 8 -9 30 -15 57 -15 42 0 43 -1 32 -22 -6 -11 -22 -31 -35 -43 -13 -12 -24 -26 -24 -31 0 -5 -7 -22 -16 -39 -26 -48 -43 -127 -33 -147 14 -26 12 -28 -25 -28 -41 0 -45 -5 -53 -68 -4 -37 0 -59 17 -98 12 -27 29 -53 36 -57 18 -11 17 -24 -6 -72 -25 -52 -25 -101 0 -167 23 -59 66 -100 81 -77 4 7 31 16 59 19 68 7 64 24 -7 30 -53 5 -59 8 -85 45 -15 22 -27 51 -27 65 -1 31 30 100 52 119 18 14 23 41 9 41 -16 0 -62 46 -62 62 0 8 -7 21 -16 28 -10 9 -14 26 -12 49 3 34 5 36 40 39 20 2 51 -4 68 -13 26 -14 31 -14 36 -1 6 16 -12 56 -26 56 -5 0 -16 7 -25 16 -12 12 -14 27 -9 67 4 29 10 54 14 57 4 3 17 25 30 50 44 89 98 123 83 53 -4 -21 -8 -85 -7 -143 1 -95 4 -110 26 -146 14 -22 35 -62 48 -89 22 -52 55 -119 69 -145 26 -47 41 -96 41 -135 0 -33 4 -45 14 -45 19 0 46 39 46 65 0 12 5 26 11 32 14 14 13 133 -1 147 -16 16 -13 76 4 76 8 0 16 -10 18 -22 3 -25 28 -37 28 -15 0 9 -7 22 -15 31 -8 8 -15 21 -15 30 0 8 -5 18 -10 21 -14 9 -50 90 -50 113 0 11 10 26 23 35 21 14 21 16 5 33 -16 16 -18 16 -42 1 -36 -24 -43 -75 -21 -148 10 -33 22 -62 27 -65 4 -3 8 -20 8 -38 0 -19 7 -39 15 -46 16 -13 21 -105 7 -127 -10 -16 -37 5 -46 37 -9 31 -21 59 -79 180 -59 125 -64 142 -73 254 -6 86 -5 97 15 130 32 50 78 86 112 86 33 0 39 -16 9 -25 -11 -3 -20 -12 -20 -20 0 -56 60 -63 115 -13 19 18 35 41 35 50 0 25 -21 23 -27 -2 -3 -11 -11 -20 -17 -20 -13 0 -66 57 -66 71 0 5 18 25 40 45 22 20 40 42 40 49 0 7 7 15 15 19 8 3 15 15 15 26 0 35 29 23 36 -15 3 -19 11 -35 16 -35 12 0 6 -65 -11 -135 -19 -73 -52 -136 -78 -148 -26 -11 -29 -29 -10 -49 26 -28 45 -87 62 -200 14 -91 16 -123 7 -140 -6 -13 -12 -52 -14 -88 -3 -60 -1 -65 19 -68 12 -2 24 -10 27 -17 7 -18 -27 -148 -49 -192 -19 -38 -28 -40 -55 -13 -27 27 -40 25 -78 -10 -18 -16 -37 -30 -43 -30 -14 0 -11 33 6 73 19 47 19 111 0 131 -8 8 -15 23 -15 34 0 30 -80 92 -119 92 -33 0 -89 -39 -96 -67 -14 -59 26 -121 61 -93 20 18 44 4 44 -25 0 -14 5 -25 10 -25 15 0 12 -22 -6 -45 -11 -15 -27 -20 -62 -20 -63 0 -66 -19 -4 -23 45 -3 51 0 81 33 28 32 32 43 29 83 -3 40 -7 48 -36 65 -25 15 -35 17 -47 7 -16 -13 -35 -6 -35 14 0 7 11 23 25 36 25 23 25 23 65 5 45 -20 90 -73 90 -105 0 -28 -29 -146 -45 -185 -7 -16 -20 -47 -29 -68 -21 -50 -22 -170 -1 -187 8 -7 15 -22 15 -33 0 -11 7 -27 15 -36 8 -9 27 -31 41 -48 14 -18 32 -33 39 -33 7 0 15 -7 19 -15 7 -19 52 -19 60 0 7 19 70 21 64 3 -3 -7 -17 -14 -32 -16 -15 -2 -30 -10 -33 -18 -7 -19 -67 -18 -83 1 -7 8 -19 15 -27 15 -19 0 -86 72 -109 118 -11 21 -23 40 -27 43 -4 3 -11 19 -15 34 -9 32 -32 46 -32 20 0 -19 37 -103 54 -121 26 -30 36 -44 36 -49 0 -12 75 -75 90 -75 8 0 24 -7 34 -15 11 -8 30 -15 43 -15 13 0 26 -7 29 -15 4 -8 12 -15 20 -15 8 0 14 -4 14 -10 0 -12 4 -11 -83 -13 -54 -2 -71 -6 -78 -19 -18 -32 -51 -14 -74 37 -8 19 -8 19 -13 1 -2 -10 0 -21 5 -25 8 -6 33 -47 33 -56 0 -2 -8 -2 -17 2 -22 7 -103 88 -103 103 0 14 -13 13 -28 -2 -9 -9 -12 -8 -12 5 0 37 68 49 89 15 l13 -21 19 24 c25 33 24 46 -8 66 -16 10 -37 29 -48 41 -11 13 -30 33 -41 44 -18 16 -21 28 -17 61 4 41 4 42 -13 19 -9 -12 -20 -22 -25 -22 -21 0 0 100 27 129 12 13 15 10 25 -17 6 -18 15 -32 20 -32 13 0 11 34 -5 67 -7 15 -22 46 -32 68 -34 71 -93 110 -123 80 -15 -15 -14 -18 10 -38 14 -12 34 -27 43 -32 16 -9 17 -19 7 -102 -11 -100 -1 -143 48 -212 17 -24 21 -35 12 -44 -6 -6 -11 -19 -11 -29 0 -10 -5 -27 -12 -37 -10 -16 -8 -27 8 -58 10 -21 24 -43 29 -49 6 -6 19 -27 30 -47 11 -20 23 -37 27 -37 5 0 8 -6 8 -13 0 -7 8 -20 18 -28 9 -9 33 -33 53 -55 57 -62 137 -133 169 -149 29 -15 35 -28 32 -67 -1 -11 5 -18 17 -18 24 0 39 -19 47 -59 4 -17 11 -34 15 -37 5 -3 9 -14 9 -24 0 -34 82 -143 179 -240 88 -88 210 -190 226 -190 4 0 24 -12 44 -27 46 -35 65 -47 121 -74 25 -12 70 -34 100 -49 30 -14 82 -34 115 -44 33 -10 74 -24 92 -32 17 -8 40 -14 50 -14 10 0 23 -4 29 -9 12 -11 90 -30 179 -43 39 -5 78 -14 88 -19 9 -5 39 -12 65 -16 26 -3 56 -10 66 -16 34 -17 196 -30 431 -34 140 -2 239 0 255 6 14 6 63 13 108 15 46 3 89 9 95 14 7 5 36 12 66 15 30 4 59 11 65 17 5 5 26 10 45 10 20 0 54 5 76 11 22 6 60 15 85 20 24 5 49 14 54 19 6 6 21 10 35 10 15 0 39 7 55 15 15 8 36 15 45 15 9 0 29 7 45 15 15 8 41 15 57 15 15 0 31 5 34 10 3 6 15 10 26 10 10 0 24 9 31 20 7 11 18 20 25 20 16 0 97 42 101 52 2 4 8 8 13 8 7 0 156 96 169 110 3 3 27 23 54 44 92 74 246 245 246 274 0 5 7 15 15 22 8 7 15 20 15 30 0 10 7 23 15 30 8 7 15 28 15 46 0 28 5 36 25 44 27 10 31 20 15 36 -7 7 12 26 57 60 136 99 257 239 334 384 13 25 27 47 31 48 5 2 8 11 8 21 0 9 7 26 15 37 8 10 15 26 15 35 0 9 7 22 15 29 8 7 15 22 15 34 0 12 7 31 15 42 8 10 15 33 15 50 0 16 7 39 15 50 8 10 15 40 15 65 0 29 6 51 15 59 10 8 15 30 15 64 0 28 7 86 15 129 18 93 19 183 4 258 -5 30 -12 94 -14 142 -2 49 -8 94 -13 100 -5 7 -12 44 -15 83 -3 44 -13 85 -26 108 -26 46 -26 56 -2 56 11 0 23 5 26 11 8 12 -23 49 -42 49 -7 0 -13 6 -13 14 0 8 -12 29 -26 46 -21 25 -33 30 -58 28 -24 -2 -32 -8 -35 -28 -4 -34 -19 -41 -66 -34 -52 8 -93 40 -157 122 -72 92 -83 112 -62 112 9 0 37 -11 63 -24 43 -23 112 -40 221 -56 70 -10 170 -86 170 -130 0 -11 4 -20 8 -20 15 0 32 24 32 46 0 12 5 24 12 26 6 2 14 26 17 53 7 58 25 67 78 41 18 -9 50 -24 70 -33 21 -10 44 -24 51 -30 7 -7 17 -13 22 -13 4 0 31 -22 59 -48 37 -35 51 -55 51 -75 0 -15 -5 -27 -11 -27 -7 0 -35 24 -64 53 -54 54 -171 121 -201 115 -11 -2 -17 -17 -19 -46 -2 -24 -11 -52 -19 -61 -9 -10 -16 -21 -16 -25 0 -4 -9 -19 -19 -33 -23 -28 -18 -49 12 -59 73 -23 100 -84 42 -94 l-30 -6 1 -77 c1 -42 6 -82 11 -89 16 -20 37 -308 29 -395 -13 -156 -40 -310 -57 -327 -5 -6 -9 -22 -9 -36 0 -25 -28 -120 -49 -165 -5 -11 -17 -38 -26 -60 -44 -108 -102 -205 -211 -353 -76 -102 -158 -185 -237 -239 -37 -26 -47 -38 -47 -61 0 -26 2 -28 41 -27 31 1 45 7 59 25 23 31 50 21 50 -19 0 -17 -6 -34 -13 -38 -7 -4 -19 -28 -27 -52 l-14 -44 34 -29 c100 -86 100 -86 84 -125 -24 -56 -62 -111 -90 -129 -24 -16 -27 -16 -52 3 -19 14 -28 31 -30 57 -3 32 -6 35 -18 25 -12 -10 -19 -7 -39 11 -28 26 -32 64 -10 86 21 21 19 31 -10 50 -22 15 -23 17 -9 38 10 17 21 22 38 19 18 -4 29 2 42 22 18 28 15 34 -28 53 -27 11 -29 10 -58 -46 -73 -138 -166 -245 -327 -374 -99 -79 -296 -198 -329 -198 -24 0 -26 -21 -5 -44 12 -12 21 -32 21 -45 0 -35 28 -81 50 -81 27 0 44 -34 30 -60 -7 -14 -8 -26 0 -39 18 -35 12 -70 -15 -83 -32 -14 -55 4 -55 43 0 22 -7 32 -25 41 -29 13 -30 16 -10 42 37 48 5 67 -60 36 -50 -24 -62 -37 -47 -52 6 -6 17 -5 31 4 18 11 24 10 43 -9 18 -18 19 -24 8 -37 -7 -9 -23 -16 -36 -16 -29 0 -31 -17 -7 -59 17 -28 17 -31 1 -47 -26 -26 -65 -11 -73 28 -3 18 -10 44 -14 58 -30 91 -33 107 -22 129 7 11 17 21 24 21 6 0 35 10 64 22 41 17 53 27 53 44 0 22 -20 36 -43 30 -6 -3 -25 -7 -40 -11 -20 -4 -33 -16 -43 -40 -19 -45 -51 -48 -66 -5 -8 25 -14 29 -32 24 -76 -25 -175 -50 -246 -64 -25 -4 -56 -13 -70 -18 -14 -6 -90 -20 -170 -31 -80 -12 -175 -26 -213 -31 -99 -15 -325 -12 -452 5 -60 8 -166 22 -235 31 -69 9 -132 20 -141 25 -9 4 -41 13 -70 18 -64 12 -109 23 -204 49 -66 19 -88 27 -162 58 -17 8 -36 14 -42 14 -46 0 -306 145 -431 240 -185 142 -363 372 -384 497 -6 34 -15 45 -54 71 -123 79 -313 309 -384 462 -53 113 -77 167 -81 180 -4 10 -6 7 -6 -7 -1 -12 -6 -25 -12 -28 -17 -11 -57 34 -64 73 -7 36 -7 36 -23 15 -10 -12 -30 -25 -47 -29 -16 -3 -43 -19 -60 -35 -42 -38 -97 -47 -124 -20 -12 12 -21 32 -21 46 0 28 25 44 43 26 17 -17 27 -13 27 9 0 22 -40 43 -64 34 -18 -7 -36 25 -36 63 0 33 53 93 64 74 4 -6 26 -11 49 -11 36 0 44 4 59 30 21 37 45 39 58 4 18 -47 13 -73 -17 -80 -54 -12 -93 -26 -93 -33 0 -4 11 -18 25 -31 23 -22 28 -22 63 -11 22 8 48 10 59 7 12 -4 25 -1 33 9 7 8 19 15 26 15 18 0 18 43 0 78 -8 15 -21 74 -30 131 -10 58 -19 108 -22 112 -3 5 -16 3 -29 -3 -22 -10 -25 -17 -25 -68 0 -34 -5 -62 -12 -68 -7 -5 -38 -13 -68 -16 -30 -4 -67 -12 -82 -18 -40 -15 -76 -3 -84 28 -4 14 -3 29 2 34 5 5 46 12 91 16 l81 7 6 40 c11 64 -5 73 -92 52 -79 -19 -98 -16 -111 17 -13 36 -3 48 40 48 45 0 60 22 50 72 -7 35 -20 37 -35 6 -7 -15 -20 -23 -36 -23 -22 0 -25 5 -28 42 -4 61 10 83 56 83 42 0 78 -30 100 -82 21 -50 33 -33 30 39 -3 58 -1 68 15 71 38 8 47 -15 47 -115 0 -66 4 -95 13 -97 59 -19 67 -17 67 13 0 16 -7 34 -15 41 -13 11 -14 15 -1 29 9 11 16 51 19 126 3 61 11 144 18 185 7 41 13 102 13 135 1 58 0 60 -26 63 -21 3 -28 9 -28 25 0 22 36 67 55 67 6 0 19 6 30 13 17 13 16 17 -19 76 -25 43 -36 74 -36 102 0 35 -3 39 -24 39 -14 0 -28 -4 -31 -10 -3 -5 -15 -10 -25 -10 -10 0 -25 -6 -32 -14 -8 -7 -23 -16 -33 -20 -11 -3 -39 -24 -62 -47 -42 -40 -73 -47 -73 -16 0 20 39 67 56 67 8 0 14 4 14 9 0 10 116 81 133 81 7 0 23 7 35 16 12 8 32 14 45 12 18 -2 23 -11 27 -47 7 -65 30 -66 30 -1 0 30 8 66 19 88 20 39 70 82 95 82 9 0 20 9 27 21 9 18 7 25 -19 48 -28 24 -31 32 -35 109 -4 69 -1 95 16 145 35 100 84 155 101 112 8 -23 67 -18 97 8 38 32 53 78 45 140 -11 99 -18 129 -32 134 -23 9 -16 60 16 119 16 31 33 78 36 105 7 53 10 56 39 34z m956 -101 c10 -12 10 -20 1 -35 -7 -10 -12 -34 -12 -52 0 -41 -15 -57 -54 -57 -17 0 -44 -9 -61 -20 -72 -48 -86 -16 -38 92 25 55 27 57 82 71 31 8 59 15 62 16 4 1 12 -6 20 -15z m2281 -15 c33 -16 48 -31 61 -63 17 -42 22 -78 11 -89 -3 -3 -25 1 -47 10 -37 14 -60 19 -91 22 -5 1 -6 16 -3 34 3 19 -1 43 -9 57 -7 14 -13 31 -14 38 0 19 44 14 92 -9z m-2712 -69 c66 -69 68 -70 119 -70 56 0 67 -15 29 -40 -78 -50 -167 -53 -258 -7 -60 29 -65 35 -65 64 0 20 -7 37 -19 46 -12 8 -17 20 -13 30 6 16 82 45 121 46 11 1 47 -29 86 -69z m3225 49 c25 -12 45 -26 45 -33 0 -21 -17 -37 -32 -31 -23 9 -31 -10 -16 -35 12 -19 10 -24 -15 -44 -35 -28 -121 -56 -174 -56 -63 0 -177 42 -170 63 2 7 30 14 63 17 70 6 110 31 154 96 27 38 36 44 66 44 19 0 54 -9 79 -21z m-3855 -174 c0 -40 -4 -57 -15 -61 -8 -4 -15 -17 -15 -31 0 -22 3 -24 30 -18 40 9 39 -7 -6 -62 -35 -42 -37 -43 -60 -28 -37 24 -70 19 -105 -18 -30 -31 -69 -122 -69 -160 0 -29 -24 -14 -31 19 -8 40 1 113 19 149 8 17 55 69 103 116 50 47 94 99 100 117 7 21 18 32 30 32 16 0 19 -8 19 -55z m4384 2 c19 -29 65 -79 102 -112 73 -64 114 -136 113 -195 -2 -76 -27 -109 -41 -53 -23 95 -74 173 -114 173 -14 0 -38 -7 -53 -15 -26 -13 -30 -13 -49 8 -11 12 -23 32 -27 45 -5 19 -2 25 14 29 25 6 29 48 6 57 -11 4 -15 21 -15 61 0 72 17 72 64 2z m-3544 9 c0 -8 -30 -37 -66 -66 -36 -28 -83 -68 -104 -88 -83 -82 -225 -81 -311 0 -56 54 -53 73 19 122 46 32 43 32 127 -19 33 -20 53 -25 116 -25 54 0 80 4 88 14 7 8 23 17 36 20 14 4 25 11 25 16 0 6 7 10 15 10 9 0 18 7 21 15 8 19 34 20 34 1z m3106 -37 c54 -43 57 -51 29 -89 -48 -65 -137 -97 -225 -80 -28 5 -60 16 -70 23 -24 17 -140 127 -140 133 0 11 53 2 66 -11 11 -11 37 -15 89 -15 74 0 114 13 159 53 28 24 48 21 92 -14z m-4269 -246 c-4 -42 0 -59 39 -140 37 -77 45 -102 47 -160 2 -55 -2 -73 -18 -95 -11 -15 -25 -28 -31 -28 -6 0 -24 -13 -40 -30 -16 -16 -37 -30 -46 -30 -15 0 -18 9 -18 60 0 50 3 61 21 70 15 9 24 8 35 -1 22 -18 29 -4 29 58 0 67 -20 89 -54 58 -31 -27 -64 -9 -79 44 -18 57 -3 85 40 76 28 -7 30 -5 23 11 -5 11 -10 37 -13 59 -3 33 1 46 22 68 38 41 50 35 43 -20z m5013 20 c22 -28 24 -83 5 -127 -9 -20 1 -20 47 -1 26 11 34 -48 13 -96 -21 -46 -49 -58 -76 -33 -31 28 -53 8 -57 -49 -5 -72 24 -110 54 -69 24 32 41 -16 36 -100 -2 -30 -28 -39 -38 -13 -4 8 -15 15 -25 15 -11 0 -22 7 -25 15 -4 8 -11 15 -16 15 -5 0 -18 10 -29 23 -14 17 -18 39 -19 104 0 45 4 84 9 87 12 8 51 88 51 107 0 8 7 23 15 33 9 11 15 41 15 68 0 55 9 60 40 21z m-4508 -133 c-4 -69 -6 -77 -33 -98 -16 -13 -29 -32 -29 -43 0 -22 25 -26 34 -4 6 17 42 20 51 5 3 -5 -1 -20 -9 -32 -9 -12 -16 -32 -16 -44 0 -67 -101 -180 -133 -148 -6 6 7 35 29 64 7 8 17 39 23 67 12 61 0 103 -31 103 -64 0 -78 58 -25 110 17 18 49 44 70 57 20 14 37 30 37 35 0 5 8 8 18 6 15 -3 17 -13 14 -78z m3988 71 c0 -5 17 -19 38 -32 99 -60 135 -149 65 -164 -15 -4 -34 -9 -42 -13 -20 -11 -90 63 -95 102 -12 79 -14 105 -9 110 10 9 43 7 43 -3z m-4180 -9 c0 -10 -44 -32 -62 -32 -6 0 -3 9 7 20 18 20 55 28 55 12z m4448 -120 c41 -61 42 -90 3 -98 -37 -8 -60 -47 -43 -74 7 -11 12 -30 12 -44 0 -13 7 -29 15 -36 8 -7 15 -18 15 -24 0 -6 11 -23 25 -38 26 -30 86 -41 107 -20 13 13 2 19 -42 24 -30 4 -51 58 -30 83 11 13 17 11 47 -14 58 -48 73 -78 73 -148 0 -35 -4 -63 -10 -63 -5 0 -29 18 -52 40 -24 22 -50 40 -59 40 -9 0 -22 6 -28 14 -7 8 -22 17 -35 20 -13 3 -26 14 -30 23 -3 10 -9 25 -14 33 -40 68 -46 88 -46 165 0 60 4 87 17 105 9 14 17 32 17 42 0 32 24 19 58 -30z m418 -83 c19 -38 18 -71 -4 -100 -10 -13 -21 -32 -25 -41 -9 -25 -22 -22 -46 8 -28 35 -26 66 5 131 28 59 40 60 70 2z m-5324 3 c36 -82 34 -131 -6 -150 -27 -12 -36 -7 -36 18 0 10 -7 23 -15 30 -31 26 -7 141 29 140 6 0 18 -17 28 -38z m4635 -5 c4 -8 15 -16 24 -19 10 -4 20 -28 28 -67 7 -33 16 -63 21 -66 13 -8 39 -63 32 -69 -13 -13 -40 -4 -65 22 -31 32 -67 98 -67 122 0 8 -7 28 -15 44 -13 24 -13 31 -3 38 19 12 36 10 45 -5z m-4098 -30 c26 -32 -66 -217 -108 -217 -17 0 -13 18 14 72 16 32 25 66 25 97 0 26 3 51 7 54 11 12 50 8 62 -6z m4235 7 c12 -5 16 -20 16 -64 0 -39 5 -62 15 -70 8 -7 15 -17 15 -23 0 -6 7 -18 16 -28 11 -12 13 -23 7 -33 -8 -14 -14 -12 -41 15 -36 35 -58 74 -77 138 -19 60 0 84 49 65z m-4861 -68 c9 -7 17 -22 17 -33 0 -11 6 -26 14 -32 7 -6 16 -37 20 -68 6 -48 4 -59 -13 -75 -11 -10 -25 -18 -31 -18 -6 0 -13 -7 -16 -15 -4 -8 -12 -15 -19 -15 -7 0 -15 -7 -19 -15 -3 -8 -15 -15 -27 -15 -25 0 -59 -26 -59 -46 0 -7 9 -16 21 -19 11 -4 18 -12 16 -18 -2 -7 7 -32 20 -56 27 -52 28 -64 7 -82 -12 -10 -20 -10 -34 -2 -67 42 -135 -233 -135 -542 0 -199 34 -474 66 -537 5 -10 9 -27 9 -38 0 -12 6 -33 13 -48 8 -15 24 -62 36 -104 12 -43 36 -105 52 -138 16 -33 29 -63 29 -67 0 -3 14 -34 31 -67 104 -208 212 -349 351 -459 45 -36 141 -87 164 -87 13 0 44 -64 44 -93 0 -32 90 -205 130 -251 171 -197 359 -335 650 -476 113 -55 137 -66 240 -105 52 -20 104 -40 115 -45 11 -5 54 -18 95 -30 41 -11 95 -27 120 -35 25 -8 57 -15 72 -15 15 0 30 -5 33 -10 3 -6 24 -10 46 -10 22 0 50 -5 61 -11 12 -6 84 -17 162 -25 78 -7 152 -16 166 -19 14 -4 124 -9 245 -12 173 -4 238 -2 305 10 47 9 126 18 175 22 88 6 134 13 225 35 25 7 63 15 85 20 85 19 184 46 191 53 4 4 17 7 29 7 13 0 48 11 79 25 31 14 84 34 117 45 33 12 90 35 127 52 174 80 217 101 220 109 2 5 8 9 13 9 16 0 184 103 271 167 100 74 259 237 294 303 13 25 28 52 33 60 24 39 51 103 51 120 0 10 5 22 10 25 21 13 9 51 -26 78 -19 16 -39 40 -44 53 -8 20 -13 23 -28 15 -21 -11 -42 3 -42 28 0 18 39 61 56 61 7 0 28 -18 45 -40 18 -22 36 -40 40 -40 5 0 16 17 25 37 17 35 17 37 0 47 -47 28 -59 42 -52 64 10 29 56 30 82 1 10 -11 32 -26 49 -34 16 -7 41 -24 53 -38 42 -45 5 -88 -48 -55 -15 10 -22 9 -38 -6 -23 -20 -34 -83 -17 -90 31 -12 201 108 272 190 46 55 113 142 113 148 0 2 18 33 40 67 41 67 92 164 109 212 9 22 8 29 -4 33 -22 9 -18 51 5 67 17 12 19 19 10 41 -8 21 -6 33 7 52 11 17 13 28 6 35 -10 10 -29 -9 -59 -57 -10 -15 -14 -17 -25 -6 -7 6 -22 12 -34 12 -12 0 -26 5 -32 11 -17 17 11 55 45 64 l27 7 -24 9 c-18 7 -29 5 -45 -8 -30 -26 -45 -45 -56 -70 -12 -29 -55 -31 -70 -4 -12 24 1 99 23 132 11 14 17 43 17 75 0 31 7 65 18 84 16 29 20 31 57 25 22 -3 68 -8 102 -12 67 -6 98 -27 91 -60 -4 -20 -25 -21 -123 -5 -75 12 -85 5 -85 -59 l0 -49 38 5 c25 4 57 -1 97 -15 95 -34 107 -35 122 -15 7 11 13 29 13 40 0 12 7 36 16 53 8 18 13 36 10 41 -4 5 0 29 8 53 17 50 37 235 44 398 4 104 -5 217 -28 370 -25 161 -72 246 -116 209 -12 -10 -19 -9 -35 7 -19 20 -19 20 11 77 16 31 30 63 30 72 0 8 6 15 13 15 51 0 144 -233 167 -415 34 -275 35 -317 10 -520 -51 -416 -198 -822 -385 -1066 -97 -125 -269 -272 -334 -285 -38 -8 -57 -30 -64 -74 -6 -38 -32 -98 -74 -170 -96 -165 -295 -352 -518 -485 -93 -56 -326 -175 -341 -175 -3 0 -29 -11 -57 -24 -80 -38 -208 -86 -226 -86 -9 0 -21 -4 -26 -9 -23 -21 -303 -95 -405 -107 -19 -2 -125 -11 -235 -19 -110 -9 -239 -25 -288 -36 -71 -17 -94 -19 -120 -9 -46 16 -208 37 -387 50 -144 10 -194 18 -370 56 -68 15 -134 36 -187 60 -17 8 -40 14 -51 14 -12 0 -23 4 -26 9 -3 5 -18 12 -33 16 -29 7 -63 21 -150 61 -28 13 -54 24 -57 24 -7 0 -186 87 -251 123 -86 47 -224 136 -263 169 -18 15 -36 28 -40 28 -4 0 -53 46 -110 103 -148 149 -252 308 -268 409 -7 39 -34 68 -64 68 -46 0 -257 184 -340 295 -93 126 -189 318 -249 496 -54 164 -60 182 -81 279 -35 157 -39 180 -50 301 -30 337 12 645 116 847 18 37 29 69 24 70 -25 9 3 105 68 241 19 39 42 52 42 24 0 -10 7 -29 17 -42 15 -23 15 -25 -2 -37 -10 -8 -25 -14 -32 -14 -15 0 -18 -36 -4 -44 16 -10 35 4 59 41 21 33 22 37 7 59 -8 13 -15 30 -15 37 0 8 -7 20 -15 27 -22 18 -19 71 4 70 3 0 14 -7 24 -14z m5475 -15 c2 -13 -2 -30 -10 -39 -7 -9 -21 -33 -31 -53 -18 -35 -18 -36 5 -72 24 -37 43 -51 59 -41 18 11 9 29 -21 42 -33 15 -37 29 -15 58 8 10 15 27 15 37 0 46 35 0 78 -103 8 -19 19 -43 23 -52 16 -31 11 -58 -10 -58 -11 0 -23 -4 -26 -10 -3 -5 -13 -10 -21 -10 -8 0 -14 5 -14 10 0 13 -37 50 -50 50 -5 0 -10 4 -10 9 0 5 -16 19 -36 32 -34 23 -35 26 -30 72 3 26 12 57 21 69 8 13 15 29 15 37 0 19 31 52 44 48 6 -2 12 -14 14 -26z m-5338 -101 c0 -49 -1 -50 -30 -50 -28 0 -30 2 -30 38 0 41 14 62 42 62 15 0 18 -9 18 -50z m5218 -3 c3 -48 3 -48 -25 -45 -22 2 -29 9 -34 37 -10 47 -2 63 30 59 24 -3 26 -8 29 -51z m-4595 -4 c-7 -2 -13 -10 -13 -17 0 -19 -65 -103 -120 -157 -35 -34 -58 -48 -88 -53 -55 -8 -72 0 -72 35 0 26 -3 29 -33 29 -36 0 -69 -28 -82 -68 -11 -39 -40 -23 -43 24 -3 39 -1 43 54 84 43 34 68 46 108 51 101 13 172 31 216 55 25 13 54 23 65 23 11 0 14 -3 8 -6z m3766 -32 c10 -10 22 -29 26 -41 4 -13 27 -42 52 -66 l44 -43 -28 -36 c-27 -34 -43 -44 -43 -26 0 5 -7 11 -15 15 -27 10 -16 -24 17 -55 38 -34 82 -39 98 -10 14 27 13 30 -15 41 -36 14 -31 30 9 30 39 0 116 -60 116 -91 0 -10 5 -21 10 -24 6 -3 10 -38 10 -76 0 -78 -20 -147 -82 -279 -56 -122 -78 -178 -93 -244 -12 -54 -25 -7 -25 91 0 66 5 101 17 125 9 18 23 47 32 63 8 17 15 56 16 88 0 50 -4 62 -24 78 -23 19 -25 19 -43 2 -20 -18 -20 -18 1 -32 12 -7 21 -22 21 -33 0 -22 -47 -124 -69 -151 -13 -15 -12 -19 7 -37 20 -19 21 -27 15 -113 -5 -89 -4 -95 21 -135 16 -26 34 -42 46 -42 18 0 20 7 20 69 0 49 4 72 15 81 8 7 15 19 15 26 0 15 21 56 61 119 52 82 82 183 87 288 3 80 0 103 -13 124 -12 18 -14 28 -6 36 26 26 141 -157 141 -226 0 -26 -6 -36 -30 -50 -16 -10 -30 -22 -30 -27 0 -4 -3 -15 -6 -24 -4 -11 0 -16 14 -16 12 0 24 5 27 10 10 16 81 12 95 -5 26 -32 -25 -140 -77 -164 l-24 -11 33 -42 c29 -38 33 -49 33 -104 0 -67 -17 -97 -65 -116 -39 -15 -95 -1 -111 28 -17 33 1 46 43 30 26 -10 32 -8 49 13 29 36 24 69 -17 107 -56 53 -126 38 -178 -39 -23 -34 -26 -48 -26 -128 0 -70 3 -91 15 -95 17 -7 20 -49 5 -59 -6 -3 -13 2 -17 12 -8 23 -64 72 -82 73 -8 0 -24 -9 -36 -20 l-21 -20 -21 22 c-11 13 -29 46 -41 75 -36 85 -25 153 23 153 27 0 34 17 10 26 -10 4 -15 20 -15 44 0 21 7 43 15 50 8 7 15 18 15 25 0 7 -7 15 -15 19 -20 7 -20 65 0 153 17 75 44 153 57 167 14 17 9 45 -11 55 -25 14 -56 69 -64 113 -5 31 -2 37 15 41 17 5 19 11 13 34 -3 15 -11 30 -16 31 -5 2 -9 13 -9 25 0 12 -9 39 -20 60 -11 20 -20 41 -20 47 0 17 29 11 49 -9z m-4379 -207 c0 -3 -15 -23 -32 -45 -31 -38 -33 -45 -33 -124 -1 -67 -4 -88 -19 -104 -26 -29 -74 -28 -85 2 -22 59 -23 67 -4 74 23 8 33 23 33 49 0 11 13 38 30 60 16 21 30 44 30 51 0 23 80 61 80 37z m4907 -13 c10 -15 9 -22 -2 -31 -14 -12 -7 -33 46 -132 5 -10 9 -33 9 -52 0 -18 6 -56 14 -82 26 -88 47 -407 32 -494 -3 -19 -8 -64 -11 -100 -5 -63 -26 -173 -45 -236 -6 -17 -10 -38 -10 -48 0 -10 -7 -30 -14 -44 -8 -15 -22 -45 -31 -67 -9 -22 -23 -53 -31 -68 -8 -16 -14 -35 -14 -43 0 -8 -8 -23 -17 -33 -37 -40 -43 -51 -43 -71 0 -11 -7 -23 -15 -26 -8 -4 -15 -10 -15 -14 0 -23 -222 -250 -244 -250 -7 0 -19 -7 -26 -15 -19 -23 -26 -18 -28 23 -1 34 -8 126 -14 212 -3 30 0 35 20 38 18 3 22 -1 22 -22 0 -32 32 -54 84 -58 35 -3 41 0 47 22 4 14 7 19 8 13 2 -25 39 -12 85 28 25 22 46 49 46 59 0 11 6 23 14 27 12 7 36 71 36 95 0 4 -14 5 -31 1 l-31 -6 36 39 c20 21 36 44 36 51 0 6 5 13 12 15 15 5 19 46 19 170 l-1 97 36 21 c38 24 45 62 12 68 -27 5 -106 -74 -114 -114 -3 -19 -10 -37 -15 -40 -5 -3 -9 -16 -9 -29 0 -13 -5 -27 -10 -30 -6 -4 -20 -28 -31 -53 -11 -26 -25 -54 -30 -62 -5 -8 -13 -25 -19 -37 -12 -29 -86 -100 -111 -108 -10 -4 -19 -11 -19 -16 0 -5 -18 -9 -39 -9 -22 0 -41 -4 -43 -9 -4 -13 -36 -18 -40 -6 -2 6 7 11 20 13 12 2 22 10 22 18 0 8 7 14 15 14 54 0 175 134 160 179 -3 10 2 35 10 55 13 30 14 45 6 69 -6 16 -11 42 -11 58 0 15 -8 42 -17 61 -9 18 -23 45 -30 60 -8 15 -15 61 -16 102 -2 66 1 77 22 100 47 50 105 54 141 11 18 -22 8 -28 -23 -14 -22 10 -30 8 -53 -10 -53 -42 -67 -119 -19 -107 12 3 30 -1 41 -9 10 -8 31 -15 46 -15 33 0 58 -9 58 -21 0 -5 -26 -9 -59 -9 -50 0 -59 3 -64 20 -3 11 -10 20 -16 20 -6 0 -11 -9 -11 -20 0 -11 6 -20 14 -20 8 0 16 -7 20 -15 9 -25 100 -20 139 8 40 28 65 56 72 82 4 11 13 36 21 56 15 34 14 40 -9 107 l-25 71 23 21 c30 29 55 119 45 163 -11 49 -18 57 -51 57 l-29 0 0 69 c0 39 -5 73 -10 76 -6 4 -16 21 -24 38 -7 18 -30 50 -50 71 -20 21 -36 42 -36 46 0 4 21 7 46 8 28 0 53 6 62 16 22 21 45 20 59 -3z m351 -67 c2 -18 -3 -36 -11 -43 -12 -9 -13 -18 -4 -41 6 -17 17 -30 24 -30 7 0 13 -9 13 -19 0 -11 4 -23 10 -26 5 -3 14 -24 20 -45 6 -22 20 -44 30 -50 25 -13 25 -54 1 -95 -23 -39 -42 -42 -76 -13 -25 22 -28 30 -30 110 -2 66 -6 91 -19 104 -51 51 -56 87 -14 103 l23 9 -27 12 c-51 24 -30 60 32 57 20 -2 26 -8 28 -33z m-5298 -260 c0 -8 -4 -14 -10 -14 -5 0 -10 9 -10 21 0 11 5 17 10 14 6 -3 10 -13 10 -21z m-82 -26 c2 -21 9 -28 30 -30 35 -4 65 -53 42 -68 -8 -5 -27 -10 -43 -10 -19 0 -31 -7 -39 -25 -20 -45 -68 -45 -68 0 0 18 -7 26 -26 31 -46 12 -53 74 -7 74 16 0 29 10 41 30 23 40 65 39 70 -2z m5552 -3 c0 -8 -4 -15 -10 -15 -5 0 -10 7 -10 15 0 8 5 15 10 15 6 0 10 -7 10 -15z m-6 -101 c22 -9 20 -34 -3 -34 -19 0 -35 23 -24 34 8 7 8 7 27 0z m-224 -30 c0 -16 -16 -19 -25 -4 -8 13 4 32 16 25 5 -4 9 -13 9 -21z m155 -18 c9 -13 29 -26 45 -30 25 -5 30 -10 30 -36 0 -23 -6 -33 -25 -40 -14 -5 -27 -20 -31 -35 -8 -31 -48 -34 -66 -5 -8 12 -24 20 -40 20 -38 0 -63 36 -44 65 7 11 23 21 35 23 12 2 24 10 27 18 2 8 6 21 9 29 7 23 43 18 60 -9z m-145 -228 c0 -5 -7 -8 -15 -8 -15 0 -20 21 -8 33 7 7 23 -11 23 -25z m60 7 c0 -8 -7 -15 -15 -15 -16 0 -20 12 -8 23 11 12 23 8 23 -8z m-4414 -99 c3 -11 19 -54 35 -94 17 -40 27 -77 24 -82 -3 -5 -20 -6 -38 -3 -49 8 -111 -13 -147 -50 -43 -43 -76 -95 -84 -134 -7 -29 -5 -33 21 -39 32 -8 93 -62 93 -82 0 -10 -9 -12 -38 -7 -30 5 -43 2 -61 -14 -23 -20 -41 -20 -41 0 0 5 7 9 15 9 22 0 19 5 -29 54 -38 39 -44 52 -49 102 -7 69 1 155 17 169 6 6 16 19 22 30 6 11 22 26 35 32 21 11 26 10 41 -7 9 -11 25 -20 35 -20 39 0 103 99 103 159 0 33 0 34 20 16 11 -10 22 -27 26 -39z m4584 19 c21 -21 23 -28 14 -52 -11 -28 -15 -30 -46 -18 -27 11 -23 -21 7 -57 27 -32 30 -49 15 -78 -18 -33 -45 -42 -77 -25 -39 21 -99 19 -112 -2 -8 -14 -13 -15 -35 -5 -31 14 -34 46 -8 79 16 22 20 22 80 12 35 -6 66 -9 69 -5 4 3 -3 23 -14 44 -19 35 -22 37 -67 35 -41 -3 -48 0 -58 21 -19 43 -5 56 61 56 45 0 60 4 65 16 9 23 74 10 106 -21z m-1124 -12 c7 -10 14 -28 14 -39 0 -28 67 -104 91 -104 10 0 24 9 31 20 7 11 19 20 26 20 16 0 72 -59 72 -76 0 -6 7 -17 15 -24 11 -9 15 -33 15 -90 0 -57 -4 -81 -15 -90 -8 -7 -15 -18 -15 -26 0 -7 -18 -31 -40 -54 -34 -35 -45 -40 -85 -40 -63 0 -70 22 -22 67 20 18 46 33 56 33 11 0 22 4 26 9 11 19 -48 122 -91 160 -45 39 -118 66 -148 55 -23 -9 -31 22 -14 49 8 12 23 47 33 77 26 80 28 83 51 53z m-3784 -265 c5 -52 -4 -105 -17 -98 -9 5 -15 116 -8 133 10 19 21 3 25 -35z m3806 11 c23 -12 54 -36 69 -55 l26 -34 -51 -50 c-28 -28 -55 -50 -59 -50 -5 0 -31 16 -58 36 -49 35 -52 36 -122 31 -40 -3 -75 -2 -77 1 -2 4 20 37 50 74 43 53 61 68 87 71 47 6 86 -1 135 -24z m-3327 -34 c56 -58 75 -84 62 -86 -4 -1 -45 -2 -89 -3 -77 -1 -84 -3 -122 -33 -23 -18 -48 -33 -57 -33 -10 0 -39 22 -66 49 l-49 49 35 37 c46 51 97 73 171 74 l61 1 54 -55z m3809 -16 c0 -38 -29 -129 -41 -129 -5 0 -9 -5 -9 -12 0 -23 -52 -86 -75 -92 -27 -7 -42 -41 -27 -59 13 -15 4 -63 -14 -78 -19 -15 -18 -39 1 -39 8 0 15 9 15 20 0 11 5 20 10 20 6 0 10 9 10 19 0 27 44 76 58 67 16 -9 15 -43 0 -63 -7 -8 -30 -33 -50 -54 -37 -38 -58 -49 -58 -29 0 6 -8 13 -17 17 -10 3 -27 14 -38 24 -22 20 -76 27 -112 15 -35 -11 -46 2 -26 29 11 15 28 24 44 25 14 0 34 7 45 15 10 8 26 15 34 15 34 0 141 127 155 183 4 15 11 27 16 27 4 0 11 16 15 35 3 19 10 35 15 35 5 0 14 12 19 26 13 32 30 22 30 -17z m-3692 -126 c33 -20 52 -42 52 -60 0 -9 -15 -12 -52 -11 -63 3 -101 -20 -139 -83 l-24 -40 -83 4 c-45 2 -87 8 -93 14 -15 15 -3 36 32 56 24 13 30 22 26 40 -7 28 9 50 53 70 67 31 186 36 228 10z m3102 -8 c33 -16 80 -78 80 -106 0 -6 8 -18 18 -25 30 -22 -4 -43 -84 -50 -62 -6 -73 -4 -88 12 -87 103 -92 107 -130 109 -21 1 -42 8 -46 15 -10 17 -2 40 15 40 7 0 19 7 26 16 11 13 28 15 94 11 45 -3 95 -12 115 -22z m348 -23 c2 -7 -3 -12 -12 -12 -9 0 -16 7 -16 16 0 17 22 14 28 -4z m-4496 -57 c26 -27 73 -149 65 -168 -6 -15 -168 -97 -191 -97 -9 0 -21 11 -28 25 -13 30 3 55 36 55 11 1 37 9 56 18 37 18 52 60 30 87 -9 11 -21 7 -67 -21 -61 -37 -94 -42 -113 -19 -24 29 -7 49 58 68 36 11 62 24 62 32 0 15 38 45 57 45 7 0 22 -11 35 -25z m1226 -5 c10 -14 21 -18 42 -14 36 8 78 -29 59 -52 -16 -20 -46 -17 -69 6 -17 17 -21 18 -26 5 -13 -34 3 -46 58 -43 52 3 53 2 56 -26 5 -43 -8 -50 -71 -36 -65 13 -91 38 -112 106 -23 77 -21 88 18 80 17 -3 38 -15 45 -26z m2581 -8 c0 -15 -8 -47 -18 -72 -16 -39 -25 -48 -72 -67 -86 -36 -111 -27 -89 32 9 25 14 27 46 22 26 -4 37 -2 41 9 8 22 -2 27 -26 12 -17 -10 -23 -10 -36 3 -23 22 5 58 45 57 17 -1 38 6 48 14 39 34 62 30 61 -10z m131 -6 c117 -84 145 -236 44 -236 -12 0 -25 7 -28 16 -3 8 -10 12 -16 9 -14 -8 19 -52 45 -59 19 -6 19 -7 -5 -27 -33 -27 -65 -39 -102 -39 -88 0 -193 71 -186 127 3 27 5 28 73 33 62 4 70 7 68 25 -5 52 16 157 34 170 23 18 21 19 73 -19z m-2846 8 c10 -4 16 -18 16 -36 0 -16 5 -39 12 -51 7 -12 14 -40 17 -62 l6 -40 50 3 c43 3 53 0 74 -22 14 -14 19 -26 13 -26 -6 0 -17 -12 -24 -27 -7 -15 -39 -40 -73 -60 -72 -39 -132 -44 -160 -13 -10 11 -23 20 -30 20 -6 0 -17 16 -24 36 -7 20 -22 45 -33 56 -17 17 -19 28 -13 66 10 70 60 133 120 151 17 5 31 10 32 10 1 1 8 -2 17 -5z m3265 -13 c9 -6 10 -10 2 -16 -16 -9 -44 2 -36 15 8 12 16 12 34 1z m695 -106 c11 -8 36 -15 57 -15 39 0 86 -20 100 -42 16 -24 9 -57 -13 -69 -17 -9 -24 -9 -33 5 -21 28 -38 19 -31 -16 19 -105 19 -105 -5 -122 -33 -22 -47 -20 -78 13 -30 32 -87 64 -100 56 -5 -3 -21 -1 -36 5 l-26 10 27 35 c14 19 33 35 41 35 8 0 34 -16 57 -35 59 -48 69 -46 60 13 -9 60 -7 58 -54 66 -33 5 -40 10 -40 29 0 44 37 60 74 32z m-4259 -20 c22 -8 48 -15 58 -15 14 0 17 -10 17 -70 0 -66 -1 -70 -27 -83 -16 -8 -47 -17 -71 -20 -34 -4 -45 -2 -56 15 -12 17 -11 25 11 64 14 25 23 47 21 49 -5 5 -48 -34 -76 -70 -12 -15 -26 -24 -32 -20 -17 10 -11 83 10 125 19 37 23 40 63 40 23 -1 60 -7 82 -15z m3513 -7 c6 -13 13 -39 17 -60 3 -20 12 -39 21 -42 12 -4 13 -10 4 -26 -14 -25 -28 -18 -91 44 -26 25 -49 42 -53 39 -11 -11 -7 -23 8 -23 13 0 26 -41 26 -86 0 -20 -5 -24 -28 -24 -43 0 -121 30 -126 48 -3 9 -2 42 2 72 7 54 7 54 52 66 25 7 70 12 101 13 48 1 57 -2 67 -21z m587 -39 c14 -22 -5 -79 -31 -92 l-26 -13 27 -32 c15 -18 33 -32 40 -32 17 0 165 -109 165 -121 0 -27 -32 -80 -55 -91 -16 -7 -28 -23 -32 -39 -3 -15 -18 -40 -35 -55 l-29 -29 -37 20 c-25 14 -40 30 -46 52 -9 28 -15 32 -50 35 -22 2 -41 8 -43 14 -4 13 42 64 58 64 6 0 33 -23 60 -51 47 -50 69 -56 69 -19 0 18 -74 90 -92 90 -17 0 -3 45 14 48 10 2 40 -15 67 -39 32 -26 56 -39 66 -35 23 8 3 35 -60 79 -86 60 -165 46 -181 -33 -9 -42 -20 -55 -49 -58 -28 -4 -28 -3 -23 43 4 32 16 59 37 85 17 21 31 46 31 54 0 21 18 30 35 16 10 -8 15 -8 20 0 4 6 -1 17 -10 24 -16 11 -16 14 -1 28 9 9 16 24 16 33 0 9 9 19 20 22 10 3 22 14 25 24 7 20 40 26 50 8z m-4532 -46 c4 -7 19 -13 31 -13 13 0 27 -7 30 -16 5 -12 15 -15 39 -11 60 10 88 26 99 57 19 56 33 28 31 -61 -4 -177 -16 -196 -82 -141 -74 60 -181 171 -181 186 0 9 -4 16 -10 16 -5 0 -10 7 -10 17 0 14 3 14 23 -3 12 -10 26 -25 30 -31z m1052 -28 c20 -41 39 -77 44 -79 4 -3 16 -32 25 -64 18 -57 18 -62 1 -112 -9 -28 -31 -65 -48 -81 -33 -32 -84 -41 -73 -13 4 11 1 14 -12 10 -14 -5 -23 3 -35 30 -17 35 -17 37 6 68 28 37 57 118 57 160 0 17 -7 44 -15 60 -19 37 -20 96 -1 96 8 0 31 -34 51 -75z m2220 49 c14 -9 25 -25 25 -35 0 -49 61 -110 138 -137 75 -27 75 -27 69 -99 -3 -36 -10 -70 -16 -76 -8 -8 -11 -7 -11 5 0 15 -19 28 -41 28 -6 0 -9 -8 -7 -17 5 -28 -25 -25 -63 6 -55 46 -90 122 -99 219 -4 45 -10 85 -13 88 -8 8 -21 -89 -21 -152 1 -40 7 -61 32 -98 18 -26 32 -52 32 -58 0 -15 -40 -58 -55 -58 -6 0 -20 24 -31 53 -17 46 -19 49 -22 24 -2 -16 5 -38 17 -53 49 -63 10 -73 -49 -13 -31 32 -40 49 -41 77 -2 74 3 117 15 132 11 13 62 97 76 125 8 17 35 55 38 55 1 0 14 -7 27 -16z m-3490 -69 c12 -23 30 -50 40 -61 76 -79 83 -112 28 -148 -21 -13 -56 -41 -77 -60 -45 -41 -65 -45 -92 -15 -24 27 -12 45 60 87 57 33 67 52 43 83 -23 30 -42 26 -104 -18 l-63 -44 -41 39 c-44 41 -45 62 -4 62 25 0 32 12 37 75 2 24 8 31 31 33 26 3 27 2 27 -42 0 -31 4 -46 13 -46 22 0 37 22 37 55 0 60 35 60 65 0z m1195 -19 c0 -37 -23 -115 -50 -173 -24 -51 -76 -93 -116 -92 -16 0 -40 -1 -54 -3 -24 -3 -25 -1 -26 62 0 72 16 110 47 110 54 0 145 75 155 127 6 32 7 33 25 17 11 -10 19 -30 19 -48z m-570 -68 c30 1 64 3 75 4 19 3 20 -2 17 -92 -4 -123 -10 -134 -70 -126 -110 14 -117 17 -135 48 -22 38 -21 48 3 48 11 0 20 5 20 11 0 5 -10 9 -22 7 -20 -3 -23 2 -26 39 -2 33 1 44 20 57 13 9 31 13 43 9 11 -3 45 -5 75 -5z m3546 -1 c4 -4 7 -37 7 -73 -1 -106 -29 -131 -149 -133 l-62 -1 -5 63 c-4 34 -9 77 -13 94 -11 56 -6 58 109 58 58 0 109 -4 113 -8z m-284 -24 c24 -27 33 -116 15 -132 -10 -8 -17 -9 -22 -1 -3 5 -18 10 -33 10 -26 -1 -26 -1 -7 -15 77 -57 82 -70 26 -78 -53 -7 -90 2 -102 24 -6 12 -7 52 -3 104 6 79 8 85 33 94 41 15 77 13 93 -6z m-3004 1 c21 -6 22 -11 22 -109 0 -98 -1 -103 -22 -109 -30 -8 -82 -8 -102 0 -20 8 -21 34 -1 34 9 0 18 7 21 15 3 8 14 17 25 20 34 11 20 24 -23 22 l-43 -2 2 48 c2 76 41 102 121 81z m575 -113 c74 -54 227 -126 342 -162 112 -34 366 -89 408 -89 15 0 46 -10 68 -22 37 -21 40 -26 36 -58 -2 -19 -7 -42 -11 -52 -5 -11 -1 -18 13 -23 12 -3 26 -15 31 -26 18 -32 -15 -35 -44 -4 -24 26 -25 26 -71 11 -44 -15 -95 -13 -95 4 0 5 -9 12 -20 15 -22 7 -25 22 -10 45 7 12 12 12 34 0 14 -7 29 -11 32 -7 8 8 -37 67 -52 67 -30 0 -57 -86 -36 -115 17 -24 64 -45 102 -45 27 0 43 -5 46 -15 9 -23 24 -18 24 9 0 14 5 28 11 31 16 11 50 -32 51 -65 1 -36 -53 -106 -123 -158 -27 -20 -49 -42 -49 -49 0 -8 -11 -19 -25 -25 -14 -6 -25 -17 -25 -25 0 -9 -8 -11 -25 -7 -14 3 -42 -1 -65 -10 -61 -24 -200 -22 -231 3 -20 17 -22 23 -12 39 8 14 9 22 0 31 -17 17 0 25 28 13 14 -7 40 -12 58 -13 18 0 59 -6 92 -13 61 -13 109 -10 99 5 -3 5 -26 9 -52 9 -26 0 -56 7 -66 15 -11 8 -32 15 -46 15 -37 0 -142 58 -194 108 -24 23 -47 42 -51 42 -3 0 -23 13 -43 29 -50 40 -117 50 -284 44 -112 -5 -149 -3 -200 12 -74 20 -86 29 -105 73 -13 32 -12 38 12 83 22 43 23 50 10 55 -35 14 -85 -66 -85 -134 0 -46 27 -118 57 -150 13 -14 23 -29 23 -33 0 -5 11 -11 25 -15 13 -3 29 -12 35 -19 7 -8 32 -17 56 -21 l44 -6 0 -59 c0 -73 -9 -75 -91 -19 -32 22 -61 40 -64 40 -8 0 -106 71 -135 97 -13 12 -28 23 -31 23 -4 0 -45 37 -90 83 -79 78 -179 211 -179 237 0 7 -8 25 -17 41 -21 36 -13 44 28 30 18 -6 60 -11 94 -11 35 0 80 -7 100 -16 30 -12 44 -13 62 -5 13 6 35 8 49 5 13 -3 31 -1 38 6 8 6 48 20 90 30 41 10 79 21 84 24 5 3 19 -5 32 -18 17 -19 20 -31 15 -55 -6 -27 -4 -31 14 -31 11 0 49 14 85 31 53 25 72 41 101 84 24 36 35 65 35 89 0 20 2 36 5 36 3 0 29 -17 58 -39z m1833 -26 c3 -25 11 -49 18 -53 6 -4 16 -16 22 -26 12 -23 122 -85 156 -89 19 -2 23 3 21 23 -1 22 15 80 22 80 26 0 168 -36 190 -49 34 -19 120 -20 201 -3 33 7 64 8 92 1 36 -8 45 -6 62 11 28 28 60 26 60 -4 0 -13 -7 -29 -15 -36 -8 -7 -15 -18 -15 -25 0 -57 -131 -212 -295 -349 -70 -58 -252 -176 -273 -176 -17 0 -20 8 -25 58 -2 31 -3 60 0 65 2 4 20 7 39 7 97 0 204 123 204 236 0 74 -53 147 -95 130 -16 -6 -15 -9 9 -40 18 -24 26 -47 26 -74 0 -43 -15 -61 -76 -93 -36 -18 -57 -19 -239 -17 -192 2 -202 1 -247 -22 -26 -13 -73 -47 -105 -76 -96 -88 -198 -131 -360 -151 -24 -3 -43 -8 -43 -13 0 -14 70 -19 128 -8 109 19 137 25 156 33 16 7 18 5 13 -9 -4 -9 -1 -26 6 -37 10 -18 9 -23 -12 -40 -46 -38 -268 -13 -336 38 -29 21 -29 22 -11 36 18 13 16 14 -21 20 -30 5 -52 19 -91 59 -29 29 -52 61 -52 70 0 10 -7 18 -15 18 -10 0 -15 -10 -15 -33 0 -26 8 -41 35 -66 39 -35 45 -61 16 -61 -13 0 -21 8 -23 23 -4 28 -22 29 -26 0 -5 -34 27 -63 70 -63 28 0 38 -5 43 -20 4 -12 15 -20 29 -20 34 0 69 -37 62 -66 -11 -44 3 -72 50 -94 30 -15 53 -20 73 -15 17 3 38 2 48 -4 17 -10 17 -10 -2 -12 -11 0 -60 -5 -110 -10 -213 -22 -250 -25 -258 -19 -16 14 21 78 76 128 23 21 37 43 37 58 0 13 -3 24 -6 24 -10 0 -121 -114 -125 -129 -6 -17 -49 -6 -49 13 0 15 -89 100 -115 110 -28 11 4 50 45 54 48 5 72 37 65 88 -5 34 0 51 26 97 18 30 41 58 51 60 21 6 14 37 -8 37 -18 0 -18 6 3 41 11 19 14 32 8 37 -15 10 -35 49 -35 67 0 12 4 14 18 6 13 -8 22 -4 38 16 15 19 34 28 70 33 130 19 245 42 309 60 39 12 84 25 100 30 103 30 282 114 330 154 46 39 63 34 71 -19z m-3100 -10 c19 -30 16 -36 -41 -72 -25 -15 -44 -32 -42 -38 3 -8 44 -22 86 -28 8 -1 24 13 35 30 17 27 26 32 46 27 23 -5 39 -20 40 -36 0 -4 -19 -26 -43 -50 -23 -24 -55 -58 -70 -76 -20 -25 -32 -32 -47 -27 -27 9 -43 42 -36 76 4 19 1 29 -7 30 -6 0 -27 1 -46 2 -24 2 -40 10 -53 28 -23 30 -17 69 10 69 33 0 82 38 82 64 0 51 53 52 86 1z m220 -183 c13 -9 80 -121 88 -148 5 -17 -8 -36 -69 -95 -81 -78 -97 -88 -120 -69 -27 23 -18 60 18 75 17 7 50 29 71 47 32 28 38 39 33 59 -7 29 -44 79 -58 79 -14 0 -10 -32 6 -54 10 -13 11 -24 4 -37 -13 -25 -45 -24 -52 2 -8 29 -51 22 -55 -9 -7 -49 -62 -34 -62 17 0 20 16 40 66 84 63 55 100 70 130 49z m4392 -199 c4 -10 6 -48 4 -86 -3 -63 -6 -68 -33 -83 -38 -19 -119 -28 -139 -15 -24 16 1 46 36 45 45 -3 98 16 85 29 -17 17 -13 85 7 106 22 25 29 25 40 4z m-4839 -9 c21 -15 23 -22 18 -66 -6 -44 -4 -50 16 -57 13 -5 34 -7 48 -4 29 5 54 -18 45 -42 -8 -21 -72 -19 -125 5 -29 14 -41 25 -38 34 3 8 2 39 -2 68 -13 78 -4 91 38 62z m1061 -12 c0 -5 17 -17 38 -28 33 -17 59 -19 255 -19 187 0 220 -2 230 -16 7 -8 20 -18 30 -22 9 -3 17 -11 17 -17 0 -15 -52 -12 -74 5 -30 22 -42 20 -142 -27 -11 -5 -25 -23 -32 -41 -10 -26 -9 -34 4 -49 13 -14 21 -15 36 -7 24 13 44 -2 35 -25 -9 -22 -109 -22 -127 -1 -7 8 -26 15 -42 15 -17 0 -31 6 -35 16 -7 19 43 74 68 74 24 0 49 10 49 20 0 17 -31 18 -90 4 -66 -15 -126 -7 -161 23 -8 7 -20 13 -26 13 -16 0 -74 70 -68 81 7 11 35 12 35 1z m2670 -4 c-1 -14 -55 -78 -67 -78 -3 0 -15 -8 -26 -17 -16 -15 -37 -18 -128 -16 -107 1 -149 -9 -90 -22 40 -9 81 -42 81 -65 0 -14 -11 -22 -40 -30 -21 -6 -42 -15 -45 -20 -3 -6 -28 -10 -56 -10 -43 0 -49 2 -49 21 0 17 4 20 22 16 25 -7 58 8 58 26 0 72 -158 153 -200 102 -14 -17 -46 -20 -55 -5 -3 6 -2 10 4 10 6 0 20 10 31 23 21 22 24 22 239 19 186 -2 220 -1 231 13 7 8 21 15 32 15 10 0 21 7 24 15 7 18 34 20 34 3z m-3090 -64 c81 -77 82 -86 26 -143 -25 -26 -46 -52 -46 -58 0 -7 16 -15 35 -19 30 -5 38 -2 54 17 52 66 59 72 74 66 9 -3 21 -15 27 -26 9 -17 4 -27 -35 -67 -25 -26 -45 -55 -45 -63 -1 -29 -57 -81 -88 -81 -54 0 -74 52 -24 65 l27 7 -24 19 c-13 10 -38 19 -55 19 -35 0 -60 15 -69 42 -7 19 16 48 38 48 19 0 95 70 95 88 0 16 -38 62 -51 62 -4 0 -28 -21 -53 -47 -32 -33 -46 -55 -46 -75 0 -17 -7 -31 -19 -37 -16 -9 -23 -5 -45 24 -14 18 -26 38 -26 44 0 18 59 78 89 91 17 7 32 22 35 36 6 22 33 41 59 43 5 1 35 -24 67 -55z m4120 15 c0 -21 -35 -43 -56 -35 -21 8 -17 43 8 60 25 18 48 6 48 -25z m-4662 -6 c3 -35 -6 -40 -39 -23 -19 11 -26 40 -12 54 4 4 16 6 28 4 15 -2 21 -12 23 -35z m4140 -35 c20 -23 56 -63 80 -89 23 -25 42 -52 42 -59 0 -17 -30 -50 -45 -50 -6 0 -34 34 -63 75 -29 41 -56 75 -60 75 -5 0 -23 -16 -42 -35 -37 -39 -37 -41 34 -119 35 -38 45 -77 28 -102 -4 -6 -32 -28 -62 -49 -30 -21 -57 -42 -60 -46 -3 -4 -17 -10 -30 -14 -22 -5 -30 1 -58 40 -17 25 -32 53 -32 63 0 26 -13 40 -40 43 -38 6 -40 51 -3 76 15 11 34 18 41 16 7 -3 24 -29 38 -59 27 -57 44 -64 55 -23 14 49 9 80 -16 105 -14 14 -25 27 -25 30 0 11 161 164 171 164 6 0 27 -19 47 -42z m-2658 -39 c74 -27 121 -52 117 -62 -2 -6 -27 -16 -56 -23 -77 -17 -158 -91 -160 -146 -1 -9 -5 -19 -10 -22 -9 -6 -56 7 -108 30 -17 8 -38 14 -46 14 -9 0 -18 4 -22 9 -3 5 -19 12 -35 16 -32 7 -38 23 -18 43 17 17 36 15 83 -8 72 -35 134 -25 159 26 15 32 15 37 0 59 -9 14 -25 25 -35 25 -30 0 -22 18 19 40 39 21 54 21 112 -1z m1721 -4 c29 -15 32 -35 5 -35 -7 0 -21 -9 -30 -19 -17 -19 -17 -22 0 -60 14 -33 24 -42 50 -47 37 -7 83 1 122 22 38 20 58 17 77 -8 14 -22 14 -24 -7 -32 -13 -4 -35 -14 -50 -22 -14 -8 -35 -14 -46 -14 -12 0 -24 -4 -27 -10 -3 -5 -16 -10 -28 -10 -12 0 -34 -7 -49 -14 -27 -15 -28 -14 -39 27 -20 74 -117 147 -196 147 -37 0 -26 27 20 47 100 46 149 53 198 28z m-981 -80 c0 -14 -7 -28 -15 -32 -22 -8 -28 2 -21 32 8 33 36 33 36 0z m795 -40 c77 -17 123 -65 70 -73 -37 -5 -100 -26 -115 -37 -31 -24 -107 -55 -137 -55 -17 0 -36 7 -43 15 -10 12 -8 16 15 25 14 5 32 10 39 10 44 0 110 67 77 78 -17 6 -13 23 11 49 19 20 23 21 37 9 9 -8 30 -17 46 -21z m-1365 4 c9 -16 8 -25 -6 -40 -16 -18 -16 -20 1 -39 10 -11 24 -20 32 -20 7 0 13 -4 13 -9 0 -6 20 -13 45 -17 53 -8 64 -19 34 -35 -36 -19 -153 9 -179 43 -7 9 -88 36 -120 40 -41 5 -34 31 13 51 23 10 53 24 67 32 40 21 87 19 100 -6z m-874 -98 c7 -13 18 -27 26 -32 15 -9 3 -35 -24 -52 -18 -12 -60 15 -79 50 -10 19 -9 26 6 43 24 26 56 22 71 -9z m1328 13 c9 -3 16 -14 16 -25 0 -10 18 -36 40 -57 49 -47 90 -101 90 -120 0 -15 -81 -13 -279 7 -115 12 -143 21 -62 21 36 0 66 7 92 22 40 22 44 31 40 82 -2 18 6 37 20 52 26 27 22 26 43 18z m-84 -80 c0 -7 -14 -22 -30 -34 -27 -19 -40 -21 -108 -17 -63 3 -78 7 -80 22 -6 29 37 65 77 65 20 0 47 6 61 14 23 12 28 10 53 -12 15 -14 27 -31 27 -38z m1747 44 c43 -47 114 -164 111 -183 -2 -15 -11 -20 -33 -20 -27 0 -33 7 -64 68 -38 74 -57 83 -112 50 -32 -19 -36 -34 -14 -53 8 -7 15 -17 15 -22 0 -5 11 -24 24 -41 30 -42 35 -57 25 -84 -15 -42 -47 -29 -74 31 -14 30 -25 59 -25 65 0 5 -9 13 -20 16 -27 9 -53 50 -46 73 5 15 65 59 151 109 29 17 39 16 62 -9z m-2271 -4 c22 -8 62 -27 91 -41 28 -14 71 -26 95 -27 46 -2 88 -20 88 -37 0 -7 -11 -9 -27 -5 -16 3 -57 11 -93 17 -36 6 -73 15 -82 20 -10 5 -26 9 -35 9 -28 0 -113 33 -113 43 0 7 27 34 36 37 1 0 19 -7 40 -16z m1628 -3 c17 -19 17 -20 -8 -36 -14 -9 -45 -19 -68 -22 -24 -3 -47 -9 -53 -13 -5 -4 -34 -11 -64 -15 -30 -4 -70 -14 -89 -22 -45 -19 -66 -3 -35 27 16 14 34 19 65 18 38 -1 135 34 198 72 23 14 35 12 54 -9z m-391 -23 c36 -26 30 -41 -19 -51 -21 -4 -52 -11 -67 -14 -33 -6 -97 24 -97 46 0 8 8 23 17 33 14 16 26 18 77 12 35 -4 73 -15 89 -26z m-1730 -29 c42 -28 77 -55 77 -60 0 -14 -61 -141 -83 -172 -14 -21 -26 -27 -46 -25 -40 5 -38 38 4 98 40 57 41 91 5 110 -24 13 -38 6 -51 -23 -41 -93 -77 -130 -106 -111 -31 19 -26 47 17 89 43 42 47 54 28 85 -10 15 -9 23 6 39 29 32 64 25 149 -30z m-290 -24 c39 -34 34 -69 -10 -73 -38 -4 -73 26 -73 62 0 42 42 47 83 11z m511 -64 c10 -11 32 -21 50 -23 23 -2 32 -9 34 -25 6 -39 -67 -55 -90 -19 -6 8 -8 8 -8 -1 0 -7 6 -16 13 -20 6 -4 21 -18 31 -31 19 -21 19 -23 1 -60 -10 -20 -21 -44 -25 -52 -10 -22 -39 -23 -95 -2 -44 16 -50 22 -53 49 -4 42 30 64 58 38 11 -10 26 -15 35 -12 25 10 17 41 -20 70 -28 22 -34 33 -29 50 17 55 66 74 98 38z m216 -71 c22 -11 48 -20 59 -20 27 0 33 -25 11 -52 -16 -20 -21 -21 -39 -10 -34 20 -35 14 -2 -20 20 -20 29 -38 25 -48 -3 -8 -11 -31 -16 -50 -13 -46 -24 -52 -78 -45 -83 11 -96 22 -84 71 7 27 32 31 64 12 17 -11 22 -10 30 2 15 24 13 29 -30 67 -46 42 -48 50 -19 87 25 31 29 32 79 6z m1795 -45 c0 -11 -15 -29 -34 -42 l-34 -23 31 0 c38 0 58 -26 68 -87 l7 -43 -44 -20 c-76 -34 -125 -21 -117 32 2 19 10 24 41 26 62 5 44 50 -24 59 -51 7 -59 15 -59 65 0 47 12 53 97 53 61 0 68 -2 68 -20z m-1554 -6 c13 -13 18 -27 14 -37 -4 -9 -9 -31 -12 -48 -4 -25 0 -33 22 -48 37 -24 55 -7 55 53 0 49 13 71 41 71 33 0 43 -27 30 -78 -7 -26 -18 -78 -24 -117 l-12 -70 -40 0 c-38 0 -40 1 -43 35 -6 58 -62 100 -62 46 0 -27 -24 -56 -46 -56 -33 0 -74 30 -74 54 0 32 30 85 53 92 9 3 22 14 27 24 8 16 6 22 -10 32 -38 24 -18 68 32 68 15 0 37 -9 49 -21z m1313 -15 c9 -8 16 -24 16 -35 0 -11 7 -49 16 -84 18 -73 13 -111 -16 -120 -45 -14 -55 0 -55 78 0 81 -12 107 -51 107 -50 0 -57 -37 -28 -153 9 -37 -10 -57 -56 -57 l-37 0 5 80 c6 99 -3 114 -66 107 -53 -6 -60 -12 -43 -39 8 -12 16 -49 18 -82 5 -52 2 -64 -15 -79 -11 -10 -31 -17 -44 -15 -22 3 -23 8 -24 78 -1 41 -5 93 -9 115 -6 34 -3 44 15 60 19 17 37 20 120 20 57 1 104 6 112 12 12 10 45 17 105 21 12 1 29 -5 37 -14z m-907 -40 c22 -10 39 -11 57 -4 27 10 120 3 149 -12 14 -7 17 -24 17 -112 0 -71 -4 -107 -12 -113 -21 -16 -67 -21 -83 -9 -13 10 -13 14 0 39 8 16 18 57 21 93 l7 64 -52 0 -51 0 0 -88 c0 -100 -7 -112 -62 -112 -43 0 -48 15 -24 66 7 16 16 53 19 81 6 50 5 53 -18 59 -13 3 -38 7 -56 7 l-32 2 -2 -81 c-1 -45 -5 -87 -10 -93 -16 -27 -64 -30 -93 -6 -2 2 4 18 14 36 12 23 17 56 16 106 0 44 4 76 11 82 27 22 129 19 184 -5z m444 -21 c17 -17 -7 -53 -36 -53 -22 0 -47 -19 -28 -21 16 -1 57 -10 59 -12 1 -1 3 -31 5 -67 4 -60 2 -65 -21 -77 -35 -18 -115 -17 -130 2 -10 12 -10 21 -2 40 9 20 19 25 46 25 64 0 58 40 -10 66 -41 16 -44 19 -44 53 0 21 5 42 11 48 14 14 135 11 150 -4z"></path><path d="M5087 4947 c-3 -8 -8 -45 -12 -83 -4 -38 -11 -73 -14 -79 -4 -5 -14 -30 -21 -53 -11 -34 -11 -48 -2 -63 7 -10 12 -41 12 -68 0 -45 2 -49 33 -62 17 -7 37 -20 44 -29 10 -13 12 -13 18 3 5 11 -3 30 -21 55 -28 36 -57 119 -47 134 8 15 40 8 58 -12 20 -22 45 -27 45 -9 0 7 -16 32 -36 55 -34 42 -35 47 -34 121 1 43 1 84 1 91 -1 16 -18 16 -24 -1z"></path><path d="M3500 7664 c0 -3 20 -27 45 -52 25 -25 45 -51 45 -57 0 -7 6 -18 14 -25 8 -6 16 -24 18 -38 2 -21 9 -28 31 -30 29 -4 37 12 12 22 -8 3 -15 12 -15 19 0 8 -7 20 -15 27 -8 7 -15 20 -15 30 0 22 -84 110 -105 110 -8 0 -15 -3 -15 -6z"></path><path d="M2523 6255 c0 -33 2 -45 4 -27 2 18 2 45 0 60 -2 15 -4 0 -4 -33z"></path><path d="M2965 7466 c-164 -41 -294 -159 -354 -323 -20 -55 -23 -76 -19 -175 4 -105 7 -119 40 -190 27 -57 53 -94 102 -142 104 -101 191 -136 344 -136 121 0 179 16 266 71 32 21 62 40 65 41 3 2 22 23 42 48 86 110 119 201 119 332 0 108 -20 170 -86 269 -60 91 -115 135 -234 188 -69 31 -199 38 -285 17z m240 -54 c66 -21 106 -40 118 -59 4 -7 14 -13 22 -13 20 0 99 -95 128 -154 57 -118 67 -197 37 -306 -60 -225 -277 -368 -502 -331 -172 28 -308 154 -359 331 -23 80 -24 126 -3 204 26 96 54 147 114 206 75 73 96 87 195 123 57 21 178 21 250 -1z"></path><path d="M3005 7323 c-27 -8 -57 -19 -65 -24 -8 -5 -25 -14 -38 -19 -28 -12 -122 -107 -122 -122 0 -6 -8 -20 -17 -31 -27 -30 -26 -238 2 -287 43 -76 99 -128 185 -173 49 -26 210 -26 260 1 83 43 127 82 161 143 9 16 23 36 30 45 10 13 14 48 13 133 0 115 -1 117 -34 166 -60 91 -114 129 -235 169 -59 19 -74 19 -140 -1z m103 -99 c3 -56 1 -62 -19 -67 -34 -9 -39 -1 -39 62 0 64 5 73 35 69 17 -3 20 -11 23 -64z m-88 2 c0 -30 3 -61 6 -70 10 -26 -24 -31 -47 -8 -10 12 -19 25 -19 29 0 5 -9 14 -20 21 -30 18 -24 39 18 61 57 31 62 28 62 -33z m182 32 c24 -12 47 -28 51 -35 4 -7 21 -20 37 -28 18 -9 30 -24 30 -35 0 -11 4 -20 10 -20 15 0 38 -61 44 -118 7 -73 2 -81 -43 -75 -23 3 -41 1 -45 -6 -7 -10 26 -16 62 -12 7 1 15 -5 18 -14 7 -17 -22 -85 -36 -85 -6 0 -10 -5 -10 -12 0 -15 -30 -48 -44 -47 -16 0 -88 98 -81 109 9 15 32 12 39 -5 3 -8 12 -15 21 -15 8 0 15 -4 15 -9 0 -5 9 -11 20 -14 11 -3 20 -2 20 2 0 8 -32 36 -58 50 -17 9 -20 22 -21 95 0 76 2 86 19 91 11 4 20 10 20 15 0 4 9 10 20 13 21 5 28 27 9 27 -6 0 -28 -13 -49 -30 -20 -16 -40 -27 -44 -23 -13 14 -4 39 24 67 31 30 38 46 20 46 -15 0 -50 -38 -50 -55 0 -16 -28 -19 -67 -9 -27 7 -29 19 -8 40 9 10 15 34 15 65 0 27 4 49 10 49 5 0 29 -10 52 -22z m-269 -89 c41 -46 46 -64 18 -72 -12 -3 -21 -15 -23 -33 -3 -28 -4 -29 -55 -26 -66 4 -71 -15 -5 -20 26 -3 55 -8 64 -12 13 -6 18 -2 23 21 9 39 19 56 41 68 10 6 30 18 44 27 25 17 70 15 70 -3 0 -5 10 -9 23 -9 36 0 65 -48 67 -111 3 -69 -7 -107 -31 -114 -26 -8 -24 -19 6 -35 14 -7 25 -18 25 -24 0 -7 14 -24 32 -39 l31 -28 -20 -21 c-18 -18 -83 -39 -165 -55 -30 -6 -31 -3 -28 54 1 18 -2 38 -6 44 -10 17 -24 -10 -24 -47 0 -17 -3 -33 -6 -36 -10 -11 -84 25 -89 43 -4 11 -14 19 -24 19 -9 0 -26 6 -36 14 -16 11 -17 16 -7 29 11 13 10 16 -10 19 -40 5 -67 78 -63 169 4 82 29 159 51 159 8 0 24 -11 36 -25 21 -24 48 -34 48 -17 0 10 -38 42 -50 42 -16 0 -21 19 -10 40 16 29 32 25 73 -21z"></path><path d="M3289 7021 c12 -8 51 -4 51 5 0 2 -15 4 -32 4 -23 0 -29 -3 -19 -9z"></path><path d="M3028 7074 c-37 -24 -38 -26 -38 -84 0 -79 19 -100 90 -100 69 0 90 22 90 94 0 51 -3 57 -37 85 -45 37 -56 37 -105 5z m90 -40 c34 -23 27 -83 -10 -104 -25 -13 -31 -13 -55 0 -38 21 -45 81 -11 104 12 9 29 16 38 16 9 0 26 -7 38 -16z"></path><path d="M2822 6973 c-27 -11 2 -23 54 -23 53 0 54 0 54 -30 0 -21 -8 -36 -30 -52 -16 -12 -30 -25 -30 -30 0 -15 27 -8 45 12 22 24 43 26 51 5 4 -9 -5 -26 -21 -42 -16 -17 -22 -29 -15 -31 6 -2 24 10 39 28 l27 33 48 -16 c37 -13 52 -14 71 -5 46 21 29 35 -37 34 -41 -1 -63 3 -65 12 -3 6 -10 12 -17 12 -13 0 -28 24 -46 73 -9 25 -13 27 -62 26 -29 0 -59 -3 -66 -6z"></path><path d="M3122 6750 c0 -19 2 -27 5 -17 2 9 2 25 0 35 -3 9 -5 1 -5 -18z"></path><path d="M3006 5976 c-24 -41 -85 -106 -175 -185 -19 -17 -49 -35 -67 -41 -33 -11 -53 -38 -35 -49 5 -3 78 -4 162 -1 l154 5 3 149 c1 82 -1 153 -6 158 -6 6 -20 -9 -36 -36z m4 -155 c0 -68 -3 -71 -91 -71 -65 0 -73 9 -31 36 15 10 44 35 65 56 21 21 42 38 47 38 6 0 10 -27 10 -59z"></path><path d="M3108 5994 c-2 -9 -1 -78 2 -153 l5 -136 149 -5 c81 -3 153 -2 158 1 19 12 1 36 -44 58 -48 23 -238 211 -238 236 0 20 -28 19 -32 -1z m105 -157 c29 -30 60 -57 70 -60 40 -15 14 -27 -58 -27 l-75 0 0 70 c0 39 3 70 6 70 3 0 29 -24 57 -53z"></path><path d="M3060 5400 c0 -5 9 -10 21 -10 11 0 17 5 14 10 -3 6 -13 10 -21 10 -8 0 -14 -4 -14 -10z"></path><path d="M3014 5359 c-10 -12 -29 -25 -42 -30 -27 -10 -25 -29 5 -44 29 -15 73 -58 73 -72 0 -6 3 -13 8 -16 4 -2 0 -2 -8 1 -8 2 -31 8 -50 12 -19 3 -45 12 -58 19 -30 16 -279 9 -342 -9 -118 -34 -210 -86 -318 -178 -53 -45 -162 -181 -162 -202 0 -6 -6 -21 -14 -33 -7 -12 -21 -53 -30 -92 -10 -38 -22 -75 -28 -82 -7 -9 -6 -14 5 -19 24 -9 37 4 37 35 0 16 7 42 15 57 8 16 15 36 15 44 0 18 24 65 64 130 43 67 172 189 226 213 8 4 29 16 45 27 17 11 37 22 45 26 8 3 27 12 42 20 14 8 37 14 50 14 12 0 45 7 72 15 62 19 141 19 231 0 38 -8 84 -15 101 -15 17 0 37 -7 44 -15 15 -18 44 -19 73 -3 12 7 45 15 72 19 28 4 86 13 129 19 59 9 95 10 140 1 109 -19 155 -30 173 -40 10 -5 25 -12 33 -16 53 -21 172 -108 231 -167 81 -82 149 -190 149 -237 0 -10 7 -26 15 -37 8 -10 15 -36 15 -56 0 -30 4 -38 18 -38 24 0 33 10 24 24 -11 18 -41 110 -42 127 -1 43 -91 181 -164 252 -73 70 -208 167 -232 167 -4 0 -20 6 -37 14 -93 42 -354 61 -428 32 -50 -20 -98 -21 -105 -1 -4 8 -15 15 -25 15 -11 0 -21 9 -25 24 -3 15 -14 26 -27 28 -12 2 -23 11 -25 21 -3 12 3 17 22 17 21 0 26 5 26 25 0 31 -11 32 -36 4z"></path><path d="M3105 5370 c-9 -15 14 -40 36 -40 11 0 19 -6 19 -13 0 -16 -44 -42 -58 -33 -5 3 -7 -5 -4 -19 3 -16 11 -25 23 -25 11 0 19 4 19 9 0 5 16 18 35 30 19 11 35 25 35 30 0 8 -84 71 -95 71 -2 0 -7 -5 -10 -10z"></path><path d="M2675 5131 c-11 -5 -31 -10 -44 -10 -13 -1 -45 -11 -70 -22 -25 -12 -62 -29 -81 -38 -54 -25 -141 -93 -193 -152 -66 -75 -67 -77 -67 -91 0 -8 -6 -22 -14 -33 -30 -43 -44 -197 -21 -232 8 -12 15 -29 15 -38 0 -21 44 -37 74 -26 24 10 26 16 45 146 9 61 50 138 94 177 33 31 180 108 203 108 7 0 17 -8 23 -17 5 -10 13 -14 17 -10 5 5 2 12 -5 16 -29 18 2 28 85 27 66 -1 89 -5 95 -16 4 -8 16 -33 27 -55 10 -22 27 -41 38 -43 10 -2 24 -10 30 -17 5 -8 28 -15 50 -17 40 -3 53 -21 18 -26 -10 -2 -26 -5 -34 -8 -26 -9 10 -23 45 -17 54 9 72 -8 77 -74 3 -32 3 -64 1 -70 -9 -24 -163 -10 -163 14 0 9 -7 12 -22 8 -13 -3 -30 -1 -38 5 -13 9 -13 11 0 19 24 16 2 26 -25 11 -17 -9 -41 -11 -82 -6 -69 9 -75 9 -135 0 -33 -4 -48 -3 -48 5 0 17 -19 13 -43 -10 -20 -19 -21 -21 -4 -30 13 -8 17 -23 17 -64 0 -53 1 -55 28 -55 15 0 34 4 41 9 9 6 22 6 35 -1 20 -11 20 -11 0 -27 -10 -9 -26 -27 -35 -41 -9 -14 -45 -40 -80 -59 -78 -41 -194 -56 -218 -27 -7 9 -21 16 -31 16 -10 0 -20 7 -24 15 -3 8 -14 15 -25 15 -22 0 -71 54 -71 79 0 9 5 22 11 28 21 21 -48 54 -96 47 -50 -7 -125 -33 -146 -51 -8 -7 -20 -13 -26 -13 -22 0 -133 -121 -133 -144 0 -8 -4 -17 -9 -20 -11 -7 -77 -142 -86 -176 -3 -14 -10 -34 -15 -45 -4 -11 -16 -73 -26 -139 -16 -113 -16 -123 0 -212 10 -51 24 -98 32 -105 8 -6 14 -16 14 -21 0 -24 47 -57 85 -60 33 -3 41 -8 50 -31 8 -24 6 -31 -10 -43 -10 -8 -29 -14 -42 -14 -26 0 -50 -23 -91 -86 -15 -23 -15 -24 -37 -99 -33 -112 -30 -253 8 -457 7 -37 18 -73 25 -80 6 -6 12 -19 12 -27 1 -33 88 -143 148 -186 34 -25 68 -45 76 -45 7 0 19 -6 25 -14 6 -7 39 -17 72 -20 100 -12 109 -18 109 -73 1 -73 16 -125 57 -194 50 -84 156 -189 190 -189 8 0 29 -10 46 -22 46 -33 99 -58 122 -58 11 0 40 -7 65 -16 60 -21 253 -21 335 0 67 18 127 44 137 59 4 7 25 2 60 -15 84 -41 138 -57 213 -63 75 -6 201 5 275 26 64 17 195 82 228 113 10 9 22 16 25 16 10 0 117 111 117 121 0 5 10 26 23 47 31 50 57 132 57 182 0 24 5 42 13 44 6 2 37 9 67 15 52 12 129 39 140 51 3 3 24 18 48 34 61 42 106 95 138 165 16 34 32 61 36 61 4 0 8 14 8 30 0 17 7 47 15 68 12 27 16 78 18 203 1 188 -10 243 -70 334 -53 80 -60 87 -80 81 -37 -11 -60 29 -36 64 11 15 22 20 38 16 26 -7 78 35 89 72 4 12 11 22 16 22 5 0 12 17 15 38 4 20 11 46 16 58 22 44 -5 289 -40 369 -16 37 -24 56 -46 119 -10 27 -26 57 -36 67 -11 11 -19 25 -19 32 0 15 -54 83 -94 117 -85 73 -245 120 -291 86 -11 -9 -26 -16 -32 -16 -17 0 -16 25 1 39 34 29 26 129 -17 221 -12 25 -24 47 -28 50 -3 3 -15 21 -26 40 -44 72 -223 210 -272 210 -8 0 -22 7 -31 15 -53 48 -395 52 -480 5 -14 -7 -32 -16 -40 -20 -15 -7 -60 3 -94 21 -46 26 -273 47 -311 30z m707 -71 c50 -25 62 -41 53 -71 -5 -16 -17 -19 -61 -19 -30 0 -54 -4 -54 -9 0 -6 -11 -21 -23 -35 -21 -22 -25 -39 -31 -134 -7 -116 -1 -165 19 -182 16 -13 10 -80 -11 -127 -8 -17 -14 -35 -14 -41 0 -5 -7 -12 -15 -16 -8 -3 -15 -10 -15 -16 0 -15 -55 -70 -70 -70 -9 0 -10 -10 -6 -31 5 -25 3 -30 -9 -26 -9 4 -12 1 -9 -8 8 -19 -27 -64 -50 -65 -10 0 -24 -7 -30 -15 -6 -8 -24 -16 -41 -16 -16 -1 -44 -8 -62 -16 -28 -12 -37 -11 -75 4 -24 9 -46 21 -49 26 -11 15 -108 16 -120 1 -6 -8 -16 -14 -21 -14 -5 0 -15 -6 -22 -12 -8 -7 -25 -23 -40 -35 -23 -21 -26 -30 -26 -90 0 -65 1 -69 34 -95 31 -25 43 -28 108 -28 56 1 78 5 96 19 27 23 28 41 2 73 -16 21 -17 28 -7 43 11 14 22 16 60 10 77 -12 82 -20 78 -119 -4 -123 -37 -176 -145 -231 -52 -26 -210 -28 -250 -2 -14 9 -30 17 -36 17 -14 0 -130 88 -130 98 0 4 -10 18 -23 32 -32 35 -67 94 -67 114 0 9 -6 27 -14 39 -9 13 -15 57 -18 112 -3 80 -1 90 15 93 10 2 27 -4 38 -14 14 -13 29 -15 62 -11 42 6 94 27 106 44 10 13 63 48 111 72 25 12 52 26 60 30 78 44 152 62 240 58 70 -4 75 -5 73 -25 -2 -12 2 -22 7 -22 6 0 10 7 10 15 0 8 9 19 20 25 11 6 20 19 20 29 0 10 6 24 14 31 8 6 16 23 18 37 3 29 28 45 28 19 0 -9 5 -16 10 -16 6 0 10 9 10 20 0 11 -5 20 -10 20 -7 0 -10 22 -8 58 3 61 21 78 26 25 3 -35 16 -43 26 -17 8 22 -3 61 -20 68 -9 4 -12 14 -8 34 6 27 -6 57 -46 120 -15 23 -44 29 -55 12 -10 -17 -44 -11 -54 9 -6 10 -13 36 -17 58 -6 37 -3 42 40 86 42 44 76 60 76 37 0 -5 5 -10 11 -10 6 0 8 9 3 22 -6 20 -5 21 8 10 15 -12 48 -7 48 8 0 4 30 11 67 15 37 4 76 11 87 15 12 5 23 8 26 7 3 -2 26 -13 52 -27z m163 -135 c33 -8 61 -19 63 -25 2 -5 10 -10 17 -10 51 0 235 -141 235 -180 0 -9 5 -21 11 -27 18 -18 59 -125 59 -154 0 -19 -8 -29 -33 -41 -24 -12 -36 -27 -50 -64 -21 -61 -22 -102 0 -156 21 -57 36 -73 79 -86 52 -16 74 0 74 55 0 36 3 43 20 43 32 0 23 18 -16 35 -47 20 -54 19 -54 -4 0 -11 -4 -22 -8 -25 -4 -3 -8 26 -8 64 1 71 3 74 51 84 6 1 17 6 26 10 26 11 104 3 102 -11 -2 -7 8 -24 22 -39 31 -34 31 -42 0 -56 -14 -6 -25 -15 -25 -20 0 -11 57 0 82 16 26 16 51 -3 64 -49 6 -22 16 -41 22 -43 7 -2 12 -8 12 -14 0 -6 11 -35 25 -65 26 -55 41 -153 51 -349 6 -110 -7 -138 -93 -205 -31 -24 -64 -52 -74 -61 -11 -10 -23 -18 -27 -18 -5 0 -17 -9 -27 -20 -10 -11 -24 -20 -32 -20 -7 0 -30 -11 -51 -24 -20 -12 -48 -27 -62 -31 -14 -4 -30 -11 -36 -16 -14 -11 -126 -30 -229 -38 -44 -3 -90 -12 -102 -19 -30 -17 -88 -15 -103 3 -14 17 -45 12 -73 -13 -22 -20 -20 -87 3 -87 10 0 15 10 15 27 1 15 4 30 8 34 4 4 7 -2 7 -14 0 -39 47 -48 250 -47 102 1 230 7 285 15 92 12 103 16 134 47 27 27 32 39 29 66 -3 17 -8 39 -12 48 -6 13 1 17 29 22 41 7 85 -6 85 -25 0 -6 11 -28 25 -48 18 -26 26 -54 30 -100 3 -36 11 -89 17 -118 9 -40 9 -61 0 -85 -6 -18 -14 -70 -17 -117 -5 -85 -21 -150 -43 -172 -7 -7 -12 -17 -12 -23 0 -6 -9 -18 -20 -28 -11 -9 -20 -26 -20 -38 0 -25 -144 -169 -168 -169 -5 0 -15 -7 -23 -16 -8 -10 -26 -14 -54 -13 -22 2 -46 0 -51 -4 -6 -3 -17 -47 -24 -97 -11 -81 -10 -93 4 -109 25 -27 19 -46 -21 -74 -21 -13 -56 -41 -78 -62 -39 -35 -107 -75 -152 -89 -21 -7 -22 -5 -17 23 5 25 2 35 -17 51 -26 21 -74 27 -84 10 -3 -5 -17 -10 -30 -10 -24 0 -55 -45 -55 -81 0 -32 -12 -49 -34 -49 -12 0 -26 -4 -32 -10 -15 -15 -164 -15 -206 0 -32 12 -38 19 -38 42 0 29 3 32 52 42 15 3 30 15 33 26 9 29 -28 83 -72 106 -21 10 -42 25 -46 32 -5 7 -29 12 -60 12 -29 0 -58 5 -64 11 -16 16 -37 1 -23 -16 8 -10 6 -15 -9 -20 -17 -5 -21 -15 -21 -50 0 -26 -5 -45 -12 -48 -7 -2 -10 -7 -7 -11 4 -4 35 2 69 13 46 15 67 18 81 10 31 -16 23 -54 -21 -99 l-39 -40 -91 0 c-102 0 -134 10 -209 66 -67 50 -67 72 -3 118 26 19 54 43 63 53 9 10 30 28 45 40 16 12 39 31 51 42 12 12 26 21 31 21 5 0 25 14 43 30 45 40 95 64 134 64 30 0 104 -29 115 -44 3 -4 23 -17 45 -28 54 -28 121 -100 106 -115 -8 -8 -6 -16 6 -29 22 -25 43 -23 43 5 1 47 23 60 105 59 94 -1 118 -8 112 -33 -7 -25 5 -24 28 1 14 16 16 23 7 32 -7 7 -12 20 -12 30 0 10 -4 18 -10 18 -5 0 -16 13 -24 29 -9 16 -27 32 -41 35 -14 4 -25 13 -25 21 0 21 37 19 49 -2 14 -26 31 -4 20 26 -8 21 -14 23 -51 18 -24 -3 -44 -11 -46 -16 -4 -13 -128 -15 -136 -2 -3 4 -29 11 -57 14 -28 4 -56 10 -63 15 -6 5 -28 15 -48 21 -42 14 -53 49 -19 58 26 7 35 51 22 100 -18 63 -14 79 19 93 28 12 33 10 58 -11 15 -13 30 -29 35 -36 16 -25 76 -27 123 -4 24 13 44 27 44 32 0 5 7 9 15 9 8 0 15 -5 15 -12 0 -19 -31 -48 -52 -48 -20 0 -24 -15 -7 -26 6 -3 29 11 50 32 35 34 38 40 23 51 -10 8 -14 19 -9 33 4 11 2 27 -4 34 -9 10 -8 15 4 20 8 3 15 10 15 16 0 24 -63 1 -88 -33 -8 -10 -23 -17 -35 -15 -21 3 -22 9 -25 112 -4 155 8 165 174 141 163 -23 193 -34 213 -81 23 -50 21 -159 -2 -195 -9 -13 -19 -44 -23 -67 -7 -48 -30 -65 -49 -39 -15 21 -31 22 -39 1 -16 -42 -10 -45 87 -42 53 2 92 7 92 13 0 6 -15 11 -33 13 -40 4 -38 24 4 33 42 8 134 67 171 108 18 20 33 39 33 42 0 3 9 16 20 29 11 13 20 33 20 46 0 12 5 35 11 50 22 58 -24 95 -135 108 -33 3 -65 11 -72 17 -7 6 -75 15 -151 20 -76 6 -167 13 -203 17 -75 8 -215 -3 -247 -20 -14 -7 -23 -21 -23 -35 0 -18 -6 -23 -24 -23 -21 0 -24 6 -29 53 -18 150 -18 224 -2 312 18 92 23 159 15 183 -3 8 2 19 11 25 13 8 23 4 50 -21 19 -18 40 -32 48 -32 8 0 45 -10 83 -22 68 -22 68 -22 206 -5 75 10 147 18 160 18 12 1 22 5 22 9 0 4 26 25 58 46 91 60 232 208 268 284 49 101 82 250 69 310 -5 23 -14 32 -38 38 -23 6 -33 15 -35 31 -3 19 -8 22 -30 16 -38 -9 -38 -11 -14 -53 20 -36 20 -41 6 -88 -17 -59 -64 -154 -76 -154 -4 0 -8 -7 -8 -16 0 -48 -120 -187 -225 -261 -46 -33 -73 -44 -115 -48 -30 -4 -70 -12 -87 -18 -24 -8 -42 -8 -65 0 -18 6 -53 14 -78 17 -37 5 -56 17 -107 64 -70 65 -93 111 -93 188 0 29 -4 55 -8 58 -5 3 -8 22 -7 43 l3 38 53 5 c53 5 54 5 57 40 2 31 -3 39 -41 68 -24 17 -58 39 -76 48 -39 19 -39 42 -1 74 17 14 30 30 30 37 0 6 4 14 8 17 12 7 82 -13 82 -23 0 -5 12 -11 28 -14 27 -6 182 -131 182 -147 0 -5 10 -18 21 -29 34 -32 19 -67 -32 -76 -33 -6 -43 -13 -57 -41 -14 -30 -14 -40 -3 -72 7 -20 25 -49 39 -64 71 -76 232 11 232 125 0 49 -30 105 -59 112 -45 11 -61 34 -61 85 0 25 -5 51 -11 57 -5 5 -13 35 -16 64 -4 43 -2 57 11 68 9 7 16 23 16 34 0 23 27 57 46 57 7 0 15 9 19 19 7 23 -4 71 -16 71 -5 0 -9 6 -9 13 0 22 -52 77 -72 77 -11 0 -29 5 -40 11 -22 12 -68 -5 -68 -25 -1 -25 -119 -89 -146 -79 -8 3 -11 28 -8 76 8 132 13 157 35 157 10 0 19 4 19 9 0 5 15 26 34 46 19 20 41 46 50 56 19 22 15 22 91 4z m-771 -364 c3 -4 19 -11 36 -14 35 -8 39 -22 8 -31 -23 -6 -23 -7 -3 -18 30 -17 30 -17 9 -33 -28 -21 -50 -18 -68 10 -13 20 -20 23 -35 16 -13 -7 -24 -6 -37 4 -18 14 -18 15 4 21 13 4 28 17 33 30 8 24 42 33 53 15z m747 -23 c31 -57 16 -122 -34 -153 -46 -28 -47 -28 -47 -11 0 10 -9 16 -26 16 -16 0 -23 4 -18 12 4 6 -1 17 -10 24 -14 10 -15 19 -8 45 5 20 16 35 26 37 10 2 34 15 53 28 44 30 49 30 64 2z m-621 -37 c0 -11 -26 -22 -34 -14 -12 12 -5 23 14 23 11 0 20 -4 20 -9z m-177 -38 c9 -9 -12 -33 -29 -33 -17 0 -18 27 -1 33 18 8 23 8 30 0z m-607 -149 c0 -43 -2 -83 -6 -89 -14 -19 -17 -149 -5 -190 7 -22 16 -53 19 -68 4 -16 12 -35 19 -43 7 -8 17 -20 22 -27 6 -7 23 -31 39 -55 45 -66 98 -108 159 -126 42 -12 56 -21 60 -38 11 -43 -3 -322 -19 -388 -20 -80 -34 -108 -77 -154 -51 -54 -106 -47 -98 12 2 20 -1 22 -53 22 -43 0 -56 3 -56 15 0 24 -28 17 -46 -10 -19 -29 -9 -49 10 -22 7 9 18 17 25 17 16 0 13 -27 -4 -34 -11 -4 -15 -23 -15 -79 0 -71 1 -75 35 -110 57 -59 160 -70 245 -26 36 18 51 33 85 84 36 55 43 74 50 132 4 32 11 65 15 73 4 8 11 59 15 112 l7 98 -27 10 c-23 9 -26 15 -23 47 4 54 35 56 96 6 66 -53 78 -70 98 -136 18 -61 18 -67 -11 -437 -2 -30 0 -76 6 -102 13 -59 6 -75 -27 -54 -37 25 -74 20 -111 -16 -18 -18 -33 -37 -33 -44 0 -7 -5 -14 -12 -16 -7 -3 -14 -31 -16 -69 -3 -51 -1 -68 12 -78 9 -7 16 -20 16 -27 0 -16 50 -44 78 -44 10 0 33 7 51 16 36 18 131 112 131 130 0 7 9 31 20 55 13 29 20 66 20 109 0 37 5 71 11 77 8 8 12 106 13 318 1 293 0 307 -18 321 -11 8 -33 14 -48 14 -36 0 -44 20 -23 59 17 34 21 36 61 21 37 -14 104 19 170 85 37 37 52 60 57 89 3 21 14 47 23 57 49 54 98 -21 61 -92 -8 -14 -14 -38 -15 -55 0 -16 -5 -67 -11 -114 -6 -47 -11 -246 -10 -442 0 -197 -4 -365 -9 -374 -13 -24 -3 -60 25 -88 30 -30 24 -63 -13 -71 -13 -3 -35 -7 -49 -10 -52 -11 -252 -163 -372 -283 -92 -92 -104 -124 -62 -169 18 -19 19 -23 7 -28 -17 -7 -141 26 -184 48 -27 14 -112 93 -142 131 -61 77 -98 216 -81 299 13 57 21 67 62 67 35 0 35 20 -2 59 -20 22 -34 29 -47 24 -16 -6 -16 -8 4 -16 13 -6 21 -15 19 -21 -11 -33 -192 -41 -228 -10 -8 8 -19 14 -24 14 -15 0 -102 99 -124 140 -12 23 -21 54 -21 71 0 17 -6 37 -14 44 -29 29 -27 323 2 333 7 2 12 18 12 36 0 46 57 140 93 154 35 13 57 6 57 -20 0 -46 45 -86 77 -69 10 5 26 12 35 15 22 7 78 83 78 107 0 10 5 21 10 24 24 15 3 103 -37 151 -14 17 -32 23 -80 26 -35 2 -63 1 -63 -4 0 -4 5 -8 10 -8 6 0 10 -9 10 -19 0 -12 11 -25 27 -33 14 -7 28 -18 30 -25 6 -16 -37 -53 -61 -53 -34 1 -120 34 -150 58 -34 26 -66 83 -66 116 0 14 -4 28 -10 31 -5 3 -10 35 -10 70 0 35 5 67 10 70 6 3 10 21 10 39 0 18 7 41 15 52 8 10 15 29 15 40 0 12 7 27 15 34 8 7 15 18 15 24 0 7 14 25 30 41 17 16 30 35 30 42 0 7 21 33 46 57 41 41 46 50 50 97 3 58 8 65 44 72 42 7 45 3 46 -79z m2089 76 c4 -6 -5 -10 -20 -10 -15 0 -24 4 -20 10 3 6 12 10 20 10 8 0 17 -4 20 -10z m-2227 -32 c20 -20 15 -41 -8 -35 -11 3 -23 1 -26 -4 -7 -12 -24 -11 -24 1 0 10 31 48 41 49 3 1 10 -4 17 -11z m211 -34 c12 -19 21 -44 21 -54 0 -10 5 -22 10 -25 15 -10 12 -51 -6 -66 -21 -18 -35 4 -32 53 1 20 -3 42 -9 50 -15 19 -27 78 -15 78 6 0 19 -16 31 -36z m-281 -51 c-3 -30 -25 -42 -34 -19 -9 22 2 46 21 46 12 0 15 -8 13 -27z m1232 -216 c0 -76 -18 -107 -61 -107 -26 0 -29 3 -23 24 7 27 -17 80 -43 95 -10 5 -14 13 -10 17 14 14 70 32 105 33 l32 1 0 -63z m-390 -2 c0 -8 -4 -15 -10 -15 -5 0 -10 7 -10 15 0 8 5 15 10 15 6 0 10 -7 10 -15z m380 -175 c0 -19 -11 -26 -23 -14 -8 8 3 34 14 34 5 0 9 -9 9 -20z m-451 -266 c17 -4 31 -9 31 -13 0 -5 -67 -48 -92 -59 -11 -5 -30 49 -24 65 6 14 36 17 85 7z m609 -611 c5 -10 12 -50 15 -90 6 -81 3 -88 -58 -97 -57 -8 -81 14 -80 74 5 131 2 123 33 117 15 -2 36 -1 47 3 29 12 33 12 43 -7z m652 -48 c0 -2 -5 -16 -12 -30 -18 -41 -57 -28 -43 15 4 13 15 20 31 20 13 0 24 -2 24 -5z m-1305 -934 c9 -15 -11 -21 -46 -14 -28 5 -30 7 -14 14 28 11 53 11 60 0z"></path><path d="M3240 4546 c0 -22 3 -27 11 -19 8 8 8 16 0 30 -9 16 -10 14 -11 -11z"></path><path d="M2936 4310 c-24 -23 -40 -29 -102 -35 -41 -4 -74 -10 -74 -13 0 -4 9 -18 20 -32 l19 -25 16 23 c12 15 26 22 51 22 45 0 124 51 124 80 0 18 -24 9 -54 -20z"></path><path d="M2395 4150 c-4 -6 6 -10 22 -10 22 0 25 2 13 10 -19 12 -27 12 -35 0z"></path><path d="M2550 4004 c0 -14 4 -23 9 -20 5 3 7 15 4 26 -7 28 -13 25 -13 -6z"></path><path d="M2694 3878 c-3 -4 13 -8 35 -8 23 0 41 2 41 4 0 8 -71 12 -76 4z"></path><path d="M2623 3753 c9 -2 25 -2 35 0 9 3 1 5 -18 5 -19 0 -27 -2 -17 -5z"></path><path d="M3682 4626 c1 -10 8 -17 13 -17 15 1 12 24 -3 29 -9 3 -13 -2 -10 -12z"></path><path d="M3719 4574 c-1 -5 0 -21 1 -35 0 -15 -6 -33 -14 -42 -26 -25 -19 -43 7 -19 17 16 23 33 23 57 -1 31 -14 61 -17 39z"></path><path d="M3777 4416 c-10 -25 -8 -98 2 -114 17 -28 28 71 12 112 -7 18 -8 18 -14 2z"></path><path d="M3810 4229 c0 -11 5 -17 10 -14 6 3 10 13 10 21 0 8 -4 14 -10 14 -5 0 -10 -9 -10 -21z"></path><path d="M3875 4150 c-3 -5 3 -10 14 -10 12 0 21 5 21 10 0 6 -6 10 -14 10 -8 0 -18 -4 -21 -10z"></path><path d="M3420 4068 c0 -19 2 -20 10 -8 13 19 13 30 0 30 -5 0 -10 -10 -10 -22z"></path><path d="M3325 4058 c-4 -10 -16 -18 -26 -18 -10 0 -19 -7 -19 -15 0 -8 6 -15 13 -15 17 0 49 39 44 53 -3 7 -7 5 -12 -5z"></path><path d="M3415 3920 c-7 -12 2 -30 16 -30 12 0 12 27 0 35 -5 3 -12 1 -16 -5z"></path><path d="M4170 3895 c1 -26 2 -28 11 -12 8 14 8 22 0 30 -8 8 -11 3 -11 -18z"></path><path d="M3472 3849 c2 -6 8 -10 13 -10 5 0 11 4 13 10 2 6 -4 11 -13 11 -9 0 -15 -5 -13 -11z"></path><path d="M4135 3850 c-8 -13 4 -32 16 -25 12 8 12 35 0 35 -6 0 -13 -4 -16 -10z"></path><path d="M3548 3813 c17 -2 47 -2 65 0 17 2 3 4 -33 4 -36 0 -50 -2 -32 -4z"></path><path d="M4077 3763 c-12 -11 -8 -23 8 -23 8 0 15 7 15 15 0 16 -12 20 -23 8z"></path><path d="M3985 3671 c-6 -11 9 -23 19 -14 9 9 7 23 -3 23 -6 0 -12 -4 -16 -9z"></path><path d="M3955 3639 c-10 -15 3 -25 16 -12 7 7 7 13 1 17 -6 3 -14 1 -17 -5z"></path><path d="M3478 3483 c12 -2 30 -2 40 0 9 3 -1 5 -23 4 -22 0 -30 -2 -17 -4z"></path><path d="M3241 3430 c0 -29 1 -32 10 -17 7 11 7 23 0 35 -9 14 -10 11 -10 -18z"></path><path d="M3562 3403 c-6 -3 -10 -9 -6 -14 7 -12 41 -12 48 0 7 10 -23 20 -42 14z"></path><path d="M3933 3123 c9 -2 25 -2 35 0 9 3 1 5 -18 5 -19 0 -27 -2 -17 -5z"></path><path d="M4035 3100 c-8 -13 20 -24 42 -16 15 6 15 8 3 16 -20 13 -37 12 -45 0z"></path><path d="M4102 3066 c1 -10 8 -17 13 -17 15 1 12 24 -3 29 -9 3 -13 -2 -10 -12z"></path><path d="M3570 3011 c-22 -6 -23 -8 -7 -14 25 -9 69 -9 85 2 10 6 8 10 -10 14 -27 8 -34 7 -68 -2z"></path><path d="M4075 2829 c-4 -6 -5 -13 -2 -16 7 -7 27 6 27 18 0 12 -17 12 -25 -2z"></path><path d="M4046 2784 c-9 -22 3 -32 14 -14 12 19 12 30 1 30 -5 0 -12 -7 -15 -16z"></path><path d="M3720 2728 c0 -16 5 -28 10 -28 13 0 13 20 0 40 -8 12 -10 9 -10 -12z"></path><path d="M3355 2640 c8 -13 55 -13 75 0 11 7 2 10 -33 10 -30 0 -46 -4 -42 -10z"></path><path d="M3894 2504 c8 -67 22 -90 31 -52 12 47 2 102 -19 106 -18 4 -18 -1 -12 -54z"></path><path d="M3650 2418 c0 -7 4 -19 9 -27 11 -17 25 3 17 24 -7 18 -26 20 -26 3z"></path><path d="M2215 3640 c-4 -6 -3 -16 3 -22 6 -6 12 -6 17 2 4 6 3 16 -3 22 -6 6 -12 6 -17 -2z"></path><path d="M3029 3498 c-3 -53 3 -593 7 -597 2 -2 4 136 4 307 0 172 -2 312 -5 312 -3 0 -6 -10 -6 -22z"></path><path d="M2220 3473 c0 -21 3 -24 9 -14 5 8 7 20 4 28 -8 21 -13 15 -13 -14z"></path><path d="M2884 3290 c0 -102 2 -143 3 -92 2 50 2 134 0 185 -1 50 -3 9 -3 -93z"></path><path d="M2185 3429 c-10 -15 3 -25 16 -12 7 7 7 13 1 17 -6 3 -14 1 -17 -5z"></path><path d="M1861 3195 c1 -40 1 -40 11 -12 7 21 7 32 -1 40 -8 8 -11 0 -10 -28z"></path><path d="M2152 3221 c-10 -6 -6 -10 14 -14 36 -6 62 2 42 14 -17 11 -39 11 -56 0z"></path><path d="M2036 3104 c-8 -20 -7 -72 1 -102 10 -38 23 -5 23 61 0 55 -11 74 -24 41z"></path><path d="M1860 3015 c0 -36 3 -46 10 -35 5 8 10 24 10 35 0 11 -5 27 -10 35 -7 11 -10 1 -10 -35z"></path><path d="M2175 2860 c-4 -6 7 -10 27 -10 25 0 29 3 18 10 -19 13 -37 13 -45 0z"></path><path d="M2302 2859 c2 -6 7 -10 11 -10 4 1 14 1 23 1 8 0 12 5 9 10 -8 13 -48 13 -43 -1z"></path><path d="M2568 2818 c9 -9 15 -9 24 0 9 9 7 12 -12 12 -19 0 -21 -3 -12 -12z"></path><path d="M2490 2765 c0 -8 5 -15 10 -15 6 0 10 7 10 15 0 8 -4 15 -10 15 -5 0 -10 -7 -10 -15z"></path><path d="M2846 2741 c-4 -5 -2 -20 3 -33 9 -21 10 -21 10 10 1 32 -3 39 -13 23z"></path><path d="M2253 2530 c0 -36 2 -50 4 -32 2 17 2 47 0 65 -2 17 -4 3 -4 -33z"></path><path d="M2452 2499 c2 -7 10 -15 17 -17 8 -3 12 1 9 9 -2 7 -10 15 -17 17 -8 3 -12 -1 -9 -9z"></path><path d="M2498 2450 c23 -22 42 -26 42 -10 0 6 -7 10 -15 10 -8 0 -15 5 -15 10 0 6 -8 10 -17 10 -14 0 -14 -3 5 -20z"></path><path d="M2885 4780 c-3 -5 3 -10 14 -10 12 0 21 5 21 10 0 6 -6 10 -14 10 -8 0 -18 -4 -21 -10z"></path><path d="M2590 4690 c-12 -8 -12 -10 2 -15 20 -8 41 2 33 16 -8 11 -16 11 -35 -1z"></path><path d="M1930 4596 c-14 -7 -42 -21 -62 -31 -45 -21 -139 -112 -173 -165 -14 -22 -39 -67 -56 -102 -17 -35 -37 -76 -45 -91 -8 -16 -14 -40 -14 -53 0 -14 -6 -35 -12 -47 -39 -70 -60 -327 -33 -416 21 -71 44 -117 73 -149 27 -31 27 -31 -3 -76 -14 -20 -25 -43 -25 -49 0 -7 -5 -18 -12 -25 -13 -13 -34 -68 -50 -127 -16 -64 -5 -373 15 -412 10 -18 17 -43 17 -56 0 -14 7 -30 15 -37 8 -7 15 -22 15 -34 1 -11 12 -39 25 -61 14 -22 29 -50 35 -63 13 -29 137 -152 154 -152 8 0 19 -7 26 -15 7 -8 19 -15 27 -15 8 0 21 -7 29 -15 17 -17 54 -20 54 -5 0 6 -13 13 -30 16 -16 4 -35 13 -41 20 -6 8 -16 14 -21 14 -26 0 -157 134 -186 191 -12 24 -26 51 -31 59 -14 24 -32 82 -42 128 -5 23 -13 51 -19 61 -16 32 -12 361 5 391 8 14 15 34 15 45 1 11 12 40 25 65 13 25 28 55 34 67 5 11 15 24 20 28 15 9 14 42 -2 48 -23 9 -75 128 -93 215 -15 73 -16 92 -5 150 7 37 16 90 20 117 9 63 45 176 77 238 8 16 14 35 14 43 0 8 4 14 9 14 5 0 13 10 17 22 10 34 98 145 141 180 21 17 50 35 66 40 15 6 27 14 27 19 0 5 11 9 24 9 31 0 56 10 56 21 0 13 -52 10 -80 -5z"></path><path d="M4150 4601 c0 -11 25 -21 56 -21 13 0 24 -4 24 -9 0 -5 10 -13 23 -17 35 -10 106 -72 153 -134 43 -54 114 -184 114 -207 0 -6 6 -24 14 -40 32 -64 66 -240 66 -338 0 -101 -44 -244 -90 -293 -22 -23 -26 -47 -9 -57 5 -4 14 -17 20 -28 5 -12 13 -29 18 -37 17 -29 39 -86 56 -144 23 -78 23 -321 0 -385 -8 -24 -15 -56 -15 -71 0 -16 -7 -41 -15 -57 -7 -15 -23 -48 -35 -73 -26 -55 -38 -75 -70 -114 -43 -52 -85 -92 -103 -99 -9 -3 -17 -11 -17 -17 0 -5 -6 -10 -14 -10 -8 0 -21 -6 -28 -13 -7 -8 -26 -17 -41 -21 -15 -3 -27 -11 -27 -16 0 -15 37 -12 54 5 8 8 20 15 26 15 6 0 31 15 56 34 25 19 48 36 52 38 15 7 102 114 102 125 0 7 4 13 9 13 10 0 51 79 51 99 0 7 6 25 14 39 58 113 77 440 31 539 -8 17 -15 38 -15 46 0 8 -19 46 -41 86 l-41 71 24 32 c54 71 79 153 85 276 3 59 0 97 -11 129 -9 26 -16 63 -16 84 0 20 -7 50 -15 65 -8 16 -15 39 -15 51 0 20 -20 76 -41 113 -4 8 -19 35 -31 60 -32 62 -63 108 -106 155 -45 49 -120 105 -141 105 -9 0 -25 7 -35 15 -22 16 -76 20 -76 6z"></path><path d="M2486 4578 c-8 -37 -2 -81 12 -86 9 -3 12 12 12 52 0 56 -15 77 -24 34z"></path><path d="M2440 4380 c19 -13 30 -13 30 0 0 6 -10 10 -22 10 -19 0 -20 -2 -8 -10z"></path><path d="M1418 3576 c-33 -41 -35 -56 -8 -56 13 0 20 7 20 20 0 30 27 24 66 -14 37 -36 38 -56 3 -56 -11 0 -22 -7 -25 -15 -4 -8 -12 -15 -19 -15 -7 0 -15 7 -19 15 -3 8 -17 15 -31 15 -20 0 -25 5 -25 25 0 28 -27 35 -36 10 -6 -15 96 -125 115 -125 5 0 35 25 66 56 56 57 64 81 27 91 -9 2 -30 22 -46 44 -17 21 -37 39 -45 39 -9 0 -28 -16 -43 -34z"></path><path d="M4650 3565 c-19 -25 -39 -45 -46 -45 -6 0 -15 -7 -18 -16 -7 -18 100 -123 127 -124 9 0 17 3 17 8 0 4 21 28 46 54 29 30 44 53 40 63 -8 22 -24 18 -28 -7 -2 -15 -10 -23 -23 -23 -29 -1 -45 -13 -45 -36 0 -27 -15 -24 -28 6 -7 14 -20 25 -31 25 -24 0 -33 13 -25 34 9 23 41 20 49 -4 6 -20 6 -20 46 0 23 12 39 28 39 38 0 20 -52 72 -72 72 -8 0 -29 -20 -48 -45z m75 -25 c0 -8 -10 -16 -22 -18 -22 -3 -32 16 -16 32 12 11 38 2 38 -14z"></path><path d="M1946 2383 c-10 -11 5 -23 28 -23 34 0 56 -31 56 -76 0 -22 7 -49 15 -60 8 -10 15 -26 15 -35 0 -9 14 -35 30 -57 17 -23 30 -45 30 -49 0 -13 142 -143 156 -143 7 0 17 -6 21 -13 4 -7 49 -33 98 -57 84 -42 130 -57 245 -80 58 -11 194 -12 245 0 80 18 135 36 147 48 17 17 70 15 94 -3 10 -8 28 -15 39 -15 11 0 34 -8 50 -17 45 -25 302 -25 363 0 23 9 55 17 71 17 16 0 34 7 41 15 7 8 19 15 26 15 17 0 116 53 173 94 73 51 163 147 184 196 4 8 11 22 16 30 23 39 41 94 41 124 0 37 21 60 63 70 35 8 26 26 -13 26 -39 0 -56 -20 -70 -82 -16 -73 -66 -168 -118 -228 -44 -51 -153 -140 -170 -140 -5 0 -15 -7 -22 -15 -7 -8 -20 -15 -29 -15 -9 0 -22 -5 -28 -11 -13 -13 -109 -49 -131 -49 -8 0 -29 -7 -47 -16 -41 -19 -290 -16 -345 5 -117 43 -150 48 -194 27 -19 -9 -43 -16 -54 -16 -11 0 -36 -7 -55 -15 -50 -21 -291 -21 -327 0 -14 8 -35 14 -47 15 -20 0 -76 20 -113 41 -8 4 -35 18 -60 30 -49 24 -190 126 -190 138 0 3 -13 21 -29 38 -16 17 -38 52 -51 77 -12 25 -26 48 -31 52 -5 3 -9 15 -9 27 0 13 -9 47 -19 77 -18 51 -22 55 -54 57 -19 1 -37 -1 -41 -4z"></path><path d="M3050 1808 c-1 -7 -23 -30 -50 -52 -53 -41 -55 -57 -10 -76 16 -7 31 -18 34 -26 9 -23 26 -16 26 11 0 18 -7 26 -25 31 -33 8 -32 32 3 36 21 2 27 8 27 28 0 20 6 26 28 28 28 3 33 -3 17 -28 -11 -17 4 -30 38 -30 30 0 28 -24 -3 -38 -15 -7 -25 -20 -25 -33 0 -23 1 -23 52 11 50 34 53 45 15 72 -18 12 -44 34 -60 50 -28 29 -67 38 -67 16z"></path><path d="M3060 1630 c0 -5 9 -10 20 -10 11 0 20 5 20 10 0 6 -9 10 -20 10 -11 0 -20 -4 -20 -10z"></path><path d="M4530 5255 c0 -9 5 -15 11 -13 6 2 11 8 11 13 0 5 -5 11 -11 13 -6 2 -11 -4 -11 -13z"></path><path d="M1996 5268 c9 -62 21 -80 29 -47 11 42 2 83 -18 87 -15 3 -17 -2 -11 -40z"></path><path d="M1340 5223 c0 -5 5 -15 10 -23 8 -12 10 -11 10 8 0 12 -4 22 -10 22 -5 0 -10 -3 -10 -7z"></path><path d="M4797 5234 c-8 -8 1 -24 14 -24 5 0 9 7 9 15 0 15 -12 20 -23 9z"></path><path d="M1610 4985 c0 -8 7 -15 15 -15 8 0 15 7 15 15 0 8 -7 15 -15 15 -8 0 -15 -7 -15 -15z"></path><path d="M4507 4993 c-14 -13 -6 -24 15 -21 27 4 36 28 11 28 -11 0 -23 -3 -26 -7z"></path><path d="M1256 3759 c-7 -44 -4 -55 13 -44 13 7 15 85 2 85 -5 0 -11 -19 -15 -41z"></path><path d="M386 2913 c-12 -12 -6 -43 9 -43 8 0 15 9 15 19 0 21 -13 34 -24 24z"></path><path d="M5016 1401 c-16 -17 -16 -20 -1 -35 23 -22 34 -20 41 8 11 44 -11 59 -40 27z"></path><path d="M5097 1403 c-3 -5 -7 -26 -8 -47 -5 -52 15 -58 37 -12 14 29 15 38 4 51 -14 16 -26 19 -33 8z"></path><path d="M1885 4781 c-10 -18 17 -23 33 -7 15 15 15 16 -5 16 -12 0 -24 -4 -28 -9z"></path><path d="M4215 4780 c-3 -6 1 -13 10 -16 19 -8 30 0 20 15 -8 14 -22 14 -30 1z"></path><path d="M1299 4553 c-12 -15 -12 -16 4 -10 10 4 23 7 28 7 6 0 7 5 4 10 -9 15 -21 12 -36 -7z"></path><path d="M4815 4560 c-4 -6 5 -10 19 -10 14 0 26 5 26 10 0 6 -9 10 -19 10 -11 0 -23 -4 -26 -10z"></path><path d="M340 3235 c0 -8 7 -15 15 -15 8 0 15 7 15 15 0 8 -7 15 -15 15 -8 0 -15 -7 -15 -15z"></path><path d="M5816 3092 c-9 -15 12 -35 29 -28 14 5 15 9 5 21 -14 17 -26 19 -34 7z"></path><path d="M1250 2490 c0 -5 12 -10 26 -10 14 0 23 4 19 10 -3 6 -15 10 -26 10 -10 0 -19 -4 -19 -10z"></path><path d="M1582 2058 c-18 -18 -15 -28 8 -28 13 0 20 7 20 20 0 23 -10 26 -28 8z"></path><path d="M1980 1761 c0 -17 2 -31 4 -31 8 0 13 51 5 56 -5 3 -9 -9 -9 -25z"></path><path d="M2286 1571 c-3 -5 -22 -12 -41 -15 -53 -10 -123 -56 -134 -88 -14 -39 3 -45 40 -14 31 26 50 33 104 38 24 2 31 8 33 31 2 19 9 27 22 27 10 0 21 -4 24 -9 3 -5 22 -12 41 -15 23 -5 53 -23 83 -52 26 -25 56 -46 67 -47 18 -2 20 3 16 38 -7 75 -6 79 13 83 43 9 147 -72 161 -125 4 -17 0 -32 -11 -44 -21 -24 -37 -20 -44 11 -14 58 -77 52 -105 -11 -19 -41 -19 -42 2 -78 11 -20 32 -42 47 -49 14 -7 26 -17 26 -23 0 -5 14 -9 31 -9 35 0 36 23 1 28 -24 4 -82 69 -82 92 0 8 7 24 16 35 13 17 16 18 24 5 5 -8 10 -20 10 -27 0 -12 30 -33 49 -33 5 0 23 12 40 26 26 21 31 33 31 68 0 36 -7 51 -40 89 -24 27 -53 48 -70 52 -16 4 -32 11 -35 16 -9 13 -119 11 -132 -2 -9 -9 -26 -9 -69 0 -69 13 -111 14 -118 2z"></path><path d="M2290 1475 c0 -8 4 -15 10 -15 12 0 57 -44 90 -89 56 -75 77 -97 133 -138 33 -24 67 -43 77 -43 10 0 21 -7 24 -16 4 -10 16 -14 38 -12 43 4 42 22 -1 26 -19 2 -40 10 -48 18 -8 8 -20 14 -27 14 -16 0 -93 81 -155 165 -53 71 -93 105 -123 105 -10 0 -18 -7 -18 -15z"></path><path d="M2990 1479 c0 -7 -8 -18 -17 -25 -12 -9 -14 -13 -5 -14 16 0 42 24 42 39 0 6 -4 11 -10 11 -5 0 -10 -5 -10 -11z"></path><path d="M2934 1286 c-3 -8 -21 -22 -40 -31 -36 -17 -37 -35 -3 -35 10 0 19 -4 19 -10 0 -5 7 -10 15 -10 8 0 15 5 15 10 0 6 -7 10 -15 10 -23 0 -18 20 10 42 26 20 33 38 15 38 -6 0 -13 -6 -16 -14z"></path><path d="M2710 1205 c0 -12 13 -15 66 -15 48 0 65 3 62 13 -3 7 -28 13 -66 15 -51 2 -62 0 -62 -13z"></path><path d="M2850 1181 c0 -5 6 -11 13 -13 17 -7 38 2 31 13 -7 12 -44 12 -44 0z"></path><path d="M2740 1146 c0 -9 39 -13 51 -5 10 6 4 9 -18 9 -18 0 -33 -2 -33 -4z"></path><path d="M3556 1571 c-3 -5 -18 -12 -33 -16 -38 -9 -72 -39 -94 -82 -29 -56 -25 -96 12 -127 17 -14 35 -26 40 -26 25 0 49 23 49 45 0 35 18 40 31 8 20 -52 -15 -113 -74 -127 -31 -7 -28 -26 4 -26 27 0 87 47 105 83 13 25 14 35 2 73 -19 67 -78 75 -99 15 -10 -27 -13 -29 -35 -19 -32 15 -31 46 5 95 29 40 100 83 136 83 16 0 17 -7 12 -60 -3 -33 -1 -63 4 -66 12 -7 44 13 91 58 32 29 115 68 147 68 6 0 11 -13 11 -30 0 -25 -4 -30 -23 -30 -21 0 -107 -69 -107 -85 0 -11 -86 -118 -122 -152 -18 -17 -42 -33 -52 -35 -23 -4 -34 -28 -13 -28 9 0 37 15 64 33 46 30 75 59 181 186 24 28 49 51 56 51 8 0 16 7 20 15 3 10 19 15 45 15 31 0 49 -7 75 -31 37 -32 56 -31 56 1 0 25 -50 65 -107 85 -26 9 -56 21 -65 26 -25 13 -64 11 -125 -5 -45 -12 -54 -12 -64 0 -13 16 -124 20 -133 5z"></path><path d="M3277 1476 c-9 -13 -23 -31 -33 -40 -9 -9 -13 -20 -10 -24 4 -3 10 -2 14 3 10 15 59 35 66 28 23 -23 -20 -72 -69 -80 -22 -4 -43 1 -64 13 -39 23 -49 13 -19 -19 17 -18 28 -23 38 -17 8 5 26 6 41 3 27 -5 72 17 96 47 20 24 15 65 -10 88 -29 27 -31 27 -50 -2z"></path><path d="M3140 1479 c0 -14 30 -38 49 -39 8 0 4 9 -10 25 -26 27 -39 31 -39 14z"></path><path d="M3200 1285 c0 -9 11 -20 25 -25 14 -5 25 -16 25 -25 0 -8 9 -15 20 -15 28 0 25 19 -5 30 -13 5 -30 18 -37 30 -15 24 -28 26 -28 5z"></path><path d="M3320 1205 c0 -11 12 -15 49 -15 27 0 56 3 65 6 31 12 4 24 -55 24 -46 0 -59 -3 -59 -15z"></path><path d="M3265 1180 c-3 -5 3 -10 14 -10 12 0 21 5 21 10 0 6 -6 10 -14 10 -8 0 -18 -4 -21 -10z"></path><path d="M3465 1180 c-8 -12 17 -23 41 -18 10 1 19 9 22 16 5 15 -54 17 -63 2z"></path><path d="M4812 1017 c-14 -17 -26 -67 -16 -67 5 1 19 9 32 20 17 14 22 25 17 40 -7 23 -18 25 -33 7z"></path></g></svg>