<svg xmlns="http://www.w3.org/2000/svg" width="900.000000pt" height="408.000000pt" viewBox="0 0 900.000000 408.000000" preserveAspectRatio="xMidYMid meet"><g transform="translate(0.000000,408.000000) scale(0.100000,-0.100000)" fill="#ffffff" stroke="none"><path d="M3875 3936 c-11 -8 -26 -16 -33 -16 -25 0 -129 -89 -218 -186 -204 -221 -233 -242 -469 -340 -96 -40 -194 -94 -235 -131 -50 -45 -110 -153 -110 -200 -1 -16 -7 -55 -15 -88 -8 -33 -15 -96 -15 -141 0 -44 -7 -103 -15 -130 -8 -27 -15 -59 -15 -71 0 -12 -7 -34 -14 -50 -8 -15 -18 -35 -21 -43 -3 -8 -17 -35 -32 -60 -14 -25 -33 -59 -42 -76 -9 -16 -27 -44 -38 -60 -34 -47 -93 -165 -93 -184 0 -10 -7 -34 -15 -53 -19 -46 -19 -98 0 -144 8 -19 15 -42 15 -51 0 -9 16 -47 36 -86 43 -85 47 -91 121 -211 37 -60 83 -168 83 -197 1 -12 7 -50 15 -83 8 -33 15 -101 15 -151 0 -55 6 -108 15 -134 8 -23 15 -53 15 -65 0 -31 44 -118 78 -153 55 -58 137 -107 280 -168 207 -88 225 -100 345 -229 265 -285 309 -316 450 -323 44 -2 98 1 125 8 26 7 67 16 92 21 25 4 63 12 85 18 90 23 186 33 256 27 119 -10 180 -22 325 -62 28 -8 93 -14 145 -14 86 1 99 3 155 33 82 42 130 84 221 191 156 181 212 224 393 303 19 9 48 22 63 29 16 8 37 14 47 14 10 0 21 4 25 9 3 6 31 22 63 37 61 29 182 142 182 170 0 9 6 28 14 42 20 39 46 187 46 262 0 70 25 217 45 265 23 54 56 119 75 150 11 17 24 39 30 50 6 11 19 34 30 50 11 17 24 39 30 50 5 11 14 27 19 35 10 17 32 68 52 120 7 19 13 67 13 105 0 65 -6 92 -39 170 -7 17 -16 37 -19 45 -3 8 -15 29 -26 45 -11 17 -24 39 -30 50 -6 11 -19 34 -30 50 -11 17 -31 54 -45 82 -15 29 -30 55 -36 58 -5 4 -9 15 -9 25 0 10 -6 31 -14 47 -18 35 -46 227 -46 311 0 125 -46 255 -115 329 -47 50 -50 51 -162 107 -73 36 -95 46 -183 84 -19 8 -42 19 -50 23 -8 5 -35 19 -60 31 -48 25 -182 151 -246 233 -79 101 -175 182 -254 214 -43 19 -207 21 -270 4 -181 -47 -245 -57 -360 -57 -111 0 -173 10 -342 55 -24 6 -92 13 -153 16 -88 3 -114 1 -130 -11z m139 -115 c7 -11 -22 -23 -36 -15 -6 4 -5 10 3 15 18 11 26 11 33 0z m987 -4 c-1 -12 -15 -9 -19 4 -3 6 1 10 8 8 6 -3 11 -8 11 -12z m99 -21 c0 -19 4 -23 19 -19 19 5 38 -13 27 -25 -7 -7 -74 15 -94 31 -16 13 3 37 29 37 13 0 19 -7 19 -24z m-1174 3 c10 -16 -8 -29 -51 -36 -27 -4 -36 -3 -31 5 4 6 13 9 20 6 8 -3 16 4 19 15 5 22 31 28 43 10z m820 -17 c50 -5 100 -15 112 -21 11 -6 36 -11 54 -11 18 0 46 -7 62 -15 15 -8 37 -15 47 -15 10 0 35 -7 56 -16 21 -9 54 -23 73 -31 83 -35 106 -46 120 -54 8 -5 24 -13 36 -18 47 -21 179 -107 279 -183 66 -51 187 -162 222 -204 21 -25 50 -60 66 -77 15 -17 44 -56 65 -86 20 -31 43 -62 50 -69 6 -7 12 -20 12 -28 0 -8 4 -14 8 -14 9 0 112 -200 112 -217 0 -6 7 -24 15 -39 8 -16 15 -37 15 -46 0 -9 4 -19 9 -22 5 -4 12 -24 16 -46 4 -22 10 -42 15 -45 4 -3 11 -26 15 -52 4 -27 11 -56 17 -66 5 -10 13 -50 19 -90 5 -40 13 -97 18 -127 12 -71 12 -249 0 -320 -5 -30 -13 -87 -18 -127 -6 -40 -14 -80 -19 -90 -6 -10 -13 -39 -17 -66 -4 -26 -11 -49 -15 -52 -5 -3 -11 -23 -15 -45 -4 -22 -11 -42 -16 -46 -5 -3 -9 -13 -9 -22 0 -9 -7 -30 -15 -46 -8 -15 -15 -33 -15 -39 0 -17 -103 -217 -112 -217 -4 0 -8 -6 -8 -14 0 -8 -6 -21 -12 -28 -7 -7 -30 -38 -50 -69 -21 -30 -50 -69 -65 -86 -16 -17 -45 -52 -66 -77 -35 -42 -156 -153 -222 -204 -150 -114 -290 -196 -440 -257 -16 -7 -47 -20 -68 -29 -21 -9 -46 -16 -56 -16 -10 0 -32 -7 -47 -15 -16 -8 -45 -15 -65 -15 -19 0 -40 -5 -46 -11 -42 -42 -663 -42 -741 0 -11 6 -36 11 -54 11 -18 1 -44 7 -58 15 -14 8 -37 14 -51 15 -14 0 -34 7 -45 15 -10 8 -27 15 -37 15 -11 0 -31 6 -45 14 -15 7 -62 31 -105 52 -109 54 -131 66 -137 74 -3 3 -23 17 -45 30 -127 75 -298 222 -400 345 -22 26 -46 53 -52 60 -64 67 -208 322 -248 440 -9 28 -21 59 -25 70 -5 11 -18 54 -30 95 -11 41 -26 91 -32 110 -6 19 -15 64 -19 100 -26 229 -28 269 -19 360 18 181 29 259 38 277 5 10 12 38 16 63 4 24 11 49 15 55 5 5 11 24 15 40 18 80 121 313 174 397 88 138 228 308 303 369 23 19 47 39 53 44 56 52 273 205 292 205 7 0 14 4 16 8 2 5 39 25 83 46 44 21 92 45 107 52 14 8 34 14 45 14 10 0 27 7 37 15 11 8 30 15 42 15 12 0 35 7 50 15 16 8 43 15 59 15 17 0 48 7 70 15 22 8 65 15 95 15 30 1 73 5 95 10 47 10 289 5 421 -8z m-1758 -659 c-4 -22 -38 -30 -38 -10 0 14 13 24 33 26 5 1 7 -7 5 -16z m-342 -1030 c26 -34 13 -145 -14 -119 -9 10 -16 136 -7 136 4 0 14 -8 21 -17z m3714 -75 c0 -74 -14 -107 -24 -58 -12 62 -5 120 15 120 5 0 9 -28 9 -62z m-3372 -1068 c2 -13 11 -30 20 -36 26 -19 4 -30 -26 -13 -34 18 -46 83 -15 77 10 -2 19 -14 21 -28z m3032 -7 c-1 -10 -47 -63 -55 -63 -11 0 -4 34 12 52 16 18 43 25 43 11z m-2109 -662 c20 -16 22 -22 11 -33 -10 -10 -16 -10 -32 0 -11 6 -27 12 -35 12 -8 0 -15 2 -15 4 0 2 -3 11 -6 20 -9 24 48 21 77 -3z m1229 11 c0 -16 -25 -32 -51 -32 -15 0 -29 -7 -33 -15 -7 -18 -56 -20 -56 -2 0 6 19 22 43 34 42 21 97 30 97 15z m-1158 -34 c-9 -9 -15 -9 -24 0 -9 9 -7 12 12 12 19 0 21 -3 12 -12z"></path><path d="M4270 3719 c-19 -4 -62 -12 -95 -18 -103 -17 -170 -32 -180 -42 -5 -5 -18 -9 -30 -9 -11 0 -33 -7 -49 -15 -15 -8 -33 -15 -39 -15 -16 0 -214 -98 -287 -143 -155 -94 -325 -248 -441 -397 -55 -70 -179 -261 -179 -274 0 -3 -15 -37 -34 -78 -30 -63 -49 -117 -107 -305 -28 -89 -47 -344 -38 -495 8 -127 25 -251 37 -275 5 -10 13 -39 16 -65 4 -26 11 -50 17 -53 5 -4 9 -16 9 -28 0 -12 7 -35 15 -51 8 -15 15 -33 15 -39 0 -22 105 -225 158 -307 79 -121 121 -172 225 -279 162 -164 347 -288 562 -376 22 -9 47 -20 55 -24 9 -5 31 -12 50 -16 19 -4 41 -11 50 -16 18 -10 92 -27 175 -40 33 -5 83 -15 110 -21 64 -15 345 -15 410 0 28 6 77 15 110 21 119 19 249 54 269 72 6 5 16 9 24 9 20 0 178 73 249 116 104 62 129 79 142 92 8 7 26 21 40 30 74 48 264 239 321 322 8 12 20 28 25 34 23 27 55 76 55 85 0 5 4 11 8 13 10 3 16 14 90 160 28 57 52 111 52 119 0 8 4 19 9 25 4 5 18 43 30 84 13 41 27 89 32 105 13 46 28 146 41 283 9 93 9 151 0 245 -13 139 -28 238 -42 282 -5 16 -19 64 -31 105 -12 41 -25 79 -30 85 -5 5 -9 15 -9 23 0 18 -125 271 -140 282 -3 3 -17 23 -30 45 -13 22 -30 46 -38 54 -7 8 -21 26 -30 40 -47 73 -240 266 -313 313 -14 9 -32 23 -40 30 -15 15 -233 148 -242 148 -3 0 -35 14 -70 30 -36 17 -71 30 -79 30 -8 0 -18 4 -24 9 -23 21 -156 54 -365 91 -65 12 -388 11 -439 -1z m78 -101 c6 -7 14 -44 19 -83 7 -62 11 -70 28 -67 39 6 84 6 91 -1 4 -4 2 -18 -4 -31 -9 -21 -19 -25 -68 -28 -33 -2 -64 2 -73 9 -12 9 -20 8 -32 -3 -14 -13 -19 -12 -42 6 -19 15 -38 20 -64 18 -33 -3 -38 -7 -41 -30 -3 -22 -9 -28 -26 -28 -13 0 -29 -7 -36 -15 -11 -13 -16 -13 -44 2 -17 9 -45 27 -62 39 -44 34 -55 31 -42 -8 6 -18 15 -37 19 -42 19 -20 9 -37 -18 -34 -22 2 -29 10 -34 37 -4 18 -11 43 -17 55 -36 79 -37 96 -1 96 18 0 65 -27 97 -57 31 -29 46 4 16 34 -22 22 -15 78 10 78 14 0 23 -14 37 -55 10 -30 18 -62 18 -71 1 -15 29 -35 37 -26 2 2 6 30 10 63 9 71 29 124 48 124 15 0 57 -50 95 -112 35 -59 44 -49 36 41 -4 44 -4 85 0 90 8 15 30 14 43 -1z m186 -3 c-4 -8 -1 -22 5 -29 8 -10 9 -16 1 -21 -5 -3 -10 -15 -10 -26 0 -19 0 -19 -39 1 -50 25 -53 31 -38 64 10 21 19 26 49 26 29 0 36 -3 32 -15z m226 -2 c14 -9 28 -22 33 -27 10 -14 -3 -158 -15 -173 -6 -8 -34 -13 -66 -13 -47 0 -60 4 -84 27 -20 19 -28 37 -28 60 0 65 63 143 115 143 11 0 32 -8 45 -17z m130 -52 c0 -15 -6 -36 -14 -47 -8 -11 -16 -38 -18 -60 -3 -38 -2 -39 32 -42 33 -3 37 0 53 36 9 21 17 50 17 64 0 35 25 55 46 37 19 -16 12 -65 -17 -124 -24 -47 -55 -74 -86 -75 -32 0 -81 32 -87 56 -12 45 8 142 37 181 14 19 37 3 37 -26z m265 -83 c3 -13 5 -66 3 -118 -3 -79 -6 -95 -20 -98 -12 -2 -18 7 -23 37 -6 36 -10 41 -40 47 -23 4 -41 1 -57 -10 -12 -9 -28 -16 -35 -16 -29 0 -9 33 54 93 36 34 71 67 77 74 17 19 35 15 41 -9z m-1317 -27 c46 -49 50 -57 57 -102 5 -35 3 -49 -13 -66 -53 -61 -124 -49 -159 28 -36 76 -31 106 26 144 46 32 57 31 89 -4z m1472 -51 c0 -11 -7 -23 -15 -26 -8 -4 -15 -12 -15 -19 0 -8 -6 -20 -13 -27 -8 -7 -19 -24 -26 -36 -14 -26 -3 -47 30 -57 11 -4 25 -18 30 -33 l10 -26 22 33 c82 120 97 135 119 113 11 -11 -17 -61 -60 -108 -21 -23 -35 -54 -23 -54 10 0 81 77 81 88 0 5 11 14 25 20 21 10 29 8 57 -16 74 -60 80 -69 73 -91 -9 -29 -15 -27 -63 19 -22 22 -46 40 -52 40 -21 0 -9 -37 20 -58 34 -26 41 -62 11 -62 -11 0 -34 15 -50 33 l-31 32 -28 -32 c-33 -40 -49 -42 -58 -7 -4 16 -12 23 -20 20 -20 -8 -164 93 -164 115 0 10 14 38 30 62 17 25 30 50 30 55 0 19 31 42 56 42 17 0 24 -5 24 -20z m-1624 -72 c21 -35 41 -65 45 -68 4 -3 11 -18 14 -33 11 -43 -26 -36 -50 10 -11 20 -24 41 -30 48 -31 33 -56 78 -51 91 11 29 36 12 72 -48z m-86 -13 c16 -19 4 -35 -25 -35 -30 0 -65 -28 -65 -51 0 -16 2 -16 33 -2 17 9 36 22 40 30 20 33 90 -7 103 -59 5 -23 0 -33 -32 -62 -44 -40 -72 -50 -108 -36 -45 17 -26 56 21 44 24 -7 73 32 73 57 0 26 -23 24 -70 -6 -48 -30 -85 -32 -100 -6 -20 38 -11 67 31 105 44 38 79 46 99 21z m1090 5 c90 -14 204 -44 265 -70 11 -5 41 -18 67 -29 26 -12 52 -21 57 -21 6 0 11 -4 11 -9 0 -5 10 -13 22 -17 20 -6 109 -58 133 -76 6 -5 20 -16 32 -26 106 -84 171 -149 255 -255 10 -12 21 -26 26 -32 45 -56 151 -261 167 -325 3 -14 10 -34 15 -45 10 -24 27 -96 42 -180 13 -77 13 -333 0 -410 -15 -84 -32 -156 -42 -180 -5 -11 -12 -31 -15 -45 -16 -63 -114 -253 -167 -325 -68 -93 -181 -210 -265 -273 -26 -20 -50 -39 -53 -42 -7 -8 -159 -100 -166 -100 -3 0 -26 -9 -52 -21 -137 -59 -188 -75 -327 -99 -64 -11 -345 -11 -410 0 -78 13 -149 30 -165 39 -9 5 -31 12 -50 16 -19 4 -41 11 -50 15 -8 5 -59 29 -112 55 -174 83 -336 218 -456 380 -81 109 -81 108 -132 215 -103 211 -128 325 -128 575 -1 179 15 279 62 415 9 25 19 53 22 63 21 61 112 219 172 299 82 109 160 186 257 257 39 28 75 54 81 58 49 36 232 124 284 138 14 3 34 10 45 15 27 12 109 30 175 40 76 10 333 10 400 0z m-1252 -167 c3 -19 -1 -23 -24 -23 -30 0 -64 -25 -64 -47 0 -20 14 -16 56 18 29 23 44 29 64 24 69 -18 79 -75 23 -135 -37 -41 -79 -52 -112 -31 -23 15 -5 41 28 41 20 0 36 8 50 26 44 56 10 68 -54 20 -55 -42 -61 -43 -92 -14 -32 30 -29 58 13 107 32 37 41 42 73 39 29 -2 37 -8 39 -25z m2165 -103 c-72 -70 -98 -83 -110 -55 -3 11 8 28 33 49 22 19 57 50 78 70 35 34 40 36 55 22 14 -14 9 -22 -56 -86z m154 -27 c41 -46 41 -80 0 -103 -24 -13 -29 -13 -37 0 -5 8 -7 23 -4 33 18 56 -40 77 -89 32 -44 -42 -32 -76 29 -78 29 -2 40 -7 42 -20 3 -12 -4 -20 -17 -24 -12 -3 -21 -10 -21 -15 0 -5 45 -8 107 -6 130 4 136 -3 70 -89 -24 -32 -49 -68 -56 -80 -6 -13 -21 -23 -32 -23 -22 0 -38 28 -22 39 40 25 4 107 -42 95 -21 -5 -25 -1 -33 28 -4 18 -18 38 -30 44 -87 43 -91 115 -11 174 60 43 101 41 146 -7z m-2489 -14 c1 -8 -11 -31 -27 -50 -17 -19 -31 -40 -31 -46 0 -26 36 -12 59 22 13 19 30 35 38 35 27 0 24 -30 -8 -70 -28 -34 -31 -43 -19 -50 22 -14 24 -14 58 35 20 28 39 45 52 45 11 0 20 -4 20 -9 0 -27 -84 -141 -103 -141 -7 0 -38 20 -69 45 -32 25 -62 45 -68 45 -9 0 -14 16 -13 46 0 6 18 34 39 63 38 50 66 62 72 30z m-140 -228 c-15 -26 -25 -51 -21 -55 15 -15 33 -3 49 34 12 26 24 40 34 38 24 -5 24 -47 1 -72 -20 -22 -20 -23 -4 -38 10 -8 26 -18 36 -21 11 -4 17 -14 15 -24 -5 -23 -58 -21 -70 2 -5 8 -15 15 -21 15 -21 0 -91 39 -100 56 -6 10 -4 21 7 33 9 10 16 22 16 27 0 5 12 27 26 48 24 35 27 37 42 22 16 -15 15 -20 -10 -65z m2832 -91 c5 -10 10 -28 10 -39 0 -10 4 -21 9 -23 4 -1 12 -13 15 -26 9 -29 -21 -43 -39 -19 -16 22 -42 21 -88 -3 -50 -27 -97 -27 -97 0 0 11 8 23 18 26 9 3 29 12 44 20 14 8 36 14 48 14 18 0 21 5 19 33 -4 44 7 60 31 47 11 -6 24 -19 30 -30z m-2827 -52 c20 -7 37 -19 37 -25 0 -7 5 -13 10 -13 14 0 32 -49 25 -70 -3 -9 -20 -34 -39 -54 l-33 -38 -46 21 c-25 12 -48 21 -51 21 -3 0 -16 11 -30 24 -37 34 -36 95 2 131 29 28 53 29 125 3z m2885 -110 c2 -11 -6 -18 -27 -23 -17 -4 -33 -11 -36 -16 -4 -5 -19 -9 -34 -9 -15 0 -36 -7 -47 -15 -28 -21 -64 -19 -64 4 0 24 19 39 61 48 18 3 45 12 59 20 33 18 84 13 88 -9z m18 -89 c18 -17 24 -33 24 -65 0 -46 -19 -66 -78 -79 -49 -10 -28 -25 38 -25 32 0 62 -5 65 -11 4 -6 -22 -38 -56 -71 l-64 -60 58 5 c48 5 59 3 67 -13 15 -29 -7 -38 -102 -41 -124 -4 -137 16 -53 81 61 48 58 60 -10 53 -50 -5 -55 -4 -55 14 0 11 10 27 23 36 22 15 22 15 2 23 -32 12 -64 56 -65 90 -1 77 144 121 206 63z m-2995 0 c17 -17 28 -19 60 -14 31 5 40 3 45 -10 8 -19 -11 -35 -42 -35 -31 0 -60 -36 -45 -54 7 -8 22 -16 34 -18 14 -2 22 -10 22 -23 0 -26 -34 -31 -75 -10 -17 9 -50 20 -73 24 l-42 7 0 56 c0 41 6 62 19 77 24 27 70 27 97 0z m-31 -196 c11 -15 20 -38 19 -52 -4 -54 0 -60 39 -63 29 -2 37 -7 37 -23 0 -19 -6 -20 -94 -17 -52 1 -101 8 -108 14 -8 6 -13 33 -13 66 0 43 5 61 22 79 30 32 71 30 98 -4z m71 -321 c24 -21 32 -39 36 -74 3 -25 1 -54 -5 -64 -8 -14 -7 -23 5 -36 19 -21 11 -43 -32 -92 -43 -47 -45 -61 -7 -50 15 4 40 8 57 8 27 1 30 -3 38 -43 8 -38 6 -47 -9 -58 -17 -12 -16 -14 2 -48 13 -24 26 -35 41 -35 13 0 27 -9 34 -22 6 -13 19 -32 29 -43 10 -11 27 -38 39 -60 l21 -39 -22 -23 c-12 -13 -25 -23 -30 -23 -9 0 -69 -40 -78 -52 -3 -3 -17 -9 -33 -13 -20 -5 -28 -3 -33 10 -8 19 40 64 69 65 9 0 17 4 17 9 0 5 9 13 20 16 11 3 20 14 20 24 0 10 -9 30 -20 44 -11 14 -20 30 -20 36 0 12 -8 13 -111 15 -63 1 -99 15 -99 38 0 5 29 39 65 76 36 36 65 69 65 74 0 11 -44 10 -56 -1 -5 -5 -33 -14 -63 -20 -43 -9 -56 -9 -63 1 -4 7 -8 15 -8 18 0 5 54 68 86 102 28 29 7 39 -36 17 -44 -23 -73 -22 -78 4 -4 20 31 36 102 46 29 3 51 12 54 20 4 12 -9 13 -74 8 -44 -4 -85 -3 -92 2 -15 9 -27 120 -15 136 47 61 132 73 184 27z m2924 12 c60 -8 85 -20 85 -39 0 -12 -15 -15 -69 -15 -70 0 -100 -12 -58 -24 12 -3 43 -6 70 -6 43 0 47 -2 47 -25 0 -24 -32 -45 -102 -69 -31 -10 -19 -25 28 -37 47 -12 65 -32 46 -51 -8 -8 -23 -7 -54 1 -24 7 -63 17 -88 22 -75 17 -75 17 -55 39 16 18 73 48 118 64 28 9 10 26 -29 26 -20 0 -44 5 -55 10 -21 12 -26 45 -8 56 8 4 8 9 0 17 -27 27 -2 49 49 41 14 -2 48 -6 75 -10z m-90 -273 c3 -6 -5 -15 -17 -22 -34 -18 -47 -40 -48 -76 0 -52 30 -42 61 20 30 59 65 73 101 40 44 -40 1 -163 -58 -163 -37 0 -37 18 1 55 37 38 38 39 26 69 -7 17 -10 15 -29 -16 -12 -19 -22 -38 -22 -42 0 -18 -38 -46 -62 -46 -66 0 -91 89 -45 157 17 26 29 33 54 33 17 0 34 -4 38 -9z m-95 -233 c21 -11 51 -24 77 -32 16 -5 23 -2 28 14 9 27 39 22 43 -6 2 -12 -3 -28 -10 -35 -7 -8 -18 -27 -23 -44 -6 -16 -22 -35 -35 -42 -19 -9 -24 -19 -22 -38 4 -28 -25 -47 -38 -25 -5 8 -39 30 -77 50 -47 26 -69 43 -71 58 -5 34 37 28 99 -13 63 -41 75 -43 83 -11 8 32 -2 56 -23 56 -9 0 -25 6 -36 14 -11 7 -32 16 -47 20 -30 7 -34 17 -18 47 11 19 15 19 70 -13z m-111 -196 c20 -15 48 -35 62 -44 24 -15 26 -15 37 3 16 24 29 24 37 -1 6 -19 -11 -49 -59 -107 -26 -31 -47 -14 -39 32 4 27 2 34 -16 40 -11 3 -21 11 -21 16 0 5 -6 9 -13 9 -24 0 -70 47 -64 64 9 24 35 20 76 -12z m-2352 -19 c4 -10 13 -23 21 -29 11 -8 13 -21 8 -44 -9 -50 22 -80 75 -73 32 5 39 3 39 -11 0 -9 4 -16 10 -16 5 0 14 -9 21 -21 9 -17 7 -25 -10 -43 -27 -28 -26 -37 3 -65 l23 -22 26 30 c31 38 57 41 57 7 0 -15 -17 -41 -44 -68 -24 -24 -49 -54 -55 -67 -8 -14 -20 -21 -33 -19 -31 4 -32 21 -3 52 l25 28 -30 28 -31 29 -28 -31 c-19 -21 -33 -29 -44 -25 -27 10 -20 28 33 87 27 30 56 63 64 73 13 14 14 17 2 17 -8 0 -17 -4 -20 -9 -3 -4 -24 -11 -47 -15 -23 -4 -51 -13 -62 -21 -25 -18 -59 -19 -74 -4 -11 11 -1 77 14 88 9 6 53 94 53 105 0 20 -85 -33 -116 -73 -7 -9 -20 -12 -37 -7 -33 8 -34 20 -4 41 12 9 46 34 76 55 60 44 78 49 88 23z m2278 -72 c48 -31 115 -97 115 -115 0 -30 -42 -17 -91 29 -53 50 -64 53 -91 28 -28 -25 -23 -37 39 -91 39 -35 54 -54 50 -66 -12 -30 -45 -16 -101 41 -71 71 -73 97 -16 153 46 46 54 47 95 21z m-153 -193 c21 -24 38 -47 38 -52 0 -4 16 -5 36 -1 60 11 62 -13 6 -62 -48 -43 -77 -53 -85 -30 -2 6 2 20 11 29 14 16 11 22 -36 72 -51 54 -58 66 -45 79 15 16 40 4 75 -35z m-112 -45 c65 -87 90 -125 90 -143 0 -11 -4 -20 -9 -20 -5 0 -16 -6 -23 -12 -35 -33 -80 -58 -103 -58 -41 0 -31 32 20 60 48 26 64 49 43 61 -8 5 -24 -3 -43 -21 -32 -31 -75 -40 -75 -17 0 18 35 54 59 62 10 3 22 13 25 21 7 18 -21 31 -39 18 -53 -39 -99 -64 -106 -57 -19 19 5 54 57 84 29 16 56 34 59 40 10 15 22 10 45 -18z m-1652 -45 c2 -16 -4 -35 -15 -46 -31 -34 -53 -66 -53 -78 0 -6 10 -18 22 -26 19 -13 21 -18 10 -30 -14 -18 -61 -12 -69 8 -3 8 -11 14 -18 14 -16 0 -65 46 -65 61 0 8 13 10 38 7 36 -5 38 -4 77 58 42 67 68 78 73 32z m147 -87 c43 -16 49 -23 46 -42 -7 -50 -37 -113 -63 -132 -26 -19 -28 -19 -62 -3 -24 11 -38 26 -42 44 -3 15 -8 34 -10 43 -3 9 2 22 11 29 8 7 15 25 15 40 0 27 10 35 45 39 6 0 33 -8 60 -18z m1336 -28 c53 -61 59 -87 28 -127 -30 -38 -92 -37 -115 2 -9 15 -25 39 -35 54 -24 34 -24 39 2 72 29 37 86 37 120 -1z m-1101 -84 c0 -22 5 -32 20 -36 30 -8 27 -51 -4 -63 -14 -5 -26 -19 -28 -32 -4 -27 -37 -37 -50 -14 -6 10 -23 16 -48 16 -29 0 -40 4 -40 15 0 8 4 15 10 15 18 0 22 47 6 79 -18 34 -16 35 31 22 26 -8 35 -6 49 10 28 31 54 25 54 -12z m838 11 c16 -17 23 -19 51 -9 41 14 46 8 26 -31 -15 -29 -15 -34 -1 -55 24 -37 20 -45 -24 -45 -29 0 -42 -5 -50 -20 -13 -24 -38 -16 -42 13 -2 12 -15 28 -30 35 -33 15 -37 47 -8 62 11 6 20 21 20 34 0 41 27 49 58 16z m-637 -100 c6 -71 -2 -107 -27 -117 -17 -6 -94 16 -94 28 0 4 9 23 19 41 10 18 22 49 26 68 10 48 13 52 43 48 25 -3 27 -7 33 -68z m217 45 c6 -32 22 -45 57 -45 45 0 52 -24 15 -47 -31 -18 -37 -41 -20 -74 17 -31 3 -41 -32 -23 -29 15 -44 15 -110 -2 l-28 -6 15 36 c14 34 14 37 -5 56 -11 11 -25 20 -31 20 -6 0 -9 8 -7 18 2 11 15 19 38 22 21 3 39 13 45 25 20 39 27 46 43 43 9 -2 18 -12 20 -23z m232 -9 c0 -13 11 -44 25 -69 14 -24 23 -51 20 -59 -6 -14 -92 -34 -103 -24 -2 3 -7 43 -9 90 l-6 86 37 0 c31 0 36 -3 36 -24z"></path><path d="M4170 3495 c0 -8 2 -15 4 -15 2 0 11 -3 20 -6 12 -4 16 0 16 15 0 14 -6 21 -20 21 -11 0 -20 -7 -20 -15z"></path><path d="M4688 3558 c-20 -17 -31 -74 -18 -98 11 -21 40 -17 40 5 0 8 10 15 23 17 16 2 23 11 25 31 6 49 -33 74 -70 45z"></path><path d="M5091 3406 c-12 -14 -5 -26 16 -26 15 0 18 26 4 34 -5 3 -14 0 -20 -8z"></path><path d="M3768 3409 c-25 -14 -22 -58 5 -92 18 -23 27 -27 50 -22 23 6 27 12 27 41 0 20 -9 44 -22 59 -24 27 -34 30 -60 14z"></path><path d="M4293 3265 c-45 -7 -97 -18 -115 -24 -18 -6 -62 -20 -98 -31 -333 -109 -645 -414 -765 -750 -160 -449 -59 -941 265 -1283 243 -256 565 -397 910 -397 246 0 482 72 698 213 90 58 280 245 338 332 254 382 286 867 83 1265 -56 110 -88 158 -167 250 -287 333 -717 492 -1149 425z m422 -54 c200 -49 304 -93 450 -189 119 -79 276 -243 352 -367 59 -97 127 -262 145 -352 4 -24 12 -64 17 -90 6 -27 10 -109 10 -183 0 -74 -4 -156 -10 -182 -5 -27 -13 -67 -17 -90 -16 -78 -40 -145 -96 -258 -46 -93 -49 -98 -117 -190 -154 -206 -383 -364 -629 -433 -121 -35 -179 -42 -330 -42 -180 0 -281 18 -440 79 -261 99 -513 332 -638 589 -86 178 -117 317 -117 527 0 90 5 180 13 215 18 81 41 164 57 200 7 17 23 54 35 83 24 60 86 165 133 227 53 69 180 194 237 233 30 20 60 42 67 49 13 11 181 96 238 119 41 17 129 41 195 53 30 6 64 13 75 15 39 9 321 -1 370 -13z"></path><path d="M4445 2883 c-62 -33 -78 -58 -78 -123 0 -57 2 -62 39 -95 34 -30 46 -35 89 -35 41 0 56 5 81 28 43 39 59 91 44 138 -14 41 -32 61 -77 87 -38 21 -59 21 -98 0z"></path><path d="M3750 2880 c0 -8 55 -76 90 -110 3 -3 37 -41 75 -85 39 -44 73 -82 76 -85 4 -3 31 -34 60 -70 89 -109 287 -312 365 -376 30 -25 51 -34 78 -34 45 0 52 6 231 185 138 138 169 172 279 300 38 44 72 82 75 85 40 33 151 165 151 180 0 26 -14 20 -125 -55 -49 -34 -97 -64 -105 -68 -8 -4 -28 -16 -45 -27 -16 -10 -52 -31 -80 -45 -27 -14 -63 -35 -80 -45 -16 -11 -37 -22 -45 -26 -8 -3 -22 -9 -30 -14 -8 -5 -35 -19 -60 -30 -25 -12 -53 -26 -64 -32 -54 -29 -100 -38 -135 -27 -31 10 -147 64 -191 89 -8 5 -22 11 -30 14 -8 4 -28 15 -45 25 -16 11 -52 32 -80 47 -27 15 -59 32 -70 38 -11 6 -47 29 -80 51 -33 22 -68 44 -77 50 -10 5 -34 22 -55 36 -45 32 -83 45 -83 29z m735 -483 c28 0 76 3 108 8 37 5 57 4 57 -2 0 -14 -90 -107 -117 -121 -47 -25 -77 -15 -137 45 -71 72 -73 88 -8 78 26 -4 70 -8 97 -8z"></path><path d="M3690 2768 c0 -6 15 -43 34 -82 18 -40 43 -96 56 -126 12 -30 28 -68 35 -85 7 -16 15 -39 18 -50 3 -11 15 -45 27 -75 12 -30 25 -70 30 -89 5 -18 13 -38 19 -44 6 -6 11 -23 11 -37 0 -14 7 -35 15 -48 18 -25 26 -149 10 -160 -6 -4 -19 -20 -28 -35 -42 -66 -251 -290 -321 -344 -17 -14 -26 -28 -22 -38 6 -16 41 -21 50 -6 3 5 45 28 93 51 49 23 95 46 103 51 8 5 22 12 30 15 27 10 85 36 100 45 8 5 22 12 30 15 18 6 144 69 218 109 29 15 74 46 99 69 l47 42 -23 45 c-29 57 -40 76 -73 120 -16 20 -28 42 -28 47 0 6 -6 15 -13 19 -8 4 -24 24 -38 43 -13 19 -47 62 -74 95 -28 33 -66 80 -85 105 -18 25 -38 50 -44 55 -6 6 -47 55 -91 110 -44 55 -90 111 -102 125 -13 14 -23 28 -23 32 0 12 -31 38 -46 38 -8 0 -14 -5 -14 -12z m424 -638 c14 -18 26 -35 26 -39 0 -5 11 -20 25 -35 28 -31 32 -62 10 -93 -24 -35 -91 -83 -124 -89 -30 -6 -31 -5 -31 27 0 19 5 50 10 69 13 44 15 122 5 178 l-7 44 30 -16 c16 -8 41 -29 56 -46z"></path><path d="M5245 2743 c-17 -20 -100 -121 -185 -223 -85 -103 -166 -201 -180 -220 -14 -18 -32 -40 -40 -49 -29 -31 -110 -140 -110 -147 0 -4 -6 -15 -14 -23 -7 -9 -28 -42 -45 -73 l-32 -58 46 -45 c25 -25 55 -50 67 -56 13 -5 50 -25 83 -44 33 -19 67 -37 75 -41 8 -3 22 -10 30 -15 8 -5 22 -12 30 -15 25 -10 144 -66 160 -75 8 -5 22 -12 30 -15 8 -4 65 -31 125 -60 61 -30 114 -54 118 -54 23 0 -15 49 -116 152 -116 116 -137 141 -216 243 -43 56 -46 64 -44 113 2 29 8 63 14 75 7 12 16 35 20 52 10 43 29 96 45 127 8 14 14 35 14 45 0 11 7 28 15 39 8 10 15 27 15 36 0 9 6 29 14 45 7 15 20 44 28 63 21 51 42 99 67 151 11 25 21 51 21 58 0 6 5 11 10 11 6 0 10 9 10 20 0 31 -22 24 -55 -17z m-285 -572 c0 -11 -3 -22 -8 -24 -12 -8 -6 -179 7 -220 23 -69 -16 -77 -99 -19 -51 35 -55 42 -58 81 -3 33 3 52 23 83 65 98 135 149 135 99z"></path><path d="M3660 2183 c-84 -33 -103 -159 -34 -224 21 -19 36 -24 84 -24 48 0 63 5 84 24 85 80 42 219 -71 227 -26 2 -55 1 -63 -3z"></path><path d="M5239 2183 c-14 -2 -41 -19 -59 -38 -29 -30 -33 -40 -33 -90 0 -48 4 -60 29 -86 36 -38 90 -53 135 -37 70 23 100 82 85 162 -11 59 -84 101 -157 89z"></path><path d="M3920 1590 c0 -13 17 -31 50 -51 28 -17 50 -33 50 -36 0 -3 -21 -38 -47 -77 -26 -39 -52 -79 -58 -88 -5 -10 -23 -36 -39 -58 l-30 -41 27 -25 c41 -38 68 -32 95 24 31 65 115 193 134 205 12 8 26 3 58 -23 38 -30 43 -31 57 -17 22 22 10 35 -80 88 -40 23 -95 59 -124 80 -58 44 -93 51 -93 19z"></path><path d="M4982 1580 c-46 -28 -48 -43 -10 -81 18 -19 69 -82 112 -141 43 -60 81 -108 83 -108 9 0 73 60 73 69 0 3 -22 29 -48 56 -26 28 -76 90 -111 138 -35 48 -64 87 -65 87 0 0 -16 -9 -34 -20z"></path><path d="M4724 1440 c-62 -27 -108 -79 -128 -142 -16 -52 -16 -58 0 -99 31 -78 74 -119 142 -132 18 -4 80 -4 138 0 94 5 110 9 150 36 24 16 44 35 44 43 0 25 -30 28 -54 5 -22 -21 -47 -27 -59 -15 -3 4 5 23 18 43 42 60 32 145 -25 215 -24 30 -106 66 -147 65 -21 0 -57 -9 -79 -19z m122 -72 c42 -46 64 -100 64 -158 0 -44 -4 -52 -33 -74 -74 -56 -145 -15 -189 109 -21 59 -12 103 29 135 41 32 93 27 129 -12z"></path><path d="M4272 1401 c-8 -4 -17 -41 -21 -87 -5 -43 -13 -91 -19 -105 -6 -15 -12 -57 -14 -95 l-3 -69 47 -3 47 -3 3 73 3 73 76 0 c67 0 79 3 102 25 20 19 27 35 26 65 0 49 -28 85 -84 107 -47 20 -145 31 -163 19z m136 -67 c46 -32 7 -120 -50 -112 -21 3 -23 7 -20 53 1 28 5 56 7 63 6 17 36 15 63 -4z"></path><path d="M5772 2801 c-10 -6 -10 -10 3 -21 18 -15 42 0 31 19 -8 13 -16 14 -34 2z"></path><path d="M3048 2599 c-22 -12 -24 -52 -4 -68 8 -7 28 -16 46 -21 25 -7 35 -5 51 11 10 10 19 23 19 27 0 14 -40 52 -55 52 -7 0 -19 2 -27 5 -7 2 -21 0 -30 -6z"></path><path d="M5903 2410 c-30 -12 -31 -55 -2 -71 13 -6 39 -8 65 -4 42 6 44 8 44 39 0 26 -5 35 -22 40 -31 8 -58 7 -85 -4z"></path><path d="M2982 2407 c-6 -6 -13 -24 -17 -40 -6 -24 -4 -27 18 -27 19 0 26 6 31 31 9 45 -9 65 -32 36z"></path><path d="M2941 2198 c-11 -30 -3 -50 18 -46 22 4 29 68 6 68 -8 0 -19 -10 -24 -22z"></path><path d="M2985 1884 c-22 -8 -41 -14 -43 -14 -2 0 -2 -15 0 -32 3 -33 3 -33 66 -36 l62 -3 0 33 c-1 23 -8 38 -23 49 -20 15 -27 15 -62 3z"></path><path d="M3103 1453 c-20 -8 -15 -23 7 -23 11 0 20 7 20 15 0 15 -6 17 -27 8z"></path><path d="M3347 1063 c-4 -3 -7 -12 -7 -20 0 -11 4 -11 20 -3 11 6 18 15 15 21 -7 11 -19 12 -28 2z"></path></g></svg>