<svg xmlns="http://www.w3.org/2000/svg" width="450.000000pt" height="450.000000pt" viewBox="0 0 450.000000 450.000000" preserveAspectRatio="xMidYMid meet"><g transform="translate(0.000000,450.000000) scale(0.100000,-0.100000)" fill="#ffffff" stroke="none"><path d="M1959 4002 c-296 -281 -338 -325 -367 -383 -24 -46 -34 -82 -37 -124 l-4 -60 -78 -6 c-53 -4 -93 -14 -125 -30 -54 -28 -320 -267 -354 -319 -51 -77 -53 -95 -58 -503 -6 -475 1 -592 38 -666 41 -80 373 -411 447 -446 30 -14 62 -25 72 -25 12 0 17 -8 17 -28 0 -16 13 -55 30 -88 24 -49 85 -113 366 -389 186 -181 341 -330 345 -330 4 0 162 145 351 323 287 270 348 333 376 384 17 33 32 75 32 93 0 30 3 33 41 39 22 4 60 16 82 27 51 26 368 338 403 396 53 90 55 120 52 645 -4 588 14 522 -189 720 -165 159 -213 190 -314 198 l-70 5 -6 65 c-11 123 -19 134 -377 492 -179 181 -329 328 -333 328 -3 0 -156 -143 -340 -318z m976 -405 c20 -36 28 -68 32 -126 l6 -79 77 -4 c114 -7 152 -29 312 -186 196 -193 182 -144 186 -641 4 -464 -4 -573 -43 -651 -31 -60 -330 -361 -395 -397 -22 -11 -61 -24 -88 -28 l-49 -7 -6 -50 c-11 -93 -33 -121 -274 -348 -125 -118 -275 -261 -333 -317 l-106 -102 -331 325 c-303 296 -334 329 -352 380 -12 30 -21 67 -21 83 0 25 -5 29 -50 39 -76 18 -110 45 -301 238 -142 145 -180 188 -195 229 -18 47 -19 82 -19 530 l0 480 24 48 c16 33 66 88 156 173 73 69 147 136 166 150 46 34 120 54 200 54 l67 0 4 78 c6 140 -9 121 503 610 l190 181 307 -306 c203 -203 316 -323 333 -356z"></path><path d="M2003 3863 c-286 -283 -292 -289 -304 -342 -7 -34 -9 -83 -5 -132 l6 -79 -115 0 c-75 0 -127 -5 -148 -14 -50 -20 -303 -262 -327 -311 -19 -40 -20 -61 -20 -506 0 -429 2 -467 19 -504 23 -50 338 -376 385 -399 20 -9 59 -16 95 -16 l61 0 0 -75 c0 -55 5 -86 19 -113 11 -20 148 -165 305 -322 l286 -284 132 129 c73 71 197 193 276 270 78 76 149 143 157 148 33 18 54 83 56 166 l1 81 70 0 c38 0 83 6 101 14 52 23 342 322 369 381 23 49 23 55 26 510 2 339 0 472 -9 505 -10 38 -34 67 -144 177 -78 79 -146 138 -168 148 -25 10 -69 15 -142 15 l-105 0 0 108 c0 94 -3 114 -22 150 -19 34 -545 582 -559 582 -3 0 -136 -129 -296 -287z m557 -39 c157 -162 260 -276 267 -296 7 -18 12 -84 12 -145 l1 -113 116 0 c84 0 125 -4 148 -15 18 -9 89 -73 158 -143 100 -101 128 -135 137 -168 8 -29 10 -178 6 -485 l-5 -444 -25 -50 c-17 -36 -70 -96 -177 -201 -167 -165 -166 -164 -289 -164 l-69 0 0 -84 c0 -45 -5 -97 -11 -114 -7 -19 -110 -127 -290 -299 l-279 -269 -279 280 c-181 182 -282 291 -286 309 -4 15 -5 61 -3 102 l3 75 -75 0 c-51 1 -85 6 -106 18 -35 19 -343 334 -365 372 -18 33 -26 874 -9 942 9 36 31 63 133 162 186 181 165 170 329 174 l138 4 0 121 c0 106 3 127 21 157 19 32 527 540 539 538 3 0 120 -119 260 -264z m310 -524 c0 -5 -5 -10 -11 -10 -5 0 -7 5 -4 10 3 6 8 10 11 10 2 0 4 -4 4 -10z m157 -1716 c-3 -3 -12 -4 -19 -1 -8 3 -5 6 6 6 11 1 17 -2 13 -5z"></path><path d="M2094 3867 c-110 -106 -217 -208 -238 -227 -21 -19 -52 -53 -67 -74 -29 -38 -29 -41 -29 -178 l0 -138 -141 0 c-86 0 -149 -4 -162 -11 -42 -23 -280 -254 -294 -286 -10 -26 -13 -126 -13 -475 0 -411 2 -446 19 -483 11 -24 84 -105 188 -207 l169 -168 92 0 92 0 0 -107 0 -107 274 -275 275 -275 143 137 c79 75 204 194 278 265 l135 129 5 114 5 114 102 5 c56 3 104 7 107 10 106 97 323 324 335 350 14 30 16 95 19 480 2 245 0 461 -3 480 -5 27 -33 62 -128 158 -67 68 -134 130 -149 138 -19 10 -64 14 -158 14 l-130 0 0 131 c0 79 -5 139 -12 152 -13 26 -497 527 -508 527 -5 0 -97 -87 -206 -193z m427 -92 c123 -124 232 -240 242 -257 14 -27 17 -58 17 -164 l0 -131 -52 -7 c-68 -8 -876 -8 -905 0 -23 6 -23 9 -23 153 l0 146 247 242 c137 134 248 243 249 243 0 0 101 -101 225 -225z m-741 -549 c0 -8 -9 -12 -22 -11 -13 1 -84 4 -158 6 l-135 3 150 6 c83 3 153 7 158 8 4 1 7 -4 7 -12z m1290 -7 c0 -5 7 -9 15 -9 8 0 15 -4 15 -10 0 -6 -60 -10 -160 -10 l-160 0 14 23 c14 21 20 22 145 19 74 -2 131 -7 131 -13z m-1010 -22 c52 -2 -66 -4 -262 -5 -197 0 -358 2 -358 6 0 6 399 6 620 -1z m413 -4 c-56 -2 -151 -2 -210 0 -59 1 -13 3 102 3 116 0 164 -2 108 -3z m655 -15 c7 -7 12 -44 12 -95 l0 -84 -186 1 -186 2 -30 -29 c-17 -15 -46 -61 -65 -100 -18 -40 -39 -73 -46 -73 -9 0 -9 2 0 8 7 4 19 28 27 53 7 24 17 53 21 63 7 16 5 18 -18 14 -15 -3 -24 -1 -21 3 3 5 -1 9 -8 9 -24 1 25 30 50 30 32 0 17 -20 -16 -21 l-27 -1 29 -8 c23 -7 32 -5 42 8 8 9 14 20 14 25 0 4 -35 7 -78 7 -65 0 -82 -3 -100 -20 -34 -32 -26 -45 9 -16 30 25 66 36 54 16 -3 -5 -12 -10 -20 -10 -8 0 -17 -5 -21 -11 -4 -8 1 -9 16 -4 31 10 42 -12 24 -46 -8 -16 -14 -42 -14 -59 0 -22 -4 -30 -17 -29 -11 0 -13 3 -5 6 6 2 12 17 12 31 0 15 7 40 15 55 l14 28 -37 -4 c-35 -3 -37 -5 -35 -38 2 -27 0 -30 -7 -14 -10 24 -12 9 -4 -33 4 -17 14 -34 24 -37 12 -4 16 -13 12 -30 -3 -20 -10 -25 -34 -25 -17 0 -27 4 -23 10 3 6 12 10 20 10 7 0 15 7 18 14 4 10 1 13 -9 9 -8 -3 -14 -2 -13 3 1 5 0 20 -1 34 -2 22 -4 20 -11 -10 -7 -30 -7 -27 -4 15 3 28 7 61 11 75 4 19 3 21 -5 10 -5 -8 -13 -32 -16 -52 -9 -50 -22 -49 -17 1 2 22 -1 47 -6 57 -8 14 -9 7 -7 -27 2 -41 2 -41 -5 -9 -4 19 -8 29 -9 21 -1 -11 -5 -10 -15 5 -13 17 -17 18 -38 5 -21 -13 -22 -13 -9 2 8 11 9 17 3 17 -19 0 -31 -36 -27 -76 l5 -39 -10 38 c-7 26 -7 45 0 58 6 10 8 19 5 19 -13 0 -35 -72 -35 -114 0 -39 -2 -44 -20 -39 -11 3 -20 13 -20 22 0 14 2 14 11 1 8 -11 9 0 5 40 -3 37 -2 47 4 30 l8 -25 1 24 c1 25 -44 111 -57 111 -11 0 -32 -22 -32 -33 0 -5 6 -4 13 2 11 8 18 7 29 -7 28 -32 30 -41 7 -37 -13 3 -28 0 -36 -6 -7 -7 -14 -8 -14 -3 -2 15 -17 -49 -18 -79 0 -16 3 -26 8 -22 14 8 21 -9 10 -25 -6 -11 -9 -12 -9 -2 0 7 -4 10 -10 7 -6 -4 -10 11 -10 37 -1 24 -7 54 -15 68 -19 33 -19 46 0 30 8 -7 15 -22 15 -34 1 -13 6 -7 15 19 14 39 13 41 -11 65 -25 25 -25 25 -42 5 -15 -19 -20 -19 -45 -7 -20 10 -32 11 -41 3 -10 -8 -18 -6 -31 9 -14 16 -20 17 -27 8 -12 -20 -10 -28 7 -22 8 4 15 1 15 -6 0 -6 -4 -8 -10 -5 -5 3 -10 2 -10 -4 0 -5 5 -13 10 -16 6 -3 10 -14 10 -23 -1 -10 -9 -1 -21 20 -23 44 -45 58 -91 58 -125 -2 -488 14 -488 21 0 5 372 9 845 9 744 0 845 2 845 15 0 13 -102 15 -847 17 l-848 3 848 2 c672 3 848 6 844 16 -3 9 -183 12 -845 12 l-842 0 0 28 0 27 842 0 c566 0 844 3 846 10 3 7 -270 10 -842 10 -465 0 -846 3 -846 8 0 4 373 6 830 4 558 -1 830 1 830 8 0 14 13 13 28 -2z m-1710 -113 l-4 -85 193 0 193 0 20 -32 c11 -18 34 -74 50 -124 17 -51 40 -100 50 -109 11 -10 42 -20 70 -23 27 -2 50 -8 50 -12 0 -5 -16 -18 -35 -30 -43 -26 -44 -49 -5 -75 21 -14 30 -28 30 -47 0 -17 -5 -28 -14 -28 -7 0 -19 -6 -26 -14 -6 -8 -18 -12 -26 -9 -8 3 -21 2 -29 -1 -13 -4 -14 -10 -5 -26 15 -28 1 -24 -40 10 -40 35 -50 37 -50 10 0 -24 -8 -25 -29 -6 -9 7 -27 17 -39 21 -21 6 -23 5 -17 -16 6 -19 5 -21 -11 -14 -35 14 -99 17 -127 6 l-29 -11 30 -34 c37 -43 58 -104 76 -228 20 -133 30 -148 98 -148 20 0 37 -8 49 -24 11 -14 28 -26 39 -28 18 -3 17 -6 -12 -37 -40 -43 -42 -63 -7 -87 15 -10 30 -27 33 -37 4 -16 12 -19 40 -15 20 2 36 0 36 -4 0 -4 -9 -8 -20 -8 -12 0 -24 -9 -29 -23 -5 -13 -17 -29 -27 -37 -9 -8 -34 -52 -55 -97 -31 -67 -59 -103 -81 -103 -2 0 -2 29 0 64 l4 65 -108 -4 -109 -5 -168 173 c-99 102 -170 183 -175 199 -4 16 -6 227 -4 469 l2 441 108 104 c59 57 109 104 111 104 2 0 2 -38 -1 -85z m1904 -98 c19 -26 20 -42 19 -483 -1 -384 -3 -461 -16 -488 -8 -17 -83 -99 -165 -181 l-150 -150 -115 -3 -115 -4 -2 -121 c-1 -67 -3 -97 -5 -66 -3 49 -7 58 -29 68 -17 8 -37 37 -63 95 -22 46 -49 90 -60 98 -12 9 -21 19 -20 24 4 24 -3 34 -26 34 -14 0 -25 5 -25 11 0 7 12 9 35 5 25 -5 35 -3 35 6 1 7 15 22 33 33 46 29 49 73 7 98 -40 24 -38 37 5 37 31 0 35 3 35 25 0 23 3 25 49 25 45 0 51 3 69 33 19 32 35 89 48 177 9 67 33 131 61 169 21 27 23 35 12 42 -16 11 -94 7 -123 -6 -16 -7 -18 -5 -13 9 6 16 3 17 -20 12 -16 -4 -40 -16 -55 -27 l-28 -20 0 26 c0 34 -38 34 -80 -2 l-32 -26 4 29 c2 24 -1 29 -19 29 -23 1 -73 38 -73 54 0 5 14 21 30 34 38 33 38 54 -2 88 l-33 28 46 1 c59 0 73 16 138 153 49 102 71 130 71 88 0 -10 7 -24 16 -32 13 -10 14 -27 8 -99 -8 -105 3 -145 53 -193 34 -33 34 -35 14 -42 -11 -3 -21 -9 -21 -13 0 -4 34 -22 76 -40 52 -23 84 -32 102 -28 26 6 26 6 8 -9 -11 -8 -23 -15 -27 -15 -16 0 -49 -70 -49 -104 0 -24 -5 -36 -14 -36 -12 0 -12 -6 -4 -32 25 -76 32 -89 49 -99 11 -5 19 -18 19 -27 0 -10 5 -23 12 -30 16 -16 61 -15 77 1 20 19 53 -28 49 -71 -4 -45 -16 -48 -62 -17 -39 27 -40 26 -50 -35 -4 -19 -16 -44 -28 -57 -17 -18 -22 -36 -22 -87 0 -57 -3 -65 -21 -68 -26 -5 -31 24 -10 56 13 21 18 45 16 78 -1 19 -31 41 -68 53 -23 6 -23 6 -6 -24 17 -29 17 -30 -6 -55 -13 -14 -27 -43 -30 -63 -5 -30 -16 -45 -53 -72 -26 -19 -45 -37 -43 -41 2 -3 62 -3 133 0 l131 5 50 50 c28 28 51 53 51 58 0 8 31 36 87 82 17 14 37 41 43 60 6 18 18 39 26 45 7 7 14 28 14 47 0 19 3 32 8 30 4 -3 8 178 10 401 2 437 4 421 -51 457 -35 23 -43 15 -23 -24 24 -45 21 -63 -8 -55 -33 8 -51 -3 -36 -21 9 -10 7 -20 -5 -39 -10 -15 -14 -33 -10 -45 4 -12 0 -30 -9 -43 -13 -18 -16 -19 -16 -5 0 9 -7 17 -15 17 -8 0 -15 6 -15 13 0 18 -29 43 -60 52 -14 4 -40 19 -58 33 -36 28 -45 24 -58 -25 -3 -13 -10 -20 -15 -17 -5 3 -5 13 1 25 20 37 -4 60 -117 113 -36 16 -42 30 -17 40 9 3 99 6 200 6 l184 0 0 77 0 77 71 -69 c39 -39 80 -82 91 -98z m-1428 7 c9 -3 16 -9 16 -13 0 -10 -59 -1 -66 10 -6 10 26 12 50 3z m62 -34 c17 0 44 -40 43 -65 0 -13 -4 -7 -12 15 -8 24 -18 35 -32 35 -12 0 -19 -6 -18 -15 1 -8 5 -28 8 -45 l5 -30 -10 29 c-12 38 -48 76 -74 77 -18 1 -18 2 -3 6 10 3 30 -3 44 -12 l26 -17 -6 33 c-5 30 -5 31 5 12 6 -13 17 -23 24 -23z m51 -13 c8 -16 17 -55 19 -86 l4 -56 -15 68 c-15 71 -28 97 -50 97 -7 0 -15 7 -18 15 -11 27 43 -7 60 -38z m192 30 c14 -17 2 -30 -14 -17 -16 14 -28 -15 -16 -38 13 -27 19 -85 10 -107 -5 -14 -8 -6 -8 30 -1 28 -6 57 -11 65 -5 8 -10 11 -10 6 0 -5 -10 0 -22 11 -32 28 -55 35 -62 17 -10 -25 -7 -111 3 -95 10 15 38 4 62 -25 13 -15 14 -15 20 7 6 21 7 20 8 -9 1 -29 -1 -32 -18 -23 -10 6 -21 17 -25 26 -3 8 -14 15 -25 15 -16 0 -20 -8 -23 -37 -4 -51 -28 -57 -27 -6 l2 38 8 -35 c6 -25 6 -17 2 25 -3 33 -5 67 -5 75 2 42 8 68 15 63 4 -2 7 1 7 6 0 14 43 14 56 1 12 -12 44 -3 44 11 0 13 16 11 29 -4z m-288 -60 c6 -11 15 -33 19 -48 14 -50 -15 -34 -36 18 -11 27 -21 51 -22 55 -8 18 29 -6 39 -25z m731 -24 c-9 -29 -22 -55 -29 -57 -27 -11 -6 78 24 101 9 7 18 12 19 10 1 -1 -5 -25 -14 -54z m-663 -2 c6 -19 9 -37 6 -39 -10 -10 -23 13 -30 53 -8 47 6 38 24 -14z m161 -22 l0 -28 -30 17 c-30 17 -36 35 -24 67 6 14 9 13 30 -6 14 -13 24 -34 24 -50z m290 27 c0 -23 -7 -39 -22 -50 -20 -15 -21 -16 -3 -10 49 16 58 17 51 6 -4 -7 -15 -12 -25 -12 -10 0 -24 -7 -31 -15 -7 -8 -18 -15 -26 -15 -7 0 -19 -9 -27 -20 -8 -11 -17 -17 -20 -13 -14 13 -6 24 25 38 29 12 32 17 30 50 -4 38 22 90 38 80 6 -4 10 -21 10 -39z m150 25 c-5 -11 -10 -31 -10 -44 0 -14 -7 -28 -16 -31 -13 -5 -14 -1 -9 27 9 41 23 67 36 67 6 0 6 -7 -1 -19z m255 -31 c4 -13 14 -19 28 -17 19 2 22 -2 20 -30 -2 -22 3 -36 17 -46 19 -13 18 -14 -15 -13 -19 1 -35 5 -35 10 0 4 7 6 15 2 12 -4 13 -2 2 14 -16 27 -27 25 -27 -4 0 -43 12 -86 23 -79 6 3 7 1 3 -5 -5 -9 -15 -8 -37 3 -22 12 -29 22 -29 45 0 22 5 30 17 30 13 0 14 3 5 12 -7 7 -12 29 -12 49 0 21 -4 41 -10 44 -5 3 -10 11 -10 16 0 17 38 -9 45 -31z m425 -92 l-1 -133 -25 29 c-23 26 -24 30 -9 52 20 31 19 32 -10 26 -34 -6 -42 20 -19 63 18 34 39 39 27 7 -6 -15 -5 -15 10 -3 11 8 17 28 17 52 0 22 2 39 5 39 3 0 5 -60 5 -132z m-984 98 c8 -32 2 -59 -14 -62 -7 -1 -8 0 -2 3 5 2 7 9 4 14 -3 6 -11 5 -20 -2 -17 -14 -19 6 -4 45 12 33 28 33 36 2z m76 -36 c2 -22 0 -40 -4 -40 -5 0 -8 18 -8 40 0 22 2 40 4 40 2 0 6 -18 8 -40z m-342 -48 c0 -12 -3 -12 -15 -2 -12 10 -15 10 -15 0 0 -6 9 -14 20 -17 26 -7 26 -23 1 -23 -20 0 -37 32 -26 50 3 5 -1 10 -9 10 -9 0 -16 4 -16 9 0 5 14 4 30 -2 17 -6 30 -18 30 -25z m477 -34 c-2 -13 -4 -3 -4 22 0 25 2 35 4 23 2 -13 2 -33 0 -45z m491 53 c8 -4 19 -19 25 -31 14 -27 44 -42 34 -17 -4 12 -2 14 11 10 24 -9 32 -23 32 -57 0 -23 3 -26 14 -17 17 14 31 -2 22 -24 -10 -26 -43 -17 -56 15 -7 17 -27 38 -44 47 -17 9 -35 22 -39 30 -5 8 -17 12 -30 9 -12 -3 -16 -3 -9 0 6 3 12 14 12 25 0 21 8 23 28 10z m-1019 -16 c1 -2 1 -8 0 -13 -2 -5 -17 0 -34 10 l-30 20 30 -7 c16 -4 32 -8 34 -10z m210 -30 c22 2 31 -1 31 -11 0 -15 -12 -19 -24 -7 -4 4 -23 6 -42 4 -25 -2 -34 1 -34 12 0 9 -3 24 -7 34 -4 12 2 10 20 -9 19 -21 33 -26 56 -23z m297 -13 c-12 -12 -18 8 -10 35 l8 28 4 -28 c2 -16 1 -31 -2 -35z m-189 29 c3 -11 12 -22 22 -24 9 -3 -9 -5 -39 -5 -30 0 -48 2 -39 5 10 2 19 13 22 24 3 10 10 19 17 19 7 0 14 -9 17 -19z m153 -6 c0 -23 -4 -25 -42 -24 l-43 1 32 14 c17 7 34 18 38 24 10 16 15 12 15 -15z m151 2 c-10 -9 -11 -8 -5 6 3 10 9 15 12 12 3 -3 0 -11 -7 -18z m449 19 c0 -3 -4 -8 -10 -11 -5 -3 -10 -1 -10 4 0 6 5 11 10 11 6 0 10 -2 10 -4z m-403 -28 c-3 -8 -6 -5 -6 6 -1 11 2 17 5 13 3 -3 4 -12 1 -19z m-683 -3 c3 -8 1 -15 -3 -15 -5 0 -11 7 -15 15 -3 8 -1 15 3 15 5 0 11 -7 15 -15z m662 -12 c-10 -10 -19 5 -10 18 6 11 8 11 12 0 2 -7 1 -15 -2 -18z m-519 -5 c-3 -8 -6 -5 -6 6 -1 11 2 17 5 13 3 -3 4 -12 1 -19z m893 -8 c10 0 21 -4 25 -9 3 -6 -6 -7 -22 -2 -16 4 -33 6 -40 4 -6 -2 -15 1 -19 8 -4 7 -3 9 4 5 6 -3 14 -1 18 6 6 9 9 9 12 0 2 -7 12 -12 22 -12z m-703 -10 c161 0 293 -3 293 -7 0 -5 -133 -8 -295 -8 -250 0 -296 2 -300 15 -5 12 -8 12 -14 1 -5 -8 -14 -10 -22 -6 -9 6 -8 10 7 16 10 4 23 3 29 -2 5 -5 141 -9 302 -9z m628 8 c14 -6 25 -15 25 -20 0 -5 10 -6 23 -3 36 9 77 -11 77 -37 -1 -20 -2 -21 -11 -6 -26 46 -89 46 -89 1 0 -21 2 -23 15 -13 8 6 19 9 25 5 15 -10 12 -32 -6 -39 -28 -11 -68 37 -88 102 -8 25 -6 26 29 10z m-295 -2 c0 -2 -7 -9 -15 -16 -13 -11 -14 -10 -9 4 5 14 24 23 24 12z m580 -30 c-1 -21 -1 -21 -15 -2 -19 25 -19 37 0 30 8 -4 15 -16 15 -28z m-733 -13 c4 -10 24 -33 44 -51 35 -32 36 -35 21 -53 -9 -10 -20 -19 -25 -19 -5 0 -4 7 3 15 11 13 -16 15 -234 15 -195 0 -246 -3 -240 -12 4 -7 -1 -5 -11 4 -18 17 -18 18 0 38 21 23 35 19 15 -5 -11 -13 14 -15 235 -15 247 0 248 0 230 20 -17 19 -31 20 -227 20 -178 0 -208 2 -208 15 0 8 5 15 10 15 6 0 10 7 10 15 0 13 27 15 185 15 168 0 186 -2 192 -17z m371 1 c12 -8 22 -21 22 -27 0 -7 -5 -4 -11 6 -5 9 -16 17 -24 17 -8 0 -17 5 -20 10 -9 15 8 12 33 -6z m102 -74 c25 -13 56 -5 64 17 8 20 -9 40 -37 46 -14 3 -11 5 8 4 19 -1 33 -9 40 -23 10 -21 33 -21 47 0 5 7 8 4 8 -6 0 -11 -7 -18 -18 -18 -33 0 -62 -29 -62 -64 0 -17 6 -38 13 -46 6 -7 0 -5 -15 6 -14 10 -22 21 -17 22 15 6 10 42 -5 42 -8 0 -28 12 -45 26 -17 14 -31 21 -31 16 0 -14 49 -52 66 -52 8 0 14 -4 14 -10 0 -5 -13 -10 -28 -10 -33 0 -93 42 -117 83 -19 32 -4 36 19 5 12 -16 18 -19 22 -10 3 6 10 9 16 6 6 -4 8 2 3 17 -5 19 -2 17 14 -8 11 -17 29 -37 41 -43z m261 39 c19 -13 29 -29 29 -46 0 -20 4 -24 20 -20 19 5 20 0 20 -80 0 -71 -2 -84 -14 -74 -7 6 -16 34 -19 62 -4 28 -15 67 -27 86 -11 19 -16 31 -10 28 5 -3 10 1 10 9 0 10 -9 16 -24 16 -27 0 -41 14 -31 30 9 14 13 13 46 -11z m68 -43 c-5 -5 -10 -8 -11 -5 -2 2 -14 20 -28 39 l-24 35 36 -30 c20 -17 32 -34 27 -39z m-103 10 c9 -3 14 -9 11 -13 -4 -3 -13 0 -22 7 -8 7 -30 16 -48 20 -31 8 -31 8 -4 9 15 1 27 7 28 14 0 6 4 3 9 -9 4 -12 16 -24 26 -28z m-746 1 c41 -2 -23 -4 -142 -5 -120 -1 -218 1 -218 6 0 6 175 6 360 -1z m731 -24 c17 -15 38 -42 45 -60 20 -46 18 -56 -6 -43 -11 6 -20 18 -20 26 0 9 -13 29 -29 45 -33 32 -75 38 -107 15 -16 -13 -17 -18 -6 -35 13 -23 3 -28 -16 -9 -19 19 -14 55 10 72 36 25 91 20 129 -11z m-768 -20 c-62 -2 -164 -2 -225 0 -62 1 -12 3 112 3 124 0 174 -2 113 -3z m749 -41 c21 -23 21 -24 3 -17 -11 4 -33 12 -50 19 -40 14 -42 16 -26 25 19 12 46 3 73 -27z m-642 18 c0 -5 -10 -10 -22 -10 -59 -1 -356 -1 -380 0 -16 0 -28 5 -28 10 0 6 78 10 215 10 137 0 215 -4 215 -10z m420 -5 c0 -9 9 -15 23 -15 12 0 36 -9 52 -20 28 -19 29 -20 7 -20 -26 0 -83 27 -94 44 -11 16 -10 26 2 26 6 0 10 -7 10 -15z m-460 -36 c0 -5 11 -9 25 -9 20 0 25 -5 24 -22 -1 -20 -2 -20 -6 -4 -3 11 -8 15 -12 8 -6 -11 -170 -19 -187 -10 -5 3 -56 2 -114 -2 -58 -3 -108 -5 -112 -3 -5 3 -8 13 -8 23 0 14 9 20 38 23 74 8 352 5 352 -4z m635 -5 c-11 -8 -26 -12 -33 -9 -8 3 -19 6 -25 6 -14 2 40 16 63 17 11 1 10 -3 -5 -14z m35 -14 c-10 -6 -7 -16 9 -39 24 -34 25 -72 1 -78 -12 -4 -12 -3 -1 5 10 7 11 14 3 28 -10 18 -11 18 -18 1 -3 -10 -4 -33 -1 -52 3 -19 4 -35 1 -35 -11 0 -84 82 -84 95 0 35 20 63 49 70 17 4 31 11 31 16 0 6 5 7 11 3 8 -5 8 -9 -1 -14z m73 -20 c24 -19 26 -19 30 -3 3 12 5 9 6 -8 0 -14 12 -36 26 -49 14 -13 25 -33 24 -44 0 -19 -1 -18 -10 4 -12 30 -54 75 -94 101 -16 10 -25 19 -19 19 6 0 23 -9 37 -20z m-1134 -14 c8 -10 24 -12 54 -8 39 5 41 4 28 -12 -10 -12 -17 -14 -25 -6 -19 19 -29 10 -11 -10 18 -19 18 -19 47 5 33 28 90 36 68 10 -10 -12 -16 -13 -28 -3 -13 11 -15 10 -9 -6 5 -13 3 -17 -8 -13 -8 4 -22 -4 -33 -18 l-19 -24 -11 24 c-7 14 -16 25 -20 25 -5 0 1 -21 14 -47 21 -40 24 -60 23 -152 0 -69 -3 -99 -9 -86 -5 11 -9 63 -9 115 -1 76 -5 101 -21 128 -24 39 -40 41 -39 5 1 -18 3 -22 6 -10 4 14 8 16 19 6 19 -15 18 -30 -1 -23 -12 5 -15 -4 -16 -47 l-2 -54 -7 60 c-4 33 -11 73 -15 89 -8 28 -7 29 19 22 17 -4 25 -3 22 3 -4 5 -20 12 -36 16 -17 4 -28 11 -24 16 8 13 30 11 43 -5z m246 -23 c35 -40 31 -52 -6 -17 l-30 29 -35 -37 c-19 -21 -34 -36 -34 -34 0 3 -3 12 -7 22 -4 10 -2 15 3 11 6 -3 23 7 40 23 16 16 33 29 37 29 4 1 19 -11 32 -26z m890 7 c9 -10 18 -31 18 -45 0 -27 7 -31 24 -14 14 14 37 -62 28 -91 -4 -12 -2 -20 4 -20 6 0 11 -8 11 -17 0 -14 -3 -13 -16 5 -8 12 -13 25 -11 30 3 4 1 18 -4 31 -6 16 -14 21 -25 17 -25 -10 -44 13 -44 51 0 19 -5 43 -10 54 -14 25 2 25 25 -1z m-1335 -34 c0 5 4 15 9 23 8 12 16 9 48 -15 21 -16 41 -28 46 -26 9 3 8 14 16 -176 5 -131 4 -159 -6 -145 -7 9 -19 21 -25 26 -9 6 -7 7 5 3 17 -6 18 2 15 123 -3 112 -6 133 -24 157 -11 15 -27 30 -35 32 -9 3 -6 -4 7 -19 39 -44 44 -65 42 -176 l-1 -108 -6 117 c-5 94 -10 120 -25 137 -48 53 -70 6 -62 -134 7 -125 -2 -111 -14 21 l-9 99 3 -113 c4 -123 15 -153 39 -106 10 22 13 53 9 122 -3 73 -2 92 9 92 11 0 11 2 -1 10 -8 5 -12 11 -9 15 3 3 14 -5 25 -17 10 -12 15 -19 9 -16 -6 4 -9 -27 -7 -88 3 -74 1 -94 -10 -94 -10 0 -9 -3 2 -10 12 -7 16 -3 21 18 6 24 7 22 8 -12 1 -34 -1 -37 -15 -25 -14 11 -20 8 -45 -20 -16 -19 -29 -38 -29 -42 0 -21 -27 -5 -48 28 -15 24 -22 46 -19 67 4 30 4 29 5 -5 2 -32 15 -49 37 -49 2 0 3 53 3 118 -1 82 -6 124 -16 140 -8 12 -12 31 -9 42 3 11 1 23 -4 26 -5 3 -9 10 -9 15 0 6 16 -2 35 -17 19 -14 35 -22 35 -18z m143 30 c11 11 28 -78 24 -129 -3 -51 -3 -51 -5 11 -2 57 -5 67 -32 92 -34 32 -39 46 -11 31 10 -6 21 -8 24 -5z m347 -1 c-10 -12 -16 -13 -26 -4 -20 16 -18 19 12 19 22 0 25 -2 14 -15z m125 8 c-11 -3 -27 -11 -36 -19 -14 -12 -18 -12 -34 6 -18 20 -18 20 36 19 30 -1 45 -4 34 -6z m59 -9 c4 -12 2 -15 -9 -10 -17 6 -19 -2 -6 -22 6 -11 13 -7 30 14 12 15 24 24 27 21 4 -3 -7 -22 -24 -42 -29 -36 -29 -38 -27 -143 l2 -107 -7 85 -7 85 1 -98 c1 -53 -2 -97 -6 -97 -7 0 -14 181 -9 237 2 29 -16 38 -39 18 -23 -21 -40 -90 -39 -157 2 -49 2 -50 9 -18 6 27 8 29 8 10 1 -14 -2 -42 -7 -62 -5 -22 -5 -36 0 -32 17 10 8 -11 -16 -41 -14 -16 -25 -25 -25 -18 0 7 6 17 13 24 8 8 11 39 9 106 -5 117 2 154 34 193 32 37 39 37 59 3 16 -27 16 -27 10 -3 -13 52 -13 70 0 70 7 0 16 -7 19 -16z m-779 -18 c25 -16 51 -66 61 -115 2 -14 -4 -3 -16 25 -29 72 -59 97 -115 96 -28 0 -43 4 -39 10 9 14 79 4 109 -16z m691 -6 c13 13 26 21 29 18 3 -3 -6 -13 -20 -22 -15 -10 -33 -32 -40 -49 l-14 -32 1 32 c1 42 -19 68 -39 51 -11 -9 -14 -24 -10 -53 3 -23 2 -34 -2 -25 -21 38 -21 58 1 85 l22 28 23 -28 24 -27 25 22z m224 10 c-14 -11 -28 -20 -32 -20 -3 0 -15 -19 -27 -43 -17 -36 -20 -57 -17 -142 3 -84 2 -89 -4 -35 -7 60 -7 58 -5 -28 1 -51 -2 -95 -6 -98 -5 -3 -9 25 -9 63 0 118 13 263 23 263 5 0 25 14 44 30 18 17 39 30 46 30 7 0 1 -9 -13 -20z m120 -5 c0 -8 -2 -15 -4 -15 -2 0 -6 7 -10 15 -3 8 -1 15 4 15 6 0 10 -7 10 -15z m136 6 c-3 -5 -14 -7 -24 -4 -31 8 -90 -23 -113 -59 -17 -28 -19 -29 -14 -8 9 31 21 44 60 64 32 17 100 22 91 7z m-629 -23 c38 -42 43 -65 43 -184 0 -156 -17 -137 -22 23 -3 108 -5 125 -24 143 l-21 21 -27 -31 c-25 -30 -26 -37 -27 -153 -1 -117 -2 -119 -11 -57 -14 100 -4 186 27 226 31 40 35 41 62 12z m735 -39 c9 -6 9 -13 0 -33 -13 -29 -10 -31 17 -14 15 9 24 7 50 -11 54 -39 34 -100 -29 -86 -16 4 -30 13 -30 20 0 21 19 28 36 14 11 -9 18 -9 26 -1 17 17 -9 42 -43 42 -31 0 -63 -36 -54 -61 2 -8 1 -21 -5 -29 -12 -19 -27 -5 -39 37 -8 28 -7 29 15 25 27 -5 31 5 9 22 -26 20 -28 68 -4 106 l22 35 8 -29 c5 -16 14 -33 21 -37z m-1280 24 c13 -16 31 -43 38 -60 13 -35 30 -203 19 -203 -3 0 -9 33 -12 74 -9 104 -30 152 -78 176 -50 26 -57 40 -21 40 18 0 37 -10 54 -27z m260 -179 c2 -113 0 -148 -8 -139 -8 7 -13 71 -15 179 -3 135 -2 162 8 139 6 -16 13 -95 15 -179z m686 159 c11 -51 19 -122 27 -238 l4 -70 -9 64 c-12 85 -21 100 -17 28 2 -32 0 -54 -4 -50 -10 11 -16 129 -6 139 17 18 -2 144 -22 144 -20 0 -50 -47 -45 -70 4 -22 3 -23 -5 -5 -7 14 -8 -1 -6 -50 l4 -70 -10 63 c-8 51 -7 68 7 95 15 30 51 66 66 67 3 0 11 -21 16 -47z m56 -49 c-12 -61 -20 -81 -25 -68 -4 10 -7 33 -7 49 0 29 0 29 8 5 6 -19 8 -9 9 37 1 39 5 63 14 66 6 2 14 3 16 1 2 -2 -5 -42 -15 -90z m141 76 c-4 -6 -24 -22 -45 -35 -45 -28 -66 -76 -79 -180 l-8 -70 -2 66 c-2 118 39 210 102 227 36 10 42 8 32 -8z m-714 -2 c7 -23 -6 -333 -13 -323 -5 8 -13 294 -9 328 2 12 19 8 22 -5z m200 -168 l-6 -165 -5 165 c-3 91 -4 169 -2 173 13 27 17 -27 13 -173z m183 2 c-4 -89 -11 -162 -16 -162 -12 0 -10 273 2 306 6 15 13 25 15 22 3 -3 2 -78 -1 -166z m160 153 c-4 -8 -8 -15 -10 -15 -2 0 -4 7 -4 15 0 8 4 15 10 15 5 0 7 -7 4 -15z m-424 -39 c0 -5 -6 -1 -14 9 -12 17 -16 18 -32 5 -17 -13 -17 -12 1 8 18 22 20 22 32 6 7 -10 13 -22 13 -28z m-581 19 c16 -8 32 -22 35 -32 6 -14 2 -13 -17 5 -13 12 -28 22 -35 22 -6 0 -14 5 -17 10 -9 14 1 13 34 -5z m751 -5 c-11 -11 -20 -28 -21 -37 0 -11 -2 -13 -6 -5 -6 15 23 62 37 62 6 0 1 -9 -10 -20z m-320 -150 c5 -144 5 -148 -15 -142 -11 3 -37 5 -57 6 -37 0 -55 17 -41 38 3 6 6 43 6 82 l0 71 6 -70 c3 -38 3 -78 -2 -87 -5 -13 -3 -18 8 -18 9 0 15 9 15 22 0 20 2 20 31 -10 18 -18 34 -30 37 -27 9 8 -56 67 -67 60 -6 -3 -11 1 -11 9 0 23 37 15 49 -11 6 -13 16 -23 22 -23 7 0 10 40 7 129 -2 71 -1 127 2 124 3 -2 7 -71 10 -153z m523 146 c4 -10 1 -13 -7 -10 -8 3 -17 0 -22 -7 -4 -7 -3 -10 3 -6 15 9 23 -175 9 -185 -6 -4 -3 -10 7 -14 9 -3 17 -13 17 -22 0 -12 -5 -9 -17 8 -10 14 -17 28 -15 33 1 4 -3 7 -9 7 -17 0 -7 189 12 201 18 11 16 11 22 -5z m-581 -93 c-2 -51 -8 -93 -13 -93 -5 0 -9 42 -9 93 0 63 3 87 10 77 8 -13 10 -12 10 4 0 11 1 17 3 15 2 -2 1 -46 -1 -96z m105 75 c-3 -8 -6 -5 -6 6 -1 11 2 17 5 13 3 -3 4 -12 1 -19z m666 12 c-13 -5 -23 -12 -23 -16 0 -3 6 -4 14 -1 11 4 11 -1 -1 -35 -7 -21 -17 -62 -21 -90 -4 -28 -13 -53 -20 -56 -15 -5 -15 34 -1 98 5 25 11 52 13 62 3 24 26 48 45 47 11 0 9 -3 -6 -9z m-579 -16 c3 -9 6 -47 6 -86 0 -57 -3 -69 -14 -65 -8 3 -17 1 -20 -6 -10 -26 -12 133 -1 161 6 17 22 15 29 -4z m188 -81 c-4 -104 -22 -118 -22 -18 0 54 15 126 23 114 2 -2 1 -46 -1 -96z m728 51 c0 -10 6 -14 14 -11 16 7 56 -49 56 -77 0 -22 -29 -21 -37 2 -3 9 -14 26 -24 37 -31 33 -69 82 -69 89 0 4 14 0 30 -9 17 -9 30 -23 30 -31z m-1439 -45 c12 -64 11 -101 -3 -97 -7 3 -17 36 -24 74 -7 38 -15 78 -19 89 -7 19 -7 19 15 -1 12 -12 26 -41 31 -65z m926 9 c-2 -13 -4 -3 -4 22 0 25 2 35 4 23 2 -13 2 -33 0 -45z m-380 -70 c-2 -24 -4 -5 -4 42 0 47 2 66 4 43 2 -24 2 -62 0 -85z m130 80 c-3 -8 -6 -5 -6 6 -1 11 2 17 5 13 3 -3 4 -12 1 -19z m649 0 c4 -7 3 -8 -5 -4 -6 4 -20 4 -32 1 -15 -5 -19 -14 -17 -33 2 -20 11 -28 36 -34 23 -6 38 -5 48 3 11 9 14 7 14 -9 0 -12 5 -24 10 -27 6 -4 7 -11 4 -17 -4 -6 -2 -8 4 -4 6 3 14 1 18 -5 4 -8 3 -9 -4 -5 -16 9 -15 4 3 -30 8 -16 15 -41 15 -56 0 -36 -18 -81 -29 -74 -6 4 -5 18 1 34 22 58 -12 129 -68 146 -17 5 -23 2 -27 -15 -7 -25 -32 -20 -32 7 0 16 7 19 40 18 22 0 49 -4 60 -9 19 -7 19 -7 4 10 -18 18 -82 25 -113 11 -16 -8 -17 -7 -7 12 6 11 11 31 11 44 0 40 47 66 66 36z m104 -94 c0 -18 5 -36 10 -39 6 -3 10 0 10 7 0 12 12 -5 41 -60 11 -19 9 -27 -9 -52 -12 -16 -22 -36 -22 -44 0 -7 -13 -28 -29 -45 -16 -17 -32 -37 -35 -44 -3 -6 -5 -3 -3 8 1 11 -1 25 -5 30 -4 6 3 17 15 25 20 12 21 12 8 -4 -8 -9 -12 -19 -9 -21 15 -15 33 36 36 99 3 63 1 75 -22 109 -14 21 -26 52 -26 69 0 30 0 31 20 13 12 -11 20 -31 20 -51z m25 34 c13 -33 12 -48 -5 -48 -5 0 -7 7 -4 15 4 8 -1 26 -10 40 -9 14 -12 25 -6 25 6 0 17 -15 25 -32z m-451 -157 c5 -7 -5 -11 -33 -11 -22 0 -42 -5 -44 -12 -3 -8 -6 -6 -6 5 -1 13 7 17 33 17 l34 0 -3 88 -4 87 8 -81 c5 -45 11 -86 15 -93z m32 69 c3 0 14 5 25 10 10 6 19 8 19 6 0 -3 -13 -12 -30 -21 l-30 -16 2 43 c1 37 2 38 5 11 2 -18 7 -33 9 -33z m484 56 c0 -2 -9 -6 -20 -9 -11 -3 -20 -1 -20 4 0 5 9 9 20 9 11 0 20 -2 20 -4z m-983 -46 c6 -12 23 -34 38 -47 14 -14 23 -28 20 -32 -4 -3 -24 13 -45 37 -21 23 -42 42 -47 42 -5 0 -15 -11 -21 -25 -10 -21 -9 -25 4 -25 8 0 13 4 10 8 -2 4 0 14 5 22 7 12 10 11 15 -7 4 -13 13 -23 20 -23 8 0 14 -4 14 -10 0 -15 -80 -13 -80 3 0 7 -7 4 -15 -7 -8 -11 -17 -17 -20 -14 -3 3 6 17 20 32 14 15 25 33 25 40 0 16 22 37 35 33 5 -2 15 -14 22 -27z m973 14 c0 -8 -5 -12 -10 -9 -6 4 -8 11 -5 16 9 14 15 11 15 -7z m-1511 -22 c-12 -2 -15 -10 -12 -25 4 -18 3 -19 -6 -7 -6 8 -11 25 -11 38 0 21 2 22 23 10 18 -10 19 -13 6 -16z m752 -22 c10 -6 19 -18 19 -26 0 -9 -13 -1 -34 22 -19 20 -39 34 -45 30 -6 -4 -11 -3 -11 3 0 18 45 17 48 -2 2 -9 12 -22 23 -27z m112 35 c4 -8 2 -17 -3 -20 -6 -4 -10 3 -10 14 0 25 6 27 13 6z m-266 -32 c-3 -10 -5 -4 -5 12 0 17 2 24 5 18 2 -7 2 -21 0 -30z m-437 -9 c0 -8 6 -14 14 -14 8 0 17 -3 19 -7 3 -5 -15 -8 -39 -8 -24 0 -44 3 -44 8 0 4 7 7 15 7 8 0 15 9 15 21 0 11 5 17 10 14 6 -3 10 -13 10 -21z m-135 -4 c18 -19 17 -20 -3 -20 -15 0 -22 6 -22 20 0 11 2 20 3 20 2 0 12 -9 22 -20z m704 -5 l23 -25 -48 0 c-43 1 -47 2 -31 14 9 7 17 18 17 25 0 17 13 13 39 -14z m174 5 c10 -12 23 -17 34 -14 15 5 16 4 3 -5 -8 -6 -35 -11 -60 -11 -40 1 -43 2 -27 14 9 7 17 18 17 25 0 17 14 13 33 -9z m147 -10 c-11 -20 -40 -28 -40 -10 0 9 28 29 43 30 4 0 3 -9 -3 -20z m-930 -50 c0 -20 7 -20 405 -20 263 0 405 -3 405 -10 0 -5 -17 -10 -38 -10 -36 0 -38 -2 -36 -30 l2 -30 -359 0 c-197 0 -359 -3 -359 -7 0 -5 166 -7 370 -5 253 2 370 -1 370 -8 0 -7 -119 -10 -375 -8 -366 3 -375 3 -375 -16 0 -15 -3 -17 -11 -9 -9 9 -7 19 8 39 l20 27 325 -2 c337 -2 381 1 371 25 -4 12 -59 14 -337 12 l-331 -3 330 -5 330 -5 -328 -3 c-321 -2 -329 -2 -334 18 -3 12 -14 20 -27 20 -12 0 -27 5 -34 12 -15 15 -16 38 -2 38 6 0 10 -9 10 -20z m790 0 c0 -7 -130 -10 -390 -10 -214 0 -390 4 -390 9 0 4 176 9 390 10 261 1 390 -2 390 -9z m400 -76 c0 -16 -1 -16 -20 1 -11 10 -20 29 -20 43 l0 25 20 -26 c11 -14 20 -33 20 -43z m29 -12 c0 -20 2 -50 5 -67 3 -16 3 -21 -1 -10 -3 11 -9 22 -14 25 -9 6 -13 31 -11 73 3 42 23 22 21 -21z m36 28 c3 -6 -1 -7 -9 -4 -18 7 -21 14 -7 14 6 0 13 -4 16 -10z m-71 -86 c-5 -19 -3 -23 10 -18 18 7 22 -21 6 -46 -7 -11 -11 -9 -19 12 -5 14 -14 29 -19 32 -5 3 -9 24 -9 48 l0 42 18 -23 c12 -15 17 -31 13 -47z m71 46 c3 -6 3 -20 -1 -32 l-6 -21 -13 24 c-13 24 -11 39 5 39 5 0 12 -5 15 -10z m-121 -15 c3 -8 1 -15 -4 -15 -6 0 -10 7 -10 15 0 8 2 15 4 15 2 0 6 -7 10 -15z m-84 -21 c0 -8 -9 -30 -19 -49 -22 -42 -17 -73 15 -87 18 -8 29 -7 47 5 20 13 24 23 22 61 -1 29 3 45 9 43 6 -2 11 -14 10 -26 0 -11 3 -21 8 -21 16 0 8 -47 -12 -65 -14 -13 -42 -19 -107 -23 -81 -4 -87 -4 -74 12 7 9 21 16 31 16 15 0 17 7 13 43 -4 34 -1 46 16 61 12 11 21 28 21 38 0 11 5 16 10 13 6 -3 10 -13 10 -21z m-250 -9 c0 -18 -45 -48 -62 -42 -8 3 -2 9 15 16 17 7 27 18 27 31 0 12 5 18 10 15 6 -3 10 -13 10 -20z m-41 -10 c-7 -6 -730 -7 -737 0 -3 3 163 5 368 5 205 0 371 -2 369 -5z m411 -46 c0 -6 -4 -7 -10 -4 -5 3 -10 11 -10 16 0 6 5 7 10 4 6 -3 10 -11 10 -16z m-612 4 c-93 -2 -243 -2 -335 0 -93 1 -17 3 167 3 184 0 260 -2 168 -3z m-410 -20 c-25 -6 -22 -40 3 -46 30 -8 462 -9 482 -1 25 9 21 42 -5 47 -20 4 -19 4 5 6 24 1 27 -2 27 -33 0 -30 3 -33 24 -29 13 3 26 1 29 -4 5 -8 -508 -8 -578 1 -30 4 -35 3 -20 -4 18 -9 18 -9 -4 -7 -30 3 -41 27 -12 27 16 0 21 6 21 25 0 20 5 25 23 24 16 -1 18 -2 5 -6z m1032 -13 c0 -5 -4 -10 -10 -10 -5 0 -10 5 -10 10 0 6 5 10 10 10 6 0 10 -4 10 -10z m-540 -10 c0 -6 -90 -10 -250 -10 -160 0 -250 4 -250 10 0 6 90 10 250 10 160 0 250 -4 250 -10z m86 -77 c14 -9 30 -25 36 -37 9 -17 6 -16 -18 6 l-29 27 -190 0 -190 1 -23 -35 c-12 -19 -27 -35 -34 -35 -6 0 0 13 15 28 40 41 35 52 -23 52 -37 0 -50 -4 -50 -14 0 -8 5 -18 11 -22 8 -5 8 -8 0 -13 -6 -4 -12 -18 -14 -31 -2 -14 -8 -23 -12 -22 -4 2 -12 -2 -17 -10 -7 -10 -9 -10 -7 2 3 29 -1 41 -11 35 -5 -3 -10 -1 -10 4 0 6 7 11 15 11 17 0 39 36 30 50 -3 6 -22 10 -41 10 -28 0 -36 -5 -44 -26 -16 -40 -13 -67 6 -60 14 6 15 4 4 -9 -12 -15 -14 -15 -22 -1 -5 9 -20 16 -34 16 -30 0 -23 17 12 30 14 6 24 18 24 30 0 16 -7 20 -31 20 -16 0 -28 3 -26 8 3 4 150 6 327 4 275 -2 325 -5 346 -19z m-628 -15 c-3 -7 -11 -13 -19 -13 -8 0 -18 -6 -22 -12 -4 -7 -12 -13 -17 -13 -14 0 -12 24 2 38 16 16 61 16 56 0z m200 -3 c1 -1 -6 -9 -17 -19 -17 -16 -19 -15 -35 8 l-16 26 32 -7 c18 -3 34 -7 36 -8z m-108 -6 c0 -6 -9 -13 -20 -16 -11 -3 -20 -9 -20 -14 0 -5 -4 -9 -10 -9 -5 0 -10 11 -10 25 0 21 5 25 30 25 17 0 30 -5 30 -11z m203 -10 c-35 -22 -35 -39 -2 -39 22 0 22 0 9 -35 -12 -33 -26 -25 -39 22 -8 28 -7 39 2 45 9 6 8 10 -3 18 -11 7 -5 10 25 10 l40 0 -32 -21z m73 -10 c18 -19 22 -28 11 -24 -21 9 -23 -21 -3 -47 20 -27 29 -22 11 6 -15 23 -15 24 10 22 19 -1 25 -6 25 -23 0 -13 -5 -23 -11 -23 -5 0 -8 -3 -6 -7 3 -5 -8 -9 -24 -10 -29 -2 -40 11 -16 20 10 4 10 7 0 18 -7 7 -13 24 -13 37 0 13 -5 32 -10 43 -15 27 -8 24 26 -12z m64 28 c0 -2 -8 -11 -18 -21 -18 -15 -20 -15 -37 4 -18 20 -18 20 18 20 21 0 37 -2 37 -3z m26 -70 c3 -37 1 -68 -5 -71 -5 -4 -8 11 -5 36 3 37 2 39 -5 13 -8 -28 -9 -27 -10 17 -1 45 7 83 16 74 2 -2 7 -33 9 -69z m90 48 c8 -34 -1 -42 -24 -22 -10 10 -23 17 -29 17 -6 0 -16 7 -23 15 -11 13 -7 15 29 15 35 0 41 -3 47 -25z m90 -6 l29 -31 -30 8 c-39 9 -43 11 -55 35 -18 32 22 24 56 -12z m-725 -36 c-22 -16 -24 -10 -9 22 11 24 13 25 19 8 4 -11 0 -22 -10 -30z m323 23 c-3 -14 1 -37 11 -56 9 -17 14 -34 11 -37 -8 -8 -36 54 -36 80 0 21 7 37 17 37 2 0 1 -11 -3 -24z m106 -16 c0 -16 -4 -40 -10 -55 -8 -22 -7 -27 15 -35 20 -8 108 -8 125 0 12 5 90 1 100 -5 5 -3 10 -3 10 2 0 4 29 7 65 6 56 -2 71 -6 100 -30 27 -22 34 -36 34 -65 l1 -38 -52 2 -53 2 48 3 c45 4 47 6 47 34 0 22 -5 29 -20 29 -13 0 -20 7 -20 20 0 12 -7 20 -17 21 -26 1 -846 1 -860 0 -7 -1 -13 -8 -13 -16 0 -11 17 -15 73 -18 70 -3 69 -3 -20 -5 -51 -1 -93 0 -93 3 0 3 18 23 40 45 28 28 48 40 68 39 24 0 25 -1 7 -9 -18 -7 -19 -8 -2 -15 9 -4 31 -5 47 -3 17 3 30 1 30 -4 0 -5 5 -6 12 -2 6 4 58 6 115 5 92 -2 103 -1 103 15 0 15 4 14 22 -6 20 -21 23 -22 26 -7 4 21 22 23 22 2 0 -17 16 -20 25 -5 3 6 2 10 -4 10 -5 0 -3 14 6 30 9 20 12 41 8 58 -4 15 -10 21 -12 15 -3 -7 -9 -13 -15 -13 -7 0 -6 5 2 14 17 22 40 8 40 -24z m231 -3 c-8 -8 -11 -3 -11 19 1 25 2 27 11 11 8 -14 8 -22 0 -30z m-91 -4 c0 -32 -5 -28 -14 10 -4 19 -3 26 4 22 5 -3 10 -18 10 -32z m-324 15 c5 -7 3 -8 -6 -3 -8 5 -11 3 -8 -6 3 -8 15 -13 27 -12 11 2 21 -3 21 -10 0 -8 4 -7 11 3 9 13 10 13 6 0 -2 -8 -9 -15 -14 -15 -14 0 -28 -14 -28 -27 0 -6 -6 -12 -13 -14 -7 -1 -8 0 -3 2 5 3 2 18 -6 35 -19 37 -7 80 13 47z m378 -19 c20 -12 36 -26 36 -31 0 -7 -4 -7 -12 -1 -7 5 -26 19 -42 31 -36 28 -28 28 18 1z m166 -33 c0 -5 -7 -1 -15 10 -19 26 -19 4 1 -24 22 -31 1 -27 -39 8 -19 17 -37 30 -41 30 -12 0 -6 -24 11 -42 15 -16 15 -18 0 -18 -18 0 -37 29 -37 55 0 14 7 15 45 9 35 -5 45 -3 45 7 1 16 30 -19 30 -35z m-711 25 c12 -8 12 -13 -3 -35 -9 -14 -23 -26 -31 -26 -11 0 -10 5 6 21 16 16 18 24 9 33 -8 8 -14 7 -21 -6 -6 -10 -22 -18 -36 -18 -25 0 -26 0 -8 20 19 21 60 26 84 11z m79 -8 c-3 -16 -68 -60 -68 -46 0 10 52 63 63 63 4 0 7 -7 5 -17z m497 -43 c11 -17 -11 -11 -39 11 -36 28 -33 45 4 19 16 -11 32 -25 35 -30z m-431 24 c4 -10 2 -13 -6 -8 -8 5 -9 2 -5 -9 3 -10 2 -17 -3 -17 -11 0 -13 11 -4 34 8 20 10 20 18 0z m-52 -26 c-7 -7 -12 -8 -12 -2 0 6 3 14 7 17 3 4 9 5 12 2 2 -3 -1 -11 -7 -17z m128 7 c0 -8 -7 -15 -16 -15 -14 0 -14 3 -4 15 7 8 14 15 16 15 2 0 4 -7 4 -15z m290 -5 c0 -5 -2 -10 -4 -10 -3 0 -8 5 -11 10 -3 6 -1 10 4 10 6 0 11 -4 11 -10z m-714 -95 c19 -26 18 -36 -3 -29 -14 5 -15 4 -4 -4 16 -11 7 -47 -9 -37 -5 3 -9 34 -9 68 1 34 4 53 6 42 3 -11 12 -29 19 -40z m722 38 c-119 -2 -317 -2 -440 0 -123 1 -25 2 217 2 242 0 342 -1 223 -2z m-325 -20 c-23 -2 -64 -2 -90 0 -26 2 -7 3 42 3 50 0 71 -1 48 -3z m130 0 c-7 -2 -19 -2 -25 0 -7 3 -2 5 12 5 14 0 19 -2 13 -5z m124 0 c-20 -2 -52 -2 -70 0 -17 2 0 4 38 4 39 0 53 -2 32 -4z m76 0 c-7 -2 -19 -2 -25 0 -7 3 -2 5 12 5 14 0 19 -2 13 -5z m150 0 c-24 -2 -62 -2 -85 0 -24 2 -5 4 42 4 47 0 66 -2 43 -4z m97 -38 c0 -13 -59 -15 -475 -15 -416 0 -475 2 -475 15 0 13 59 15 475 15 416 0 475 -2 475 -15z m-882 -32 c-16 -2 -40 -2 -55 0 -16 2 -3 4 27 4 30 0 43 -2 28 -4z m783 -156 c-248 -243 -362 -352 -369 -355 -4 -1 -117 108 -252 243 l-245 245 502 0 501 0 -137 -133z"></path><path d="M2248 3887 c-26 -21 -28 -28 -28 -97 0 -41 3 -132 7 -202 l6 -128 32 0 32 0 13 201 13 200 -24 24 -24 24 -27 -22z m58 -66 c-3 -14 -8 -75 -11 -136 -9 -166 -16 -215 -30 -215 -16 0 -24 65 -27 242 -3 124 -1 138 17 158 l20 22 18 -23 c11 -14 16 -32 13 -48z"></path><path d="M2089 3714 c-16 -32 -15 -36 25 -151 38 -109 43 -118 66 -115 13 1 25 4 27 6 4 4 -35 258 -40 262 -1 1 -15 8 -32 17 -30 14 -30 14 -46 -19z m53 -6 c9 -8 21 -51 32 -115 19 -123 20 -133 4 -133 -7 0 -29 49 -50 111 -28 84 -35 116 -27 130 11 22 20 24 41 7z"></path><path d="M2398 3725 c-32 -18 -32 -19 -54 -159 -16 -105 -15 -110 2 -123 10 -7 21 -13 25 -13 4 0 26 53 49 118 37 106 40 121 30 155 -12 41 -14 42 -52 22z m39 -27 c8 -18 3 -45 -28 -131 -40 -117 -43 -122 -57 -113 -15 9 28 239 47 253 22 17 27 16 38 -9z"></path><path d="M1966 3589 c-5 -27 2 -40 65 -114 69 -82 71 -84 94 -69 l23 15 -45 77 c-25 42 -52 87 -60 100 -9 14 -23 22 -42 22 -24 0 -30 -5 -35 -31z m108 -75 c27 -47 44 -89 40 -94 -12 -11 -134 134 -134 160 0 14 7 20 23 20 17 0 32 -18 71 -86z"></path><path d="M2447 3513 c-55 -97 -55 -97 -34 -114 20 -16 23 -14 92 68 60 71 71 89 67 114 -4 25 -8 29 -37 29 -31 0 -36 -5 -88 -97z m108 67 c5 -15 -9 -39 -56 -95 -60 -73 -70 -81 -81 -69 -6 5 69 141 94 172 15 18 36 15 43 -8z"></path><path d="M1882 3493 c-16 -3 -22 -9 -18 -20 3 -8 9 -25 12 -38 4 -15 19 -29 42 -38 21 -9 63 -27 94 -41 55 -25 58 -25 68 -7 8 16 -1 29 -68 85 -42 36 -84 65 -92 65 -8 -1 -25 -4 -38 -6z m182 -125 c5 -4 7 -10 4 -13 -8 -8 -178 72 -178 84 0 5 -3 16 -6 24 -4 11 2 17 18 19 21 4 44 -13 162 -114z"></path><path d="M2530 3433 c-41 -37 -76 -69 -77 -72 -2 -3 1 -13 6 -20 8 -13 25 -8 102 25 84 37 94 44 105 77 14 39 14 38 -46 52 -8 2 -49 -26 -90 -62z m111 39 c12 -5 14 -13 8 -30 -6 -15 -34 -34 -86 -57 -42 -20 -81 -34 -86 -32 -11 3 128 128 141 126 4 0 14 -3 23 -7z"></path><path d="M2164 3366 c-26 -25 -47 -57 -50 -75 l-7 -32 -129 2 c-110 2 -132 0 -146 -15 -16 -16 8 -17 418 -14 239 1 441 -1 448 -5 17 -11 15 8 -3 23 -12 10 -46 12 -140 7 l-124 -7 -6 28 c-18 82 -80 132 -164 132 -50 0 -57 -3 -97 -44z m162 18 c41 -19 68 -55 82 -106 l10 -38 -149 0 c-162 0 -160 -1 -138 57 21 56 83 102 137 103 13 0 39 -7 58 -16z m-328 -141 c-26 -2 -71 -2 -100 0 -29 2 -8 3 47 3 55 0 79 -1 53 -3z m665 0 c-13 -2 -33 -2 -45 0 -13 2 -3 4 22 4 25 0 35 -2 23 -4z"></path><path d="M1847 3363 c-32 -16 -32 -21 -8 -50 16 -19 34 -23 115 -30 53 -5 99 -7 101 -4 3 2 5 12 5 20 0 12 -27 25 -93 47 -85 28 -96 30 -120 17z m110 -30 c46 -15 83 -31 83 -35 0 -4 -37 -5 -82 -1 -89 6 -128 24 -107 50 15 17 9 18 106 -14z"></path><path d="M2565 3341 c-65 -22 -81 -32 -83 -50 -4 -22 -3 -22 95 -16 90 6 100 9 120 33 29 34 29 36 -2 50 -34 16 -36 15 -130 -17z m122 1 c8 -5 8 -11 -1 -24 -9 -13 -36 -20 -100 -26 -103 -10 -108 2 -15 34 69 24 97 28 116 16z"></path><path d="M1450 3110 c0 -7 287 -10 840 -10 553 0 840 3 840 10 0 7 -287 10 -840 10 -553 0 -840 -3 -840 -10z"></path><path d="M2314 2972 c-9 -14 -9 -24 0 -41 l13 -23 15 24 c11 17 13 29 6 41 -12 22 -20 21 -34 -1z m22 -29 c-10 -10 -19 5 -10 18 6 11 8 11 12 0 2 -7 1 -15 -2 -18z"></path><path d="M2467 2977 c-3 -7 3 -24 13 -37 17 -23 18 -23 28 -3 9 16 8 24 -7 37 -21 19 -27 20 -34 3z m33 -28 c0 -6 -4 -7 -10 -4 -5 3 -10 11 -10 16 0 6 5 7 10 4 6 -3 10 -11 10 -16z"></path><path d="M2393 2968 c-13 -6 -23 -15 -23 -20 0 -5 5 -6 10 -3 6 4 23 0 39 -8 25 -13 31 -13 35 -1 14 38 -16 54 -61 32z m48 -15 c11 -15 11 -16 0 -6 -7 6 -21 9 -30 6 -14 -4 -14 -3 -1 6 8 6 16 11 16 11 1 0 8 -8 15 -17z"></path><path d="M2242 2938 c-7 -7 -12 -17 -12 -22 0 -6 5 -3 11 7 9 15 13 16 26 5 14 -11 15 -11 12 1 -7 20 -22 24 -37 9z"></path><path d="M1294 2946 l-38 -33 -1 -407 c0 -223 3 -406 8 -406 4 0 7 -13 7 -28 0 -16 9 -37 20 -47 11 -10 20 -27 20 -38 0 -12 29 -49 68 -87 37 -37 85 -88 107 -113 22 -26 53 -51 69 -57 36 -13 256 -13 256 -1 0 5 -8 12 -17 16 -37 12 -83 64 -83 94 0 15 -10 41 -22 56 -18 23 -20 32 -11 56 14 35 2 38 -44 9 -38 -23 -44 -63 -17 -110 19 -31 13 -60 -11 -60 -15 0 -21 32 -16 93 2 18 -8 44 -24 67 -15 21 -29 57 -32 80 l-6 41 -21 -19 c-26 -24 -66 -45 -72 -39 -3 2 -7 20 -10 38 -4 26 0 41 16 62 20 26 24 27 39 13 31 -29 81 -14 81 23 0 8 11 24 25 36 30 24 61 125 39 125 -9 0 -12 9 -8 29 7 32 -12 75 -46 106 -18 16 -23 17 -30 5 -7 -11 -9 -9 -7 8 1 18 7 22 35 22 37 0 155 57 146 71 -3 5 -13 9 -22 9 -12 0 -8 8 15 28 56 52 66 85 59 187 -5 79 -4 93 14 120 19 29 28 71 13 63 -5 -2 -24 -12 -43 -21 -107 -54 -115 -60 -115 -99 0 -20 -3 -40 -7 -44 -5 -4 -8 0 -8 9 0 9 -5 27 -11 41 l-12 25 -36 -28 c-20 -16 -47 -32 -61 -36 -28 -8 -60 -33 -60 -47 0 -5 -9 -18 -20 -30 -10 -12 -17 -24 -15 -29 3 -4 1 -19 -5 -33 -7 -19 -17 -26 -35 -26 -14 0 -25 -4 -25 -10 0 -5 4 -10 9 -10 5 0 1 -16 -9 -35 -10 -20 -21 -58 -25 -85 -4 -27 -13 -54 -21 -61 -12 -10 -14 2 -14 75 0 77 2 87 18 84 11 -2 18 4 20 19 3 21 65 77 74 67 3 -2 5 9 6 26 1 34 -13 41 -21 10 -3 -11 -10 -20 -16 -20 -17 0 -13 18 9 40 24 24 25 52 4 84 -10 16 -12 26 -5 31 21 12 11 24 -23 27 l-34 3 15 43 c8 24 13 46 10 48 -2 2 -21 -11 -43 -30z m1 -103 c3 -13 12 -23 20 -23 9 0 12 6 9 15 -4 8 -2 15 3 15 14 0 37 -75 28 -90 -4 -7 -17 -9 -32 -5 l-25 6 18 -31 c18 -30 18 -30 -9 -57 l-27 -28 1 135 c1 74 3 124 6 110 2 -14 6 -35 8 -47z m450 44 c-8 -13 -13 -34 -10 -47 3 -14 -2 -31 -12 -42 -14 -16 -14 -18 -1 -18 29 0 28 -39 0 -66 -25 -24 -25 -25 -4 -14 13 6 28 9 35 6 7 -2 4 -5 -5 -5 -11 -1 -15 -6 -12 -15 12 -32 -81 -116 -129 -116 -25 0 -20 19 7 30 13 4 32 20 43 34 13 17 23 22 30 15 7 -7 16 -2 27 15 9 15 12 26 7 26 -6 0 -15 -8 -20 -17 -7 -13 -8 3 -5 52 3 39 7 72 7 75 1 3 -2 5 -8 5 -5 0 -9 -11 -7 -23 2 -15 -1 -21 -8 -17 -6 3 -7 11 -4 17 4 5 -5 3 -18 -6 -20 -13 -31 -14 -52 -6 -35 13 -36 13 -36 -5 0 -8 -8 -15 -18 -15 -19 0 -72 -49 -72 -67 0 -12 -36 -24 -44 -15 -14 13 -5 43 12 40 12 -2 18 5 20 22 4 28 19 50 34 50 6 0 8 -7 4 -15 -6 -17 -4 -18 18 -9 9 3 16 12 16 19 0 18 28 45 47 45 10 0 14 -6 10 -19 -7 -28 33 -36 57 -11 16 16 17 22 6 34 -10 13 -10 19 0 31 11 13 15 13 22 3 6 -10 12 -9 23 7 25 35 35 45 46 45 5 0 3 -10 -6 -23z m-218 -109 c-3 -8 -6 -5 -6 6 -1 11 2 17 5 13 3 -3 4 -12 1 -19z m82 -27 c8 -5 9 -11 3 -15 -5 -3 -15 1 -22 9 -14 16 -3 20 19 6z m61 -14 c0 -7 -9 -30 -20 -52 -24 -48 -25 -51 -2 -34 9 7 6 1 -8 -13 -26 -27 -80 -46 -80 -28 0 5 13 10 29 10 17 0 32 3 34 8 3 4 -9 7 -26 7 -22 0 -32 5 -32 15 0 9 9 15 22 15 29 0 38 11 24 29 -9 11 -6 18 15 35 31 24 44 27 44 8z m-80 -12 c11 -13 8 -15 -13 -15 -15 0 -32 -9 -41 -22 -17 -24 -30 -20 -20 6 4 9 21 20 38 23 31 7 31 7 6 14 -22 6 -23 7 -4 8 12 1 27 -6 34 -14z m5 -34 c3 -5 -5 -11 -17 -13 -17 -2 -23 -9 -23 -29 1 -25 0 -26 -30 -14 -20 9 -31 21 -32 37 l-3 23 10 -22 c10 -25 40 -32 40 -10 0 28 41 49 55 28z m-268 -29 c-10 -10 -17 -26 -17 -35 0 -19 -2 -20 -23 -11 -12 4 -9 12 16 34 36 33 48 39 24 12z m90 -31 c-18 -9 -42 -31 -54 -50 -13 -19 -23 -29 -23 -24 0 13 40 65 57 76 7 4 13 15 13 23 0 11 4 12 19 2 18 -11 17 -13 -12 -27z m108 -7 c28 -11 38 -54 19 -75 -10 -11 -13 -19 -8 -19 16 0 34 23 35 45 1 16 2 17 6 3 2 -10 10 -18 16 -18 13 0 -17 -19 -67 -44 -23 -10 -36 -11 -53 -3 -22 10 -22 12 -7 20 13 7 19 7 22 -1 2 -7 11 -12 21 -12 12 0 17 8 16 32 0 41 -33 61 -76 46 -31 -11 -69 -52 -69 -74 0 -7 -9 -18 -21 -25 -19 -10 -20 -9 -14 13 17 53 25 66 55 91 31 27 86 36 125 21z m-27 -61 c2 -8 -6 -13 -20 -13 -13 0 -34 -7 -46 -16 -31 -22 -27 0 5 26 28 22 54 23 61 3z m162 -18 c0 -9 -80 -45 -101 -45 -21 0 -21 0 2 19 27 21 99 40 99 26z m-220 -35 c0 -5 -5 -10 -11 -10 -5 0 -7 5 -4 10 3 6 8 10 11 10 2 0 4 -4 4 -10z m-47 -17 c-28 -10 -63 -46 -64 -66 0 -12 -3 -16 -6 -9 -4 10 -8 10 -21 0 -14 -11 -14 -9 1 8 9 11 17 31 18 45 0 18 2 20 7 7 6 -14 10 -14 37 7 16 13 32 21 35 18 3 -3 0 -8 -7 -10z m121 -27 c11 -42 5 -58 -35 -97 -22 -21 -41 -39 -42 -39 -1 0 0 22 1 50 3 34 0 50 -8 50 -8 0 -10 -10 -6 -27 3 -16 3 -22 0 -15 -3 6 -10 10 -15 6 -18 -11 -8 30 18 71 25 39 28 41 54 32 15 -6 30 -20 33 -31z m-122 2 c-7 -7 -12 -27 -12 -46 0 -47 -16 -72 -46 -72 -17 0 -28 -7 -31 -20 -3 -11 -10 -20 -15 -20 -5 0 -7 8 -4 18 3 9 8 29 12 45 7 30 14 33 32 15 9 -9 12 -5 12 19 0 22 8 38 26 52 29 23 45 28 26 9z m183 -68 c21 -40 19 -76 -5 -100 -21 -21 -11 -36 17 -26 12 5 14 1 8 -21 -13 -54 -45 -67 -45 -18 0 37 -11 56 -37 66 -31 11 -63 -5 -63 -31 0 -22 10 -26 27 -9 13 13 33 4 33 -16 0 -7 -14 -17 -32 -20 -24 -6 -35 -3 -45 11 -20 27 -16 42 19 74 30 28 33 29 56 14 22 -15 24 -14 20 3 -2 10 -9 17 -16 16 -6 -2 -9 4 -6 12 4 8 10 15 14 15 4 0 13 14 20 30 7 17 14 30 16 30 2 0 10 -13 19 -30z m-292 -20 c-3 -11 -7 -20 -9 -20 -2 0 -4 9 -4 20 0 11 4 20 9 20 5 0 7 -9 4 -20z m109 -63 c-12 -13 -22 -28 -22 -35 0 -6 -9 -16 -20 -22 -11 -6 -23 -22 -26 -35 -7 -27 -12 -29 -31 -17 -9 6 -6 20 12 57 13 28 24 44 24 38 1 -18 21 -16 21 2 0 8 -4 15 -10 15 -5 0 -10 5 -10 11 0 8 4 8 13 1 8 -7 20 -6 37 3 33 18 38 10 12 -18z m-103 -49 c-9 -16 -14 -19 -17 -9 -2 7 2 17 9 22 20 13 21 11 8 -13z m237 11 c4 -7 7 -25 6 -40 0 -16 4 -31 9 -34 19 -13 8 -25 -12 -14 -32 16 -88 4 -123 -28 -28 -25 -29 -26 -8 -2 12 14 22 32 22 40 0 11 10 14 42 11 31 -3 45 0 54 13 19 26 0 58 -32 52 -13 -2 -21 0 -18 4 8 13 52 11 60 -2z m-159 -37 c-10 -10 -17 -30 -17 -44 0 -24 -2 -25 -34 -18 -19 4 -38 5 -42 1 -4 -3 -4 -1 -1 5 4 6 18 9 32 6 18 -3 25 0 25 12 0 9 9 25 20 36 25 25 39 26 17 2z m37 -46 c-43 -59 -48 -73 -52 -130 -2 -46 1 -70 16 -98 11 -21 16 -38 12 -38 -10 0 -35 39 -45 70 -4 13 -14 30 -21 38 -8 7 -14 22 -14 33 0 28 34 86 48 81 8 -2 12 8 12 29 0 18 8 41 17 51 17 19 18 19 27 -2 6 -14 6 -26 0 -34z m130 -26 c13 -12 -2 -30 -26 -30 -14 0 -18 5 -14 15 8 22 -26 19 -57 -5 -35 -28 -50 -83 -35 -132 9 -30 14 -36 25 -27 9 9 13 8 13 0 0 -11 -13 -15 -40 -11 -12 1 -13 -1 -2 -11 6 -7 12 -17 12 -22 0 -13 -19 2 -31 25 -8 15 -8 19 0 13 9 -5 10 1 4 22 -12 44 -6 94 15 122 36 49 104 70 136 41z m-233 -17 c0 -15 2 -15 9 2 7 15 9 16 9 4 1 -9 -7 -23 -16 -30 -14 -12 -16 -12 -8 0 6 11 4 13 -7 8 -12 -4 -14 -1 -11 14 7 24 23 25 24 2z m205 -181 c-15 -15 -16 -14 -16 6 0 12 5 22 10 22 6 0 11 10 11 23 2 16 3 15 6 -7 3 -18 -1 -35 -11 -44z m-34 3 c-2 -14 -8 -25 -13 -25 -10 0 -11 12 -3 34 10 25 22 19 16 -9z m-29 -56 c-9 -35 -23 -31 -23 7 0 30 2 34 14 25 8 -7 12 -21 9 -32z m81 7 c-1 -18 -8 -44 -17 -57 -10 -13 -17 -30 -17 -38 0 -24 -18 0 -26 34 -5 25 -4 28 7 18 20 -20 30 -15 23 11 -6 24 10 66 24 66 4 0 7 -15 6 -34z m-52 -3 c-11 -16 -22 -37 -25 -48 -4 -19 -5 -19 -6 1 0 12 8 33 20 48 27 34 36 34 11 -1z m69 -6 c-10 -9 -11 -8 -5 6 3 10 9 15 12 12 3 -3 0 -11 -7 -18z m-134 -9 c-3 -8 -6 -5 -6 6 -1 11 2 17 5 13 3 -3 4 -12 1 -19z m253 -23 c25 -28 33 -61 20 -85 -9 -17 -8 -20 8 -20 17 0 42 -17 42 -29 0 -12 -178 4 -194 18 -18 15 -22 61 -5 61 6 0 8 8 4 19 -3 10 1 23 9 30 11 10 14 7 14 -11 3 -88 5 -93 44 -96 33 -3 40 0 50 23 10 23 8 32 -12 69 -14 27 -20 48 -15 57 7 11 9 10 13 -1 3 -8 12 -24 22 -35z m-149 -61 c-5 -16 -10 -21 -10 -12 -1 18 10 51 15 45 2 -1 -1 -16 -5 -33z m264 -84 c3 -5 -1 -10 -10 -10 -9 0 -13 5 -10 10 3 6 8 10 10 10 2 0 7 -4 10 -10z"></path><path d="M2913 2923 c9 -2 23 -2 30 0 6 3 -1 5 -18 5 -16 0 -22 -2 -12 -5z"></path><path d="M2090 2943 c8 -3 25 -15 38 -26 12 -11 22 -15 22 -9 0 14 -40 42 -60 41 -13 0 -13 -1 0 -6z"></path><path d="M2090 2685 c0 -13 27 -15 180 -15 155 0 179 2 174 15 -5 13 -35 15 -180 15 -148 0 -174 -2 -174 -15z m263 -2 c-46 -2 -120 -2 -165 0 -46 1 -9 3 82 3 91 0 128 -2 83 -3z"></path><path d="M2198 2503 c29 -2 74 -2 100 0 26 2 2 3 -53 3 -55 0 -76 -1 -47 -3z"></path><path d="M2378 2503 c7 -3 16 -2 19 1 4 3 -2 6 -13 5 -11 0 -14 -3 -6 -6z"></path><path d="M1857 2415 c-12 -24 -15 -25 -26 -11 -8 9 -18 16 -24 16 -7 0 -7 -4 1 -12 7 -7 12 -23 13 -37 0 -23 1 -24 8 -6 8 20 8 20 13 0 6 -20 6 -20 7 1 0 11 10 30 21 42 11 11 16 24 10 27 -5 3 -15 -6 -23 -20z"></path><path d="M1880 1371 c0 -4 83 -88 185 -186 l185 -177 87 78 c155 140 293 276 288 284 -7 11 -378 10 -392 -1 -7 -7 -13 -6 -18 1 -8 12 -335 14 -335 1z m333 -15 c10 -11 17 -12 25 -4 8 8 15 8 27 -2 10 -8 15 -9 15 -1 0 6 8 11 18 11 14 0 15 -2 2 -10 -13 -8 -13 -13 -2 -30 13 -21 12 -21 -17 1 -25 18 -33 20 -46 9 -11 -9 -15 -9 -15 -1 0 7 -5 9 -10 6 -6 -4 -7 -12 -4 -18 4 -7 4 -9 -1 -5 -4 4 -14 3 -21 -3 -9 -8 -21 -5 -42 11 -24 18 -33 20 -51 11 -24 -14 -28 -56 -6 -65 10 -4 15 1 15 14 0 20 24 28 35 11 9 -16 -26 -43 -49 -37 -12 3 -28 6 -37 6 -10 0 -15 8 -15 23 1 15 -5 23 -19 25 -11 2 -31 12 -45 22 l-25 20 39 0 c23 0 47 -7 58 -17 17 -15 20 -15 28 -3 7 11 28 15 74 15 35 -1 62 3 60 7 -9 14 -144 10 -144 -4 0 -9 -3 -9 -12 0 -7 7 -37 12 -67 12 l-55 0 34 -35 c19 -19 39 -35 46 -35 6 0 11 -8 10 -17 -1 -12 12 -22 40 -31 35 -11 40 -16 37 -36 -4 -21 -14 -14 -99 67 -52 49 -94 91 -94 93 0 2 67 4 149 4 117 0 153 -3 164 -14z m247 -5 c0 -4 -12 -7 -27 -5 -16 2 -21 1 -13 -2 8 -4 18 -12 22 -18 4 -7 13 -4 26 7 10 9 34 17 52 17 32 0 33 0 15 -20 -10 -11 -26 -20 -35 -20 -28 0 -43 -25 -25 -40 14 -11 19 -7 16 13 0 4 5 7 13 7 8 0 28 16 45 35 17 19 36 35 43 35 14 0 -43 -61 -122 -130 -54 -47 -56 -48 -54 -22 0 21 7 28 25 30 13 2 29 8 34 14 7 7 -3 9 -34 4 -45 -7 -71 4 -71 30 0 8 9 14 21 14 14 0 19 -5 16 -15 -8 -20 8 -28 23 -10 15 18 5 51 -18 57 -22 6 -62 -8 -62 -22 0 -17 -25 -11 -38 10 -13 22 -5 26 68 33 68 7 80 7 80 -2z m-345 -38 c-11 -3 -23 -10 -27 -17 -5 -7 -8 -7 -8 0 0 16 11 24 34 23 20 -1 20 -1 1 -6z m163 -9 c12 -8 22 -22 22 -30 0 -10 9 -14 28 -12 23 3 27 -1 30 -24 3 -22 9 -28 27 -28 28 0 25 -24 -6 -41 -14 -7 -17 -6 -13 4 5 15 -41 77 -58 77 -6 0 -4 -8 3 -17 8 -9 -3 -4 -24 11 -30 23 -40 26 -52 16 -8 -6 -19 -9 -24 -5 -11 6 -45 -23 -74 -65 -15 -21 -19 -23 -27 -10 -14 22 -12 30 9 30 13 0 20 9 25 30 5 27 9 30 31 24 19 -5 25 -2 25 9 0 14 35 47 50 47 3 0 16 -7 28 -16z m150 -4 c4 -12 2 -13 -9 -4 -8 7 -23 14 -34 17 -13 4 -9 5 9 4 16 -1 32 -9 34 -17z m-98 -20 c0 -5 -2 -10 -4 -10 -3 0 -8 5 -11 10 -3 6 -1 10 4 10 6 0 11 -4 11 -10z m-44 -55 c14 -14 29 -25 35 -25 13 0 34 -48 24 -58 -4 -4 -10 0 -13 8 -6 18 -70 80 -82 80 -17 0 -80 -62 -80 -78 0 -12 -3 -13 -11 -5 -14 14 5 53 26 53 8 0 15 7 15 15 0 15 26 34 48 35 7 0 24 -11 38 -25z m114 11 c0 -3 -4 -8 -10 -11 -5 -3 -10 -1 -10 4 0 6 5 11 10 11 6 0 10 -2 10 -4z m-112 -54 c15 -15 32 -37 38 -47 12 -20 12 -20 33 3 20 20 31 27 31 18 0 -1 -32 -31 -71 -66 l-71 -63 -64 63 c-35 35 -61 66 -59 68 2 3 13 -6 24 -19 11 -13 20 -19 21 -12 0 19 60 83 77 83 8 0 27 -13 41 -28z"></path><path d="M2227 1285 c-18 -25 -11 -35 10 -14 8 8 19 6 39 -8 l29 -18 -25 32 c-14 18 -27 32 -30 32 -3 0 -13 -11 -23 -24z"></path><path d="M2224 1185 c-12 -8 -27 -28 -34 -45 -12 -29 -11 -33 15 -60 35 -37 42 -37 85 -2 33 28 33 30 21 61 -12 28 -45 61 -61 61 -3 0 -15 -7 -26 -15z m71 -50 c8 -24 6 -30 -19 -52 l-28 -24 -24 22 c-30 28 -30 48 -3 83 19 25 23 26 43 13 11 -8 25 -27 31 -42z"></path><path d="M360 2152 c0 -10 9 -25 20 -35 22 -19 27 -59 8 -74 -18 -14 -58 -23 -58 -13 0 4 7 13 15 20 19 16 19 50 -1 78 -12 18 -25 22 -64 22 -74 0 -105 -44 -60 -85 17 -15 24 -16 45 -7 15 7 25 20 25 32 0 13 7 20 20 20 11 0 20 -6 20 -13 0 -30 -60 -77 -98 -77 -20 0 -22 -4 -16 -22 3 -13 7 -24 8 -25 2 -3 147 16 174 22 12 3 22 1 22 -4 0 -5 9 -11 21 -14 18 -5 20 -2 14 21 -4 15 -10 29 -14 32 -5 3 -10 27 -13 53 -6 48 -30 87 -55 87 -7 0 -13 -8 -13 -18z m-97 -57 c1 -5 -6 -11 -15 -13 -11 -2 -18 3 -18 13 0 17 30 18 33 0z m134 -81 c-3 -3 -12 -4 -19 -1 -8 3 -5 6 6 6 11 1 17 -2 13 -5z m-110 -10 c-3 -3 -12 -4 -19 -1 -8 3 -5 6 6 6 11 1 17 -2 13 -5z"></path><path d="M4086 2148 c-21 -29 -20 -41 3 -62 25 -23 53 -17 66 12 9 21 14 23 55 17 25 -4 47 -9 49 -11 9 -8 -15 -22 -66 -39 -55 -17 -61 -23 -42 -42 9 -9 26 -6 68 9 64 24 71 31 71 75 0 41 -15 49 -112 57 -72 6 -77 5 -92 -16z m178 -16 c3 -5 -8 -6 -25 -4 -16 2 -29 6 -29 8 0 8 49 4 54 -4z m-133 -17 c-1 -15 -24 -12 -29 3 -3 9 2 13 12 10 10 -1 17 -7 17 -13z"></path><path d="M3825 2093 c-3 -10 -1 -19 5 -21 18 -6 40 -33 40 -49 0 -12 -3 -13 -14 -3 -8 6 -25 10 -38 8 -29 -4 -32 -45 -5 -62 15 -9 21 -7 33 8 12 17 14 18 14 3 0 -35 19 -15 25 27 8 48 -4 79 -34 96 -15 7 -20 6 -26 -7z m6 -96 c-1 -12 -15 -9 -19 4 -3 6 1 10 8 8 6 -3 11 -8 11 -12z"></path><path d="M485 2070 c-20 -22 -14 -67 10 -77 28 -10 64 6 71 33 7 28 -18 64 -46 64 -9 0 -25 -9 -35 -20z m51 -21 c10 -17 -13 -36 -27 -22 -12 12 -4 33 11 33 5 0 12 -5 16 -11z"></path><path d="M3946 2083 c-11 -12 -6 -41 9 -47 9 -3 15 -18 15 -34 0 -26 -3 -29 -25 -25 -19 4 -27 -1 -37 -22 -11 -25 -10 -29 11 -46 21 -17 26 -18 45 -6 27 18 50 105 37 140 -10 27 -44 51 -55 40z m6 -155 c-15 -15 -26 -4 -18 18 5 13 9 15 18 6 9 -9 9 -15 0 -24z"></path><path d="M390 1935 c0 -18 5 -25 19 -25 22 0 38 -37 24 -51 -6 -6 -47 -17 -91 -27 -64 -13 -82 -20 -82 -34 0 -9 3 -19 8 -21 12 -8 186 33 195 46 13 19 1 96 -18 117 -26 29 -55 26 -55 -5z m-7 -122 c-7 -2 -19 -2 -25 0 -7 3 -2 5 12 5 14 0 19 -2 13 -5z"></path><path d="M4062 1944 c-19 -13 -23 -23 -18 -44 3 -18 0 -33 -9 -40 -19 -16 -19 -64 -1 -79 8 -7 52 -22 99 -35 l85 -24 6 30 c12 59 -63 156 -103 131 -9 -6 -16 -23 -16 -39 0 -27 3 -29 37 -28 24 1 39 -4 43 -14 9 -23 1 -24 -60 -8 -68 18 -73 21 -57 46 7 11 12 31 12 45 0 31 12 32 104 5 38 -11 71 -19 72 -17 1 1 4 11 8 23 6 18 -1 22 -66 37 -40 10 -82 20 -93 23 -11 2 -31 -3 -43 -12z m155 -40 c-3 -3 -12 -4 -19 -1 -8 3 -5 6 6 6 11 1 17 -2 13 -5z m-62 -53 c7 -12 -12 -24 -25 -16 -11 7 -4 25 10 25 5 0 11 -4 15 -9z"></path><path d="M435 1776 c-12 -8 -16 -20 -13 -34 5 -18 -2 -24 -48 -42 -30 -11 -60 -20 -65 -20 -6 0 -8 -7 -5 -16 3 -9 6 -20 6 -25 0 -5 7 -9 16 -9 8 0 24 -5 35 -11 19 -10 19 -10 -3 -28 -20 -16 -21 -22 -10 -45 14 -31 52 -35 78 -8 9 9 42 27 73 38 58 22 66 31 52 52 -6 11 -18 9 -61 -7 l-52 -20 -34 27 -34 27 49 16 c74 26 91 37 91 63 0 23 -27 56 -46 56 -6 0 -18 -6 -29 -14z m40 -26 c11 -17 -5 -32 -21 -19 -7 6 -11 15 -8 20 7 12 21 11 29 -1z m-30 -50 c-27 -12 -43 -12 -25 0 8 5 22 9 30 9 10 0 8 -3 -5 -9z m-60 -22 c-11 -6 -23 -16 -26 -21 -4 -5 -13 -7 -20 -5 -9 3 -3 10 16 21 34 18 61 23 30 5z m82 -94 c-3 -3 -12 -4 -19 -1 -8 3 -5 6 6 6 11 1 17 -2 13 -5z m-57 -19 c0 -8 -9 -15 -20 -15 -20 0 -26 11 -13 23 12 13 33 7 33 -8z"></path><path d="M602 1708 c-18 -18 -14 -59 9 -98 27 -46 47 -60 81 -60 28 0 35 13 20 38 -5 7 -16 10 -25 7 -9 -4 -25 3 -38 16 l-22 22 21 8 c38 14 23 79 -18 79 -9 0 -21 -5 -28 -12z m43 -27 c7 -12 -12 -24 -25 -16 -11 7 -4 25 10 25 5 0 11 -4 15 -9z"></path><path d="M3981 1694 c-43 -54 -47 -141 -8 -145 7 -1 19 -3 27 -4 8 0 37 -11 63 -23 60 -27 73 -27 80 -2 4 16 -4 22 -51 37 -33 11 -57 24 -60 35 -5 22 -32 32 -32 13 0 -8 -4 -15 -10 -15 -13 0 -13 36 0 61 14 25 25 24 114 -10 42 -16 76 -26 76 -21 0 5 3 15 6 23 4 11 -17 23 -81 46 -47 17 -90 31 -95 31 -5 0 -18 -12 -29 -26z m149 -36 c10 -6 7 -7 -10 -2 -14 3 -32 11 -40 16 -10 6 -7 7 10 2 14 -3 32 -11 40 -16z m-135 -96 c-3 -3 -11 0 -18 7 -9 10 -8 11 6 5 10 -3 15 -9 12 -12z"></path><path d="M533 1504 c-7 -3 -9 -12 -6 -21 4 -11 3 -14 -6 -9 -7 5 -37 -3 -66 -16 -45 -19 -53 -26 -48 -43 8 -29 6 -29 62 0 36 18 59 23 77 19 23 -6 25 -4 19 15 -8 28 10 27 29 -1 31 -43 21 -57 -63 -96 -72 -32 -78 -37 -69 -56 9 -21 10 -21 94 18 93 44 106 63 84 117 -28 66 -63 90 -107 73z m27 -18 c0 -3 -4 -8 -10 -11 -5 -3 -10 -1 -10 4 0 6 5 11 10 11 6 0 10 -2 10 -4z m50 -121 c0 -6 -56 -35 -67 -35 -4 1 8 9 27 20 39 22 40 22 40 15z"></path><path d="M3881 1474 c-31 -39 -44 -89 -31 -114 20 -37 42 -17 33 31 -3 15 3 34 14 48 l19 23 56 -25 c30 -14 58 -30 62 -36 4 -6 0 -24 -9 -40 -17 -35 -44 -33 -38 3 9 47 -51 61 -73 17 -17 -33 -8 -48 37 -71 60 -31 75 -27 104 31 37 73 32 88 -45 126 -80 39 -103 40 -129 7z m87 -106 c-3 -7 -11 -13 -18 -13 -7 0 -15 6 -17 13 -3 7 4 12 17 12 13 0 20 -5 18 -12z"></path><path d="M3665 1400 c-4 -6 -1 -17 5 -26 11 -12 9 -14 -11 -12 -18 2 -24 -2 -24 -17 0 -11 -6 -30 -13 -42 -17 -31 -15 -49 10 -72 l21 -21 15 23 c9 12 33 43 53 68 l38 46 -39 32 c-43 34 -46 36 -55 21z m45 -67 c0 -5 -14 -24 -30 -43 -25 -30 -30 -32 -30 -14 0 11 9 30 20 42 21 22 40 29 40 15z"></path><path d="M570 1252 c-34 -53 -37 -78 -14 -110 22 -32 42 -28 120 26 74 51 88 76 55 106 -37 33 -95 -1 -72 -42 7 -13 2 -22 -24 -39 -19 -13 -39 -23 -44 -23 -15 0 -14 22 2 45 49 72 49 72 27 78 -17 4 -27 -4 -50 -41z m148 -4 c-3 -7 -11 -13 -18 -13 -7 0 -15 6 -17 13 -3 7 4 12 17 12 13 0 20 -5 18 -12z"></path><path d="M3772 1275 c-34 -29 -55 -73 -50 -107 5 -35 33 -29 34 7 1 63 36 91 77 61 18 -14 24 -32 7 -21 -17 11 -57 -22 -65 -52 -6 -24 -1 -33 31 -60 20 -18 48 -33 60 -33 28 0 57 40 48 64 -8 21 -52 32 -67 17 -17 -17 -37 -13 -37 8 0 33 64 42 110 16 24 -13 50 -5 50 15 0 8 -151 110 -162 110 -4 0 -20 -11 -36 -25z m63 -15 c3 -6 -1 -7 -9 -4 -18 7 -21 14 -7 14 6 0 13 -4 16 -10z m59 -39 c3 -5 -3 -11 -14 -14 -20 -5 -26 3 -13 16 9 10 21 9 27 -2z m-11 -112 c-17 -17 -37 -1 -22 17 8 10 15 12 23 4 7 -7 7 -13 -1 -21z"></path><path d="M746 1167 c-16 -12 -16 -14 -2 -26 8 -7 20 -10 26 -6 13 8 50 -22 50 -39 -1 -6 -32 -36 -70 -66 -57 -45 -67 -57 -57 -70 6 -8 12 -16 13 -18 5 -9 154 122 154 135 0 23 -28 71 -52 87 -27 19 -39 20 -62 3z"></path><path d="M3621 1086 c-10 -11 2 -26 63 -75 41 -34 84 -61 95 -61 29 0 56 43 42 68 -15 28 -41 35 -62 16 -17 -15 -21 -14 -65 25 -52 45 -56 47 -73 27z m175 -77 c10 -17 -13 -36 -27 -22 -12 12 -4 33 11 33 5 0 12 -5 16 -11z"></path><path d="M872 1018 c-15 -15 -16 -45 -1 -54 7 -4 -7 -25 -37 -55 -41 -42 -46 -50 -34 -64 9 -11 22 -14 37 -10 32 8 47 -3 32 -21 -19 -23 4 -64 35 -64 28 0 58 34 49 56 -3 8 1 14 9 14 8 0 32 18 53 40 34 35 37 42 25 55 -13 13 -20 9 -58 -27 l-43 -41 -41 14 -40 13 41 34 c57 47 66 67 46 98 -17 26 -53 32 -73 12z m48 -34 c0 -16 -16 -19 -25 -4 -8 13 4 32 16 25 5 -4 9 -13 9 -21z m-70 -124 c0 -5 -8 -10 -17 -10 -15 0 -16 2 -3 10 19 12 20 12 20 0z m80 -60 c0 -12 -28 -25 -36 -17 -9 9 6 27 22 27 8 0 14 -5 14 -10z"></path><path d="M3533 985 c-44 -44 -52 -70 -32 -107 11 -20 11 -20 37 5 43 39 71 51 88 36 10 -8 12 -15 4 -23 -26 -26 0 -76 39 -76 17 0 41 31 41 54 0 25 -67 96 -91 96 -8 0 -30 -11 -49 -25 -19 -14 -37 -25 -42 -25 -17 0 6 30 43 55 39 25 47 48 18 52 -8 1 -33 -18 -56 -42z m147 -121 c0 -8 -7 -14 -15 -14 -15 0 -21 21 -9 33 10 9 24 -2 24 -19z"></path><path d="M3386 851 c-41 -27 -57 -59 -44 -87 9 -19 14 -21 29 -11 12 7 17 18 13 30 -6 20 12 47 31 47 7 0 37 -29 65 -65 55 -68 57 -70 79 -56 12 8 7 20 -27 63 -83 107 -94 113 -146 79z"></path><path d="M1007 768 c-54 -72 -54 -72 -33 -89 19 -16 22 -15 55 12 32 26 36 27 52 13 35 -31 88 16 59 51 -15 18 -52 19 -68 3 -24 -24 -21 -1 3 25 25 26 43 27 73 4 36 -28 33 -44 -19 -112 -47 -61 -50 -68 -35 -83 8 -9 17 -14 19 -11 46 56 107 146 107 158 -1 39 -78 101 -126 101 -28 0 -39 -9 -87 -72z m49 20 c-22 -31 -20 -48 7 -49 13 0 16 -2 7 -6 -8 -2 -22 -7 -30 -10 -8 -4 -19 -7 -23 -7 -4 -1 -12 -8 -17 -16 -14 -22 -12 -6 3 21 16 32 57 89 63 89 3 0 -2 -10 -10 -22z m59 -68 c-5 -8 -11 -8 -17 -2 -6 6 -7 16 -3 22 5 8 11 8 17 2 6 -6 7 -16 3 -22z m70 -12 c-10 -13 -14 -16 -11 -8 3 8 9 24 13 35 4 11 8 14 11 7 2 -6 -4 -22 -13 -34z"></path><path d="M3225 737 c-49 -28 -71 -67 -55 -98 7 -12 18 -18 26 -15 9 4 14 -1 14 -15 0 -26 49 -99 67 -99 27 0 24 29 -7 71 -20 29 -29 51 -26 65 7 27 -3 37 -21 22 -7 -6 -17 -8 -21 -4 -8 9 44 56 62 56 7 0 34 -31 60 -70 48 -73 52 -76 76 -60 12 7 7 19 -25 67 -76 113 -84 117 -150 80z"></path><path d="M1250 681 c-14 -27 -13 -34 5 -27 8 3 -1 -10 -20 -29 -44 -44 -54 -79 -30 -105 23 -25 47 -25 68 -2 21 23 21 31 1 53 -19 21 -12 37 24 50 26 10 26 11 8 25 -11 7 -17 17 -13 20 9 9 64 -15 70 -30 3 -7 -14 -46 -38 -88 -41 -72 -41 -75 -23 -87 16 -10 23 -9 39 5 18 16 19 16 19 -7 0 -29 17 -49 40 -49 24 0 54 36 46 56 -4 9 0 24 7 33 14 17 57 89 57 96 0 2 -9 9 -20 15 -17 9 -22 5 -45 -39 -27 -55 -28 -55 -68 -65 l-29 -7 32 56 c39 68 35 93 -19 123 -49 28 -97 29 -111 3z m137 -63 c-3 -8 -6 -5 -6 6 -1 11 2 17 5 13 3 -3 4 -12 1 -19z m-24 -53 c-3 -9 -8 -14 -10 -11 -3 3 -2 9 2 15 9 16 15 13 8 -4z m-103 -20 c0 -8 -6 -15 -14 -15 -17 0 -28 14 -19 24 12 12 33 6 33 -9z m80 -25 c-6 -11 -13 -20 -16 -20 -2 0 0 9 6 20 6 11 13 20 16 20 2 0 0 -9 -6 -20z m-10 -40 c0 -5 -2 -10 -4 -10 -3 0 -8 5 -11 10 -3 6 -1 10 4 10 6 0 11 -4 11 -10z m83 -31 c-17 -17 -37 -1 -22 17 8 10 15 12 23 4 7 -7 7 -13 -1 -21z"></path><path d="M3095 651 c-6 -5 -27 -14 -48 -21 -45 -14 -72 -50 -63 -84 l6 -24 52 20 c46 17 53 18 66 4 14 -14 14 -17 -2 -35 -36 -40 6 -97 52 -72 30 16 34 39 14 84 -31 70 -43 74 -132 51 -41 -11 -7 17 43 36 23 9 42 22 42 29 0 18 -17 24 -30 12z m54 -125 c-3 -3 -11 5 -18 17 -13 21 -12 21 5 5 10 -10 16 -20 13 -22z m1 -52 c0 -8 -7 -14 -15 -14 -15 0 -21 21 -9 33 10 9 24 -2 24 -19z"></path><path d="M1525 546 c-21 -32 -7 -60 36 -75 53 -18 85 -14 109 16 19 25 20 27 4 36 -14 8 -21 5 -32 -11 -8 -12 -23 -22 -34 -22 -16 0 -17 3 -8 20 8 15 6 24 -10 40 -27 27 -46 25 -65 -4z m50 -16 c3 -6 -1 -13 -10 -16 -19 -8 -30 0 -20 15 8 14 22 14 30 1z"></path><path d="M2842 543 c-48 -24 -58 -88 -11 -76 12 3 18 11 15 19 -6 16 38 49 52 40 5 -3 22 -42 38 -86 28 -81 31 -85 57 -74 13 4 10 18 -15 87 -16 45 -34 87 -40 94 -14 18 -56 16 -96 -4z"></path><path d="M1733 488 c-20 -27 -23 -48 -6 -48 15 0 15 -1 1 -12 -13 -11 -38 -87 -38 -117 0 -6 9 -11 20 -11 14 0 22 11 29 38 6 20 11 43 11 49 0 7 9 18 20 25 24 15 26 38 4 38 -8 0 -12 5 -9 10 9 14 48 12 70 -4 18 -13 18 -16 -3 -96 -12 -46 -21 -84 -20 -86 2 -1 11 -4 22 -6 16 -2 22 10 42 82 13 47 20 93 17 103 -10 38 -137 65 -160 35z m134 -100 c-3 -8 -6 -5 -6 6 -1 11 2 17 5 13 3 -3 4 -12 1 -19z m-140 -30 c-3 -8 -6 -5 -6 6 -1 11 2 17 5 13 3 -3 4 -12 1 -19z"></path><path d="M2650 484 c-41 -18 -50 -30 -50 -68 0 -21 4 -27 16 -22 9 4 13 2 8 -5 -8 -13 16 -129 27 -129 34 0 37 10 21 73 -11 45 -12 62 -4 65 22 7 14 35 -8 29 -12 -3 -20 0 -20 8 0 15 54 37 73 29 8 -3 22 -41 33 -86 19 -82 28 -95 52 -79 11 6 9 24 -8 92 -12 46 -28 90 -37 97 -22 16 -60 15 -103 -4z"></path><path d="M2501 461 c-13 -8 -12 -34 6 -126 5 -29 5 -30 -14 -12 -11 9 -27 17 -36 17 -12 0 -19 12 -23 41 -11 67 -52 90 -89 49 -15 -17 -16 -24 -7 -45 7 -14 20 -25 31 -25 30 0 33 -16 6 -28 -19 -9 -25 -19 -25 -45 0 -40 15 -57 51 -57 34 0 53 23 45 55 -9 35 10 32 48 -8 18 -19 38 -31 49 -29 20 4 20 6 7 92 -22 143 -20 139 -49 121z m-107 -50 c3 -5 -1 -14 -8 -20 -16 -13 -32 2 -21 19 8 12 22 13 29 1z m123 -13 c-3 -8 -6 -5 -6 6 -1 11 2 17 5 13 3 -3 4 -12 1 -19z m15 -106 c-7 -38 -19 -6 -13 35 4 34 5 35 11 13 3 -14 4 -36 2 -48z m-104 22 c0 -18 -3 -22 -9 -13 -11 18 -11 52 0 45 5 -3 9 -17 9 -32z m-24 -30 c9 -22 8 -24 -9 -24 -8 0 -15 9 -15 20 0 24 15 27 24 4z"></path><path d="M1492 448 c-35 -35 2 -83 71 -95 29 -4 40 -1 61 20 31 31 33 43 7 50 -13 3 -22 -3 -30 -19 -6 -14 -19 -24 -31 -24 -17 0 -19 3 -10 19 13 25 13 27 -6 45 -18 19 -45 21 -62 4z m41 -39 c-17 -17 -37 -1 -22 17 8 10 15 12 23 4 7 -7 7 -13 -1 -21z"></path><path d="M1955 435 c-34 -33 -31 -42 12 -50 21 -4 46 -11 55 -16 26 -14 22 -46 -6 -53 -52 -13 -40 -86 14 -86 34 0 44 15 54 79 8 53 -8 76 -68 92 -31 9 -37 13 -24 20 10 6 31 3 58 -6 54 -19 60 -19 60 3 0 13 -14 21 -53 30 -71 16 -74 16 -102 -13z m88 -160 c1 -5 -6 -11 -15 -13 -11 -2 -18 3 -18 13 0 17 30 18 33 0z"></path><path d="M2173 440 c-21 -9 -43 -39 -43 -59 0 -6 15 -11 33 -11 41 0 81 -20 85 -43 2 -12 -3 -17 -17 -17 -13 0 -26 -10 -33 -25 -9 -21 -8 -28 7 -45 42 -46 85 -14 85 65 0 62 -21 85 -77 85 -18 0 -33 4 -33 9 0 15 22 18 60 10 56 -13 72 -11 68 9 -2 9 -12 18 -23 18 -11 1 -36 4 -55 7 -19 4 -45 2 -57 -3z m80 -175 c1 -5 -6 -11 -15 -13 -11 -2 -18 3 -18 13 0 17 30 18 33 0z"></path></g></svg>