<svg xmlns="http://www.w3.org/2000/svg" width="300.000000pt" height="146.000000pt" viewBox="0 0 300.000000 146.000000" preserveAspectRatio="xMidYMid meet"><g transform="translate(0.000000,146.000000) scale(0.050000,-0.050000)" fill="#ffffff" stroke="none"><path d="M2854 2699 c-418 -104 -656 -463 -628 -949 41 -717 703 -1052 1424 -720 232 107 240 121 240 453 l0 280 -56 49 c-54 46 -68 48 -353 48 -340 0 -388 -17 -388 -140 0 -100 44 -120 267 -120 231 0 212 16 200 -162 l-10 -146 -120 -50 c-450 -187 -818 38 -845 518 -37 648 559 952 916 468 176 -238 423 -105 302 162 -115 252 -575 402 -949 309z"></path><path d="M4652 2678 c-72 -56 -71 -55 -378 -838 -327 -835 -328 -841 -192 -911 139 -72 204 -6 327 336 l34 95 356 0 356 0 66 -175 c81 -215 152 -295 245 -277 97 18 161 102 147 190 -25 154 -590 1509 -653 1567 -78 71 -226 77 -308 13z m228 -558 c37 -104 92 -255 123 -336 31 -80 57 -149 57 -155 0 -5 -118 -9 -262 -9 -241 0 -262 3 -252 35 71 228 243 683 254 671 8 -9 44 -101 80 -206z m357 -551 c32 -71 29 -110 -7 -96 -16 6 -25 18 -20 27 5 9 -5 21 -22 28 -25 9 -27 19 -10 39 12 15 16 33 8 40 -7 7 -4 13 7 13 12 0 31 -23 44 -51z m-823 -40 c3 -11 -12 -31 -34 -44 -35 -22 -40 -20 -40 11 0 61 56 85 74 33z"></path><path d="M505 2670 c-104 -45 -107 -70 -101 -885 l6 -748 56 -49 c64 -55 792 -73 1018 -26 418 88 606 354 606 859 l0 291 -76 153 c-120 243 -304 374 -585 414 -217 32 -845 25 -924 -9z m881 -290 c384 -113 434 -892 70 -1101 -78 -45 -112 -50 -371 -56 l-285 -7 0 605 0 605 255 -12 c140 -6 289 -22 331 -34z m-776 -280 c-7 -11 -5 -20 4 -20 9 0 17 -36 16 -80 0 -101 -38 -105 -45 -5 -4 78 5 125 26 125 6 0 6 -9 -1 -20z m26 -573 c-7 -111 -44 -138 -50 -37 -2 47 4 66 19 57 14 -9 17 -2 10 18 -11 28 -1 55 19 55 4 0 5 -42 2 -93z m29 -350 c33 -53 33 -53 -20 -39 -29 8 -56 26 -61 41 -6 16 0 21 13 13 14 -9 23 0 23 20 0 19 3 31 6 26 3 -4 21 -32 39 -61z"></path><path d="M272 702 c-64 -71 -51 -458 18 -517 l53 -45 2680 5 2681 5 38 47 c58 72 56 445 -2 503 -61 61 -5413 63 -5468 2z m948 -242 c0 -67 -9 -120 -20 -120 -11 0 -20 53 -20 120 0 67 9 120 20 120 11 0 20 -53 20 -120z m-641 61 c48 -89 -4 -181 -102 -181 -56 0 -57 2 -57 110 l0 110 69 0 c48 0 76 -12 90 -39z m901 19 c0 -11 -26 -20 -59 -20 -41 0 -62 -12 -71 -41 -15 -45 19 -99 62 -99 34 0 36 24 4 56 -19 19 -14 24 20 24 36 0 44 -12 44 -60 0 -52 -7 -60 -53 -60 -107 0 -166 118 -96 189 35 34 149 43 149 11z m1649 -11 c72 -73 16 -189 -90 -189 -58 0 -59 2 -59 110 0 120 70 157 149 79z m531 -33 c0 -57 3 -60 26 -28 31 43 91 36 122 -13 47 -75 -70 -155 -122 -83 -25 34 -26 34 -26 0 0 -19 -10 -32 -22 -28 -35 12 -42 216 -7 216 19 0 29 -22 29 -64z m1186 -40 c35 -109 28 -150 -15 -91 -32 44 -64 45 -89 0 -36 -65 -41 -13 -8 91 42 131 70 131 112 0z m-3853 54 c16 -16 20 -30 8 -30 -11 0 -21 -22 -21 -50 0 -55 29 -67 47 -20 7 17 26 30 42 30 17 0 31 10 31 22 0 12 -13 17 -30 11 -16 -7 -30 -4 -30 5 0 82 91 27 106 -63 l12 -76 -104 6 c-102 5 -104 6 -115 75 -18 112 1 143 54 90z m1890 -3 c21 -26 21 -35 2 -42 -30 -10 -34 -85 -5 -85 11 0 20 -10 20 -21 0 -57 -71 -3 -81 61 -18 115 9 152 64 87z m1733 0 c25 -25 27 -36 9 -42 -30 -10 -34 -85 -5 -85 11 0 20 -10 20 -21 0 -54 -70 -3 -82 59 -23 110 1 146 58 89z m-3788 -100 c-4 -49 -12 -98 -19 -108 -15 -25 -109 -24 -109 1 0 11 20 20 45 20 44 1 44 1 -5 26 -96 48 -58 180 46 160 44 -9 48 -18 42 -99z m838 89 c20 1 44 -18 54 -42 l18 -44 13 45 c8 25 25 45 40 45 20 0 19 -17 -6 -80 -38 -97 -60 -101 -90 -15 -22 63 -23 63 -34 17 -25 -101 -142 -106 -157 -7 -8 52 51 112 94 93 17 -7 48 -13 68 -12z m263 -7 c45 -46 38 -69 -19 -69 -27 0 -50 -9 -50 -20 0 -11 18 -20 40 -20 22 0 40 -10 40 -21 0 -12 -25 -19 -55 -15 -69 8 -91 108 -33 150 44 32 39 32 77 -5z m114 -25 c-13 -4 -23 -34 -23 -66 0 -32 -9 -58 -20 -58 -38 0 -24 156 15 164 39 8 64 -28 28 -40z m177 -55 c0 -87 -35 -91 -44 -4 -3 36 -15 65 -26 65 -11 0 -23 -29 -26 -65 -9 -92 -44 -81 -44 14 0 58 9 80 35 86 65 15 105 -22 105 -96z m248 45 c20 -74 13 -114 -18 -114 -21 0 -30 21 -30 71 0 43 -8 66 -20 59 -11 -7 -20 -39 -20 -71 0 -80 -36 -75 -44 6 -3 36 -15 65 -26 65 -11 0 -23 -29 -26 -65 -9 -92 -44 -81 -44 14 0 78 0 79 85 85 111 8 129 2 143 -50z m141 35 c45 -46 38 -69 -19 -69 -27 0 -50 -9 -50 -20 0 -11 18 -20 40 -20 22 0 40 -10 40 -21 0 -12 -25 -19 -55 -15 -69 8 -91 108 -33 150 44 32 39 32 77 -5z m160 0 c34 -35 43 -149 11 -149 -11 0 -20 17 -20 38 0 57 -22 103 -42 91 -10 -6 -18 -38 -18 -70 0 -33 -9 -59 -20 -59 -38 0 -23 156 15 166 19 5 37 10 39 12 2 1 17 -12 35 -29z m-2109 -69 c0 -44 -9 -80 -20 -80 -11 0 -20 36 -20 80 0 44 9 80 20 80 11 0 20 -36 20 -80z m240 0 c0 -44 -9 -80 -20 -80 -11 0 -20 36 -20 80 0 44 9 80 20 80 11 0 20 -36 20 -80z m2396 25 c5 -35 -4 -46 -40 -48 l-46 -2 45 -9 c65 -13 56 -50 -10 -42 -57 6 -82 63 -57 129 18 47 101 25 108 -28z m73 10 l13 -45 18 45 c32 77 60 51 32 -29 -37 -109 -112 -71 -112 57 0 36 36 15 49 -28z m211 5 c16 -31 15 -43 -4 -49 -79 -24 -84 -28 -41 -29 25 -1 45 -12 45 -23 0 -46 -110 -10 -117 37 -14 102 72 148 117 64z m390 -40 c0 -57 -8 -71 -45 -76 -25 -4 -45 -20 -45 -35 0 -16 -9 -29 -20 -29 -11 0 -20 50 -20 111 l0 112 65 -7 c60 -5 65 -12 65 -76z m246 -5 c4 -43 -3 -75 -15 -75 -11 0 -21 27 -21 60 0 33 -9 60 -20 60 -11 0 -20 -27 -20 -60 0 -33 -9 -60 -20 -60 -11 0 -20 27 -20 60 0 40 -10 60 -30 60 -20 0 -30 -20 -30 -60 0 -33 -9 -60 -20 -60 -11 0 -20 36 -20 80 l0 81 105 -6 105 -5 6 -75z m147 65 c9 -58 3 -69 -43 -82 -47 -13 -48 -14 -5 -16 54 -2 61 -42 7 -42 -54 0 -89 51 -74 110 13 50 108 76 115 30z m147 -5 c21 -57 18 -121 -5 -129 -17 -6 -25 12 -25 52 0 34 -9 62 -20 62 -11 0 -20 -27 -20 -60 0 -33 -9 -60 -20 -60 -11 0 -20 36 -20 80 0 81 85 124 110 55z m510 -61 c0 -92 -26 -134 -84 -134 -53 0 -44 40 9 41 l45 2 -43 17 c-96 39 -86 160 13 160 57 0 60 -4 60 -86z m143 66 c9 -58 3 -69 -43 -82 -47 -13 -48 -14 -5 -16 53 -2 62 -42 9 -42 -45 0 -84 38 -84 80 0 62 114 117 123 60z m166 -15 c13 -33 15 -33 33 0 31 55 151 47 170 -10 l14 -45 20 45 c20 44 54 62 54 27 0 -73 -105 -224 -135 -194 -8 8 -2 22 13 31 47 29 8 141 -50 141 -35 0 -48 -11 -48 -40 0 -27 13 -40 40 -40 22 0 40 -9 40 -20 0 -34 -97 -22 -118 15 -20 33 -21 33 -21 -2 -1 -54 -51 -28 -51 27 -1 26 -12 51 -25 55 -16 5 -25 -13 -25 -53 0 -34 -9 -62 -20 -62 -11 0 -20 36 -20 80 0 89 99 124 129 45z"></path><path d="M460 449 c0 -56 7 -70 33 -65 80 15 87 136 8 136 -34 0 -41 -13 -41 -71z"></path><path d="M3020 450 c0 -64 5 -72 45 -66 35 5 45 19 45 66 0 47 -10 61 -45 66 -40 6 -45 -2 -45 -66z"></path><path d="M3710 440 c-17 -27 6 -60 41 -60 16 0 29 18 29 40 0 41 -48 55 -70 20z"></path><path d="M728 451 c-7 -16 -6 -39 1 -50 24 -38 51 -22 51 29 0 54 -34 68 -52 21z"></path><path d="M1547 449 c-17 -44 25 -85 56 -54 25 25 9 85 -23 85 -12 0 -27 -14 -33 -31z"></path><path d="M3880 420 c0 -22 13 -40 30 -40 17 0 30 18 30 40 0 22 -13 40 -30 40 -17 0 -30 -18 -30 -40z"></path><path d="M4920 420 c0 -22 13 -40 30 -40 17 0 30 18 30 40 0 22 -13 40 -30 40 -17 0 -30 -18 -30 -40z"></path></g></svg>